<?xml version="1.0" encoding="UTF-8"?>
<svg xmlns="http://www.w3.org/2000/svg" xmlns:xlink="http://www.w3.org/1999/xlink" width="61px" height="51px" viewBox="0 0 61 51" version="1.1">
<g id="surface1">
<path style=" stroke:none;fill-rule:nonzero;fill:rgb(98.039216%,97.254902%,96.862745%);fill-opacity:1;" d="M 60.910156 25.332031 L 55.171875 4.011719 C 54.992188 3.261719 54.355469 2.84375 53.808594 3.011719 L 47.796875 4.597656 L 37.328125 0.5 C 35.78125 -0.0820312 34.140625 -0.417969 32.320312 1.003906 L 30.410156 2.425781 L 28.496094 1.003906 C 26.585938 -0.417969 24.945312 -0.0820312 23.488281 0.5 L 13.109375 4.597656 L 7.648438 2.757812 C 7.011719 2.507812 6.464844 2.925781 6.191406 3.679688 L 0.0898438 25 C -0.0898438 25.75 0.0898438 26.503906 0.636719 26.921875 L 5.734375 30.765625 C 5.371094 31.855469 5.28125 33.109375 5.554688 34.277344 C 5.828125 35.699219 6.554688 36.871094 7.464844 37.539062 C 8.195312 38.125 9.105469 38.292969 9.832031 38.207031 C 9.832031 40.046875 10.652344 41.804688 11.925781 42.722656 C 13.109375 43.644531 14.566406 43.644531 15.660156 42.972656 C 16.023438 44.0625 16.570312 44.980469 17.390625 45.566406 C 18.300781 46.316406 19.484375 46.484375 20.484375 46.066406 C 20.757812 45.984375 21.121094 45.816406 21.394531 45.648438 C 21.757812 46.652344 22.304688 47.488281 23.035156 48.074219 C 23.671875 48.574219 24.398438 48.828125 25.128906 48.828125 C 26.128906 48.828125 27.132812 48.324219 27.859375 47.488281 L 31.5 50.246094 C 32.140625 50.75 32.867188 51 33.59375 51 C 35.050781 51 36.417969 49.996094 37.144531 48.324219 C 37.511719 47.570312 37.601562 46.820312 37.691406 46.066406 C 38.511719 46.570312 39.511719 46.652344 40.425781 46.316406 C 41.515625 45.898438 42.335938 45.0625 42.972656 43.808594 C 43.335938 42.972656 43.519531 42.054688 43.519531 41.050781 C 45.066406 41.300781 46.707031 40.296875 47.617188 38.375 C 47.980469 37.621094 48.070312 36.871094 48.164062 36.035156 C 49.984375 36.871094 52.078125 35.949219 53.078125 33.609375 C 53.535156 32.605469 53.714844 31.519531 53.625 30.433594 L 60.179688 27.253906 C 60.816406 27.003906 61.089844 26.167969 60.910156 25.332031 Z M 8.648438 34.863281 C 8.285156 34.53125 7.921875 34.027344 7.828125 33.441406 C 7.738281 32.855469 7.738281 32.273438 8.011719 31.769531 L 9.652344 28.007812 C 9.832031 27.507812 10.289062 27.089844 10.742188 26.921875 C 11.199219 26.753906 11.652344 26.835938 12.109375 27.171875 C 12.929688 27.839844 13.203125 29.179688 12.746094 30.265625 L 11.109375 34.027344 C 10.5625 35.113281 9.46875 35.53125 8.648438 34.863281 Z M 15.476562 39.296875 C 15.023438 40.382812 13.929688 40.800781 13.109375 40.132812 C 12.292969 39.460938 12.019531 38.125 12.472656 37.039062 L 13.109375 35.617188 L 14.75 31.855469 L 16.207031 28.511719 C 16.386719 28.007812 16.84375 27.589844 17.296875 27.421875 C 17.753906 27.253906 18.207031 27.339844 18.664062 27.671875 C 19.027344 28.007812 19.390625 28.511719 19.484375 29.09375 C 19.574219 29.679688 19.574219 30.265625 19.300781 30.851562 L 18.753906 31.769531 L 15.839844 38.292969 Z M 21.03125 42.136719 C 20.847656 42.640625 20.394531 43.058594 19.9375 43.222656 C 19.484375 43.390625 19.027344 43.308594 18.574219 42.972656 C 17.753906 42.304688 17.480469 40.96875 17.9375 39.878906 L 20.847656 33.359375 C 21.304688 32.273438 22.398438 31.855469 23.214844 32.523438 C 23.582031 32.855469 23.945312 33.359375 24.035156 33.945312 C 24.125 34.53125 24.125 35.113281 23.855469 35.699219 L 23.214844 37.039062 L 21.578125 40.800781 Z M 24.308594 45.480469 C 23.945312 45.148438 23.582031 44.644531 23.488281 44.0625 C 23.398438 43.476562 23.398438 42.890625 23.671875 42.304688 L 25.308594 38.542969 C 25.765625 37.457031 26.859375 37.039062 27.675781 37.707031 C 28.496094 38.375 28.769531 39.714844 28.316406 40.800781 L 26.675781 44.5625 C 26.222656 45.734375 25.128906 46.066406 24.308594 45.480469 Z M 35.144531 46.734375 C 34.6875 47.824219 33.59375 48.242188 32.777344 47.570312 L 29.316406 44.980469 L 30.5 42.386719 C 30.683594 41.886719 30.863281 41.386719 30.957031 40.882812 L 34.507812 43.558594 C 35.324219 44.226562 35.597656 45.648438 35.144531 46.734375 Z M 52.714844 27.671875 C 52.441406 27.171875 51.988281 26.671875 51.53125 26.335938 C 51.074219 26 49.527344 24.746094 46.707031 22.488281 C 46.160156 22.070312 45.429688 22.238281 45.066406 22.992188 C 44.703125 23.746094 44.886719 24.664062 45.429688 25.164062 C 48.253906 27.421875 49.890625 28.675781 50.347656 29.011719 C 51.167969 29.679688 51.441406 31.019531 50.984375 32.105469 C 50.53125 33.191406 49.4375 33.609375 48.617188 32.941406 L 46.070312 31.019531 L 36.601562 23.828125 C 36.054688 23.410156 35.324219 23.660156 34.960938 24.414062 C 34.597656 25.164062 34.871094 26.085938 35.417969 26.503906 L 44.886719 33.695312 C 45.703125 34.363281 45.976562 35.699219 45.523438 36.785156 C 45.066406 37.875 43.976562 38.292969 43.15625 37.621094 L 41.515625 36.367188 L 33.230469 30.097656 C 32.683594 29.679688 31.957031 29.929688 31.59375 30.683594 C 31.226562 31.4375 31.5 32.355469 32.046875 32.773438 L 40.332031 39.042969 C 41.152344 39.714844 41.425781 41.050781 40.96875 42.136719 C 40.789062 42.640625 40.332031 43.058594 39.878906 43.222656 C 39.421875 43.390625 38.96875 43.308594 38.511719 42.972656 L 35.691406 40.96875 L 30.410156 37.039062 C 30.042969 36.285156 29.589844 35.617188 28.953125 35.113281 C 28.222656 34.53125 27.3125 34.277344 26.492188 34.445312 C 26.492188 34.027344 26.402344 33.609375 26.3125 33.191406 C 26.039062 31.769531 25.308594 30.601562 24.398438 29.929688 C 23.582031 29.347656 22.671875 29.09375 21.757812 29.261719 C 21.757812 28.929688 21.667969 28.675781 21.667969 28.34375 C 21.394531 26.921875 20.667969 25.75 19.757812 25.082031 C 18.027344 23.746094 15.839844 24.328125 14.566406 26.253906 C 14.203125 25.582031 13.746094 25 13.203125 24.582031 C 12.292969 23.828125 11.109375 23.660156 10.105469 24.078125 C 9.011719 24.496094 8.195312 25.332031 7.558594 26.585938 L 6.828125 28.175781 L 2.640625 25 L 8.101562 6.1875 L 12.835938 7.777344 C 13.019531 7.859375 13.292969 7.859375 13.476562 7.777344 L 24.21875 3.59375 C 25.492188 3.09375 26.3125 3.011719 27.40625 3.761719 L 28.042969 4.179688 L 23.855469 7.355469 C 21.851562 8.863281 21.214844 12.207031 22.304688 14.796875 C 23.398438 17.304688 25.855469 18.226562 27.949219 16.804688 C 29.042969 16.050781 30.683594 15.132812 31.957031 14.464844 C 32.867188 15.132812 34.871094 16.804688 36.328125 17.890625 C 36.875 18.308594 37.601562 18.144531 37.964844 17.390625 C 38.328125 16.636719 38.148438 15.71875 37.601562 15.214844 C 36.234375 14.128906 34.960938 13.125 34.140625 12.457031 C 33.6875 12.121094 33.324219 11.871094 33.140625 11.621094 C 32.59375 11.203125 32.503906 11.121094 32.140625 11.121094 C 32.046875 11.121094 31.867188 11.121094 31.773438 11.203125 C 30.410156 11.871094 28.316406 13.042969 27.039062 13.878906 C 26.128906 14.464844 25.039062 14.128906 24.582031 13.042969 C 24.125 11.957031 24.398438 10.535156 25.21875 9.867188 L 33.6875 3.511719 C 34.777344 2.757812 35.597656 2.84375 36.875 3.34375 L 47.617188 7.523438 C 47.796875 7.609375 47.980469 7.609375 48.164062 7.523438 L 53.441406 6.1875 L 58.269531 24.914062 Z M 52.714844 27.671875 "/>
<path style=" stroke:none;fill-rule:nonzero;fill:rgb(98.039216%,97.254902%,96.862745%);fill-opacity:1;" d="M 41.515625 18.644531 C 40.878906 18.644531 40.332031 19.3125 40.332031 20.234375 C 40.332031 21.070312 40.878906 21.820312 41.515625 21.820312 C 42.152344 21.820312 42.699219 21.152344 42.699219 20.234375 C 42.699219 19.398438 42.152344 18.644531 41.515625 18.644531 Z M 41.515625 18.644531 "/>
</g>
</svg>
