<?xml version="1.0" encoding="utf-8"?>
<!-- Generator: Adobe Illustrator 24.0.2, SVG Export Plug-In . SVG Version: 6.00 Build 0)  -->
<svg version="1.1" id="Capa_1" xmlns="http://www.w3.org/2000/svg" xmlns:xlink="http://www.w3.org/1999/xlink" x="0px" y="0px"
	 viewBox="0 0 71 46" style="enable-background:new 0 0 71 46;" xml:space="preserve">
<style type="text/css">
	.st0{fill:#FFFFFF;}
</style>
<g>
	<g>
		<path class="st0" d="M32.2,35c0,0,0.1,0,0.1,0c0.1,0,0.1,0,0.2,0c0.1,0,0.1,0,0.2,0c0.1,0,0.1,0,0.2,0c0.2,0,0.3,0.1,0.4,0.2
			c0.1,0.1,0.2,0.2,0.3,0.3c0.1,0.1,0.1,0.2,0.1,0.4c0,0.1,0,0.3,0,0.4c-0.1,0.2-0.1,0.3-0.2,0.5c-0.1,0.1-0.2,0.2-0.3,0.3
			c-0.1,0.1-0.3,0.1-0.4,0.1s-0.3,0-0.4-0.1c-0.1,0-0.2-0.1-0.3-0.2c-0.1-0.1-0.2-0.1-0.2-0.2l0.2-0.3c0,0,0.1,0.1,0.1,0.1
			c0,0,0.1,0.1,0.2,0.1c0.1,0,0.1,0.1,0.1,0.1c0.1,0,0.2,0,0.3,0c0.1,0,0.2,0,0.3-0.1c0.1,0,0.1-0.1,0.2-0.2
			c0.1-0.1,0.1-0.2,0.1-0.3c0-0.1,0-0.2,0-0.3c0-0.1,0-0.2-0.1-0.2c0-0.1-0.1-0.1-0.2-0.2c-0.1-0.1-0.2-0.1-0.3-0.1
			c-0.1,0-0.1,0-0.2,0c-0.1,0-0.1,0-0.1,0l-0.1,0.2l0.3,0.1l-0.1,0.4l-0.8-0.2L32.2,35z"/>
		<path class="st0" d="M31,36.5l-0.4-0.2l0.9-1.9l0.4,0.2L31,36.5z"/>
		<path class="st0" d="M31.1,34.3l-1.3,1.8l0,0l0-2l0.1,0.1L28,34.8l0,0l1.3-1.8l0.3,0.2l-0.7,1l0.1-0.2l1.2-0.4l0,0l0,1.3L30,35.1
			l0.7-1L31.1,34.3z"/>
		<path class="st0" d="M28.8,33c-0.1,0-0.1,0-0.1-0.1c0,0-0.1-0.1-0.1-0.1c0-0.1,0-0.1,0.1-0.2c0,0,0.1-0.1,0.2-0.1
			c0.1,0,0.1,0,0.1,0.1c0,0,0.1,0.1,0.1,0.1c0,0.1,0,0.1-0.1,0.2C28.9,33,28.9,33,28.8,33z"/>
		<path class="st0" d="M28,31.7L26.2,33l0,0l0.7-1.9l0.1,0.2l-2-0.1l0,0l1.8-1.2l0.2,0.3L26,31l0.2-0.1l1.2,0l0,0L27,32l-0.2,0
			l1-0.7L28,31.7z"/>
		<path class="st0" d="M25.7,30c-0.1,0-0.3,0.1-0.4,0.1c-0.1,0-0.3,0-0.4-0.1c-0.1-0.1-0.2-0.1-0.3-0.2c-0.1-0.1-0.2-0.2-0.2-0.4
			c-0.1-0.1-0.1-0.3-0.1-0.4c0-0.1,0-0.3,0.1-0.4c0.1-0.1,0.1-0.2,0.2-0.3c0.1-0.1,0.2-0.2,0.4-0.2c0.1-0.1,0.3-0.1,0.4-0.1
			c0.1,0,0.3,0,0.4,0.1c0.1,0.1,0.2,0.1,0.3,0.2c0.1,0.1,0.2,0.2,0.2,0.4c0.1,0.1,0.1,0.3,0.1,0.4c0,0.1,0,0.3-0.1,0.4
			c-0.1,0.1-0.1,0.2-0.2,0.3C25.9,29.9,25.8,30,25.7,30z M25.5,29.6c0.1,0,0.2-0.1,0.2-0.1c0.1-0.1,0.1-0.1,0.2-0.2
			c0-0.1,0.1-0.2,0.1-0.2c0-0.1,0-0.2,0-0.3c0-0.1-0.1-0.2-0.1-0.2c-0.1-0.1-0.1-0.1-0.2-0.1c-0.1,0-0.2-0.1-0.2-0.1
			c-0.1,0-0.2,0-0.3,0c-0.1,0-0.2,0.1-0.2,0.1c-0.1,0.1-0.1,0.1-0.2,0.2c0,0.1-0.1,0.2-0.1,0.2c0,0.1,0,0.2,0,0.3
			c0,0.1,0.1,0.2,0.1,0.2c0.1,0.1,0.1,0.1,0.2,0.1c0.1,0,0.2,0.1,0.3,0.1C25.4,29.6,25.4,29.6,25.5,29.6z"/>
		<path class="st0" d="M25.9,27.3l-2.1,0.3L23.7,27c0-0.2,0-0.4,0-0.6c0-0.2,0.1-0.3,0.2-0.4c0.1-0.1,0.2-0.2,0.3-0.2
			c0.1-0.1,0.3-0.1,0.4-0.1c0.2,0,0.3,0,0.4,0c0.1,0,0.2,0.1,0.3,0.2c0.1,0.1,0.2,0.2,0.2,0.3c0.1,0.1,0.1,0.3,0.1,0.4L25.9,27.3z
			 M25.4,26.9l0-0.2c0-0.1,0-0.2-0.1-0.3c0-0.1-0.1-0.1-0.2-0.2c-0.1-0.1-0.1-0.1-0.2-0.1c-0.1,0-0.2,0-0.3,0
			c-0.1,0-0.2,0.1-0.3,0.1c-0.1,0.1-0.1,0.1-0.2,0.2c0,0.1-0.1,0.1-0.1,0.2c0,0.1,0,0.1,0,0.2l0,0.3L25.4,26.9z"/>
		<path class="st0" d="M23.6,25.1l0.1-1.4l0.4,0l-0.1,1l0.4,0l0.1-0.9l0.4,0l-0.1,0.9l0.5,0l0.1-1.1l0.4,0l-0.1,1.5L23.6,25.1z"/>
		<path class="st0" d="M23.9,22.3c0-0.1,0.1-0.2,0.1-0.3c0.1-0.1,0.1-0.2,0.2-0.2c0.1-0.1,0.2-0.1,0.3-0.1c0.1,0,0.2,0,0.3,0
			c0.1,0,0.2,0.1,0.2,0.1c0.1,0,0.1,0.1,0.2,0.2c0.1,0.1,0.1,0.2,0.1,0.3c0,0.1,0,0.2,0,0.4l-0.1,0.3l0.7,0.2l-0.1,0.4l-2.1-0.5
			L23.9,22.3z M24.9,22.4c0-0.1,0-0.1,0-0.2c0,0,0-0.1-0.1-0.1c0,0-0.1-0.1-0.1-0.1c0,0-0.1,0-0.1,0c0,0-0.1,0-0.1,0
			c0,0-0.1,0-0.1,0c0,0-0.1,0-0.1,0.1c0,0-0.1,0.1-0.1,0.2l-0.1,0.3l0.6,0.1L24.9,22.4z M25.3,22.1l0.9-0.3l-0.1,0.5l-0.9,0.3
			L25.3,22.1z"/>
		<path class="st0" d="M27.1,19.9l-2,0.8l0.1-0.1l1.2,0.5l-0.2,0.4l-2-0.9l0,0l2-0.8l-0.1,0.1L25,19.3l0.2-0.4L27.1,19.9L27.1,19.9z
			"/>
		<path class="st0" d="M26.4,18.9c-0.1-0.1-0.2-0.2-0.3-0.3c-0.1-0.1-0.1-0.3-0.1-0.4c0-0.1,0-0.3,0-0.4c0-0.1,0.1-0.3,0.2-0.4
			c0.1-0.1,0.2-0.2,0.3-0.3c0.1-0.1,0.3-0.1,0.4-0.1c0.1,0,0.3,0,0.4,0c0.1,0,0.3,0.1,0.4,0.2c0.1,0.1,0.2,0.2,0.3,0.3
			c0.1,0.1,0.1,0.3,0.1,0.4c0,0.1,0,0.3,0,0.4c0,0.1-0.1,0.3-0.2,0.4c-0.1,0.1-0.2,0.2-0.3,0.3c-0.1,0.1-0.3,0.1-0.4,0.1
			c-0.1,0-0.3,0-0.4,0S26.5,19,26.4,18.9z M26.7,18.6c0.1,0.1,0.2,0.1,0.2,0.1c0.1,0,0.2,0,0.3,0c0.1,0,0.2,0,0.2-0.1
			c0.1,0,0.1-0.1,0.2-0.2c0.1-0.1,0.1-0.1,0.1-0.2c0-0.1,0-0.2,0-0.2c0-0.1,0-0.2-0.1-0.2c0-0.1-0.1-0.1-0.2-0.2
			c-0.1-0.1-0.2-0.1-0.2-0.1c-0.1,0-0.2,0-0.3,0c-0.1,0-0.2,0-0.2,0.1c-0.1,0-0.1,0.1-0.2,0.2c-0.1,0.1-0.1,0.2-0.1,0.2
			c0,0.1,0,0.2,0,0.3c0,0.1,0,0.2,0.1,0.2C26.5,18.4,26.6,18.5,26.7,18.6z"/>
		<path class="st0" d="M30.7,15.9c0,0,0,0.1,0,0.1s-0.1,0.1-0.1,0.2c0,0.1-0.1,0.1-0.1,0.2c-0.1,0.1-0.1,0.1-0.2,0.1
			c-0.1,0.1-0.3,0.2-0.4,0.2c-0.1,0-0.3,0-0.4,0c-0.1,0-0.3-0.1-0.4-0.1c-0.1-0.1-0.2-0.2-0.3-0.3c-0.1-0.2-0.2-0.3-0.2-0.5
			c0-0.2,0-0.3,0-0.4c0-0.1,0.1-0.3,0.2-0.4c0.1-0.1,0.2-0.2,0.3-0.3c0.1-0.1,0.2-0.1,0.3-0.2c0.1,0,0.2-0.1,0.3-0.1l0.1,0.4
			c0,0-0.1,0-0.1,0c-0.1,0-0.1,0-0.2,0.1c-0.1,0-0.1,0-0.1,0.1c-0.1,0.1-0.2,0.1-0.2,0.2C29,15.3,29,15.4,29,15.5c0,0.1,0,0.2,0,0.3
			c0,0.1,0.1,0.2,0.1,0.3c0.1,0.1,0.1,0.1,0.2,0.2c0.1,0,0.2,0.1,0.2,0.1c0.1,0,0.2,0,0.3,0c0.1,0,0.2-0.1,0.3-0.1
			c0,0,0.1-0.1,0.1-0.1c0,0,0.1-0.1,0.1-0.1l-0.1-0.2l-0.3,0.2l-0.2-0.3l0.6-0.5L30.7,15.9z"/>
		<path class="st0" d="M30.3,14l1.3-0.6l0.2,0.4l-0.9,0.4l0.2,0.4l0.8-0.4l0.2,0.4l-0.8,0.4l0.2,0.4l1-0.4l0.2,0.4l-1.4,0.6L30.3,14
			z"/>
		<path class="st0" d="M34.7,14.8l-1.9-1.1l0.1,0l0.3,1.3l-0.4,0.1L32.4,13l0,0l1.8,1.1l-0.1,0l-0.3-1.3l0.4-0.1L34.7,14.8
			L34.7,14.8z"/>
		<path class="st0" d="M35.1,12.6l1.4,0l0,0.4l-1,0l0,0.5l0.9,0l0,0.4l-0.9,0l0,0.5l1.1,0l0,0.4l-1.5,0L35.1,12.6z"/>
		<path class="st0" d="M38,12.7c0.1,0,0.2,0.1,0.3,0.1c0.1,0,0.2,0.1,0.2,0.2c0.1,0.1,0.1,0.2,0.1,0.2c0,0.1,0,0.2,0,0.3
			c0,0.1,0,0.2-0.1,0.2c0,0.1-0.1,0.2-0.2,0.2c-0.1,0.1-0.2,0.1-0.3,0.1c-0.1,0-0.2,0-0.4,0l-0.3,0l-0.1,0.7L37,14.7l0.3-2.1
			L38,12.7z M37.9,13.8c0.1,0,0.1,0,0.2,0c0,0,0.1,0,0.1-0.1c0,0,0.1-0.1,0.1-0.1c0,0,0-0.1,0-0.1c0,0,0-0.1,0-0.1c0,0,0-0.1,0-0.1
			s0-0.1-0.1-0.1c0,0-0.1-0.1-0.2-0.1l-0.3,0l-0.1,0.6L37.9,13.8z M38.2,14.1l0.4,0.9l-0.5-0.1L37.7,14L38.2,14.1z"/>
		<path class="st0" d="M38.6,15l1.6-1.8l0,0l0.2,2.4L40,15.5l-0.1-1.7l0.4-0.1L39,15.1L38.6,15z M39.5,14.5l0.6,0.2l0,0.4l-0.9-0.3
			L39.5,14.5z"/>
		<path class="st0" d="M42.1,16.3c0,0-0.1,0-0.1,0c-0.1,0-0.2,0-0.2,0c-0.1,0-0.2-0.1-0.3-0.1c-0.1-0.1-0.3-0.2-0.3-0.3
			c-0.1-0.1-0.1-0.2-0.2-0.4c0-0.1,0-0.3,0-0.4c0-0.1,0.1-0.3,0.1-0.4c0.1-0.1,0.2-0.3,0.3-0.3s0.2-0.2,0.4-0.2c0.1,0,0.3-0.1,0.4,0
			c0.1,0,0.3,0.1,0.4,0.1c0.1,0.1,0.2,0.1,0.3,0.2c0.1,0.1,0.1,0.2,0.2,0.2L42.6,15c0-0.1-0.1-0.1-0.1-0.2c0-0.1-0.1-0.1-0.2-0.2
			c-0.1,0-0.1-0.1-0.2-0.1c-0.1,0-0.2,0-0.2,0c-0.1,0-0.2,0.1-0.2,0.1c-0.1,0.1-0.1,0.1-0.2,0.2c-0.1,0.1-0.1,0.2-0.1,0.3
			c0,0.1,0,0.2,0,0.3c0,0.1,0.1,0.2,0.1,0.2c0.1,0.1,0.1,0.1,0.2,0.2c0.1,0.1,0.2,0.1,0.3,0.1c0.1,0,0.2,0,0.2,0L42.1,16.3z"/>
		<path class="st0" d="M43.5,15l0.3,0.3L42.6,17l-0.3-0.3L43.5,15z"/>
		<path class="st0" d="M43.6,16.4c0.1-0.1,0.2-0.2,0.4-0.2c0.1,0,0.3-0.1,0.4-0.1c0.1,0,0.3,0,0.4,0.1c0.1,0.1,0.2,0.1,0.4,0.2
			c0.1,0.1,0.2,0.2,0.2,0.4c0,0.1,0.1,0.3,0.1,0.4c0,0.1,0,0.3-0.1,0.4c-0.1,0.1-0.1,0.2-0.2,0.3c-0.1,0.1-0.2,0.2-0.4,0.2
			c-0.1,0-0.3,0.1-0.4,0.1c-0.1,0-0.3,0-0.4-0.1c-0.1-0.1-0.2-0.1-0.3-0.2c-0.1-0.1-0.2-0.2-0.2-0.4c0-0.1-0.1-0.3-0.1-0.4
			c0-0.1,0-0.3,0.1-0.4C43.5,16.6,43.5,16.5,43.6,16.4z M43.9,16.7c-0.1,0.1-0.1,0.1-0.2,0.2c0,0.1-0.1,0.2-0.1,0.3
			c0,0.1,0,0.2,0,0.3c0,0.1,0.1,0.2,0.1,0.2c0.1,0.1,0.1,0.1,0.2,0.1c0.1,0,0.2,0,0.2,0c0.1,0,0.2,0,0.2-0.1c0.1,0,0.2-0.1,0.2-0.1
			c0.1-0.1,0.1-0.1,0.2-0.2c0-0.1,0.1-0.2,0.1-0.2c0-0.1,0-0.2,0-0.2c0-0.1-0.1-0.2-0.1-0.2c-0.1-0.1-0.1-0.1-0.2-0.1
			c-0.1,0-0.2,0-0.2,0c-0.1,0-0.2,0-0.3,0C44.1,16.6,44,16.7,43.9,16.7z M45.9,16.5l-0.6,0l-0.2-0.2l0.4-0.1L45.9,16.5z"/>
		<path class="st0" d="M45.4,20.6l0.4-2.1l0,0.1l-1.1,0.7L44.5,19l1.9-1.1l0,0L46,19.9l0-0.1l1.1-0.7l0.2,0.4L45.4,20.6L45.4,20.6z"
			/>
		<path class="st0" d="M46,21.9l2.1-0.5l0.1,0.6c0,0.2,0.1,0.4,0,0.5c0,0.2-0.1,0.3-0.2,0.4c-0.1,0.1-0.2,0.2-0.3,0.3
			c-0.1,0.1-0.2,0.1-0.4,0.2c-0.2,0-0.3,0-0.4,0c-0.1,0-0.3-0.1-0.4-0.1c-0.1-0.1-0.2-0.2-0.3-0.3c-0.1-0.1-0.1-0.2-0.2-0.4L46,21.9
			z M46.5,22.2l0.1,0.2c0,0.1,0.1,0.2,0.1,0.3c0,0.1,0.1,0.1,0.2,0.2c0.1,0,0.1,0.1,0.2,0.1c0.1,0,0.2,0,0.3,0
			c0.1,0,0.2-0.1,0.3-0.1c0.1-0.1,0.1-0.1,0.2-0.2c0-0.1,0-0.1,0-0.2c0-0.1,0-0.1,0-0.2l-0.1-0.3L46.5,22.2z"/>
		<path class="st0" d="M48.6,23.8l0.1,1.4l-0.4,0l0-1l-0.5,0l0,0.9l-0.4,0l0-0.9l-0.5,0l0,1.1l-0.4,0l-0.1-1.5L48.6,23.8z"/>
		<path class="st0" d="M48.6,26l-0.1,0.4l-1.7-0.2l-0.1,1l-0.4-0.1l0.2-1.4L48.6,26z"/>
		<path class="st0" d="M48,29.1l-0.5,1.2l-0.4-0.1l0.3-0.8L47,29.2l-0.3,0.7l-0.4-0.1l0.3-0.7l-0.8-0.3l0.2-0.4L48,29.1z"/>
		<path class="st0" d="M45.8,30.6c-0.1,0-0.1-0.1-0.2,0c-0.1,0-0.1,0-0.2,0.1s-0.1,0.1-0.2,0.2c0,0.1-0.1,0.1-0.1,0.2
			c0,0.1,0,0.1,0,0.2c0,0.1,0.1,0.1,0.1,0.2l1.1,0.7l-0.2,0.3l-1.1-0.7c-0.1-0.1-0.2-0.2-0.3-0.3c-0.1-0.1-0.1-0.3-0.1-0.4
			c0-0.1,0.1-0.3,0.1-0.4c0.1-0.1,0.2-0.2,0.3-0.3c0.1-0.1,0.3-0.1,0.4-0.1c0.1,0,0.3,0,0.4,0.1l1.1,0.7L47,31.3L45.8,30.6z"/>
		<path class="st0" d="M45.9,32.9l-1,1.1l-0.3-0.3l0.3-0.4l-1.3-1.1l0.3-0.3l1.3,1.1l0.3-0.4L45.9,32.9z"/>
		<path class="st0" d="M43.3,33.6c0-0.1-0.1-0.1-0.2-0.1c-0.1,0-0.1,0-0.2,0c-0.1,0-0.1,0-0.2,0.1c-0.1,0.1-0.1,0.1-0.1,0.2
			c0,0.1,0,0.1,0,0.2c0,0.1,0,0.1,0.1,0.2l0.8,1l-0.3,0.3l-0.8-1.1c-0.1-0.1-0.1-0.3-0.2-0.4c0-0.1,0-0.3,0.1-0.4
			c0.1-0.1,0.2-0.2,0.3-0.3c0.1-0.1,0.3-0.2,0.4-0.2c0.1,0,0.3,0,0.4,0c0.1,0,0.2,0.1,0.3,0.3l0.8,1.1l-0.3,0.3L43.3,33.6z"/>
		<path class="st0" d="M40.9,35.3L40,34.8l0.4-0.2l0.8,0.5L40.9,35.3z M41.9,36.2c-0.1,0.1-0.2,0.1-0.3,0.1c-0.1,0-0.2,0-0.3,0
			s-0.2-0.1-0.2-0.1c-0.1-0.1-0.1-0.1-0.2-0.2c0-0.1-0.1-0.2-0.1-0.2c0-0.1,0-0.2,0-0.3c0-0.1,0.1-0.2,0.1-0.3
			c0.1-0.1,0.2-0.2,0.3-0.2l0.3-0.1l-0.3-0.6l0.4-0.2l1,1.9L41.9,36.2z M41.3,35.3c-0.1,0-0.1,0.1-0.1,0.1c0,0,0,0.1-0.1,0.1
			c0,0,0,0.1,0,0.1c0,0,0,0.1,0,0.1c0,0,0,0,0,0.1c0,0,0.1,0.1,0.1,0.1c0,0,0.1,0,0.1,0c0,0,0.1,0,0.2,0l0.3-0.1l-0.3-0.6L41.3,35.3
			z"/>
		<path class="st0" d="M40.3,35.8c0,0.1,0.1,0.3,0,0.4c0,0.1-0.1,0.3-0.1,0.4s-0.2,0.2-0.3,0.3c-0.1,0.1-0.2,0.2-0.4,0.2
			c-0.1,0-0.3,0.1-0.4,0c-0.1,0-0.3-0.1-0.4-0.1c-0.1-0.1-0.2-0.2-0.3-0.3c-0.1-0.1-0.2-0.2-0.2-0.4c0-0.1-0.1-0.3,0-0.4
			c0-0.1,0.1-0.3,0.1-0.4c0.1-0.1,0.2-0.2,0.3-0.3c0.1-0.1,0.2-0.2,0.4-0.2c0.1,0,0.3-0.1,0.4,0c0.1,0,0.3,0.1,0.4,0.1
			c0.1,0.1,0.2,0.2,0.3,0.3C40.2,35.5,40.3,35.7,40.3,35.8z M39.9,35.9c0-0.1-0.1-0.2-0.1-0.2c-0.1-0.1-0.1-0.1-0.2-0.2
			c-0.1,0-0.2-0.1-0.2-0.1c-0.1,0-0.2,0-0.3,0c-0.1,0-0.2,0.1-0.2,0.1c-0.1,0.1-0.1,0.1-0.2,0.2c0,0.1-0.1,0.2-0.1,0.2
			c0,0.1,0,0.2,0,0.3c0,0.1,0.1,0.2,0.1,0.2c0.1,0.1,0.1,0.1,0.2,0.2c0.1,0,0.2,0.1,0.2,0.1c0.1,0,0.2,0,0.3,0
			c0.1,0,0.2-0.1,0.2-0.1c0.1-0.1,0.1-0.1,0.2-0.2c0-0.1,0.1-0.2,0.1-0.2C39.9,36.1,39.9,36,39.9,35.9z"/>
	</g>
	<g>
		<g>
			<path class="st0" d="M36.1,40.6c-4.2,0-8.1-1.6-11.1-4.6c-3-3-4.6-6.9-4.6-11.1S22,16.8,25,13.9c3-3,6.9-4.6,11.1-4.6
				c4.2,0,8.1,1.6,11.1,4.6c3,3,4.6,6.9,4.6,11.1s-1.6,8.1-4.6,11.1C44.2,39,40.2,40.6,36.1,40.6z M36.1,10.4
				c-3.9,0-7.5,1.5-10.3,4.2c-2.7,2.7-4.2,6.4-4.2,10.3s1.5,7.5,4.2,10.3c2.7,2.7,6.4,4.2,10.3,4.2s7.5-1.5,10.3-4.2
				c2.7-2.7,4.2-6.4,4.2-10.3s-1.5-7.5-4.2-10.3C43.6,11.9,39.9,10.4,36.1,10.4z"/>
		</g>
	</g>
	<g>
		<g>
			<path class="st0" d="M36.1,38.6c-3.7,0-7.1-1.4-9.7-4c-2.6-2.6-4-6-4-9.7s1.4-7.1,4-9.7c2.6-2.6,6-4,9.7-4c3.7,0,7.1,1.4,9.7,4
				c2.6,2.6,4,6,4,9.7s-1.4,7.1-4,9.7C43.2,37.2,39.7,38.6,36.1,38.6z M36.1,11.5c-3.6,0-7,1.4-9.5,3.9c-2.5,2.5-3.9,5.9-3.9,9.5
				s1.4,7,3.9,9.5c2.5,2.5,5.9,3.9,9.5,3.9c3.6,0,7-1.4,9.5-3.9c2.5-2.5,3.9-5.9,3.9-9.5s-1.4-7-3.9-9.5
				C43,12.9,39.6,11.5,36.1,11.5z"/>
		</g>
	</g>
	<path class="st0" d="M10.5,40.2l0.1,0.2l0-0.2c0-0.8-0.3-0.9-0.7-1c0,0-0.1,0-0.1,0c-0.4-0.1-1,0-1.1,0.1c-0.2-0.2-0.5-0.9-0.6-1.2
		c0.4-0.2,2.1-1.1,2.8-1.7c0.7-0.6,0.6-1.9,0.6-2.2c0.1,0,0.4,0,0.7,0.2c0.4,0.2,0.9,0.1,1,0c0.1,0.4,0,0.6,0,0.9
		c0,0.2-0.1,0.5-0.1,0.8c0,0.9,1.4,1.1,2.2,1.2c0.3,0,0.6,0.1,0.8,0.2c0.4,0.1,0.8,0.2,1.2,0.1c0.5-0.2,0.7-0.7,0.7-1c0,0,0,0,0,0
		c0.1,0,0.2,0,0.4,0l0.1,0l0-0.1c0-0.2-0.2-0.3-0.3-0.3c0.1,0,0.3-0.1,0.4,0l0.1,0l0-0.1c0-0.2-0.2-0.3-0.4-0.3
		c0.1-0.1,0.4-0.2,0.4-0.2l0.3,0L18.6,35c0,0-0.6-0.4-1.1-0.2c-0.4,0.2-0.8,0.9-0.8,1c0,0,0,0,0,0c-0.4,0-1.3-0.3-1.6-0.4
		c0.1-0.2,0.4-1,0.7-2c0.3-1.2,0-2.3-0.8-2.7c-0.7-0.3-2-0.1-2.4,0c0-0.2,0.2-0.8,0.8-1.1c0.8-0.4,1.9-1.6,2.1-1.9
		c0.1,0,0.6,0.1,1.4,0.1c0.5,0,0.9-0.3,1.3-0.6c0.3-0.2,0.6-0.4,1-0.5c0.8-0.1,1.6-0.5,1.7-0.9c0-0.1,0.1-0.1,0.1-0.2
		c0.1-0.1,0.3,0,0.3,0l0.1,0l0-0.1c0-0.2-0.2-0.3-0.4-0.4c0.1-0.1,0.3-0.1,0.3-0.1l0.1,0l0-0.1c-0.1-0.2-0.2-0.3-0.3-0.4
		c0.1-0.1,0.3-0.1,0.3-0.1l0.2,0l-0.1-0.1c-0.2-0.2-0.6-0.3-1-0.3c-0.3,0-0.5,0.2-0.6,0.4c0,0-0.1,0.1-0.1,0.1
		c-0.2,0.4-0.4,0.7-0.9,0.6c-0.3,0-0.5,0-0.8,0c-0.4,0.1-0.7,0.1-0.9-0.2c-0.2-0.4-0.2-0.8-0.1-1c0.4,0.2,0.7,0,1.2-0.3
		c0.3-0.2,0.5-0.5,0.8-0.8c0.3-0.4,0.7-0.8,1.1-1.1c0.7-0.5,1.7-1.3,1.7-1.7c0-0.2,0.3-0.4,0.4-0.4l0,0l0-0.1c0-0.2-0.2-0.2-0.3-0.3
		c0.1-0.1,0.3-0.2,0.3-0.2l0.1,0l0-0.1c-0.1-0.2-0.3-0.3-0.4-0.2c0.1-0.1,0.2-0.2,0.3-0.3l0.1-0.1L22,18.5c-0.3-0.1-0.6-0.2-0.8,0
		c-0.4,0.2-0.6,0.7-0.7,1.1c-0.1,0.4-0.5,0.7-1.2,1c-0.2,0.1-0.4,0.2-0.6,0.3c-0.6,0.3-1.2,0.6-1.5,0.3c-0.3-0.4-0.9-0.9-1-1
		c0.2-0.2,0.6,0,0.6,0l0.1,0l0-0.1c0,0,0.1-0.8-1-1.1c-0.5-0.2-0.7-0.4-0.7-0.5c0-0.1,0-0.1,0-0.1c1,0,1.7-0.1,1.9-0.4
		c0.2-0.2,0.2-0.5,0.1-0.7c0,0,0-0.1,0-0.1c0-0.1-0.1-0.2-0.1-0.2c-0.1-0.1-0.4-0.1-0.6-0.1c0.4-0.2,0.9-0.6,0.8-1.1
		c-0.1-0.6-0.7-0.8-1.3-1.1c-0.2-0.1-0.4-0.1-0.5-0.2c-0.4-0.2-0.6-0.2-0.9-0.2c-0.4,0-0.8,0-1.7-0.4c-2.1-1-3.8,0.8-3.8,0.8
		l-0.1,0.2l0.2,0c0.1,0,0.3,0,0.4,0C8,15.2,7.2,17,7.2,17.1l-0.1,0.2l0.2-0.1c0.3-0.1,0.6-0.1,0.8-0.1c-0.3,0.3-1,1-1.3,2.2
		c-0.2,0.8,0.1,1.2,0.4,1.6c0.3,0.4,0.5,0.7,0.3,1.3c-0.3,1.3,0.3,2.5,0.4,2.6l0.1,0.1L8,24.8c0.3-0.4,0.6-0.6,0.9-0.7
		c0.2,0,0.4,0.1,0.5,0.1c-0.1,0.3-0.7,1.6-1.6,4.1c-1.2,3.1-2.4,4.4-4,4.6c-0.7,0.1-1.5-0.3-2-1.1c-0.6-0.9-0.9-2.4-0.1-3.9
		c0.4-0.7,0.9-1.2,1.5-1.4c1.2-0.4,2.4,0.3,2.4,0.3L5.9,27l-0.2-0.3c-1-1.4-2.6-1.1-3.7-0.3c-0.7,0.5-1.3,1.5-1.5,2.6
		c-0.2,0.9-0.1,2.3,0.9,3.7c0.4,0.6,1,0.9,1.7,1c0.1,0,0.3,0,0.4,0c1.5,0,3-1,3.4-1.3c0,0.4,0.1,1.6,0.4,2.8c0.2,0.7-0.1,0.8-0.4,1
		c-0.3,0.1-0.7,0.3-0.7,0.9c-0.2,1.2,1.1,2.6,1.2,2.7c0.1,0.1,0.2,0.3,0.3,0.4c0.1,0.2,0.3,0.4,0.6,0.5c0.4,0.1,0.9,0,1.2-0.2
		c0.1,0,0.1,0,0.2,0c0.1,0,0.1,0.1,0.1,0.1l0.1,0.3l0.1-0.2c0-0.2,0-0.3,0-0.4c0.2,0,0.3,0.2,0.3,0.2l0.1,0.2l0.1-0.2
		c0.1-0.2,0.1-0.3,0-0.4C10.4,40,10.5,40.2,10.5,40.2z"/>
	<g>
		<path class="st0" d="M62.2,40.8c-0.3,0-0.6,0-0.9,0c0-0.2-0.1-0.4-0.1-0.4c0.2-0.3,0.4-0.5,0.6-0.7c0.1-0.1,0.2-0.2,0.2-0.3
			c0-0.5,0.3-0.7,0.6-0.9c0.8-0.5,1.5-1.1,1.3-2.3c0,0,0-0.1,0-0.1c0.1-0.4,0-0.7-0.2-1c-0.5-0.9-1.2-1.6-2.1-2.2
			c-0.5,0.4-0.9,1.6-0.7,2.4c0.2,0.5,0.1,0.7-0.4,1c-0.5,0.3-1,0.7-1.5,1c-0.1,0.1-0.2,0.2-0.2,0.3c-0.1,0.5-0.5,0.7-0.9,0.9
			c0-0.2,0-0.3,0-0.4c0,0-0.1,0-0.1-0.1c-0.1,0.2-0.2,0.5-0.3,0.7c-0.1,0.2-0.2,0.4-0.3,0.4c-0.5,0.1-1.1,0.2-1.6,0.2
			c0-0.1,0-0.1-0.1-0.2c0.3-0.5,0.6-0.9,1.1-1.2c0.1-0.1,0.3-0.3,0.3-0.3c-0.2-0.5,0.2-0.5,0.4-0.6c0.7-0.1,1.2-0.6,1.7-1.1
			c0.7-0.7,0.8-1.3,0.4-2.2c-0.4-1-0.7-2,0.1-3c0.2-0.3,0.2-0.5-0.2-0.7c-1.8-0.8-3.1-2-3.8-4c-0.2-0.4-0.3-0.9-0.9-0.8
			c-0.1,0-0.2-0.1-0.3-0.2c-0.4-0.3-0.7-0.3-1,0.2c-0.3,0.4-0.5,0.8-0.7,1.2c-0.2,0.3-0.1,0.5,0.2,0.6c0.2,0,0.3,0.1,0.5,0.1
			c-0.2,0.6-0.2,0.7,0.4,0.7c0.1,0,0.3,0,0.3,0.1c0.3,0.7,0.3,1.4,0.1,2.2c-0.5-0.3-0.9-0.6-1.1-1.1c-0.1-0.3-0.6-0.4-0.8-0.2
			c-0.2-0.3-0.4-0.6-0.5-0.9c-0.2-0.6-0.6-1.2-0.4-1.9c0.1-0.3-0.2-0.5-0.4-0.4c-0.1-0.3-0.2-0.7-0.3-1c0-0.2,0-0.5,0-0.7
			c0.3-0.4,0.6-0.8,0.9-1.2c0.3-0.4,0.6-0.7,0.9-1.1c0.3-0.3,0.5-0.7,0.8-0.9c0.7-0.5,1-0.4,1.4,0.4c0.1,0.2,0.3,0.4,0.4,0.6
			c0.4-0.4,0.9-0.7,1.1-1.1c0.4-0.6,1-1,1.6-1.1c0.4-0.1,0.9-0.3,1.3-0.5c0.3-0.1,0.5-0.4,0.5-0.8c-0.4-0.2-1.2,0-1.6,0.4
			c-0.5,0.6-0.9,0.7-1.5,0.4c-0.4-0.2-0.6-0.9-0.3-1.3c0.4-0.5,0.9-1,1.3-1.5c0.3-0.4,0.5-0.8,0.8-1.2c0,0-0.2-0.1-0.3-0.1
			c-0.1,0-0.2,0.2-0.4,0.3c0-0.6,0.4-0.5,0.7-0.6c-0.1-0.4-0.3-0.7-0.4-1.1c0,0,0.1,0,0.1,0c0.1,0.1,0.2,0.2,0.3,0.3
			c0.2-0.3,0.4-0.5,0.5-0.8c0.1,0,0.1,0,0.2,0c-0.1,0.2-0.2,0.4-0.4,0.6c0,0,0.1,0.1,0.1,0.1c0.3-0.4,0.6-0.6,0.9-0.6
			c0,0.3,0,0.5,0,0.7c0.3-0.2,0.6-0.4,0.9-0.6c0,0,0,0.1,0,0.1c-0.1,0.1-0.2,0.2-0.3,0.4c0.6-0.2,1.2-0.3,1.7,0.1c0,0,0.1,0.1,0.2,0
			c0.4-0.1,0.8,0.1,1,0.3c0.5,0,0.9-0.1,1.1,0c0.4,0.3,0.8,0.3,1.1-0.1c0,0.1,0,0.1,0,0.1c-0.2,0.5-0.5,0.7-1.2,0.4
			c-0.3-0.1-0.6-0.2-0.7,0.4c0.5-0.2,0.9-0.2,1.2,0.3c0.1,0.1,0.3,0.2,0.4,0.3c0.1-0.2,0.1-0.3,0.2-0.6c0.1,0.3,0.2,0.6,0.1,0.7
			c-0.2,0.2-0.5,0.3-0.7,0.4c0.6,0.2,1,0.7,0.9,1.5c0,0.1,0.2,0.3,0.3,0.4c0.1,0.1,0.3,0.1,0.5,0.2c0.1,0.1,0.2,0.3,0.2,0.5
			c0,0.1-0.2,0.2-0.3,0.3c0.1-0.4-0.2-0.6-0.8-0.5c0,0.4,0,0.9,0.4,1.1c0.2,0.1,0.6,0,0.9-0.1c-0.3,0.3-0.5,0.5-0.8,0.8
			c0.3,0.4,0.2,0.8-0.1,1.2c0.4,0.3,0.5,0.2,0.7-0.6c0,0.2,0.1,0.4,0,0.6c-0.1,0.2-0.2,0.5-0.4,0.6c-0.1,0.1-0.3-0.2-0.5-0.3
			c-0.2-0.1-0.3-0.2-0.5-0.3c0.1,0.3,0.2,0.6,0.3,0.8c0.1,0.2,0.2,0.4,0.3,0.6c0.1,0.2,0.2,0.4,0.2,0.6c0,0.1-0.3,0.2-0.5,0.4
			c0.1-0.3,0.2-0.4,0.2-0.6c-0.2-0.1-0.4-0.1-0.5-0.2c0,0-0.1,0-0.1,0c-0.3,0.1-0.4,0-0.4-0.3c0-0.3-0.2-0.4-0.5-0.4
			c-0.2,0-0.5,0-0.7,0c0,0.2-0.1,0.6-0.1,0.9c0,0.4,0.2,0.6,0.6,0.5c0,0,0,0.1-0.1,0.1c-0.2,0-0.4,0-0.6,0c0.1,0.9,0,1-0.5,0.9
			c0.3-0.3,0.4-0.6,0.2-0.9c-0.2-0.4-0.5-0.3-0.8-0.3c-0.2,0-0.5-0.1-0.8-0.2c0.3,0.6,0.5,1.2,0.8,1.7c0.3,0.4,0.6,0.8,1,1
			c1.1,0.6,2,1.3,2.4,2.6c0.1-0.1,0.2-0.1,0.3-0.1c1.3-0.6,2.7-0.1,3.3,1.4c0.4,0.9,0.3,1.8,0.1,2.7c-0.1,0.4-0.1,0.8-0.2,1.1
			c-0.1-0.2-0.1-0.3-0.2-0.5c-0.4,0.5-0.6,1-0.4,1.5c0.5,0.9,0.4,1.7-0.4,2.4c-0.4,0.3-0.2,1,0.2,1.3c0.4,0.3,0.8,0.2,1.1-0.3
			c0.1-0.1,0.1-0.2,0.1-0.3c0,0.3,0,0.7-0.1,0.9c-0.1,0.2-0.4,0.3-0.6,0.5c0.5,0.4,0.9,0.3,1.6-0.7c-0.2,1-0.7,1.4-1.7,1.3
			c-0.1,0-0.3,0-0.4,0c-0.2,0-0.5-0.1-0.7-0.2c-0.1,0-0.2-0.1-0.3-0.2c-1.1-0.3-1.2-0.7-1-1.8c0,0,0-0.1,0,0c-0.2,0-0.4,0.1-0.6,0.1
			c0,0,0-0.1,0-0.1c0.4-0.1,0.3-0.3,0.2-0.6C66,37,66,36.2,66.3,35.4c0-0.1,0.1-0.2,0-0.3c-0.3-0.5-0.2-1,0-1.6c0,0-0.1,0-0.1-0.1
			c-0.1,0.2-0.2,0.5-0.4,0.7c-0.3-0.5-0.2-1.1,0.2-1.6c-0.1,0-0.2,0-0.4,0c0.3-0.4,0.6-0.7,0.8-1c0-0.3-0.1-0.5-0.2-0.9
			c0.1,0.1,0.1,0.1,0.2,0.1c0.1,0,0.3,0.1,0.4,0.1c0-0.2,0-0.5-0.2-0.6c-0.2-0.1-0.4-0.2-0.5-0.2c-0.4,0.7-0.8,1.4-1.1,2.1
			c-0.4,0.7-0.2,2,0.4,2.5c0.4,0.3,0.4,0.5,0.2,0.9c-0.2,0.5-0.5,0.9-0.8,1.4c-0.2,0.5-0.5,0.9-0.5,1.4c-0.1,0.5-0.2,0.9-0.7,1.1
			c-0.3-0.3-0.4-0.2-0.5,0.2c-0.1,0.5-0.4,0.8-0.8,0.9C62.4,40.7,62.3,40.8,62.2,40.8z M55,23.6c0,0,0-0.1,0.1-0.1
			c-0.1-0.1-0.3-0.1-0.4-0.2c-0.1-0.1-0.2-0.2-0.3-0.4c-0.3-0.5-0.6-0.6-1-0.2c-0.4,0.3-0.7,0.6-1.1,0.9c-0.3,0.2-0.3,0.4,0,0.6
			c0.3,0.2,0.4,0.4,0.1,0.7c-0.1,0.1-0.1,0.2-0.1,0.3c0,0,0.1,0,0.1,0c0.1-0.3,0.2-0.5,0.2-0.8c0.1-0.4,0.2-0.8,0.4-1.1
			c0.5-0.8,0.9-0.8,1.5-0.1C54.7,23.4,54.9,23.5,55,23.6z"/>
	</g>
	<g>
		<path class="st0" d="M35.9,27.5c0-0.1,0-0.2,0-0.3c0-1.1,0-2.2,0-3.3c0-0.6-0.2-0.9-0.7-1.3c-1-0.7-2.2-0.9-3.4-1
			c-0.2,0-0.3,0-0.3,0.2c-0.4,1.1-0.8,2.1-1.2,3.2c-0.1,0.4-0.3,0.7-0.4,1.1C32.2,25.5,34.1,26.1,35.9,27.5z M36.3,27.5
			c1.8-1.4,3.8-2,6-1.3c-0.3-0.7-0.5-1.3-0.8-2c-0.3-0.8-0.6-1.6-0.9-2.3c-0.1-0.1-0.1-0.2-0.3-0.2c-0.4,0-0.9,0-1.3,0.1
			c-1,0.1-1.9,0.5-2.7,1.3c-0.1,0.1-0.2,0.2-0.2,0.4c0,0.4,0,0.8,0,1.3C36.3,25.6,36.3,26.5,36.3,27.5z M36.9,27.5
			C36.9,27.6,36.9,27.6,36.9,27.5c0.1,0,0.2,0,0.2-0.1c1-0.4,2.1-0.6,3.3-0.5c0.5,0.1,1.1,0.2,1.6,0.2c0.6,0.1,1.1,0.1,1.7,0.2
			c0-0.1-0.1-0.2-0.1-0.3c-0.5-1.5-1-2.9-1.5-4.4c-0.2-0.4-0.4-0.7-0.9-0.8c0.6,1.6,1.2,3.2,1.9,4.9C40.8,25.9,38.8,26.2,36.9,27.5z
			 M31.1,21.9c-0.2,0.1-0.3,0.2-0.5,0.3c-0.2,0.1-0.3,0.3-0.4,0.5c-0.4,1.2-0.8,2.3-1.2,3.5c-0.1,0.4-0.3,0.8-0.4,1.2
			c0.1,0,0.2,0,0.3,0c0.8-0.1,1.6-0.2,2.4-0.3c1.1-0.2,2.1-0.2,3.2,0.1c0.3,0.1,0.6,0.2,0.9,0.3c-1.9-1.4-3.9-1.6-6.1-0.7
			C29.9,25.2,30.5,23.6,31.1,21.9z M44.3,27.8c-0.1,0-0.2,0-0.3,0c-0.9-0.1-1.9-0.2-2.8-0.3c-1-0.2-2-0.3-3,0
			c-0.4,0.1-0.8,0.3-1.3,0.5c0,0,0,0,0,0.1c2.6,0,5.3,0,7.9,0c0-0.1,0-0.1-0.1-0.2c-0.5-1.5-1.1-3-1.6-4.6c-0.1-0.4-0.3-0.5-0.7-0.6
			C43.1,24.4,43.7,26.1,44.3,27.8z M27.5,28.1c2.7,0,5.3,0,7.9,0c-1.1-0.6-2.3-0.9-3.5-0.7c-0.9,0.1-1.8,0.3-2.7,0.4
			c-0.4,0-0.8,0.1-1.2,0.1c0.6-1.7,1.2-3.5,1.8-5.2c-0.4,0.1-0.6,0.3-0.7,0.7c-0.3,1-0.6,1.9-1,2.8C27.9,26.8,27.7,27.4,27.5,28.1z"
			/>
		<path class="st0" d="M35.9,27.5c-1.8-1.4-3.8-2-6-1.3c0.2-0.4,0.3-0.8,0.4-1.1c0.4-1.1,0.8-2.1,1.2-3.2c0.1-0.2,0.2-0.2,0.3-0.2
			c1.2,0,2.4,0.2,3.4,1c0.5,0.3,0.7,0.7,0.7,1.3c-0.1,1.1,0,2.2,0,3.3C35.9,27.3,35.9,27.4,35.9,27.5z"/>
		<path class="st0" d="M36.3,27.5c0-1,0-1.9,0-2.8c0-0.4,0-0.8,0-1.3c0-0.2,0.1-0.3,0.2-0.4c0.8-0.7,1.7-1.1,2.7-1.3
			c0.4-0.1,0.9-0.1,1.3-0.1c0.2,0,0.2,0.1,0.3,0.2c0.3,0.8,0.6,1.6,0.9,2.3c0.2,0.6,0.5,1.3,0.8,2C40.1,25.5,38.1,26.1,36.3,27.5z"
			/>
		<path class="st0" d="M36.9,27.5c1.9-1.4,3.9-1.6,6.1-0.7c-0.6-1.7-1.2-3.3-1.9-4.9c0.5,0.1,0.7,0.4,0.9,0.8c0.5,1.5,1,2.9,1.5,4.4
			c0,0.1,0.1,0.2,0.1,0.3c-0.6-0.1-1.2-0.1-1.7-0.2c-0.5-0.1-1.1-0.2-1.6-0.2c-1.1-0.2-2.2,0-3.3,0.5C37.1,27.5,37,27.5,36.9,27.5
			C36.9,27.6,36.9,27.6,36.9,27.5z"/>
		<path class="st0" d="M31.1,21.9c-0.6,1.7-1.3,3.3-1.9,4.9c2.2-0.9,4.2-0.7,6.1,0.7c-0.3-0.1-0.6-0.2-0.9-0.3
			c-1.1-0.3-2.1-0.3-3.2-0.1c-0.8,0.1-1.6,0.2-2.4,0.3c-0.1,0-0.2,0-0.3,0c0.1-0.4,0.3-0.8,0.4-1.2c0.4-1.2,0.8-2.3,1.2-3.5
			c0.1-0.2,0.2-0.4,0.4-0.5C30.8,22.1,30.9,22,31.1,21.9z"/>
		<path class="st0" d="M44.3,27.8c-0.6-1.7-1.2-3.4-1.8-5.2c0.3,0.1,0.6,0.3,0.7,0.6c0.5,1.5,1,3,1.6,4.6c0,0.1,0,0.1,0.1,0.2
			c-2.6,0-5.3,0-7.9,0c0,0,0,0,0-0.1c0.4-0.2,0.8-0.3,1.3-0.5c1-0.3,2-0.2,3,0c0.9,0.2,1.9,0.2,2.8,0.3
			C44.1,27.8,44.2,27.8,44.3,27.8z"/>
		<path class="st0" d="M27.5,28.1c0.2-0.6,0.4-1.2,0.6-1.8c0.3-0.9,0.7-1.9,1-2.8c0.1-0.4,0.3-0.6,0.7-0.7c-0.6,1.7-1.2,3.4-1.8,5.2
			c0.4,0,0.8,0,1.2-0.1c0.9-0.1,1.8-0.2,2.7-0.4c1.2-0.2,2.4,0.1,3.5,0.7C32.8,28.1,30.1,28.1,27.5,28.1z"/>
	</g>
	<g>
		<g>
			<path class="st0" d="M36.9,2.2c-0.6-0.2-1.4-0.2-2,0c-0.3-0.6,1.2-0.9,1.8-0.5C36.9,1.9,37,2,36.9,2.2z"/>
		</g>
	</g>
	<g>
		<g>
			<path class="st0" d="M38.1,5.5L38.1,5.5c-0.2,1-0.6,2-1,2.9c-0.3,0-0.7,0-1.1,0C36.9,7.1,37.8,4,35.9,4c-2,0-1,3-0.1,4.4
				c-0.4,0-0.8,0-1.1,0c-0.4-0.9-0.8-1.9-1-2.9h0c-0.1-0.4-0.1-0.7-0.1-1.1c0,0,0,0,0,0c0.1-1.3,1-2.2,2.3-2.2
				c1.4,0,2.3,0.9,2.3,2.2c0,0,0,0,0,0C38.2,4.7,38.2,5.1,38.1,5.5z"/>
		</g>
	</g>
	<g>
		<g>
			<path class="st0" d="M33.7,8.3c-0.3,0-0.6-0.1-0.8-0.1l-0.3-0.1c-0.6-0.5-1.5-1.5-1.7-2.5c-0.3-1.5,0.7-1.8,1.4-1.8
				c0.5,0,0.9,0.2,1.1,0.4c0,0.4,0,0.8,0.1,1.2c-0.6-0.2-1.3,0.2-1.2,1.1C32.5,7.2,33.2,7.9,33.7,8.3z"/>
		</g>
	</g>
	<g>
		<g>
			<path class="st0" d="M40.8,5.7c-0.2,1-1.1,2-1.7,2.5c0,0-0.5,0.1-1.1,0.2c0.5-0.4,1.3-1.1,1.4-1.8c0.1-0.8-0.4-1.1-0.8-1.1
				c-0.1,0-0.2,0-0.3,0.1c0-0.1,0-0.2,0.1-0.3c0-0.3,0.1-0.6,0-0.8C38.6,4,39,3.8,39.5,3.8C40.1,3.8,41.1,4.1,40.8,5.7z"/>
		</g>
	</g>
	<g>
		<g>
			<path class="st0" d="M36.7,1.1c0,0.1,0,0.3-0.1,0.4c-0.2-0.1-0.5-0.1-0.8-0.1c-0.3,0-0.6,0.1-0.8,0.1C35.1,1.4,35,1.3,35,1.1
				c0-0.4,0.4-0.8,0.7-1.1C35.8,0,35.9,0,36,0C36.3,0.3,36.7,0.8,36.7,1.1z"/>
		</g>
	</g>
	<path class="st0" d="M41.2,9.7c-0.1,0-0.1,0-0.2,0c-5-2.2-9.9,0-9.9,0c-0.2,0.1-0.5,0-0.6-0.2c-0.1-0.2,0-0.5,0.2-0.6
		c0.2-0.1,5.3-2.4,10.7,0c0.2,0.1,0.4,0.4,0.3,0.6C41.6,9.5,41.4,9.7,41.2,9.7z"/>
	<g>
		<path class="st0" d="M36.1,44.6c1.4-0.8,0.3-1.6,0-3.6C35.8,43,34.5,43.9,36.1,44.6z"/>
		<path class="st0" d="M34.1,43.7c1.6,0.1,0.9-0.9,1.7-2.7C34.6,42.5,33.1,42.3,34.1,43.7z"/>
		<path class="st0" d="M38,43.7c-1.6,0.1-0.9-0.9-1.7-2.7C37.5,42.5,39,42.3,38,43.7z"/>
		<path class="st0" d="M45.6,37c0.2,0.3,0.3,0.6,0.5,0.9c-0.1-0.4-0.2-0.7-0.3-1C45.7,36.9,45.6,36.9,45.6,37z"/>
		<path class="st0" d="M52,37.5c-0.2,0.5-0.6,0.6-1.1,0.4C50.6,37.8,50,37,49,37.5c0.4-0.5,0.9-0.7,1.1-0.7c0.2,0,0.4,0.2,0.6,0.3
			C51.1,37.3,51.5,37.5,52,37.5C52,37.4,52,37.4,52,37.5z"/>
		<g>
			<path class="st0" d="M56.8,37.7c-0.7-0.3-1.6,0-1.7,0.8c0,0,0,0,0,0c0,0.1,0,0.2,0,0.3c0.1,0.4,0.5,0.7,0.9,0.5
				c0.3-0.2,0.4-0.8-0.1-0.7c-0.1,0.1-0.1,0.4,0.2,0.4c0,0.1-0.1,0.2-0.2,0.3c-0.4,0.1-0.7-0.2-0.7-0.6c0-0.2,0.2-0.3,0.5-0.3
				c0.1,0,0.2,0,0.4,0c0.3-0.1,0.3-0.4,0.6-0.3c-0.2,0.3,0.3,0.5,0.5,0.7c-0.3,0.1-0.3,0.4-0.2,0.7c0,0.1,0.1,0,0.1,0
				c0.1-0.4,0.5-0.2,0.5,0.4c0.1,0,0.1,0,0.2,0C57.9,38.7,57.6,38,56.8,37.7z"/>
			<path class="st0" d="M52.7,42.3C52.7,42.4,52.7,42.3,52.7,42.3L52.7,42.3z"/>
		</g>
		<path class="st0" d="M49.4,38.6c0.8,0,1.7,0.8,2.3,1.3c0.7,0.6,1.4,1.4,2.4,1.5c-0.9,0-1.7-0.7-2.3-1.2c-0.4-0.3-0.8-0.6-1.1-1
			C50.2,39,49.8,38.6,49.4,38.6C49.6,38.6,49.6,38.6,49.4,38.6z"/>
		<path class="st0" d="M64.8,42.2c0.1,0.1,0.3,0.2,0.4,0.1c0.2-0.1,0.2-0.4,0.1-0.6c-0.1-0.3-2.6-2.3-4.7-0.1
			C61.6,40.9,63.1,40.6,64.8,42.2z"/>
		<path class="st0" d="M43.5,37.8c-0.1,0.1-0.1,0.1-0.2,0.1c-0.1,0-0.1,0.1-0.2,0.1c0,0.1,0,0.1,0.1,0.1c0.1,0.2,0.3,0.2,0.6,0.3
			c0.1,0,0.1,0,0.1-0.1c-0.1-0.2-0.1-0.4,0-0.6C43.7,37.8,43.6,37.8,43.5,37.8z"/>
		<path class="st0" d="M45.5,37.9c-0.2-0.2-0.4-0.4-0.5-0.5c-0.1,0.1-0.3,0.1-0.4,0.2c0.4,0.1,0.9,0.5,1.4,1.5
			c0.1,0.1,0.1-0.2,0-0.3C45.9,38.5,45.7,38.1,45.5,37.9z"/>
		<path class="st0" d="M46,39.6C46,39.6,46,39.6,46,39.6C46,39.6,46,39.6,46,39.6C46,39.6,46,39.6,46,39.6z"/>
		<path class="st0" d="M47.7,37.5c-0.4-0.1-0.7-0.1-1,0.3c0,0,0.4-0.7,0.1-0.6c0.1-0.3,0-0.7-0.2-0.4c0-0.3-0.2-0.4-0.4-0.5
			c-0.1,0.1-0.1,0.2-0.2,0.3c0.3,0.5,0.6,1.3,0.2,2.3c0,0.1,0.1,0.1,0.1,0C46.7,38.1,47.3,37.8,47.7,37.5
			C47.8,37.5,47.8,37.5,47.7,37.5z"/>
		<path class="st0" d="M56.4,41.9c-2.4-0.5-2.2,3.5-5.1,2.8c0.3,0.3,2,1.3,1.8,0.4c0.7,0.6,0.8-0.3,1.5,0.1c0.2-0.4,0.1-0.6-0.3-0.7
			c0.6,0,0.9-0.4,1-0.9c-0.4,0.2-0.4,0-0.7,0.2c0.8-0.6,0.6-1.2,1.4-1.6c-0.3,0.1-0.3-0.1-0.6,0c0.5-0.3,1.1-0.2,1.4,0
			c0.4,0.3,0.4,0.7,0.2,1.1c-0.1,0.2-0.3,0.4-0.6,0.3c-0.1,0-0.2-0.1-0.2-0.3c0-0.1,0-0.2,0-0.3c0.2-0.3,0.4-0.1,0.3,0
			c-0.1,0,0,0.1,0.1,0.1c0.2-0.1,0.2-0.3,0-0.3c-0.2-0.1-0.5,0.1-0.5,0.3c0,0.3,0.2,0.5,0.5,0.6c0.3,0,0.5-0.2,0.6-0.4
			C57.5,42.7,57,42,56.4,41.9z"/>
		<path class="st0" d="M68.9,42.7c-0.3-0.3-0.9-0.5-1.2-0.2c-0.3,0.2-0.3,0.6-0.2,0.8c0.2,0.2,0.5,0.1,0.4-0.1c0-0.3,0-0.6,0.3-0.6
			c0.2,0,0.4,0.1,0.6,0.2c0.1,0.1,0.4,0.5,0.1,1c-1.6,2.2-4-1.6-6-2.3c-1-0.3-2,0-2.6,1.1c0-0.3,0-0.5,0-0.8c-0.1-0.5-0.4-1-0.9-1.4
			c0.3,0.1,0.5,0.3,0.8,0.4c0.4,0.1,0.8,0.1,1-0.3c0,0,0-0.1,0-0.1c-0.5-0.2-0.9-0.6-1.4-0.7c-0.3,0-0.6,0-0.9,0
			c-0.3,0-0.6,0-0.8-0.1c-0.4-0.1-0.8-0.1-1.2,0c-0.7,0.2-1.5,0.5-2,1c0.1,0.1,0.2,0.1,0.3,0.2c0,0,0,0,0,0c0.3-0.2,0.6-0.3,0.9-0.5
			c0.7-0.3,1.4-0.3,2-0.1c0.2,0.1,0.3,0.3,0.5,0.5c0.1,0.2,0.2,0.8-0.2,0.8c0,0-0.1,0.1,0,0.1c0.2,0.2,0.5,0.4,0.8,0.3
			c0,0.3,0.1,0.6,0.1,0.9c-0.1,0.4-0.3,0.6-0.6,0.8c-0.2,0-0.4,0-0.5-0.1c-0.4-0.2-0.6-1.1,0-1.1c0.2,0,0.3,0.1,0.3,0.3
			c-0.1,0.1-0.2,0-0.2,0.2c0.3,0.1,0.4-0.2,0.4-0.4c-0.1-0.4-0.5-0.4-0.8-0.3c-0.7,0.3-0.5,1.2-0.1,1.6c0.6,0.5,1.5,0.4,2.1-0.1
			c0.2-0.2,0.5-0.6,0.6-0.8c2.5-4.2,5.6,2.5,7.8,1.7c0.5-0.2,1-0.5,1.1-1C69.3,43.1,68.9,42.7,68.9,42.7z"/>
		<path class="st0" d="M57.5,40.4c-0.4,0.5-1.1,0.9-1.7,0.9c-0.6,0-1.2-0.3-2.2-1.1c-0.7-0.5-1.3-1.1-2-1.6c-0.9-0.6-2-1-3-0.9
			c0,0,0-0.1,0.1-0.1c0.1-0.2,0.3-0.3,0.4-0.4c0.1-0.3-0.2-0.6,0.2-0.8c0,0,0-0.1,0-0.1c-0.4-0.2-0.6,0.1-0.7,0.4
			c-0.1-0.2-0.3-0.3-0.6-0.4c-0.6-0.1-1.1,0.6-0.6,1c0.4,0.4,0.8-0.3,0.4-0.4c-0.1,0.2,0.2,0.2,0.1,0.4c-0.1,0.2-0.4,0.1-0.5-0.1
			c-0.3-0.4,0.3-0.8,0.7-0.6c0.4,0.2,0.5,0.6,0.4,1c0,0.1-0.1,0.2-0.2,0.3c-0.4,0.1-1.7,0.6-2.1,1.6c0-0.2,0-0.4-0.1-0.6
			c-0.1-0.4-0.2-0.8-0.4-1.2c-0.1-0.1-0.1-0.3-0.2-0.4c-0.1,0.1-0.2,0.2-0.4,0.2c0.5,0.6,0.8,1.4,0.9,2.2c0,0,0,0,0,0.1
			c0,0,0.1,0,0.1,0c0-0.1,0.1-0.2,0.1-0.2c0.1-0.1,0.3,0,0.5-0.1c0.1,0,0.1,0,0.1-0.1c0,0,0.1-0.1,0.1-0.1c0.1-0.1,0.2-0.1,0.4,0
			c-0.1,0-0.1,0.1,0,0.1c0.3,0.2,0.5-0.5,0.1-0.7c0.2-0.1,0.4,0.1,0.6,0c0.2-0.1,0.3-0.4,0.6-0.2c0.2,0.1,0.3,0.3,0.4,0.6
			c0.2,0.9-0.8,0.8-0.9,0.6c0-0.1,0-0.3,0.2-0.3c0.1,0,0.1,0,0.1-0.1c-0.3-0.1-0.5,0.3-0.4,0.6c0.1,0.1,0.2,0.2,0.4,0.3
			c0.8,0.1,1-0.8,0.7-1.3c-0.2-0.3-0.4-0.5-0.7-0.6c0.3,0,0.6,0,0.9,0.1c0.9,0.3,1.6,0.8,2.4,1.4c0.7,0.6,1.6,1.4,2.6,1.7
			c0,0,0,0,0,0c0.7,0.3,1.3,0.3,1.8,0.1c0.5-0.2,1.1-0.5,1.5-1.1C57.6,40.4,57.6,40.4,57.5,40.4z"/>
		<path class="st0" d="M40.3,39.4c-0.4-0.1-0.9,0-1,0.4c-0.1,0.3,0.1,0.8,0.5,0.7c0,0,0,0,0,0c0-0.2-0.3-0.1-0.3-0.3
			c0-0.2,0-0.3,0.2-0.4c0.3-0.3,0.8,0,1,0.3c0.4,0.7-0.3,1.6-1,1.7c-0.8,0.1-1.6-0.3-2-1.1c0-0.3,0-0.6,0.2-0.9
			c0-0.1,0.1-0.1,0.1-0.1c-0.3,0.1-0.7,0.2-1,0.3c0,0.1,0,0.2,0,0.3c0-0.1-0.1-0.2-0.1-0.3c-0.1,0-0.2,0-0.3,0
			c0,0.2,0.1,0.3,0.1,0.5c0.3,0.8,1,1.5,1.8,1.8c0.8,0.3,1.8,0.1,2.4-0.6C41.3,41,41.3,39.7,40.3,39.4z"/>
		<path class="st0" d="M65,44c-0.3-0.3-0.5-0.4-0.9-0.3c-0.2,0-0.5,0.1-0.7,0.1c-0.2,0-0.4-0.1-0.5-0.3c-0.2-0.3-0.5-0.7-0.9-0.5
			c0.3,0.4-0.1,1.3-0.9,0.7c0,0,0.1-0.1,0.1-0.1c0.4,0.1,0.4-0.4,0.2-0.5c-0.5-0.3-1.3,1.2-2.1,1.3c0.6-0.3,1-1.1,1.5-1.8
			C61.5,41.5,63.4,41.6,65,44C65.1,44,65,44.1,65,44z"/>
		<path class="st0" d="M47.7,42.6c-0.8-0.8-1.7-2-2.9-2.1c0,0-0.1,0-0.2,0c1.3,0.2,2.2,1.6,3.1,2.4c0.9,0.9,2,1.8,3.3,1.8
			C49.6,44.5,48.6,43.5,47.7,42.6z"/>
		<path class="st0" d="M54.3,41.4c-0.2,0.3-0.4,0.6-0.5,0.9c-0.2-0.5-0.7-1-1.3-0.8c-0.4,0.1-0.7,0.5-0.6,0.9c0.1,0.3,0.7,0.5,0.8,0
			c-0.2-0.1-0.2,0.2-0.4,0.2C52,42.5,52,42.2,52.1,42c0.2-0.5,0.9-0.4,1.2-0.1c1,0.9,0.1,2-0.9,2.2c-0.1,0-1.5,0.2-1.5-0.8
			c0-0.3-0.1-0.6-0.5-0.7c0.4,0.1,0.8-0.4,0.8-0.8c0-0.7-0.8-0.7-0.8-0.3c0,0,0,0,0,0c0,0,0,0,0,0c0,0.1,0.1,0.1,0.1,0
			c0.1-0.1,0.3,0.1,0.3,0.1c0,0.5-0.7,0.5-1,0c-0.2-0.3-0.4-0.1-0.7-0.1c0.4-0.4,0.7-1,0.2-1.4c-0.4-0.3-0.9-0.1-0.9,0.4
			c0,0.1,0.1,0.1,0.1,0c0.1-0.2,0.3-0.4,0.5-0.2c0.2,0.2,0,0.6-0.1,0.7c-0.2,0.2-0.7,0.4-1.3-0.3c0,0,0,0,0,0
			c-1.3-1.1-3.1-1.9-4.6-1.1c-0.8,0.1-1.2-0.9-0.7-0.9c0.2,0.1,0.4-0.2,0.3-0.5c-0.3,0.1-0.7,0.2-1,0.3c-0.2,0.9,0.4,1.3,1,1.3
			c-0.7,0.5-1.1,1.2-1.2,2c-0.1,0.9,0.4,1.8,1.3,2.1c0.8,0.2,1.9-0.3,1.6-1.3c-0.1-0.4-0.5-0.6-0.9-0.4c-0.3,0.2-0.3,0.9,0.2,0.7
			c0-0.2-0.1-0.1-0.2-0.1c-0.1-0.1-0.1-0.2-0.1-0.3c0.1-0.3,0.5-0.3,0.7-0.1c0.5,0.4,0.2,1.2-0.3,1.4c-0.6,0.3-1.3,0.1-1.7-0.4
			c-0.4-0.5-0.4-1.2-0.3-1.7c0.1-0.4,0.4-0.8,0.7-1.1c-0.1,0.1-0.1,0.3-0.1,0.4c0,0.2,0,0.3,0,0.5c0,0.3-0.1,0.5-0.3,0.7
			c0,0,0,0.1,0,0.1c0.6,0.3,1.1-0.1,1.4-0.5c0.2-0.3,0.2-0.6,0.3-1c0-0.1,0-0.3,0.1-0.5c0,0.2,0.1,0.5,0.4,0.4c0,0,0.1-0.1,0-0.1
			c-0.1-0.1-0.1-0.5,0-0.7c0.7,0,1.4,0.4,2,0.8c1.3,1,2.3,2.4,3.7,3.2c0.8,0.4,1.8,0.7,2.6,0.4c0.8-0.3,1.4-0.9,1.4-1.8
			c0.2-0.5,0.4-0.8,0.6-1.1C54.5,41.5,54.3,41.4,54.3,41.4z"/>
		<path class="st0" d="M26.5,36.6c-0.2,0.4-0.3,0.8-0.4,1.2c0.2-0.4,0.4-0.7,0.6-1.1C26.6,36.7,26.5,36.7,26.5,36.6z"/>
		<path class="st0" d="M20.1,37.5c0.2,0.5,0.6,0.6,1.1,0.4c0.3-0.1,0.9-0.9,1.9-0.4c-0.4-0.5-0.9-0.7-1.1-0.7
			c-0.2,0-0.4,0.2-0.6,0.3C21,37.3,20.6,37.5,20.1,37.5C20.1,37.4,20.1,37.4,20.1,37.5z"/>
		<g>
			<path class="st0" d="M15.3,37.7c0.7-0.3,1.6,0,1.7,0.8c0,0,0,0,0,0c0,0.1,0,0.2,0,0.3c-0.1,0.4-0.5,0.7-0.9,0.5
				c-0.3-0.2-0.4-0.8,0.1-0.7c0.1,0.1,0.1,0.4-0.2,0.4c0,0.1,0.1,0.2,0.2,0.3c0.4,0.1,0.7-0.2,0.7-0.6c0-0.2-0.2-0.3-0.5-0.3
				c-0.1,0-0.2,0-0.4,0c-0.3-0.1-0.3-0.4-0.6-0.3c0.2,0.3-0.3,0.5-0.5,0.7c0.3,0.1,0.3,0.4,0.2,0.7c0,0.1-0.1,0-0.1,0
				c-0.1-0.4-0.5-0.2-0.5,0.4c-0.1,0-0.1,0-0.2,0C14.2,38.7,14.5,38,15.3,37.7z"/>
			<path class="st0" d="M19.4,42.3C19.4,42.4,19.4,42.3,19.4,42.3L19.4,42.3z"/>
		</g>
		<path class="st0" d="M22.7,38.6c-0.8,0-1.7,0.8-2.3,1.3c-0.7,0.6-1.4,1.4-2.4,1.5c0.9,0,1.7-0.7,2.3-1.2c0.4-0.3,0.8-0.6,1.1-1
			C21.9,39,22.3,38.6,22.7,38.6C22.5,38.6,22.5,38.6,22.7,38.6z"/>
		<path class="st0" d="M7.2,42.2c-0.1,0.1-0.3,0.2-0.4,0.1c-0.2-0.1-0.2-0.4-0.1-0.6c0.1-0.3,2.6-2.3,4.7-0.1
			C10.5,40.9,9,40.6,7.2,42.2z"/>
		<path class="st0" d="M27.3,37.2c-0.2,0.1-0.5,0.3-0.8,0.6c-0.2,0.3-0.4,0.6-0.5,0.9c0,0.1,0,0.5,0,0.3c0.6-1.3,1.2-1.6,1.7-1.6
			C27.7,37.5,27.5,37.3,27.3,37.2z"/>
		<path class="st0" d="M28.2,37.8c0.2,0.2,0.2,0.4,0.1,0.6c0,0.1,0,0.1,0.1,0.1c0.2,0,0.4-0.1,0.6-0.3c0,0,0-0.1,0-0.1
			C28.7,38,28.5,37.9,28.2,37.8z"/>
		<path class="st0" d="M26.1,39.6C26.1,39.6,26.1,39.6,26.1,39.6C26.1,39.6,26.1,39.6,26.1,39.6C26.1,39.6,26.1,39.6,26.1,39.6z"/>
		<path class="st0" d="M26.2,36.4c-0.1,0-0.1-0.1-0.2-0.1c-0.3,0.1-0.6,0.2-0.6,0.5c-0.1-0.3-0.3,0.1-0.2,0.4
			c-0.3-0.1,0.1,0.6,0.1,0.6c-0.3-0.4-0.6-0.4-1-0.3c0,0-0.1,0.1-0.1,0.1c0.5,0.2,1.1,0.6,1.5,1.4c0,0.1,0.1,0,0.1,0
			C25.4,37.8,25.9,36.9,26.2,36.4z"/>
		<path class="st0" d="M15.7,41.9c2.4-0.5,2.2,3.5,5.1,2.8c-0.3,0.3-2,1.3-1.8,0.4c-0.7,0.6-0.8-0.3-1.5,0.1
			c-0.2-0.4-0.1-0.6,0.3-0.7c-0.6,0-0.9-0.4-1-0.9c0.4,0.2,0.4,0,0.7,0.2c-0.8-0.6-0.6-1.2-1.4-1.6c0.3,0.1,0.3-0.1,0.6,0
			c-0.5-0.3-1.1-0.2-1.4,0c-0.4,0.3-0.4,0.7-0.2,1.1c0.1,0.2,0.3,0.4,0.6,0.3c0.1,0,0.2-0.1,0.2-0.3c0-0.1,0-0.2,0-0.3
			c-0.2-0.3-0.4-0.1-0.3,0c0.1,0,0,0.1-0.1,0.1c-0.2-0.1-0.2-0.3,0-0.3c0.2-0.1,0.5,0.1,0.5,0.3c0,0.3-0.2,0.5-0.5,0.6
			c-0.3,0-0.5-0.2-0.6-0.4C14.6,42.7,15.1,42,15.7,41.9z"/>
		<path class="st0" d="M3.2,42.7c0.3-0.3,0.9-0.5,1.2-0.2c0.3,0.2,0.3,0.6,0.2,0.8c-0.2,0.2-0.5,0.1-0.4-0.1c0-0.3,0-0.6-0.3-0.6
			c-0.2,0-0.4,0.1-0.6,0.2c-0.1,0.1-0.4,0.5-0.1,1c1.6,2.2,4-1.6,6-2.3c1-0.3,2,0,2.6,1.1c0-0.3,0-0.5,0-0.8c0.1-0.5,0.4-1,0.9-1.4
			c-0.3,0.1-0.5,0.3-0.8,0.4c-0.4,0.1-0.8,0.1-1-0.3c0,0,0-0.1,0-0.1c0.5-0.2,0.9-0.6,1.4-0.7c0.3,0,0.6,0,0.9,0
			c0.3,0,0.6,0,0.8-0.1c0.4-0.1,0.8-0.1,1.2,0c0.7,0.2,1.5,0.5,2,1C17.1,40.9,17.1,41,17,41c0,0,0,0,0,0c-0.3-0.2-0.6-0.3-0.9-0.5
			c-0.7-0.3-1.4-0.3-2-0.1c-0.2,0.1-0.3,0.3-0.5,0.5c-0.1,0.2-0.2,0.8,0.2,0.8c0,0,0.1,0.1,0,0.1c-0.2,0.2-0.5,0.4-0.8,0.3
			c0,0.3-0.1,0.6-0.1,0.9c0.1,0.4,0.3,0.6,0.6,0.8c0.2,0,0.4,0,0.5-0.1c0.4-0.2,0.6-1.1,0-1.1c-0.2,0-0.3,0.1-0.3,0.3
			c0.1,0.1,0.2,0,0.2,0.2c-0.3,0.1-0.4-0.2-0.4-0.4c0.1-0.4,0.5-0.4,0.8-0.3c0.7,0.3,0.5,1.2,0.1,1.6c-0.6,0.5-1.5,0.4-2.1-0.1
			c-0.2-0.2-0.5-0.6-0.6-0.8C9.3,39,6.2,45.6,4,44.8c-0.5-0.2-1-0.5-1.1-1C2.8,43.1,3.2,42.7,3.2,42.7z"/>
		<path class="st0" d="M26.8,36.9c-0.1,0.2-0.3,0.4-0.4,0.6c-0.2,0.4-0.3,0.8-0.4,1.2c0,0.2-0.1,0.4-0.1,0.6c-0.4-1-1.7-1.5-2.1-1.6
			c-0.1-0.1-0.2-0.2-0.2-0.3c-0.1-0.4,0-0.8,0.4-1c0.4-0.2,1,0.2,0.7,0.6c-0.1,0.2-0.3,0.2-0.5,0.1c-0.1-0.2,0.1-0.2,0.1-0.4
			c-0.4,0.1,0,0.8,0.4,0.4c0.5-0.4-0.1-1.1-0.6-1c-0.3,0.1-0.5,0.2-0.6,0.4c-0.1-0.3-0.3-0.6-0.7-0.4c0,0,0,0.1,0,0.1
			c0.3,0.2,0,0.5,0.2,0.8c0.1,0.2,0.3,0.3,0.4,0.4c0,0,0,0.1,0.1,0.1c-1-0.1-2.1,0.3-3,0.9c-0.7,0.5-1.3,1-2,1.6
			c-1,0.8-1.5,1.1-2.2,1.1c-0.6,0-1.2-0.3-1.7-0.9c-0.1,0-0.1,0-0.2,0c0.4,0.6,0.9,0.9,1.5,1.1c0.5,0.1,1.1,0.2,1.8-0.1c0,0,0,0,0,0
			c1-0.4,1.9-1.2,2.6-1.7c0.7-0.6,1.5-1.1,2.4-1.4c0.3-0.1,0.6-0.1,0.9-0.1c-0.3,0.1-0.5,0.3-0.7,0.6c-0.3,0.4,0,1.4,0.7,1.3
			c0.2,0,0.3-0.1,0.4-0.3c0.1-0.3,0-0.7-0.4-0.6c0,0.1,0.1,0.1,0.1,0.1c0.2,0,0.2,0.2,0.2,0.3c0,0.2-1,0.4-0.9-0.6
			c0-0.2,0.2-0.5,0.4-0.6c0.3-0.2,0.4,0.1,0.6,0.2c0.2,0.1,0.4-0.1,0.6,0c-0.4,0.1-0.2,0.9,0.1,0.7c0,0,0-0.1,0-0.1
			c0.2-0.2,0.3-0.2,0.4,0c0,0,0.1,0.1,0.1,0.1c0,0,0.1,0.1,0.1,0.1c0.1,0.1,0.3,0,0.5,0.1c0.1,0,0.1,0.1,0.1,0.2
			c0,0.1,0.1,0.1,0.1,0c0,0,0,0,0-0.1c0.1-0.9,0.5-1.8,1.1-2.4C27.1,37.1,26.9,37,26.8,36.9z"/>
		<path class="st0" d="M35.6,40c-0.1,0-0.2,0-0.2,0c0,0.1,0,0.2-0.1,0.3c0-0.1,0-0.2,0-0.3c-0.2,0-0.4-0.1-0.6-0.2
			c-0.1,0-0.2,0-0.4,0c0,0,0,0,0,0c0.1,0.3,0.2,0.6,0.2,0.9c-0.4,0.7-1.2,1.1-2,1.1c-0.7-0.1-1.4-0.9-1-1.7c0.2-0.3,0.7-0.5,1-0.3
			c0.1,0.1,0.2,0.3,0.2,0.4c0,0.2-0.3,0.2-0.3,0.3c0,0,0,0,0,0c0.4,0.1,0.6-0.4,0.5-0.7c-0.2-0.4-0.6-0.5-1-0.4
			c-1,0.3-1,1.5-0.4,2.2c0.6,0.7,1.5,0.8,2.4,0.6c0.8-0.3,1.5-0.9,1.8-1.8C35.6,40.3,35.6,40.1,35.6,40C35.6,40,35.6,40,35.6,40z"/>
		<path class="st0" d="M7.1,44c0.3-0.3,0.5-0.4,0.9-0.3c0.2,0,0.5,0.1,0.7,0.1c0.2,0,0.4-0.1,0.5-0.3c0.2-0.3,0.5-0.7,0.9-0.5
			c-0.3,0.4,0.1,1.3,0.9,0.7c0,0-0.1-0.1-0.1-0.1c-0.4,0.1-0.4-0.4-0.2-0.5c0.5-0.3,1.3,1.2,2.1,1.3c-0.6-0.3-1-1.1-1.5-1.8
			C10.6,41.5,8.7,41.6,7.1,44C7,44,7.1,44.1,7.1,44z"/>
		<path class="st0" d="M24.4,42.6c0.8-0.8,1.7-2,2.9-2.1c0,0,0.1,0,0.2,0c-1.3,0.2-2.2,1.6-3.1,2.4c-0.9,0.9-2,1.8-3.3,1.8
			C22.5,44.5,23.5,43.5,24.4,42.6z"/>
		<path class="st0" d="M29.6,40c0.6-0.1,1.2-0.5,1-1.4c-0.3-0.1-0.7-0.2-1-0.3c-0.1,0.2,0.1,0.5,0.3,0.5c0.5,0,0.1,1-0.7,0.9
			c-1.6-0.8-3.4,0-4.6,1.1c0,0,0,0,0,0c-0.6,0.8-1.1,0.5-1.3,0.3c-0.2-0.2-0.3-0.5-0.1-0.7c0.2-0.2,0.4,0,0.5,0.2
			c0,0.1,0.1,0.1,0.1,0c0-0.5-0.5-0.7-0.9-0.4c-0.5,0.4-0.2,1,0.2,1.4c-0.2-0.1-0.5-0.2-0.7,0.1c-0.4,0.5-1,0.5-1,0
			c0,0,0.1-0.2,0.3-0.1c0,0,0.1,0,0.1,0c0,0,0,0,0,0c0,0,0,0,0,0c0-0.4-0.8-0.4-0.8,0.3c0,0.4,0.4,0.9,0.8,0.8
			c-0.4,0.1-0.5,0.4-0.5,0.7c0,0.9-1.4,0.8-1.5,0.8c-1-0.3-1.9-1.3-0.9-2.2c0.3-0.3,1-0.4,1.2,0.1c0.1,0.2,0.1,0.5-0.2,0.6
			c-0.3,0.1-0.3-0.2-0.4-0.2c0,0.5,0.6,0.3,0.8,0c0.2-0.4-0.2-0.9-0.6-0.9c-0.6-0.1-1.1,0.3-1.3,0.8c-0.1-0.3-0.3-0.6-0.5-0.9
			c0,0-0.2,0.1-0.2,0.1c0.2,0.2,0.4,0.6,0.6,1.1c0,0.9,0.7,1.6,1.4,1.8c0.9,0.3,1.9,0,2.6-0.4c1.5-0.8,2.4-2.3,3.7-3.2
			c0.6-0.4,1.2-0.8,2-0.8c0.1,0.1,0.1,0.5,0,0.7c0,0,0,0.1,0,0.1c0.3,0.1,0.4-0.1,0.4-0.4c0.1,0.2,0.1,0.5,0.1,0.5
			c0,0.3,0.1,0.7,0.3,1c0.3,0.5,0.9,0.8,1.4,0.5c0,0,0-0.1,0-0.1c-0.1-0.2-0.3-0.4-0.3-0.7c0-0.2,0-0.3,0-0.5c0-0.1-0.1-0.3-0.1-0.4
			c0.3,0.3,0.6,0.7,0.7,1.1c0.2,0.6,0.1,1.3-0.3,1.7c-0.4,0.5-1.1,0.7-1.7,0.4c-0.5-0.2-0.8-1-0.3-1.4c0.2-0.2,0.6-0.2,0.7,0.1
			c0,0.1,0,0.2-0.1,0.3c-0.1,0.1-0.2,0-0.2,0.1c0.4,0.2,0.5-0.5,0.2-0.7c-0.4-0.2-0.8,0.1-0.9,0.4c-0.3,1,0.8,1.5,1.6,1.3
			c0.9-0.2,1.3-1.2,1.3-2.1C30.8,41.2,30.3,40.5,29.6,40z"/>
	</g>
</g>
</svg>
