<?xml version="1.0" encoding="UTF-8"?>
<svg xmlns="http://www.w3.org/2000/svg" xmlns:xlink="http://www.w3.org/1999/xlink" width="61px" height="51px" viewBox="0 0 61 51" version="1.1">
<g id="surface1">
<path style=" stroke:none;fill-rule:nonzero;fill:rgb(0%,0%,0%);fill-opacity:1;" d="M 52.707031 10.261719 L 52.625 10.195312 C 52.160156 9.804688 51.40625 9.804688 50.941406 10.195312 C 50.476562 10.582031 50.476562 11.214844 50.941406 11.605469 L 51.011719 11.664062 C 51.246094 11.859375 51.554688 11.957031 51.859375 11.957031 C 52.164062 11.957031 52.464844 11.863281 52.699219 11.671875 C 53.164062 11.28125 53.167969 10.652344 52.707031 10.261719 Z M 52.707031 10.261719 "/>
<path style=" stroke:none;fill-rule:nonzero;fill:rgb(0%,0%,0%);fill-opacity:1;" d="M 56.414062 14.101562 C 56.054688 13.640625 55.320312 13.511719 54.765625 13.808594 C 54.214844 14.109375 54.058594 14.726562 54.414062 15.1875 C 61.097656 23.796875 59.636719 35.320312 50.941406 42.589844 C 45.992188 46.730469 39.410156 49.007812 32.410156 49.007812 C 25.410156 49.007812 18.828125 46.730469 13.878906 42.589844 C 8.929688 38.453125 6.203125 32.949219 6.203125 27.097656 C 6.203125 24.578125 6.710938 22.121094 7.679688 19.8125 L 28.757812 37.433594 C 28.921875 37.574219 29.136719 37.671875 29.371094 37.710938 L 36.851562 38.972656 C 36.855469 38.976562 36.855469 38.976562 36.859375 38.976562 L 47.328125 40.742188 C 47.40625 40.753906 47.484375 40.761719 47.5625 40.761719 C 47.875 40.761719 48.179688 40.65625 48.40625 40.46875 C 48.6875 40.234375 48.808594 39.894531 48.730469 39.566406 L 46.617188 30.8125 C 46.617188 30.8125 46.617188 30.808594 46.617188 30.804688 L 45.109375 24.554688 C 45.0625 24.359375 44.945312 24.1875 44.789062 24.054688 C 44.785156 24.050781 44.78125 24.046875 44.777344 24.042969 L 23.695312 6.417969 C 30.910156 4.285156 39.074219 4.851562 45.96875 8.339844 C 46.53125 8.625 47.261719 8.472656 47.605469 8.003906 C 47.945312 7.53125 47.765625 6.921875 47.203125 6.636719 C 41.828125 3.914062 35.414062 2.75 29.136719 3.351562 C 26.597656 3.59375 24.15625 4.105469 21.847656 4.871094 L 16.367188 0.292969 C 16.023438 0.00390625 15.503906 -0.0820312 15.054688 0.0820312 C 11.726562 1.277344 8.730469 2.980469 6.148438 5.140625 C 3.566406 7.296875 1.53125 9.804688 0.0976562 12.585938 C -0.09375 12.960938 0.00390625 13.398438 0.347656 13.683594 L 5.828125 18.265625 C 4.511719 21.039062 3.820312 24.023438 3.820312 27.097656 C 3.820312 33.480469 6.792969 39.484375 12.195312 44 C 17.59375 48.511719 24.773438 51 32.410156 51 C 40.046875 51 47.226562 48.511719 52.625 44 C 57.285156 40.105469 60.207031 34.949219 60.859375 29.480469 C 61.5 24.085938 59.921875 18.625 56.414062 14.101562 Z M 46.039062 38.492188 L 38.84375 37.277344 C 39.507812 36.28125 40.335938 35.363281 41.316406 34.542969 C 42.296875 33.722656 43.394531 33.03125 44.589844 32.476562 Z M 44.097656 30.441406 C 42.449219 31.128906 40.949219 32.03125 39.632812 33.132812 C 38.3125 34.234375 37.230469 35.488281 36.410156 36.867188 L 31.316406 36.007812 C 32.570312 33.902344 34.222656 31.984375 36.238281 30.296875 C 38.257812 28.613281 40.550781 27.230469 43.070312 26.179688 Z M 41.890625 24.445312 C 39.183594 25.585938 36.722656 27.078125 34.554688 28.890625 C 32.386719 30.703125 30.605469 32.761719 29.238281 35.023438 L 8.65625 17.8125 C 9.933594 15.535156 11.6875 13.433594 13.878906 11.601562 C 16.089844 9.757812 18.609375 8.296875 21.308594 7.238281 Z M 2.613281 12.761719 C 3.902344 10.453125 5.65625 8.367188 7.832031 6.546875 C 10.007812 4.726562 12.503906 3.261719 15.265625 2.1875 L 19.519531 5.746094 C 16.84375 6.875 14.378906 8.367188 12.195312 10.195312 C 10.011719 12.019531 8.226562 14.085938 6.875 16.324219 Z M 2.613281 12.761719 "/>
<path style=" stroke:none;fill-rule:nonzero;fill:rgb(0%,0%,0%);fill-opacity:1;" d="M 23.15625 22.425781 L 15.730469 16.214844 C 15.265625 15.824219 14.511719 15.824219 14.046875 16.214844 C 13.578125 16.605469 13.578125 17.234375 14.046875 17.625 L 21.472656 23.832031 C 21.707031 24.027344 22.011719 24.125 22.316406 24.125 C 22.621094 24.125 22.925781 24.027344 23.15625 23.832031 C 23.625 23.445312 23.625 22.8125 23.15625 22.425781 Z M 23.15625 22.425781 "/>
<path style=" stroke:none;fill-rule:nonzero;fill:rgb(0%,0%,0%);fill-opacity:1;" d="M 26.429688 25.160156 L 26.421875 25.152344 C 25.957031 24.765625 25.203125 24.761719 24.738281 25.148438 C 24.269531 25.539062 24.269531 26.167969 24.730469 26.558594 L 24.742188 26.566406 C 24.972656 26.761719 25.28125 26.859375 25.585938 26.859375 C 25.890625 26.859375 26.195312 26.765625 26.425781 26.570312 C 26.894531 26.183594 26.894531 25.550781 26.429688 25.160156 Z M 26.429688 25.160156 "/>
</g>
</svg>
