<?xml version="1.0" encoding="UTF-8"?>
<svg xmlns="http://www.w3.org/2000/svg" xmlns:xlink="http://www.w3.org/1999/xlink" width="75px" height="85px" viewBox="0 0 75 85" version="1.1">
<g id="surface1">
<path style=" stroke:none;fill-rule:nonzero;fill:rgb(98.039216%,97.254902%,96.862745%);fill-opacity:1;" d="M 71.960938 66.898438 C 71.046875 61.398438 67.09375 56.800781 61.824219 55.101562 L 49.964844 51.199219 L 49.964844 49.398438 L 47.230469 49.398438 L 47.230469 52 L 45.203125 60.199219 L 39.527344 53.5 L 35.472656 53.5 L 29.898438 60.101562 L 27.871094 51.898438 L 27.871094 49.300781 L 25.136719 49.300781 L 25.136719 51 L 13.175781 55 C 7.804688 56.800781 3.953125 61.300781 3.039062 66.800781 L 0 85 L 75 85 Z M 30.8125 82.300781 L 15.609375 82.300781 L 16.824219 70.101562 L 14.085938 69.800781 L 12.871094 82.300781 L 3.242188 82.300781 L 5.777344 67.398438 C 6.488281 62.898438 9.730469 59.199219 14.085938 57.699219 L 25.4375 53.898438 L 28.480469 66.101562 L 31.621094 62.398438 L 33.242188 64.898438 Z M 41.453125 82.300781 L 33.546875 82.300781 L 36.183594 64.199219 L 33.445312 60.199219 L 36.6875 56.300781 L 38.109375 56.300781 L 41.351562 60.199219 L 38.613281 64.199219 Z M 62.230469 82.300781 L 61.011719 69.800781 L 58.277344 70.101562 L 59.492188 82.300781 L 44.289062 82.300781 L 41.757812 64.800781 L 43.378906 62.300781 L 46.519531 66 L 49.5625 53.800781 L 60.914062 57.601562 C 65.269531 59.101562 68.511719 62.800781 69.222656 67.300781 L 71.757812 82.199219 L 62.230469 82.199219 Z M 62.230469 82.300781 "/>
<path style=" stroke:none;fill-rule:nonzero;fill:rgb(98.039216%,97.254902%,96.862745%);fill-opacity:1;" d="M 20.167969 36.898438 C 20.878906 39.300781 22.195312 41.5 24.019531 43.300781 L 29.390625 48.601562 C 30.710938 49.898438 32.433594 50.601562 34.257812 50.601562 L 40.742188 50.601562 C 42.566406 50.601562 44.289062 49.898438 45.609375 48.601562 L 50.980469 43.300781 C 52.804688 41.5 54.121094 39.300781 54.832031 36.898438 C 58.277344 36.5 60.914062 33.601562 60.914062 30.101562 C 60.914062 27.898438 59.796875 25.898438 58.074219 24.601562 L 58.074219 16.398438 C 58.074219 13 55.539062 10.101562 52.195312 9.601562 C 50.269531 3.898438 44.695312 0 38.511719 0 L 37.5 0 C 26.046875 0 16.824219 9.199219 16.824219 20.601562 L 16.824219 24.699219 C 15.101562 26 13.988281 27.898438 13.988281 30.199219 C 14.085938 33.699219 16.722656 36.601562 20.167969 36.898438 Z M 52.703125 32.699219 C 52.703125 36 51.386719 39.101562 49.054688 41.398438 L 43.683594 46.699219 C 42.871094 47.5 41.859375 47.898438 40.742188 47.898438 L 34.257812 47.898438 C 33.140625 47.898438 32.128906 47.5 31.316406 46.699219 L 25.945312 41.398438 C 23.613281 39.101562 22.296875 36 22.296875 32.699219 L 22.296875 26 L 27.667969 26 C 33.75 26 39.527344 23.898438 43.988281 19.898438 L 44.390625 20.601562 C 46.113281 23.5 49.15625 25.398438 52.601562 25.898438 Z M 58.175781 30.199219 C 58.175781 32 56.960938 33.5 55.335938 34.101562 C 55.335938 33.699219 55.4375 33.199219 55.4375 32.800781 L 55.4375 26.398438 C 57.0625 26.898438 58.175781 28.398438 58.175781 30.199219 Z M 19.5625 20.601562 C 19.5625 10.800781 27.566406 2.800781 37.5 2.800781 L 38.511719 2.800781 C 43.785156 2.800781 48.546875 6.300781 49.964844 11.398438 L 50.269531 12.398438 L 51.285156 12.398438 C 53.613281 12.398438 55.4375 14.300781 55.4375 16.5 L 55.4375 23.5 C 55.035156 23.398438 54.527344 23.398438 54.019531 23.398438 C 51.082031 23.398438 48.34375 21.898438 46.824219 19.398438 L 44.59375 15.699219 L 43.378906 16.898438 C 39.222656 21.101562 33.648438 23.398438 27.667969 23.398438 L 20.878906 23.398438 C 20.371094 23.398438 19.964844 23.5 19.460938 23.5 Z M 19.5625 26.300781 L 19.5625 32.699219 C 19.5625 33.101562 19.5625 33.601562 19.664062 34 C 18.039062 33.5 16.824219 31.898438 16.824219 30.101562 C 16.824219 28.398438 17.9375 26.898438 19.5625 26.300781 Z M 19.5625 26.300781 "/>
</g>
</svg>
