<?xml version="1.0" encoding="UTF-8"?>
<svg xmlns="http://www.w3.org/2000/svg" xmlns:xlink="http://www.w3.org/1999/xlink" width="204px" height="189px" viewBox="0 0 204 189" version="1.1">
<defs>
<filter id="alpha" filterUnits="objectBoundingBox" x="0%" y="0%" width="100%" height="100%">
  <feColorMatrix type="matrix" in="SourceGraphic" values="0 0 0 0 1 0 0 0 0 1 0 0 0 0 1 0 0 0 1 0"/>
</filter>
<mask id="mask0">
  <g filter="url(#alpha)">
<rect x="0" y="0" width="204" height="189" style="fill:rgb(0%,0%,0%);fill-opacity:0.701961;stroke:none;"/>
  </g>
</mask>
<clipPath id="clip1">
  <rect x="0" y="0" width="204" height="189"/>
</clipPath>
<g id="surface5" clip-path="url(#clip1)">
<path style=" stroke:none;fill-rule:nonzero;fill:rgb(100%,100%,100%);fill-opacity:1;" d="M 34.199219 79.601562 C 34.199219 79.601562 22.398438 105.398438 39 131.398438 C 55.601562 157.398438 89.699219 171.101562 117.101562 182.800781 C 144.5 194.5 172.898438 188.800781 186.398438 169.601562 C 199.898438 150.398438 181.300781 136.699219 181.300781 109.300781 C 181.300781 81.898438 186.101562 74.699219 168.601562 51.5 C 151.101562 28.300781 108 23.199219 75.5 40.398438 C 43 57.601562 34.199219 79.601562 34.199219 79.601562 Z M 34.199219 79.601562 "/>
</g>
<mask id="mask1">
  <g filter="url(#alpha)">
<rect x="0" y="0" width="204" height="189" style="fill:rgb(0%,0%,0%);fill-opacity:0.701961;stroke:none;"/>
  </g>
</mask>
<clipPath id="clip2">
  <rect x="0" y="0" width="204" height="189"/>
</clipPath>
<g id="surface8" clip-path="url(#clip2)">
<path style=" stroke:none;fill-rule:nonzero;fill:rgb(100%,100%,100%);fill-opacity:1;" d="M 32.398438 69.601562 C 43.699219 51.101562 64.699219 37 90.898438 35 C 108.898438 33.699219 126.800781 38 141.199219 47.300781 C 148.300781 52 154.699219 57.898438 158.898438 64.699219 C 163.699219 72.5 165.101562 81.398438 170.101562 89.199219 C 176.300781 98.800781 187.898438 102.800781 195.699219 111.101562 C 202.101562 118 204.300781 127.101562 203.601562 135.800781 C 202.300781 151.699219 191.199219 166.800781 175 175 C 161.300781 181.898438 144.800781 183.800781 128.800781 183.199219 C 104.300781 182.199219 79.800781 175.398438 60.398438 162.5 C 41 149.601562 27.199219 130.699219 23.800781 110.101562 C 21.699219 96.101562 25 81.898438 32.398438 69.601562 Z M 32.398438 69.601562 "/>
</g>
<clipPath id="clip3">
  <path d="M 0 0 L 112 0 L 112 106 L 0 106 Z M 0 0 "/>
</clipPath>
<clipPath id="clip4">
  <path d="M 104.898438 77.398438 C 103.699219 79.601562 102.300781 81.699219 100.800781 83.699219 C 84.5 105.101562 54.101562 111.898438 29.5 99.601562 C 28.300781 99 27 98.300781 25.898438 97.699219 C 24.699219 97 23.601562 96.300781 22.5 95.5 C 21.199219 94.601562 19.898438 93.699219 18.699219 92.601562 C 18.601562 92.5 18.5 92.5 18.5 92.398438 C -4.601562 73 -6.699219 39.5 13.800781 17.699219 C 34.300781 -4.101562 69.5 -6.199219 92.5 13.199219 C 111.800781 29.300781 116.898438 55.800781 104.898438 77.398438 Z M 104.898438 77.398438 "/>
</clipPath>
<mask id="mask2">
  <g filter="url(#alpha)">
<rect x="0" y="0" width="204" height="189" style="fill:rgb(0%,0%,0%);fill-opacity:0.6;stroke:none;"/>
  </g>
</mask>
<clipPath id="clip5">
  <rect x="0" y="0" width="204" height="189"/>
</clipPath>
<g id="surface11" clip-path="url(#clip5)">
<path style=" stroke:none;fill-rule:nonzero;fill:rgb(100%,100%,100%);fill-opacity:1;" d="M 104.898438 77.398438 C 103.699219 79.601562 102.300781 81.699219 100.800781 83.699219 L 99.699219 82.898438 L 97.800781 82 L 95.898438 81 L 96.300781 78.699219 L 96.199219 76.699219 C 96.101562 74.699219 97.601562 76.398438 98.898438 75.699219 C 99.898438 75 100.699219 74.199219 101.199219 73.199219 C 101.199219 73.199219 102.101562 70.5 101.800781 69.398438 C 101.398438 68.101562 100.699219 67 100.101562 65.800781 L 96.898438 70 L 94.199219 69.800781 L 91.699219 68.5 L 91.300781 65.199219 L 90 64.5 L 89.5 62.601562 L 82.5 60.800781 L 81.699219 59.5 C 80.898438 58.199219 77.699219 57.5 77.699219 57.5 L 78.5 55.699219 L 79.699219 53.800781 C 80.898438 51.898438 82.300781 55.101562 82.300781 55.101562 L 83.800781 55.898438 L 86.5 53.699219 L 87.199219 50.601562 L 91.699219 50.898438 C 91.5 50.101562 92 49.101562 92.898438 48.800781 C 94.398438 48.199219 93.699219 45.199219 93.199219 44 C 92.699219 42.800781 90.5 43.699219 90.5 43.699219 C 90.5 43.699219 88.199219 40.398438 87.898438 39.101562 C 87.601562 37.800781 92.199219 38.300781 94.199219 36.898438 C 96.199219 35.5 95.5 33 94.601562 32.898438 C 93.601562 32.800781 96.5 26.898438 102 28.5 C 103.5 28.898438 104.5 28.800781 105.101562 28.199219 C 113.5 43.699219 113.398438 62 104.898438 77.398438 Z M 104.898438 77.398438 "/>
<path style=" stroke:none;fill-rule:nonzero;fill:rgb(100%,100%,100%);fill-opacity:1;" d="M 66.101562 54.699219 L 64.300781 57 C 64.300781 57 63.5 55.199219 62.398438 56.199219 L 60.601562 57.699219 L 59.398438 61.101562 L 57 62.5 L 55.601562 61.800781 L 54.300781 61.101562 L 52.898438 60.300781 L 51.5 62.800781 L 50.300781 64.800781 C 50.800781 65.800781 51.5 66.699219 52.300781 67.601562 L 54.800781 71.699219 L 57.800781 73.101562 C 59 73.199219 60.300781 73.300781 61.5 73.5 L 63.5 74.5 L 62.800781 78.699219 C 62.800781 78.699219 61.300781 81.101562 60.199219 80.5 L 59.199219 80 L 57.5 85.5 L 57.398438 88.5 C 57.398438 88.5 56.398438 88.898438 55.398438 89.300781 C 54.398438 89.699219 55.101562 89.398438 53 90 C 50.898438 90.601562 51.101562 90.601562 49.398438 91.101562 C 47.898438 91.601562 46.601562 92.199219 45.199219 92.898438 L 45.398438 95.800781 L 41.300781 96.398438 L 39 95.199219 L 39.5 93.398438 L 39.800781 90.5 L 39.398438 88.300781 L 38.398438 86.398438 L 41.101562 84 L 40.5 82.5 L 38.898438 79.601562 L 35.601562 81.300781 L 33.898438 82.101562 L 30.101562 80.5 L 29.699219 78.300781 L 28.5 74.199219 L 27.300781 71.800781 L 25.199219 69.101562 L 24.699219 66.699219 L 25.898438 64.601562 L 26.5 63.5 L 24.601562 61.101562 L 24 59.5 L 20.699219 56.601562 C 20.699219 56.601562 21.699219 56.5 21.398438 55.300781 C 21.101562 54.101562 23.300781 51.898438 23.300781 51.898438 C 24.5 52.5 28 54.800781 28 54.800781 L 31.101562 55.199219 C 31.101562 55.199219 31.699219 55.199219 32.300781 54.101562 C 33 53.101562 33.800781 52.199219 34.800781 51.300781 C 34.800781 51.300781 33.398438 46.601562 34.398438 46 C 35.398438 45.398438 36.398438 42.300781 36.398438 42.300781 L 37.199219 40.800781 C 37.199219 40.800781 35.300781 40 34.898438 39 C 34.5 38 29.800781 39.300781 29.800781 39.300781 L 26.5 41.5 L 23.898438 43.398438 L 22.699219 45.398438 C 22.699219 45.398438 20.398438 42.800781 20.398438 44.199219 C 20.199219 45.699219 19.898438 47.101562 19.300781 48.601562 C 19.300781 48.601562 19.699219 48.898438 19.101562 49.898438 C 18.5 51 17.800781 51 16.398438 51.199219 C 14.601562 51.199219 12.898438 51.101562 11.101562 50.898438 C 11.101562 50.898438 10.199219 54 10.800781 54.5 L 11.398438 55 C 11.398438 55 10.398438 57.300781 9.5 56.800781 L 7.199219 55.601562 L 4.300781 57 L 0.800781 60.699219 L 0 60.601562 C -4.601562 31.898438 16.199219 5 46.398438 0.5 C 46.601562 1.300781 46.800781 2.101562 46.800781 2.101562 L 46 6.199219 L 44.800781 8.199219 L 43.800781 10 L 42.398438 12.398438 L 45.898438 15.5 L 45.101562 19.101562 L 43.199219 20.300781 L 42.800781 23 L 46.101562 29 L 47 31.398438 C 46.5 32.601562 46.199219 33.800781 46.199219 35 C 46.199219 35 46.601562 37.300781 48.300781 38.199219 C 50 39.101562 52.398438 40.101562 52.398438 40.101562 L 52.199219 43.5 L 51.398438 44.300781 L 52.699219 47.898438 C 56.699219 49.398438 56.300781 50.699219 56.699219 49.398438 L 57.101562 48.101562 L 59.800781 47.199219 L 63.300781 51.101562 C 64.101562 51.101562 64.898438 51.398438 65.300781 52.101562 C 66.5 53.398438 68.101562 52.398438 66.101562 54.699219 Z M 66.101562 54.699219 "/>
<path style=" stroke:none;fill-rule:nonzero;fill:rgb(100%,100%,100%);fill-opacity:1;" d="M 19.199219 83.898438 C 19.300781 85.101562 17.699219 86.601562 17.699219 86.601562 L 19 87.300781 L 19.398438 90.699219 L 18.398438 92.5 C 11.398438 86.699219 6.101562 79.199219 3 71 L 3.699219 67.5 L 6.800781 67.101562 C 6.800781 67.101562 9.601562 65.300781 10.898438 65.800781 C 12.199219 66.300781 13.300781 69.199219 13.300781 69.199219 C 13.300781 69.199219 14.199219 73.101562 14.101562 73.101562 L 14 73.101562 L 14.101562 73.101562 L 15.300781 73.800781 L 15.699219 75.300781 L 13.898438 78.5 L 11.101562 78.5 C 11.101562 78.5 10.601562 78.199219 10.5 79.601562 C 10.601562 80.601562 11.101562 81.398438 12 82 L 15.101562 81.199219 L 15.898438 78.199219 L 18.898438 77.601562 C 18.898438 77.601562 18.5 79.398438 19.199219 79.800781 L 19.898438 80.101562 L 20.300781 82.300781 C 19.699219 82.601562 19.199219 83.101562 19.199219 83.898438 Z M 19.199219 83.898438 "/>
<path style=" stroke:none;fill-rule:nonzero;fill:rgb(100%,100%,100%);fill-opacity:1;" d="M 33.898438 88.699219 C 33.601562 87.898438 33.5 87.398438 31.601562 86.398438 C 29.699219 85.5 29.800781 85.800781 29.101562 86.601562 C 28.5 87.398438 27.300781 87.800781 26.300781 87.5 C 25.101562 87.199219 25.699219 88.601562 25.699219 88.601562 L 26 92.199219 L 22.5 95.5 C 23.601562 96.300781 24.699219 97 25.898438 97.699219 L 26.601562 95.5 L 32.398438 97.101562 C 31.199219 96.800781 31.898438 95.199219 31.898438 95.199219 L 30.699219 94.601562 C 30.699219 94.398438 34.199219 89.398438 33.898438 88.699219 Z M 33.898438 88.699219 "/>
<path style=" stroke:none;fill-rule:nonzero;fill:rgb(100%,100%,100%);fill-opacity:1;" d="M 70.5 70 L 68.601562 68.199219 L 66.398438 68.898438 L 65.5 70.601562 L 64.800781 71.800781 L 65.699219 73.5 L 67.5 75.5 L 68.5 73.699219 C 68.5 73.699219 71.300781 73.699219 72.699219 72.199219 C 74.101562 70.699219 70.5 70 70.5 70 Z M 70.5 70 "/>
<path style=" stroke:none;fill-rule:nonzero;fill:rgb(100%,100%,100%);fill-opacity:1;" d="M 64.898438 61.800781 L 68.398438 63.601562 L 68.601562 62.800781 C 68.800781 62.101562 69.101562 61.5 69.601562 61 L 66.898438 58.300781 Z M 64.898438 61.800781 "/>
<path style=" stroke:none;fill-rule:nonzero;fill:rgb(100%,100%,100%);fill-opacity:1;" d="M 63.699219 100.898438 L 62.699219 99.5 L 61.5 98.898438 L 57.898438 98.898438 L 55.898438 102.601562 C 55.898438 102.601562 54 102.300781 51.300781 102.101562 C 48.601562 101.800781 49.398438 102.898438 49.398438 102.898438 L 48.699219 105.300781 C 55.199219 106.101562 61.898438 105.699219 68.300781 104.300781 C 67.601562 103.800781 66.800781 103.398438 66 103 Z M 63.699219 100.898438 "/>
</g>
<clipPath id="clip6">
  <path d="M 66 68 L 113 68 L 113 109 L 66 109 Z M 66 68 "/>
</clipPath>
<clipPath id="clip7">
  <path d="M 110 97.398438 C 109.5 98.199219 109 99 108.300781 99.800781 C 101.699219 107.898438 89.199219 110.5 79.199219 105.800781 C 78.699219 105.601562 78.199219 105.300781 77.699219 105.101562 C 77.199219 104.800781 76.800781 104.601562 76.300781 104.300781 C 75.800781 104 75.300781 103.601562 74.699219 103.199219 C 74.699219 103.199219 74.601562 103.199219 74.601562 103.101562 C 65.199219 95.800781 64.300781 83.101562 72.699219 74.898438 C 81.101562 66.699219 95.398438 65.898438 104.800781 73.199219 C 112.800781 79.199219 114.898438 89.199219 110 97.398438 Z M 110 97.398438 "/>
</clipPath>
<mask id="mask3">
  <g filter="url(#alpha)">
<rect x="0" y="0" width="204" height="189" style="fill:rgb(0%,0%,0%);fill-opacity:0.6;stroke:none;"/>
  </g>
</mask>
<clipPath id="clip8">
  <rect x="0" y="0" width="204" height="189"/>
</clipPath>
<g id="surface14" clip-path="url(#clip8)">
<path style=" stroke:none;fill-rule:nonzero;fill:rgb(100%,100%,100%);fill-opacity:1;" d="M 110 97.398438 C 109.5 98.199219 109 99 108.300781 99.800781 L 107.898438 99.5 L 107.101562 99.199219 L 106.300781 98.800781 L 106.398438 97.898438 L 106.398438 97.101562 C 106.398438 96.300781 107 97 107.5 96.699219 C 107.898438 96.398438 108.199219 96.101562 108.398438 95.699219 C 108.398438 95.699219 108.800781 94.699219 108.699219 94.300781 C 108.5 93.800781 108.300781 93.398438 108 92.898438 L 106.699219 94.5 L 105.601562 94.398438 L 104.601562 93.898438 L 104.5 92.699219 L 104 92.398438 L 103.800781 91.699219 L 100.898438 91 L 100.601562 90.5 C 100.300781 90 99 89.699219 99 89.699219 L 99.300781 89 L 99.800781 88.300781 C 100.300781 87.601562 100.800781 88.800781 100.800781 88.800781 L 101.398438 89.101562 L 102.5 88.300781 L 102.800781 87.101562 L 104.601562 87.199219 C 104.5 86.898438 104.699219 86.5 105.101562 86.398438 C 105.699219 86.199219 105.398438 85 105.199219 84.601562 C 105 84.199219 104.101562 84.5 104.101562 84.5 C 104.101562 84.5 103.199219 83.300781 103.101562 82.800781 C 103 82.300781 104.898438 82.5 105.699219 82 C 106.5 81.5 106.199219 80.5 105.800781 80.5 C 105.398438 80.5 106.601562 78.199219 108.800781 78.898438 C 109.398438 79.101562 109.800781 79 110.101562 78.800781 C 113.5 84.601562 113.398438 91.601562 110 97.398438 Z M 110 97.398438 "/>
<path style=" stroke:none;fill-rule:nonzero;fill:rgb(100%,100%,100%);fill-opacity:1;" d="M 94.199219 88.800781 L 93.398438 89.699219 C 93.398438 89.699219 93.101562 89 92.601562 89.398438 L 91.898438 90 L 91.398438 91.300781 L 90.5 91.800781 L 89.898438 91.5 L 89.398438 91.199219 L 88.800781 91 L 88.199219 92 L 87.699219 92.800781 C 87.898438 93.199219 88.199219 93.5 88.5 93.800781 L 89.5 95.398438 L 90.699219 95.898438 C 91.199219 95.898438 91.699219 96 92.199219 96.101562 L 93 96.5 L 92.699219 98.101562 C 92.699219 98.101562 92.101562 99 91.699219 98.800781 L 91.300781 98.5 L 90.601562 100.601562 L 90.601562 101.699219 C 90.601562 101.699219 90.199219 101.898438 89.800781 102 C 89.398438 102.101562 89.699219 102.101562 88.800781 102.300781 C 87.898438 102.5 88 102.5 87.300781 102.699219 C 86.699219 102.898438 86.101562 103.101562 85.601562 103.398438 L 85.699219 104.5 L 84 104.699219 L 83.101562 104.300781 L 83.300781 103.601562 L 83.398438 102.5 L 83.300781 101.699219 L 82.898438 101 L 84 100.101562 L 83.699219 99.5 L 83.101562 98.398438 L 81.800781 99 L 81 99.199219 L 79.398438 98.601562 L 79.199219 97.800781 L 78.699219 96.199219 L 78.199219 95.300781 L 77.300781 94.300781 L 77.101562 93.398438 L 77.601562 92.601562 L 77.898438 92.199219 L 77.101562 91.300781 L 77 90.601562 L 75.699219 89.5 C 75.699219 89.5 76.101562 89.5 76 89 C 75.898438 88.5 76.800781 87.699219 76.800781 87.699219 C 77.300781 87.898438 78.699219 88.800781 78.699219 88.800781 L 80 89 C 80 89 80.300781 89 80.5 88.601562 C 80.800781 88.199219 81.101562 87.898438 81.5 87.601562 C 81.5 87.601562 80.898438 85.800781 81.300781 85.601562 C 81.699219 85.398438 82.101562 84.199219 82.101562 84.199219 L 82.398438 83.601562 C 82.398438 83.601562 81.601562 83.300781 81.5 82.898438 C 81.398438 82.5 79.398438 83 79.398438 83 L 78 83.898438 L 77 84.601562 L 76.5 85.398438 C 76.5 85.398438 75.601562 84.398438 75.601562 85 C 75.5 85.601562 75.398438 86.101562 75.199219 86.601562 C 75.199219 86.601562 75.398438 86.699219 75.101562 87.101562 C 74.800781 87.5 74.601562 87.5 74 87.601562 C 73.300781 87.601562 72.601562 87.601562 71.800781 87.5 C 71.800781 87.5 71.398438 88.699219 71.699219 88.898438 L 72 89.101562 C 72 89.101562 71.601562 90 71.199219 89.800781 L 70.300781 89.398438 L 69 89.898438 L 67.601562 91.300781 L 67.199219 91 C 65.398438 80.101562 73.800781 70 86.101562 68.300781 C 86.199219 68.601562 86.300781 68.898438 86.300781 68.898438 L 85.898438 70.5 L 85.398438 71.300781 L 85 72 L 84.398438 72.898438 L 85.800781 74.101562 L 85.5 75.5 L 84.699219 75.898438 L 84.5 76.898438 L 85.800781 79.199219 L 86.199219 80.101562 C 86 80.5 85.898438 81 85.898438 81.5 C 85.898438 81.5 86 82.398438 86.800781 82.699219 C 87.5 83 88.5 83.398438 88.5 83.398438 L 88.398438 84.699219 L 88.101562 85 L 88.601562 86.398438 C 90.199219 87 90.101562 87.398438 90.199219 87 L 90.300781 86.5 L 91.398438 86.199219 L 92.800781 87.699219 C 93.101562 87.699219 93.398438 87.800781 93.601562 88.101562 C 94.300781 88.300781 95 87.898438 94.199219 88.800781 Z M 94.199219 88.800781 "/>
<path style=" stroke:none;fill-rule:nonzero;fill:rgb(100%,100%,100%);fill-opacity:1;" d="M 75 99.800781 C 75 100.199219 74.398438 100.800781 74.398438 100.800781 L 74.898438 101.101562 L 75 102.398438 L 74.601562 103.101562 C 71.699219 100.898438 69.601562 98.101562 68.300781 95 L 68.601562 93.699219 L 69.898438 93.5 C 69.898438 93.5 71.101562 92.800781 71.601562 93 C 72.101562 93.199219 72.601562 94.300781 72.601562 94.300781 C 72.601562 94.300781 73 95.800781 72.898438 95.800781 L 73.398438 96.101562 L 73.5 96.699219 L 72.800781 97.898438 L 71.601562 97.898438 C 71.601562 97.898438 71.398438 97.800781 71.300781 98.300781 C 71.300781 98.699219 71.601562 99 71.898438 99.199219 L 73.199219 98.898438 L 73.5 97.800781 L 74.699219 97.601562 C 74.699219 97.601562 74.5 98.300781 74.800781 98.398438 L 75.101562 98.5 L 75.300781 99.300781 C 75.199219 99.300781 75 99.601562 75 99.800781 Z M 75 99.800781 "/>
<path style=" stroke:none;fill-rule:nonzero;fill:rgb(100%,100%,100%);fill-opacity:1;" d="M 81 101.601562 C 80.898438 101.300781 80.898438 101.101562 80.101562 100.699219 C 79.300781 100.398438 79.398438 100.5 79.101562 100.800781 C 78.800781 101.101562 78.398438 101.199219 77.898438 101.101562 C 77.398438 101 77.601562 101.5 77.601562 101.5 L 77.699219 102.898438 L 76.300781 104.101562 C 76.699219 104.398438 77.199219 104.699219 77.699219 104.898438 L 78 104.101562 L 80.398438 104.699219 C 79.898438 104.601562 80.199219 104 80.199219 104 L 79.699219 103.800781 C 79.699219 103.800781 81.101562 101.898438 81 101.601562 Z M 81 101.601562 "/>
<path style=" stroke:none;fill-rule:nonzero;fill:rgb(100%,100%,100%);fill-opacity:1;" d="M 95.898438 94.601562 L 95.101562 93.898438 L 94.199219 94.199219 L 93.800781 94.800781 L 93.5 95.199219 L 93.898438 95.800781 L 94.601562 96.601562 L 95 95.898438 C 95 95.898438 96.199219 95.898438 96.699219 95.300781 C 97.398438 94.800781 95.898438 94.601562 95.898438 94.601562 Z M 95.898438 94.601562 "/>
<path style=" stroke:none;fill-rule:nonzero;fill:rgb(100%,100%,100%);fill-opacity:1;" d="M 93.699219 91.5 L 95.101562 92.199219 L 95.199219 91.898438 C 95.300781 91.601562 95.398438 91.398438 95.601562 91.199219 L 94.5 90.199219 Z M 93.699219 91.5 "/>
<path style=" stroke:none;fill-rule:nonzero;fill:rgb(100%,100%,100%);fill-opacity:1;" d="M 93.199219 106.199219 L 92.800781 105.699219 L 92.300781 105.5 L 90.800781 105.5 L 90 106.898438 C 90 106.898438 89.199219 106.800781 88.101562 106.699219 C 87 106.601562 87.300781 107 87.300781 107 L 87 107.898438 C 89.699219 108.199219 92.398438 108.101562 95 107.5 C 94.699219 107.300781 94.398438 107.199219 94.101562 107 Z M 93.199219 106.199219 "/>
</g>
<clipPath id="clip9">
  <path d="M 99 138 L 123 138 L 123 160 L 99 160 Z M 99 138 "/>
</clipPath>
<clipPath id="clip10">
  <path d="M 117.5 159.601562 C 117.101562 159.601562 116.699219 159.5 116.300781 159.300781 C 110.199219 156.5 105.398438 151.800781 102.5 148.5 C 101.398438 147.199219 100.398438 145.898438 99.398438 144.5 L 100.898438 138.898438 C 100.898438 138.898438 102.300781 142.101562 107.898438 145.199219 C 113.5 148.300781 120.101562 149.398438 122.199219 152.5 C 124.101562 155.199219 120.699219 159.699219 117.5 159.601562 Z M 117.5 159.601562 "/>
</clipPath>
<mask id="mask4">
  <g filter="url(#alpha)">
<rect x="0" y="0" width="204" height="189" style="fill:rgb(0%,0%,0%);fill-opacity:0.4;stroke:none;"/>
  </g>
</mask>
<clipPath id="clip11">
  <rect x="0" y="0" width="204" height="189"/>
</clipPath>
<g id="surface17" clip-path="url(#clip11)">
<path style=" stroke:none;fill-rule:nonzero;fill:rgb(77.254902%,4.705882%,16.078431%);fill-opacity:1;" d="M 117.5 159.601562 C 117.398438 159.199219 117.300781 158.800781 117.101562 158.398438 C 115.800781 155.601562 108 149.898438 108 149.898438 C 106.199219 149.800781 104.101562 149.199219 102.398438 148.398438 C 101.300781 147.101562 100.199219 145.800781 99.300781 144.398438 L 100.800781 138.800781 C 100.800781 138.800781 102.199219 142 107.800781 145.101562 C 113.398438 148.199219 120 149.300781 122.101562 152.398438 C 124.101562 155.199219 120.699219 159.699219 117.5 159.601562 Z M 117.5 159.601562 "/>
</g>
<clipPath id="clip12">
  <path d="M 93 125 L 134 125 L 134 154 L 93 154 Z M 93 125 "/>
</clipPath>
<clipPath id="clip13">
  <path d="M 133.898438 151.5 C 133.898438 151.5 131.601562 151.398438 128.601562 151.5 C 124 151.601562 117.601562 152.101562 114.699219 153.601562 L 114.601562 153.601562 L 111.898438 152.800781 L 111.898438 152.699219 C 111.398438 152.101562 107.5 147.101562 101.800781 145 L 93.800781 125.398438 C 93.800781 125.398438 102.101562 125.699219 106.601562 132.300781 L 108.898438 133 C 108.898438 133 122.398438 129.5 130 130.699219 Z M 133.898438 151.5 "/>
</clipPath>
<mask id="mask5">
  <g filter="url(#alpha)">
<rect x="0" y="0" width="204" height="189" style="fill:rgb(0%,0%,0%);fill-opacity:0.301961;stroke:none;"/>
  </g>
</mask>
<clipPath id="clip14">
  <rect x="0" y="0" width="204" height="189"/>
</clipPath>
<g id="surface20" clip-path="url(#clip14)">
<path style=" stroke:none;fill-rule:nonzero;fill:rgb(0%,0%,0%);fill-opacity:0.701961;" d="M 111.800781 152.601562 C 111.300781 152 107.398438 147 101.699219 144.898438 L 93.699219 125.300781 C 93.699219 125.300781 102 125.601562 106.5 132.199219 Z M 111.800781 152.601562 "/>
</g>
<mask id="mask6">
  <g filter="url(#alpha)">
<rect x="0" y="0" width="204" height="189" style="fill:rgb(0%,0%,0%);fill-opacity:0.301961;stroke:none;"/>
  </g>
</mask>
<clipPath id="clip15">
  <rect x="0" y="0" width="204" height="189"/>
</clipPath>
<g id="surface23" clip-path="url(#clip15)">
<path style=" stroke:none;fill-rule:nonzero;fill:rgb(0%,0%,0%);fill-opacity:0.701961;" d="M 128.601562 151.5 C 124 151.601562 117.601562 152.101562 114.699219 153.601562 L 114.601562 153.601562 L 109.300781 133.699219 C 109.300781 133.699219 113.699219 132.800781 115 133.300781 C 114.898438 133.199219 123.800781 139 128.601562 151.5 Z M 128.601562 151.5 "/>
</g>
<clipPath id="clip16">
  <path d="M 136 145 L 158 145 L 158 167 L 136 167 Z M 136 145 "/>
</clipPath>
<clipPath id="clip17">
  <path d="M 151.300781 166 C 149 166.5 146.5 163 143.5 159.101562 C 141.5 156.601562 139.199219 153.898438 136.699219 152.101562 C 136.5 152 136.300781 151.800781 136.101562 151.699219 L 137.601562 145 C 140.699219 146.398438 142.699219 148.699219 145.898438 151.101562 C 151.101562 154.898438 155.800781 157.300781 157.101562 159 C 158.398438 160.699219 155.199219 165 151.300781 166 Z M 151.300781 166 "/>
</clipPath>
<mask id="mask7">
  <g filter="url(#alpha)">
<rect x="0" y="0" width="204" height="189" style="fill:rgb(0%,0%,0%);fill-opacity:0.4;stroke:none;"/>
  </g>
</mask>
<clipPath id="clip18">
  <rect x="0" y="0" width="204" height="189"/>
</clipPath>
<g id="surface26" clip-path="url(#clip18)">
<path style=" stroke:none;fill-rule:nonzero;fill:rgb(77.254902%,4.705882%,16.078431%);fill-opacity:1;" d="M 143.5 159.101562 C 141.5 156.601562 139.199219 153.898438 136.699219 152.101562 C 137 152.101562 137.398438 152.101562 137.699219 152 C 137.699219 152 141.699219 154.898438 143.5 159.101562 Z M 143.5 159.101562 "/>
</g>
<clipPath id="clip19">
  <path d="M 120 141 L 139 141 L 139 153 L 120 153 Z M 120 141 "/>
</clipPath>
<clipPath id="clip20">
  <path d="M 138.398438 151.5 C 138.300781 151.800781 138 151.898438 137.699219 152 C 137.601562 152 137.5 152.101562 137.398438 152.101562 L 137.300781 152.101562 C 134.898438 152.699219 129.398438 151.5 129.398438 151.5 C 129.398438 151.5 125.800781 150 125.601562 149.699219 C 125.5 149.398438 125.300781 149.101562 125.199219 148.800781 L 125.101562 148.5 C 125.101562 148.5 123.800781 147.898438 123.699219 147.398438 C 123.601562 146.898438 123.300781 146.800781 124.101562 146.699219 C 124.898438 146.601562 129.199219 146.699219 129.199219 146.699219 L 124.5 145.101562 C 124.5 145.101562 121.398438 143.699219 121.101562 143.300781 C 120.800781 142.800781 120.5 142.5 122 142.699219 C 123.601562 142.898438 127 143.800781 127 143.800781 L 129.699219 144.300781 L 127 143.300781 C 127 143.300781 121.699219 142.699219 122.699219 141.300781 L 125.699219 141.300781 C 127.398438 141.398438 129.101562 141.601562 130.800781 141.898438 C 131.699219 142.101562 137.398438 145.300781 137.398438 145.300781 "/>
</clipPath>
<mask id="mask8">
  <g filter="url(#alpha)">
<rect x="0" y="0" width="204" height="189" style="fill:rgb(0%,0%,0%);fill-opacity:0.4;stroke:none;"/>
  </g>
</mask>
<clipPath id="clip21">
  <rect x="0" y="0" width="204" height="189"/>
</clipPath>
<g id="surface29" clip-path="url(#clip21)">
<path style=" stroke:none;fill-rule:nonzero;fill:rgb(77.254902%,4.705882%,16.078431%);fill-opacity:1;" d="M 137.300781 152.101562 C 134.898438 152.699219 129.398438 151.5 129.398438 151.5 C 129.398438 151.5 125.800781 150 125.601562 149.699219 C 125.5 149.398438 125.300781 149.101562 125.199219 148.800781 L 129.601562 149.199219 C 129.300781 149.699219 129.300781 150.300781 129.601562 150.800781 C 130.199219 151.601562 135.699219 152.300781 137.300781 152.101562 Z M 137.300781 152.101562 "/>
</g>
<clipPath id="clip22">
  <path d="M 72 157 L 110 157 L 110 167 L 72 167 Z M 72 157 "/>
</clipPath>
<clipPath id="clip23">
  <path d="M 72.601562 162.699219 L 85.800781 166.199219 L 110 161.300781 C 110 161.300781 95.199219 157.601562 95.101562 157.699219 C 95 157.898438 72.601562 162.699219 72.601562 162.699219 Z M 72.601562 162.699219 "/>
</clipPath>
<mask id="mask9">
  <g filter="url(#alpha)">
<rect x="0" y="0" width="204" height="189" style="fill:rgb(0%,0%,0%);fill-opacity:0.301961;stroke:none;"/>
  </g>
</mask>
<clipPath id="clip24">
  <rect x="0" y="0" width="204" height="189"/>
</clipPath>
<g id="surface32" clip-path="url(#clip24)">
<path style=" stroke:none;fill-rule:nonzero;fill:rgb(0%,0%,0%);fill-opacity:0.701961;" d="M 72.601562 162.699219 L 85.800781 166.199219 L 110 161.300781 C 110 161.300781 95.199219 157.601562 95.101562 157.699219 C 95 157.898438 72.601562 162.699219 72.601562 162.699219 Z M 72.601562 162.699219 "/>
</g>
<clipPath id="clip25">
  <path d="M 71 155 L 96 155 L 96 163 L 71 163 Z M 71 155 "/>
</clipPath>
<clipPath id="clip26">
  <path d="M 72.800781 158.601562 C 71.898438 158.699219 71.601562 161.601562 72.601562 162.699219 L 94 158.800781 L 95.699219 155.199219 Z M 72.800781 158.601562 "/>
</clipPath>
<mask id="mask10">
  <g filter="url(#alpha)">
<rect x="0" y="0" width="204" height="189" style="fill:rgb(0%,0%,0%);fill-opacity:0.301961;stroke:none;"/>
  </g>
</mask>
<clipPath id="clip27">
  <rect x="0" y="0" width="204" height="189"/>
</clipPath>
<g id="surface35" clip-path="url(#clip27)">
<path style=" stroke:none;fill-rule:nonzero;fill:rgb(0%,0%,0%);fill-opacity:0.701961;" d="M 72.800781 158.601562 C 71.898438 158.699219 71.601562 161.601562 72.601562 162.699219 L 94 158.800781 L 95.699219 155.199219 Z M 72.800781 158.601562 "/>
</g>
<clipPath id="clip28">
  <path d="M 72 159 L 75 159 L 75 163 L 72 163 Z M 72 159 "/>
</clipPath>
<clipPath id="clip29">
  <path d="M 73.5 159 C 74.5 160 74.5 161.398438 73.601562 162.5 C 72.800781 161.5 72.800781 160.199219 73.5 159 Z M 73.5 159 "/>
</clipPath>
<mask id="mask11">
  <g filter="url(#alpha)">
<rect x="0" y="0" width="204" height="189" style="fill:rgb(0%,0%,0%);fill-opacity:0.301961;stroke:none;"/>
  </g>
</mask>
<clipPath id="clip30">
  <rect x="0" y="0" width="204" height="189"/>
</clipPath>
<g id="surface38" clip-path="url(#clip30)">
<path style=" stroke:none;fill-rule:nonzero;fill:rgb(100%,100%,100%);fill-opacity:0.701961;" d="M 73.5 159 C 74.5 160 74.5 161.398438 73.601562 162.5 C 72.800781 161.5 72.800781 160.199219 73.5 159 Z M 73.5 159 "/>
</g>
<clipPath id="clip31">
  <path d="M 115 163 L 146 163 L 146 172 L 115 172 Z M 115 163 "/>
</clipPath>
<clipPath id="clip32">
  <path d="M 122.898438 163.699219 L 146 164.5 L 143.699219 171.5 L 115.300781 170.601562 Z M 122.898438 163.699219 "/>
</clipPath>
<mask id="mask12">
  <g filter="url(#alpha)">
<rect x="0" y="0" width="204" height="189" style="fill:rgb(0%,0%,0%);fill-opacity:0.4;stroke:none;"/>
  </g>
</mask>
<clipPath id="clip33">
  <rect x="0" y="0" width="204" height="189"/>
</clipPath>
<g id="surface41" clip-path="url(#clip33)">
<path style=" stroke:none;fill-rule:nonzero;fill:rgb(77.254902%,4.705882%,16.078431%);fill-opacity:1;" d="M 122.898438 163.699219 L 146 164.5 L 143.699219 171.5 L 115.300781 170.601562 Z M 122.898438 163.699219 "/>
</g>
</defs>
<g id="surface1">
<use xlink:href="#surface5" mask="url(#mask0)"/>
<path style=" stroke:none;fill-rule:nonzero;fill:rgb(77.254902%,4.705882%,16.078431%);fill-opacity:1;" d="M 32.398438 69.601562 C 43.699219 51.101562 64.699219 37 90.898438 35 C 108.898438 33.699219 126.800781 38 141.199219 47.300781 C 148.300781 52 154.699219 57.898438 158.898438 64.699219 C 163.699219 72.5 165.101562 81.398438 170.101562 89.199219 C 176.300781 98.800781 187.898438 102.800781 195.699219 111.101562 C 202.101562 118 204.300781 127.101562 203.601562 135.800781 C 202.300781 151.699219 191.199219 166.800781 175 175 C 161.300781 181.898438 144.800781 183.800781 128.800781 183.199219 C 104.300781 182.199219 79.800781 175.398438 60.398438 162.5 C 41 149.601562 27.199219 130.699219 23.800781 110.101562 C 21.699219 96.101562 25 81.898438 32.398438 69.601562 Z M 32.398438 69.601562 "/>
<use xlink:href="#surface8" mask="url(#mask1)"/>
<path style="fill:none;stroke-width:1;stroke-linecap:round;stroke-linejoin:round;stroke:rgb(14.901961%,19.607843%,21.960784%);stroke-opacity:1;stroke-miterlimit:4;" d="M 39.898438 80.398438 C 40.300781 81.898438 40.101562 79.199219 40.898438 75.800781 C 41.699219 72.5 43.199219 73.800781 43.199219 73.800781 "/>
<path style="fill:none;stroke-width:1;stroke-linecap:round;stroke-linejoin:round;stroke:rgb(14.901961%,19.607843%,21.960784%);stroke-opacity:1;stroke-miterlimit:4;" d="M 39.601562 77 L 42.199219 76 "/>
<path style="fill:none;stroke-width:1;stroke-linecap:round;stroke-linejoin:round;stroke:rgb(14.901961%,19.607843%,21.960784%);stroke-opacity:1;stroke-miterlimit:4;" d="M 44.398438 74.898438 C 44.398438 74.898438 42.800781 77.800781 45.199219 79 "/>
<path style="fill:none;stroke-width:1;stroke-linecap:round;stroke-linejoin:round;stroke:rgb(14.901961%,19.607843%,21.960784%);stroke-opacity:1;stroke-miterlimit:4;" d="M 46.601562 74.101562 C 46.601562 74.101562 49.199219 75.398438 47.601562 78.101562 "/>
<path style="fill:none;stroke-width:1;stroke-linecap:round;stroke-linejoin:round;stroke:rgb(14.901961%,19.607843%,21.960784%);stroke-opacity:1;stroke-miterlimit:4;" d="M 44.800781 75.898438 L 46.699219 77.101562 "/>
<path style="fill:none;stroke-width:1;stroke-linecap:round;stroke-linejoin:round;stroke:rgb(14.901961%,19.607843%,21.960784%);stroke-opacity:1;stroke-miterlimit:4;" d="M 46.300781 75.300781 L 44.800781 77.398438 "/>
<path style="fill:none;stroke-width:1;stroke-linecap:round;stroke-linejoin:round;stroke:rgb(14.901961%,19.607843%,21.960784%);stroke-opacity:1;stroke-miterlimit:4;" d="M 54.601562 105.199219 C 54.601562 103.265625 52.855469 101.699219 50.699219 101.699219 C 48.546875 101.699219 46.800781 103.265625 46.800781 105.199219 C 46.800781 107.132812 48.546875 108.699219 50.699219 108.699219 C 52.855469 108.699219 54.601562 107.132812 54.601562 105.199219 Z M 54.601562 105.199219 "/>
<path style="fill:none;stroke-width:1;stroke-linecap:round;stroke-linejoin:round;stroke:rgb(14.901961%,19.607843%,21.960784%);stroke-opacity:1;stroke-miterlimit:4;" d="M 60.5 106.5 C 60.5 104.402344 58.53125 102.699219 56.101562 102.699219 C 53.671875 102.699219 51.699219 104.402344 51.699219 106.5 C 51.699219 108.597656 53.671875 110.300781 56.101562 110.300781 C 58.53125 110.300781 60.5 108.597656 60.5 106.5 Z M 60.5 106.5 "/>
<path style="fill:none;stroke-width:1;stroke-linecap:round;stroke-linejoin:round;stroke:rgb(14.901961%,19.607843%,21.960784%);stroke-opacity:1;stroke-miterlimit:4;" d="M 54.300781 103.699219 L 52.5 104.300781 "/>
<path style="fill:none;stroke-width:1;stroke-linecap:round;stroke-linejoin:round;stroke:rgb(14.901961%,19.607843%,21.960784%);stroke-opacity:1;stroke-miterlimit:4;" d="M 54.601562 104.398438 L 52 105.199219 "/>
<path style="fill:none;stroke-width:1;stroke-linecap:round;stroke-linejoin:round;stroke:rgb(14.901961%,19.607843%,21.960784%);stroke-opacity:1;stroke-miterlimit:4;" d="M 54.699219 105.199219 L 51.800781 106.199219 "/>
<path style="fill:none;stroke-width:1;stroke-linecap:round;stroke-linejoin:round;stroke:rgb(14.901961%,19.607843%,21.960784%);stroke-opacity:1;stroke-miterlimit:4;" d="M 54.5 106.300781 L 51.800781 107.398438 "/>
<path style="fill:none;stroke-width:1;stroke-linecap:round;stroke-linejoin:round;stroke:rgb(14.901961%,19.607843%,21.960784%);stroke-opacity:1;stroke-miterlimit:4;" d="M 54 107.101562 L 52 107.800781 "/>
<path style="fill:none;stroke-width:1;stroke-linecap:round;stroke-linejoin:round;stroke:rgb(14.901961%,19.607843%,21.960784%);stroke-opacity:1;stroke-miterlimit:4;" d="M 52.601562 99.898438 C 52.5 99.601562 51.199219 99.398438 51.199219 100.199219 C 51.199219 101 52.5 100.300781 52.898438 99.898438 C 52.898438 99.898438 52.199219 100.800781 52.5 100.898438 "/>
<path style="fill:none;stroke-width:1;stroke-linecap:round;stroke-linejoin:round;stroke:rgb(14.901961%,19.607843%,21.960784%);stroke-opacity:1;stroke-miterlimit:4;" d="M 59.699219 100.898438 L 58.601562 103 C 58.601562 103 59.199219 102 59.800781 102 C 60.601562 102.101562 60.101562 103.199219 59.199219 102.800781 "/>
<path style="fill:none;stroke-width:1;stroke-linecap:round;stroke-linejoin:round;stroke:rgb(14.901961%,19.607843%,21.960784%);stroke-opacity:1;stroke-miterlimit:4;" d="M 183 134.800781 L 184.800781 136.199219 "/>
<path style="fill:none;stroke-width:1;stroke-linecap:round;stroke-linejoin:round;stroke:rgb(14.901961%,19.607843%,21.960784%);stroke-opacity:1;stroke-miterlimit:4;" d="M 184.800781 134.398438 L 183.300781 136.300781 "/>
<path style="fill:none;stroke-width:1;stroke-linecap:round;stroke-linejoin:round;stroke:rgb(14.901961%,19.607843%,21.960784%);stroke-opacity:1;stroke-miterlimit:4;" d="M 186.601562 134.898438 L 188.300781 134.398438 "/>
<path style="fill:none;stroke-width:1;stroke-linecap:round;stroke-linejoin:round;stroke:rgb(14.901961%,19.607843%,21.960784%);stroke-opacity:1;stroke-miterlimit:4;" d="M 189.199219 132.699219 L 190.300781 133.601562 "/>
<path style="fill:none;stroke-width:1;stroke-linecap:round;stroke-linejoin:round;stroke:rgb(14.901961%,19.607843%,21.960784%);stroke-opacity:1;stroke-miterlimit:4;" d="M 191.101562 131.699219 L 189.699219 135.800781 "/>
<path style="fill:none;stroke-width:1;stroke-linecap:round;stroke-linejoin:round;stroke:rgb(14.901961%,19.607843%,21.960784%);stroke-opacity:1;stroke-miterlimit:4;" d="M 108.101562 111.5 L 112.800781 108.601562 L 119.199219 109 L 119.601562 116.101562 L 114.898438 119 L 109.199219 118.699219 Z M 108.101562 111.5 "/>
<path style="fill:none;stroke-width:1;stroke-linecap:round;stroke-linejoin:round;stroke:rgb(14.901961%,19.607843%,21.960784%);stroke-opacity:1;stroke-miterlimit:4;" d="M 109.199219 118.699219 L 113.800781 115.699219 L 119.601562 116.101562 "/>
<path style="fill:none;stroke-width:1;stroke-linecap:round;stroke-linejoin:round;stroke:rgb(14.901961%,19.607843%,21.960784%);stroke-opacity:1;stroke-miterlimit:4;" d="M 113.800781 115.699219 L 112.800781 108.601562 "/>
<path style="fill:none;stroke-width:1;stroke-linecap:round;stroke-linejoin:round;stroke:rgb(14.901961%,19.607843%,21.960784%);stroke-opacity:1;stroke-miterlimit:4;" d="M 108.101562 111.5 L 114.398438 112.199219 L 119.199219 109 "/>
<path style="fill:none;stroke-width:1;stroke-linecap:round;stroke-linejoin:round;stroke:rgb(14.901961%,19.607843%,21.960784%);stroke-opacity:1;stroke-miterlimit:4;" d="M 114.398438 112.199219 L 114.898438 119 "/>
<path style="fill:none;stroke-width:1;stroke-linecap:round;stroke-linejoin:round;stroke:rgb(14.901961%,19.607843%,21.960784%);stroke-opacity:1;stroke-miterlimit:4;" d="M 164 87.800781 L 161.800781 93.601562 L 168.398438 92.800781 Z M 164 87.800781 "/>
<path style="fill:none;stroke-width:1;stroke-linecap:round;stroke-linejoin:round;stroke:rgb(14.901961%,19.607843%,21.960784%);stroke-opacity:1;stroke-miterlimit:4;" d="M 164 87.800781 L 165.101562 93.101562 "/>
<path style="fill:none;stroke-width:1;stroke-linecap:round;stroke-linejoin:round;stroke:rgb(14.901961%,19.607843%,21.960784%);stroke-opacity:1;stroke-miterlimit:4;" d="M 164.898438 92.300781 L 165.699219 92.199219 L 165.898438 93.101562 "/>
<path style="fill:none;stroke-width:1;stroke-linecap:round;stroke-linejoin:round;stroke:rgb(14.901961%,19.607843%,21.960784%);stroke-opacity:1;stroke-miterlimit:4;" d="M 80.800781 140.800781 L 84.101562 142.199219 "/>
<path style="fill:none;stroke-width:1;stroke-linecap:round;stroke-linejoin:round;stroke:rgb(14.901961%,19.607843%,21.960784%);stroke-opacity:1;stroke-miterlimit:4;" d="M 83 139.699219 L 82.101562 142.800781 "/>
<path style="fill:none;stroke-width:1;stroke-linecap:round;stroke-linejoin:round;stroke:rgb(14.901961%,19.607843%,21.960784%);stroke-opacity:1;stroke-miterlimit:4;" d="M 83.5 138.300781 C 83.699219 138.101562 84 138.101562 84.199219 138.300781 C 84.199219 138.300781 84.300781 138.398438 84.300781 138.398438 C 84.601562 138.800781 84 139.800781 84 139.800781 L 85.300781 139.398438 "/>
<path style="fill:none;stroke-width:1;stroke-linecap:round;stroke-linejoin:round;stroke:rgb(14.901961%,19.607843%,21.960784%);stroke-opacity:1;stroke-miterlimit:4;" d="M 106.699219 41 C 109.800781 42.601562 106.199219 46.398438 106.199219 48.601562 C 106.199219 50.800781 109.800781 50.5 111.601562 51.101562 C 112.300781 51.101562 113.800781 51.101562 113.699219 52.699219 "/>
<path style="fill:none;stroke-width:1;stroke-linecap:round;stroke-linejoin:round;stroke:rgb(14.901961%,19.607843%,21.960784%);stroke-opacity:1;stroke-miterlimit:4;" d="M 103.199219 43 C 103.699219 45.601562 107.199219 44.699219 109.300781 45.300781 C 112.898438 46.300781 110.898438 49.601562 109.800781 51.601562 C 109.199219 52.800781 108.5 54.398438 109.699219 55.601562 "/>
<path style="fill:none;stroke-width:1;stroke-linecap:round;stroke-linejoin:round;stroke:rgb(14.901961%,19.607843%,21.960784%);stroke-opacity:1;stroke-miterlimit:4;" d="M 103.601562 44.101562 L 107.398438 41.300781 "/>
<path style="fill:none;stroke-width:1;stroke-linecap:round;stroke-linejoin:round;stroke:rgb(14.901961%,19.607843%,21.960784%);stroke-opacity:1;stroke-miterlimit:4;" d="M 105.101562 44.898438 L 107.898438 42.800781 "/>
<path style="fill:none;stroke-width:1;stroke-linecap:round;stroke-linejoin:round;stroke:rgb(14.901961%,19.607843%,21.960784%);stroke-opacity:1;stroke-miterlimit:4;" d="M 106.800781 46.898438 L 109.101562 45.300781 "/>
<path style="fill:none;stroke-width:1;stroke-linecap:round;stroke-linejoin:round;stroke:rgb(14.901961%,19.607843%,21.960784%);stroke-opacity:1;stroke-miterlimit:4;" d="M 106.300781 49.398438 L 111 46.5 "/>
<path style="fill:none;stroke-width:1;stroke-linecap:round;stroke-linejoin:round;stroke:rgb(14.901961%,19.607843%,21.960784%);stroke-opacity:1;stroke-miterlimit:4;" d="M 108.101562 50.601562 L 111.300781 48.5 "/>
<path style="fill:none;stroke-width:1;stroke-linecap:round;stroke-linejoin:round;stroke:rgb(14.901961%,19.607843%,21.960784%);stroke-opacity:1;stroke-miterlimit:4;" d="M 109.398438 55 L 113.5 52.101562 "/>
<path style="fill:none;stroke-width:1;stroke-linecap:round;stroke-linejoin:round;stroke:rgb(14.901961%,19.607843%,21.960784%);stroke-opacity:1;stroke-miterlimit:4;" d="M 109.5 52.699219 L 112.199219 51.101562 "/>
<path style="fill:none;stroke-width:1;stroke-linecap:round;stroke-linejoin:round;stroke:rgb(14.901961%,19.607843%,21.960784%);stroke-opacity:1;stroke-miterlimit:4;" d="M 61.101562 136.199219 C 61.101562 132.554688 57.742188 129.601562 53.601562 129.601562 C 49.457031 129.601562 46.101562 132.554688 46.101562 136.199219 C 46.101562 139.84375 49.457031 142.800781 53.601562 142.800781 C 57.742188 142.800781 61.101562 139.84375 61.101562 136.199219 Z M 61.101562 136.199219 "/>
<path style="fill:none;stroke-width:1;stroke-linecap:round;stroke-linejoin:round;stroke:rgb(14.901961%,19.607843%,21.960784%);stroke-opacity:1;stroke-miterlimit:4;" d="M 55.5 129.800781 C 58.101562 127.101562 60.398438 125.5 61.199219 126.101562 C 62.5 126.898438 60.199219 132 55.898438 137.601562 C 51.699219 143.199219 47.199219 147.199219 45.898438 146.398438 C 45 145.898438 45.800781 143.5 47.601562 140.300781 "/>
<path style="fill:none;stroke-width:1;stroke-linecap:round;stroke-linejoin:round;stroke:rgb(14.901961%,19.607843%,21.960784%);stroke-opacity:1;stroke-miterlimit:4;" d="M 46.199219 137.601562 C 42.5 136.699219 40.199219 135.601562 40.300781 134.699219 C 40.5 133.300781 46.898438 133 54.398438 134 C 62 135 67.898438 136.898438 67.699219 138.300781 C 67.601562 139.300781 64.5 139.699219 60 139.5 "/>
<path style="fill:none;stroke-width:1;stroke-linecap:round;stroke-linejoin:round;stroke:rgb(14.901961%,19.607843%,21.960784%);stroke-opacity:1;stroke-miterlimit:4;" d="M 47.199219 132.800781 C 44.398438 128.398438 43 125 44 124.398438 C 45.199219 123.699219 50 128.199219 54.601562 134.601562 C 59.300781 140.898438 62 146.601562 60.800781 147.300781 C 60 147.800781 57.601562 145.898438 54.800781 142.800781 "/>
<path style=" stroke:none;fill-rule:nonzero;fill:rgb(14.901961%,19.607843%,21.960784%);fill-opacity:1;" d="M 62.300781 128.898438 C 61.898438 129.398438 61.101562 129.5 60.601562 129.199219 C 60 128.898438 59.898438 128.199219 60.199219 127.699219 C 60.601562 127.199219 61.398438 127.101562 61.898438 127.398438 C 62.601562 127.699219 62.699219 128.398438 62.300781 128.898438 Z M 62.300781 128.898438 "/>
<path style=" stroke:none;fill-rule:nonzero;fill:rgb(14.901961%,19.607843%,21.960784%);fill-opacity:1;" d="M 58.199219 145.699219 C 57.800781 146.199219 57 146.300781 56.5 146 C 55.898438 145.699219 55.800781 145 56.101562 144.5 C 56.5 144 57.300781 143.898438 57.800781 144.199219 C 58.398438 144.398438 58.601562 145.101562 58.199219 145.699219 C 58.199219 145.601562 58.199219 145.601562 58.199219 145.699219 Z M 58.199219 145.699219 "/>
<path style=" stroke:none;fill-rule:nonzero;fill:rgb(14.901961%,19.607843%,21.960784%);fill-opacity:1;" d="M 51.601562 134.300781 C 51.199219 134.800781 50.398438 134.898438 49.898438 134.601562 C 49.300781 134.300781 49.199219 133.601562 49.5 133.101562 C 49.898438 132.601562 50.699219 132.5 51.199219 132.800781 C 51.800781 133.101562 52 133.800781 51.601562 134.300781 Z M 51.601562 134.300781 "/>
<path style="fill:none;stroke-width:1;stroke-linecap:round;stroke-linejoin:round;stroke:rgb(14.901961%,19.607843%,21.960784%);stroke-opacity:1;stroke-miterlimit:4;" d="M 130.699219 86.800781 L 135 86.800781 L 137.101562 83.601562 L 135 80.300781 L 130.699219 80.300781 L 128.601562 83.601562 Z M 130.699219 86.800781 "/>
<path style="fill:none;stroke-width:1;stroke-linecap:round;stroke-linejoin:round;stroke:rgb(14.901961%,19.607843%,21.960784%);stroke-opacity:1;stroke-miterlimit:4;" d="M 130.101562 93.898438 L 128 90.699219 L 123.800781 90.699219 "/>
<path style="fill:none;stroke-width:1;stroke-linecap:round;stroke-linejoin:round;stroke:rgb(14.901961%,19.607843%,21.960784%);stroke-opacity:1;stroke-miterlimit:4;" d="M 124.300781 83.601562 L 128.601562 83.601562 L 130.699219 80.300781 L 128.601562 77.101562 L 124.300781 77.101562 L 122.199219 80.300781 Z M 124.300781 83.601562 "/>
<path style="fill:none;stroke-width:1;stroke-linecap:round;stroke-linejoin:round;stroke:rgb(14.901961%,19.607843%,21.960784%);stroke-opacity:1;stroke-miterlimit:4;" d="M 130.699219 80.300781 L 135 80.300781 L 137.101562 77.101562 L 135 73.800781 L 130.699219 73.800781 L 128.601562 77.101562 Z M 130.699219 80.300781 "/>
<path style=" stroke:none;fill-rule:nonzero;fill:rgb(14.901961%,19.607843%,21.960784%);fill-opacity:1;" d="M 131.300781 80.300781 C 131.300781 80.023438 131.03125 79.800781 130.699219 79.800781 C 130.367188 79.800781 130.101562 80.023438 130.101562 80.300781 C 130.101562 80.574219 130.367188 80.800781 130.699219 80.800781 C 131.03125 80.800781 131.300781 80.574219 131.300781 80.300781 Z M 131.300781 80.300781 "/>
<path style=" stroke:none;fill-rule:nonzero;fill:rgb(14.901961%,19.607843%,21.960784%);fill-opacity:1;" d="M 122.398438 73.5 C 122.398438 73.222656 122.132812 73 121.800781 73 C 121.46875 73 121.199219 73.222656 121.199219 73.5 C 121.199219 73.777344 121.46875 74 121.800781 74 C 122.132812 74 122.398438 73.777344 122.398438 73.5 Z M 122.398438 73.5 "/>
<path style=" stroke:none;fill-rule:nonzero;fill:rgb(14.901961%,19.607843%,21.960784%);fill-opacity:1;" d="M 129.5 93.898438 C 129.5 93.601562 129.800781 93.398438 130.101562 93.398438 C 130.398438 93.398438 130.699219 93.601562 130.699219 93.898438 C 130.699219 94.199219 130.398438 94.398438 130.101562 94.398438 C 129.800781 94.398438 129.5 94.199219 129.5 93.898438 Z M 129.5 93.898438 "/>
<path style=" stroke:none;fill-rule:nonzero;fill:rgb(14.901961%,19.607843%,21.960784%);fill-opacity:1;" d="M 124.398438 90.699219 C 124.398438 90.425781 124.132812 90.199219 123.800781 90.199219 C 123.46875 90.199219 123.199219 90.425781 123.199219 90.699219 C 123.199219 90.976562 123.46875 91.199219 123.800781 91.199219 C 124.132812 91.199219 124.398438 90.976562 124.398438 90.699219 Z M 124.398438 90.699219 "/>
<path style=" stroke:none;fill-rule:nonzero;fill:rgb(14.901961%,19.607843%,21.960784%);fill-opacity:1;" d="M 141.199219 77.199219 C 141.199219 76.898438 141.5 76.699219 141.800781 76.699219 C 142.101562 76.699219 142.398438 76.898438 142.398438 77.199219 C 142.398438 77.5 142.101562 77.699219 141.800781 77.699219 C 141.5 77.699219 141.199219 77.5 141.199219 77.199219 Z M 141.199219 77.199219 "/>
<path style=" stroke:none;fill-rule:nonzero;fill:rgb(14.901961%,19.607843%,21.960784%);fill-opacity:1;" d="M 128.601562 90.699219 C 128.601562 90.425781 128.332031 90.199219 128 90.199219 C 127.667969 90.199219 127.398438 90.425781 127.398438 90.699219 C 127.398438 90.976562 127.667969 91.199219 128 91.199219 C 128.332031 91.199219 128.601562 90.976562 128.601562 90.699219 Z M 128.601562 90.699219 "/>
<path style=" stroke:none;fill-rule:nonzero;fill:rgb(14.901961%,19.607843%,21.960784%);fill-opacity:1;" d="M 136.5 77.199219 C 136.5 76.898438 136.800781 76.699219 137.101562 76.699219 C 137.398438 76.699219 137.699219 76.898438 137.699219 77.199219 C 137.699219 77.5 137.398438 77.699219 137.101562 77.699219 C 136.800781 77.699219 136.5 77.5 136.5 77.199219 Z M 136.5 77.199219 "/>
<path style=" stroke:none;fill-rule:nonzero;fill:rgb(14.901961%,19.607843%,21.960784%);fill-opacity:1;" d="M 130.101562 86.800781 C 130.101562 86.5 130.398438 86.300781 130.699219 86.300781 C 131 86.300781 131.300781 86.5 131.300781 86.800781 C 131.300781 87.101562 131 87.300781 130.699219 87.300781 C 130.398438 87.300781 130.101562 87.101562 130.101562 86.800781 Z M 130.101562 86.800781 "/>
<path style="fill:none;stroke-width:1;stroke-linecap:round;stroke-linejoin:round;stroke:rgb(14.901961%,19.607843%,21.960784%);stroke-opacity:1;stroke-miterlimit:4;" d="M 137.101562 77.199219 L 141.800781 77.199219 "/>
<path style="fill:none;stroke-width:1;stroke-linecap:round;stroke-linejoin:round;stroke:rgb(14.901961%,19.607843%,21.960784%);stroke-opacity:1;stroke-miterlimit:4;" d="M 130.699219 86.800781 L 128 90.699219 "/>
<path style="fill:none;stroke-width:1;stroke-linecap:round;stroke-linejoin:round;stroke:rgb(14.901961%,19.607843%,21.960784%);stroke-opacity:1;stroke-miterlimit:4;" d="M 124.300781 77.101562 L 121.800781 73.5 "/>
<path style="fill:none;stroke-width:1;stroke-linecap:round;stroke-linejoin:round;stroke:rgb(14.901961%,19.607843%,21.960784%);stroke-opacity:1;stroke-miterlimit:4;" d="M 154.5 64.300781 C 155.699219 60.601562 160.101562 58.5 164.300781 59.601562 C 167 60.300781 169 62.199219 169.699219 64.601562 "/>
<path style="fill:none;stroke-width:1;stroke-linecap:round;stroke-linejoin:round;stroke:rgb(14.901961%,19.607843%,21.960784%);stroke-opacity:1;stroke-miterlimit:4;" d="M 161.101562 73.199219 C 157.101562 72.800781 154.101562 69.800781 154.101562 66.300781 "/>
<path style="fill:none;stroke-width:1;stroke-linecap:round;stroke-linejoin:round;stroke:rgb(14.901961%,19.607843%,21.960784%);stroke-opacity:1;stroke-miterlimit:4;" d="M 169.898438 66.300781 C 169.898438 70.101562 166.398438 73.199219 162 73.199219 "/>
<path style="fill:none;stroke-width:1;stroke-linecap:round;stroke-linejoin:round;stroke:rgb(14.901961%,19.607843%,21.960784%);stroke-opacity:1;stroke-miterlimit:4;" d="M 170.300781 61.898438 C 172.800781 61.601562 174.398438 61.800781 174.699219 62.398438 C 175.199219 63.699219 169.898438 66.5 162.898438 68.601562 C 155.898438 70.800781 149.800781 71.398438 149.300781 70.101562 C 149 69.398438 150.398438 68.300781 152.800781 67.101562 "/>
<path style="fill:none;stroke-width:1;stroke-linecap:round;stroke-linejoin:round;stroke:rgb(14.901961%,19.607843%,21.960784%);stroke-opacity:1;stroke-miterlimit:4;" d="M 128 57.199219 L 128.699219 58.5 L 130.398438 58.699219 L 129.199219 59.800781 L 129.5 61.300781 L 128 60.601562 L 126.398438 61.300781 L 126.699219 59.800781 L 125.5 58.699219 L 127.199219 58.5 Z M 128 57.199219 "/>
<path style="fill:none;stroke-width:1;stroke-linecap:round;stroke-linejoin:round;stroke:rgb(14.901961%,19.607843%,21.960784%);stroke-opacity:1;stroke-miterlimit:4;" d="M 74.699219 53.601562 C 74.699219 56.101562 72.398438 58.101562 69.601562 58.101562 C 69.398438 58.101562 69.300781 58.101562 69.101562 58.101562 C 66.300781 57.898438 64.199219 55.699219 64.5 53.199219 C 64.800781 50.699219 67.300781 48.898438 70.101562 49.101562 C 72.699219 49.300781 74.699219 51.300781 74.699219 53.601562 Z M 74.699219 53.601562 "/>
<path style="fill:none;stroke-width:1;stroke-linecap:round;stroke-linejoin:round;stroke:rgb(14.901961%,19.607843%,21.960784%);stroke-opacity:1;stroke-miterlimit:4;" d="M 73.898438 54.398438 C 73.898438 54.800781 73.5 55.101562 73.101562 55.101562 C 72.699219 55.101562 72.300781 54.800781 72.300781 54.398438 C 72.300781 54 72.699219 53.699219 73.101562 53.699219 C 73.5 53.699219 73.898438 54 73.898438 54.398438 Z M 73.898438 54.398438 "/>
<path style="fill:none;stroke-width:1;stroke-linecap:round;stroke-linejoin:round;stroke:rgb(14.901961%,19.607843%,21.960784%);stroke-opacity:1;stroke-miterlimit:4;" d="M 66.699219 56.199219 C 66.699219 56.5 66.5 56.898438 66.199219 57.101562 C 65.5 56.601562 65 56 64.699219 55.300781 C 64.898438 55.199219 65.101562 55.101562 65.300781 55.101562 C 66.101562 55 66.699219 55.5 66.699219 56.199219 C 66.699219 56.101562 66.699219 56.199219 66.699219 56.199219 Z M 66.699219 56.199219 "/>
<path style="fill:none;stroke-width:1;stroke-linecap:round;stroke-linejoin:round;stroke:rgb(14.901961%,19.607843%,21.960784%);stroke-opacity:1;stroke-miterlimit:4;" d="M 73.101562 56.898438 C 72.199219 57.699219 70.898438 58.101562 69.601562 58.101562 C 69.398438 58.101562 69.300781 58.101562 69.101562 58.101562 C 69.101562 58 69.101562 57.800781 69.101562 57.699219 C 69.101562 56.699219 70 55.800781 71.199219 55.800781 C 72 55.800781 72.699219 56.199219 73.101562 56.898438 Z M 73.101562 56.898438 "/>
<path style="fill:none;stroke-width:1;stroke-linecap:round;stroke-linejoin:round;stroke:rgb(14.901961%,19.607843%,21.960784%);stroke-opacity:1;stroke-miterlimit:4;" d="M 69.5 50.699219 C 69.5 50.148438 68.960938 49.699219 68.300781 49.699219 C 67.636719 49.699219 67.101562 50.148438 67.101562 50.699219 C 67.101562 51.253906 67.636719 51.699219 68.300781 51.699219 C 68.960938 51.699219 69.5 51.253906 69.5 50.699219 Z M 69.5 50.699219 "/>
<path style="fill:none;stroke-width:1;stroke-linecap:round;stroke-linejoin:round;stroke:rgb(14.901961%,19.607843%,21.960784%);stroke-opacity:1;stroke-miterlimit:4;" d="M 69.398438 53.699219 C 69.398438 54 69.101562 54.199219 68.898438 54.199219 C 68.699219 54.199219 68.398438 54 68.398438 53.699219 C 68.398438 53.398438 68.699219 53.199219 68.898438 53.199219 C 69.101562 53.199219 69.398438 53.398438 69.398438 53.699219 Z M 69.398438 53.699219 "/>
<path style="fill:none;stroke-width:1;stroke-linecap:round;stroke-linejoin:round;stroke:rgb(14.901961%,19.607843%,21.960784%);stroke-opacity:1;stroke-miterlimit:4;" d="M 73.699219 50.898438 C 73.601562 50.898438 73.398438 51 73.300781 51 C 72.5 51 71.800781 50.398438 71.800781 49.699219 C 71.800781 49.601562 71.800781 49.601562 71.800781 49.5 C 72.601562 49.898438 73.199219 50.300781 73.699219 50.898438 Z M 73.699219 50.898438 "/>
<path style="fill:none;stroke-width:1;stroke-linecap:round;stroke-linejoin:round;stroke:rgb(14.901961%,19.607843%,21.960784%);stroke-opacity:1;stroke-miterlimit:4;" d="M 191.398438 105.800781 L 191.898438 104.699219 L 191 104.300781 C 191 104.101562 191 103.898438 191 103.699219 L 191.898438 103.300781 L 191.398438 102.199219 L 190.398438 102.5 C 190.300781 102.300781 190.101562 102.199219 189.898438 102.101562 L 190.199219 101.199219 L 189 100.699219 L 188.5 101.5 C 188.300781 101.5 188.101562 101.5 187.898438 101.5 L 187.5 100.699219 L 186.199219 101.101562 L 186.5 102 C 186.300781 102.101562 186.199219 102.300781 186 102.398438 L 185 102.101562 L 184.5 103.199219 L 185.398438 103.601562 C 185.398438 103.800781 185.398438 104 185.398438 104.199219 L 184.5 104.601562 L 185 105.699219 L 186 105.398438 C 186.101562 105.601562 186.300781 105.699219 186.5 105.800781 L 186.199219 106.699219 L 187.398438 107.199219 L 187.898438 106.398438 C 188.101562 106.398438 188.300781 106.398438 188.5 106.398438 L 188.898438 107.199219 L 190.199219 106.800781 L 190 106 C 190.199219 105.898438 190.300781 105.699219 190.5 105.601562 Z M 187.601562 105.199219 C 186.800781 104.898438 186.398438 104.101562 186.800781 103.398438 C 187.199219 102.699219 188.101562 102.398438 188.898438 102.699219 C 189.699219 103 190.101562 103.800781 189.699219 104.5 C 189.300781 105.199219 188.398438 105.5 187.601562 105.199219 Z M 187.601562 105.199219 "/>
<path style="fill:none;stroke-width:1;stroke-linecap:round;stroke-linejoin:round;stroke:rgb(14.901961%,19.607843%,21.960784%);stroke-opacity:1;stroke-miterlimit:4;" d="M 184.800781 111.398438 L 185.601562 109.898438 L 184.398438 109.300781 C 184.398438 109 184.398438 108.800781 184.398438 108.5 L 185.699219 108 L 185.101562 106.5 L 183.800781 106.800781 C 183.601562 106.601562 183.398438 106.398438 183.199219 106.199219 L 183.699219 105.101562 L 182 104.398438 L 181.300781 105.5 C 181 105.5 180.699219 105.5 180.398438 105.5 L 179.800781 104.398438 L 178.101562 105 L 178.5 106.199219 C 178.199219 106.398438 178 106.5 177.898438 106.699219 L 176.601562 106.300781 L 175.800781 107.800781 L 177 108.398438 C 177 108.699219 177 108.898438 177 109.199219 L 175.699219 109.699219 L 176.300781 111.199219 L 177.601562 110.898438 C 177.800781 111.101562 178 111.300781 178.199219 111.5 L 177.699219 112.601562 L 179.398438 113.300781 L 180.101562 112.199219 C 180.398438 112.199219 180.699219 112.199219 181 112.199219 L 181.601562 113.300781 L 183.300781 112.699219 L 182.898438 111.5 C 183.199219 111.300781 183.398438 111.199219 183.5 111 Z M 179.699219 110.601562 C 178.601562 110.199219 178.101562 109.101562 178.601562 108.101562 C 179.101562 107.101562 180.300781 106.699219 181.398438 107.101562 C 182.5 107.5 183 108.601562 182.5 109.601562 C 182 110.601562 180.800781 111 179.699219 110.601562 Z M 179.699219 110.601562 "/>
<path style=" stroke:none;fill-rule:nonzero;fill:rgb(77.254902%,4.705882%,16.078431%);fill-opacity:1;" d="M 104.898438 77.398438 C 103.699219 79.601562 102.300781 81.699219 100.800781 83.699219 C 84.5 105.101562 54.101562 111.898438 29.5 99.601562 C 28.300781 99 27 98.300781 25.898438 97.699219 C 24.699219 97 23.601562 96.300781 22.5 95.5 C 21.199219 94.601562 19.898438 93.699219 18.699219 92.601562 C 18.601562 92.5 18.5 92.5 18.5 92.398438 C -4.601562 73 -6.699219 39.5 13.800781 17.699219 C 34.300781 -4.101562 69.5 -6.199219 92.5 13.199219 C 111.800781 29.300781 116.898438 55.800781 104.898438 77.398438 Z M 104.898438 77.398438 "/>
<g clip-path="url(#clip3)" clip-rule="nonzero">
<g clip-path="url(#clip4)" clip-rule="nonzero">
<use xlink:href="#surface11" mask="url(#mask2)"/>
</g>
</g>
<path style="fill:none;stroke-width:1;stroke-linecap:round;stroke-linejoin:round;stroke:rgb(14.901961%,19.607843%,21.960784%);stroke-opacity:1;stroke-miterlimit:4;" d="M 104.898438 77.398438 C 103.699219 79.601562 102.300781 81.699219 100.800781 83.699219 C 84.5 105.101562 54.101562 111.898438 29.5 99.601562 C 28.300781 99 27 98.300781 25.898438 97.699219 C 24.699219 97 23.601562 96.300781 22.5 95.5 C 21.199219 94.601562 19.898438 93.699219 18.699219 92.601562 C 18.601562 92.5 18.5 92.5 18.5 92.398438 C -4.601562 73 -6.699219 39.5 13.800781 17.699219 C 34.300781 -4.101562 69.5 -6.199219 92.5 13.199219 C 111.800781 29.300781 116.898438 55.800781 104.898438 77.398438 Z M 104.898438 77.398438 "/>
<path style="fill:none;stroke-width:1;stroke-linecap:round;stroke-linejoin:round;stroke:rgb(14.901961%,19.607843%,21.960784%);stroke-opacity:1;stroke-miterlimit:4;" d="M 68.199219 104.199219 C 61.699219 105.601562 55.199219 106 48.601562 105.199219 L 49.300781 102.800781 C 49.300781 102.800781 48.699219 101.800781 51.199219 102 C 53.800781 102.300781 55.800781 102.5 55.800781 102.5 L 57.800781 98.800781 L 61.398438 98.800781 L 62.601562 99.398438 L 63.601562 100.800781 L 65.800781 102.800781 C 66.699219 103.300781 67.5 103.699219 68.199219 104.199219 Z M 68.199219 104.199219 "/>
<path style="fill:none;stroke-width:1;stroke-linecap:round;stroke-linejoin:round;stroke:rgb(14.901961%,19.607843%,21.960784%);stroke-opacity:1;stroke-miterlimit:4;" d="M 105.101562 28.300781 C 104.5 28.800781 103.5 29 102 28.601562 C 96.398438 27 93.601562 32.898438 94.601562 33 C 95.601562 33.101562 96.300781 35.699219 94.199219 37 C 92.199219 38.300781 87.601562 37.800781 87.898438 39.199219 C 88.300781 40.5 90.5 43.800781 90.5 43.800781 C 90.5 43.800781 92.5 42.898438 93.101562 44.101562 C 93.601562 45.300781 94.300781 48.300781 92.800781 48.898438 C 91.898438 49.199219 91.5 50.199219 91.601562 51 L 87.101562 50.699219 L 86.398438 53.800781 L 83.699219 56 L 82.199219 55.199219 C 82.199219 55.199219 80.898438 52 79.601562 53.898438 L 78.398438 55.800781 L 77.601562 57.601562 C 77.601562 57.601562 80.800781 58.300781 81.601562 59.601562 L 82.398438 60.898438 L 89.398438 62.699219 L 89.898438 64.601562 L 91.199219 65.300781 L 91.601562 68.601562 L 94.199219 69.898438 L 96.898438 70.101562 L 100.101562 65.898438 C 100.699219 67.101562 101.300781 68.300781 101.800781 69.5 C 102.199219 70.601562 101.199219 73.300781 101.199219 73.300781 C 100.699219 74.300781 99.898438 75.101562 98.898438 75.800781 C 97.699219 76.398438 96.101562 74.800781 96.199219 76.800781 L 96.300781 78.800781 L 95.898438 81.101562 L 97.800781 82.101562 L 99.699219 83 L 100.800781 83.800781 "/>
<path style="fill:none;stroke-width:1;stroke-linecap:round;stroke-linejoin:round;stroke:rgb(14.901961%,19.607843%,21.960784%);stroke-opacity:1;stroke-miterlimit:4;" d="M 0.300781 60.5 L 1.101562 60.699219 L 4.699219 57 L 7.898438 55.699219 L 10.199219 56.898438 C 11.199219 57.398438 12.101562 55.101562 12.101562 55.101562 L 11.5 54.601562 C 10.898438 54.101562 11.800781 51 11.800781 51 C 13.601562 51.300781 15.300781 51.300781 17.101562 51.300781 C 18.5 51.101562 19.101562 51.199219 19.800781 50 C 20.398438 48.800781 20 48.699219 20 48.699219 C 20.5 47.300781 20.898438 45.800781 21.101562 44.300781 C 21.101562 42.898438 23.398438 45.5 23.398438 45.5 L 24.601562 43.5 L 27.101562 41.699219 L 30.398438 39.5 C 30.398438 39.5 35.199219 38.199219 35.5 39.199219 C 35.898438 40.101562 37.800781 41 37.800781 41 L 37 42.5 C 37 42.5 35.898438 45.5 35 46.199219 C 34.101562 46.898438 35.398438 51.5 35.398438 51.5 C 34.398438 52.300781 33.601562 53.300781 32.898438 54.300781 C 32.300781 55.398438 31.699219 55.398438 31.699219 55.398438 L 28.601562 55 C 28.601562 55 25.101562 52.601562 23.898438 52.101562 C 23.898438 52.101562 21.800781 54.199219 22 55.5 C 22.300781 56.800781 21.300781 56.800781 21.300781 56.800781 L 24.601562 59.699219 L 25.101562 61.5 L 27 63.898438 L 26.398438 65 L 25 66.898438 L 25.5 69.300781 L 27.601562 72 L 28.800781 74.398438 L 30.101562 78.300781 L 30.5 80.5 L 34.300781 82.101562 L 36 81.300781 L 39.300781 79.601562 L 40.898438 82.5 L 41.5 84 L 38.800781 86.398438 L 39.800781 88.300781 L 40.199219 90.5 L 39.898438 93.398438 L 39.398438 95.199219 L 41.699219 96.398438 L 45.800781 95.800781 L 45.601562 92.898438 C 46.898438 92.101562 48.300781 91.601562 49.800781 91.101562 C 51.5 90.601562 51.398438 90.699219 53.398438 90 C 55.398438 89.300781 54.898438 89.601562 55.898438 89.199219 C 56.898438 88.800781 57.898438 88.398438 57.898438 88.398438 L 58 85.398438 L 59.699219 79.898438 L 60.800781 80.601562 C 61.898438 81.300781 63.398438 78.800781 63.398438 78.800781 L 64.101562 74.601562 L 62 73.601562 C 60.800781 73.300781 59.5 73.300781 58.300781 73.199219 L 55.398438 71.800781 L 52.898438 67.699219 C 52.101562 66.898438 51.398438 65.898438 50.898438 64.898438 L 52.101562 62.898438 L 53.5 60.398438 L 54.898438 61.199219 L 56.199219 61.898438 L 57.601562 62.601562 L 59.898438 61.199219 L 61.101562 57.800781 L 62.898438 56.300781 C 64.101562 55.300781 64.800781 57.101562 64.800781 57.101562 L 66.699219 54.800781 C 68.601562 52.5 67.101562 53.601562 66.101562 52.398438 C 65.699219 51.699219 64.898438 51.398438 64.101562 51.398438 L 60.601562 47.5 L 57.898438 48.5 L 57.5 49.800781 C 57.101562 51.101562 57.5 49.800781 53.5 48.300781 L 52.199219 44.699219 L 53 43.898438 L 53.199219 40.5 C 53.199219 40.5 50.898438 39.398438 49.101562 38.601562 C 47.300781 37.800781 46.898438 35 46.898438 35 C 46.898438 33.699219 47.199219 32.5 47.699219 31.398438 L 46.800781 29 L 43.5 23 L 44 20.199219 L 45.898438 19 L 46.699219 15.398438 L 43.199219 12.300781 L 44.601562 9.898438 L 45.601562 8.101562 L 46.800781 6.101562 L 47.699219 2 C 47.699219 2 47.398438 1.199219 47.300781 0.398438 "/>
<path style="fill:none;stroke-width:1;stroke-linecap:round;stroke-linejoin:round;stroke:rgb(14.901961%,19.607843%,21.960784%);stroke-opacity:1;stroke-miterlimit:4;" d="M 18.800781 92.5 C 18.699219 92.398438 18.601562 92.300781 18.5 92.300781 L 19.5 90.5 L 19.101562 87.101562 L 17.800781 86.398438 C 17.800781 86.398438 19.398438 84.898438 19.300781 83.699219 C 19.300781 82.898438 19.699219 82.300781 20.300781 81.898438 L 19.898438 80 L 19.199219 79.699219 C 18.5 79.398438 18.898438 77.5 18.898438 77.5 L 15.898438 78.101562 L 15.101562 81.101562 L 12 81.800781 C 11.101562 81.199219 10.601562 80.300781 10.5 79.398438 C 10.601562 78 11.101562 78.300781 11.101562 78.300781 L 13.898438 78.300781 L 15.699219 75.101562 L 15.300781 73.601562 L 14.101562 72.898438 "/>
<path style="fill:none;stroke-width:1;stroke-linecap:round;stroke-linejoin:round;stroke:rgb(14.901961%,19.607843%,21.960784%);stroke-opacity:1;stroke-miterlimit:4;" d="M 14 72.699219 C 14.199219 72.800781 13.199219 68.800781 13.199219 68.800781 C 13.199219 68.800781 12 65.898438 10.800781 65.398438 C 9.601562 64.898438 6.699219 66.699219 6.699219 66.699219 L 3.601562 67.101562 L 3 70.699219 "/>
<path style="fill:none;stroke-width:1;stroke-linecap:round;stroke-linejoin:round;stroke:rgb(14.901961%,19.607843%,21.960784%);stroke-opacity:1;stroke-miterlimit:4;" d="M 26.601562 95.398438 L 25.898438 97.601562 C 24.699219 96.898438 23.601562 96.199219 22.5 95.398438 L 26 92.101562 L 25.699219 88.5 C 25.699219 88.5 25.101562 87.199219 26.300781 87.398438 C 27.398438 87.699219 28.398438 87.199219 29.101562 86.5 C 29.800781 85.699219 29.699219 85.398438 31.601562 86.300781 C 33.5 87.199219 33.601562 87.898438 33.898438 88.601562 C 34.199219 89.300781 30.699219 94.398438 30.699219 94.398438 L 32 95 C 32 95 31.300781 96.601562 32.5 96.898438 Z M 26.601562 95.398438 "/>
<path style="fill:none;stroke-width:1;stroke-linecap:round;stroke-linejoin:round;stroke:rgb(14.901961%,19.607843%,21.960784%);stroke-opacity:1;stroke-miterlimit:4;" d="M 66.398438 68.800781 L 68.601562 68.101562 L 70.5 69.898438 C 70.5 69.898438 74.300781 70.398438 72.800781 71.898438 C 71.300781 73.398438 68.601562 73.398438 68.601562 73.398438 L 67.5 75.199219 L 65.699219 73.199219 L 64.800781 71.5 L 65.5 70.300781 Z M 66.398438 68.800781 "/>
<path style="fill:none;stroke-width:1;stroke-linecap:round;stroke-linejoin:round;stroke:rgb(14.901961%,19.607843%,21.960784%);stroke-opacity:1;stroke-miterlimit:4;" d="M 69.5 61.101562 C 69.101562 61.601562 68.699219 62.199219 68.5 62.898438 L 68.300781 63.699219 L 64.800781 61.898438 L 66.699219 58.5 Z M 69.5 61.101562 "/>
<path style=" stroke:none;fill-rule:nonzero;fill:rgb(77.254902%,4.705882%,16.078431%);fill-opacity:1;" d="M 110 97.398438 C 109.5 98.199219 109 99 108.300781 99.800781 C 101.699219 107.898438 89.199219 110.5 79.199219 105.800781 C 78.699219 105.601562 78.199219 105.300781 77.699219 105.101562 C 77.199219 104.800781 76.800781 104.601562 76.300781 104.300781 C 75.800781 104 75.300781 103.601562 74.699219 103.199219 C 74.699219 103.199219 74.601562 103.199219 74.601562 103.101562 C 65.199219 95.800781 64.300781 83.101562 72.699219 74.898438 C 81.101562 66.699219 95.398438 65.898438 104.800781 73.199219 C 112.800781 79.199219 114.898438 89.199219 110 97.398438 Z M 110 97.398438 "/>
<g clip-path="url(#clip6)" clip-rule="nonzero">
<g clip-path="url(#clip7)" clip-rule="nonzero">
<use xlink:href="#surface14" mask="url(#mask3)"/>
</g>
</g>
<path style="fill:none;stroke-width:1;stroke-linecap:round;stroke-linejoin:round;stroke:rgb(14.901961%,19.607843%,21.960784%);stroke-opacity:1;stroke-miterlimit:4;" d="M 110 97.398438 C 109.5 98.199219 109 99 108.300781 99.800781 C 101.699219 107.898438 89.199219 110.5 79.199219 105.800781 C 78.699219 105.601562 78.199219 105.300781 77.699219 105.101562 C 77.199219 104.800781 76.800781 104.601562 76.300781 104.300781 C 75.800781 104 75.300781 103.601562 74.699219 103.199219 C 74.699219 103.199219 74.601562 103.199219 74.601562 103.101562 C 65.199219 95.800781 64.300781 83.101562 72.699219 74.898438 C 81.101562 66.699219 95.398438 65.898438 104.800781 73.199219 C 112.800781 79.199219 114.898438 89.199219 110 97.398438 Z M 110 97.398438 "/>
<path style="fill:none;stroke-width:1;stroke-linecap:round;stroke-linejoin:round;stroke:rgb(14.901961%,19.607843%,21.960784%);stroke-opacity:1;stroke-miterlimit:4;" d="M 95 107.5 C 92.398438 108 89.699219 108.199219 87 107.898438 L 87.300781 107 C 87.300781 107 87 106.601562 88.101562 106.699219 C 89.199219 106.800781 90 106.898438 90 106.898438 L 90.800781 105.5 L 92.300781 105.5 L 92.800781 105.699219 L 93.199219 106.199219 L 94.101562 107 C 94.398438 107.199219 94.699219 107.300781 95 107.5 Z M 95 107.5 "/>
<path style="fill:none;stroke-width:1;stroke-linecap:round;stroke-linejoin:round;stroke:rgb(14.901961%,19.607843%,21.960784%);stroke-opacity:1;stroke-miterlimit:4;" d="M 110.101562 78.800781 C 109.800781 79 109.5 79.101562 108.800781 78.898438 C 106.5 78.300781 105.398438 80.5 105.800781 80.5 C 106.199219 80.5 106.5 81.5 105.699219 82 C 104.898438 82.5 103 82.300781 103.101562 82.800781 C 103.199219 83.300781 104.101562 84.5 104.101562 84.5 C 104.101562 84.5 104.898438 84.199219 105.101562 84.601562 C 105.300781 85 105.601562 86.199219 105 86.398438 C 104.601562 86.5 104.5 86.898438 104.5 87.199219 L 102.699219 87.101562 L 102.398438 88.300781 L 101.300781 89.101562 L 100.699219 88.800781 C 100.699219 88.800781 100.199219 87.601562 99.699219 88.300781 L 99.199219 89 L 98.898438 89.699219 C 98.898438 89.699219 100.199219 90 100.5 90.5 L 100.800781 91 L 103.699219 91.699219 L 103.898438 92.398438 L 104.398438 92.699219 L 104.5 93.898438 L 105.5 94.398438 L 106.601562 94.5 L 108 93 C 108.300781 93.398438 108.5 93.898438 108.699219 94.398438 C 108.800781 94.800781 108.398438 95.800781 108.398438 95.800781 C 108.199219 96.199219 107.898438 96.5 107.5 96.800781 C 107 97 106.300781 96.398438 106.398438 97.199219 L 106.398438 98 L 106.300781 98.898438 L 107.101562 99.300781 L 107.898438 99.601562 L 108.300781 99.898438 "/>
<path style="fill:none;stroke-width:1;stroke-linecap:round;stroke-linejoin:round;stroke:rgb(14.901961%,19.607843%,21.960784%);stroke-opacity:1;stroke-miterlimit:4;" d="M 67.300781 91 L 67.601562 91.101562 L 69 89.699219 L 70.300781 89.199219 L 71.199219 89.601562 C 71.601562 89.800781 72 88.898438 72 88.898438 L 71.699219 88.699219 C 71.398438 88.5 71.800781 87.300781 71.800781 87.300781 C 72.5 87.398438 73.199219 87.398438 74 87.398438 C 74.601562 87.300781 74.800781 87.398438 75.101562 86.898438 C 75.398438 86.5 75.199219 86.398438 75.199219 86.398438 C 75.398438 85.898438 75.601562 85.300781 75.601562 84.800781 C 75.601562 84.300781 76.5 85.199219 76.5 85.199219 L 77 84.398438 L 78 83.699219 L 79.300781 82.898438 C 79.300781 82.898438 81.199219 82.398438 81.398438 82.800781 C 81.5 83.101562 82.300781 83.5 82.300781 83.5 L 82 84.101562 C 82 84.101562 81.601562 85.199219 81.199219 85.5 C 80.800781 85.800781 81.398438 87.5 81.398438 87.5 C 81 87.800781 80.699219 88.199219 80.398438 88.5 C 80.199219 89 80 89 80 89 L 78.699219 88.800781 C 78.699219 88.800781 77.300781 87.898438 76.800781 87.699219 C 76.800781 87.699219 75.898438 88.5 76 89 C 76.101562 89.5 75.699219 89.5 75.699219 89.5 L 77 90.601562 L 77.199219 91.300781 L 78 92.199219 L 77.699219 92.601562 L 77.199219 93.398438 L 77.398438 94.300781 L 78.300781 95.300781 L 78.800781 96.199219 L 79.300781 97.699219 L 79.5 98.5 L 81.101562 99.101562 L 81.800781 98.800781 L 83.101562 98.199219 L 83.699219 99.300781 L 84 99.898438 L 82.898438 100.800781 L 83.300781 101.5 L 83.398438 102.300781 L 83.300781 103.398438 L 83.101562 104.101562 L 84 104.5 L 85.699219 104.300781 L 85.601562 103.199219 C 86.101562 102.898438 86.699219 102.699219 87.300781 102.5 C 88 102.300781 87.898438 102.300781 88.800781 102.101562 C 89.699219 101.898438 89.398438 101.898438 89.800781 101.800781 C 90.199219 101.699219 90.601562 101.5 90.601562 101.5 L 90.601562 100.398438 L 91.300781 98.300781 L 91.699219 98.601562 C 92.101562 98.898438 92.699219 97.898438 92.699219 97.898438 L 93 96.300781 L 92.101562 95.898438 C 91.601562 95.800781 91.101562 95.800781 90.601562 95.699219 L 89.398438 95.199219 L 88.398438 93.601562 C 88.101562 93.300781 87.800781 92.898438 87.601562 92.601562 L 88.101562 91.800781 L 88.699219 90.800781 L 89.300781 91.101562 L 89.800781 91.398438 L 90.398438 91.699219 L 91.300781 91.199219 L 91.800781 89.898438 L 92.5 89.300781 C 93 88.898438 93.300781 89.601562 93.300781 89.601562 L 94.101562 88.699219 C 94.898438 87.800781 94.199219 88.300781 93.800781 87.800781 C 93.601562 87.5 93.300781 87.398438 93 87.398438 L 91.898438 86 L 90.800781 86.398438 L 90.699219 86.898438 C 90.601562 87.398438 90.699219 86.898438 89.101562 86.300781 L 88.601562 84.898438 L 88.898438 84.601562 L 89 83.300781 C 89 83.300781 88.101562 82.898438 87.300781 82.601562 C 86.5 82.300781 86.398438 81.398438 86.398438 81.398438 C 86.398438 80.898438 86.5 80.398438 86.699219 80 L 86.300781 79.101562 L 85 76.800781 L 85.199219 75.800781 L 86 75.398438 L 86.300781 74 L 84.898438 72.800781 L 85.5 71.898438 L 85.898438 71.199219 L 86.398438 70.398438 L 86.800781 68.800781 C 86.800781 68.800781 86.699219 68.5 86.601562 68.199219 "/>
<path style="fill:none;stroke-width:1;stroke-linecap:round;stroke-linejoin:round;stroke:rgb(14.901961%,19.607843%,21.960784%);stroke-opacity:1;stroke-miterlimit:4;" d="M 74.898438 103.101562 C 74.898438 103.101562 74.800781 103 74.800781 103 L 75.199219 102.300781 L 75.101562 101 L 74.601562 100.699219 C 74.601562 100.699219 75.199219 100.101562 75.199219 99.699219 C 75.199219 99.398438 75.300781 99.199219 75.601562 99 L 75.398438 98.199219 L 75 98.199219 C 74.699219 98.101562 74.898438 97.398438 74.898438 97.398438 L 73.699219 97.601562 L 73.398438 98.699219 L 72.101562 99 C 71.699219 98.800781 71.5 98.398438 71.5 98.101562 C 71.5 97.601562 71.800781 97.699219 71.800781 97.699219 L 73 97.699219 L 73.699219 96.5 L 73.601562 95.898438 L 73 95.699219 "/>
<path style="fill:none;stroke-width:1;stroke-linecap:round;stroke-linejoin:round;stroke:rgb(14.901961%,19.607843%,21.960784%);stroke-opacity:1;stroke-miterlimit:4;" d="M 72.898438 95.601562 C 73 95.601562 72.601562 94.101562 72.601562 94.101562 C 72.601562 94.101562 72.101562 93 71.601562 92.800781 C 71.101562 92.601562 69.898438 93.300781 69.898438 93.300781 L 68.601562 93.5 L 68.300781 94.800781 "/>
<path style="fill:none;stroke-width:1;stroke-linecap:round;stroke-linejoin:round;stroke:rgb(14.901961%,19.607843%,21.960784%);stroke-opacity:1;stroke-miterlimit:4;" d="M 78 104.199219 L 77.699219 105 C 77.199219 104.699219 76.800781 104.5 76.300781 104.199219 L 77.699219 103 L 77.601562 101.601562 C 77.601562 101.601562 77.300781 101.101562 77.898438 101.199219 C 78.300781 101.300781 78.800781 101.101562 79.101562 100.898438 C 79.398438 100.601562 79.398438 100.5 80.101562 100.800781 C 80.898438 101.101562 80.898438 101.398438 81 101.699219 C 81.101562 102 79.699219 103.898438 79.699219 103.898438 L 80.199219 104.101562 C 80.199219 104.101562 79.898438 104.699219 80.398438 104.800781 Z M 78 104.199219 "/>
<path style="fill:none;stroke-width:1;stroke-linecap:round;stroke-linejoin:round;stroke:rgb(14.901961%,19.607843%,21.960784%);stroke-opacity:1;stroke-miterlimit:4;" d="M 94.300781 94.101562 L 95.199219 93.800781 L 96 94.5 C 96 94.5 97.601562 94.699219 96.898438 95.300781 C 96.300781 95.898438 95.199219 95.898438 95.199219 95.898438 L 94.800781 96.601562 L 94 95.800781 L 93.601562 95.199219 L 93.898438 94.800781 Z M 94.300781 94.101562 "/>
<path style="fill:none;stroke-width:1;stroke-linecap:round;stroke-linejoin:round;stroke:rgb(14.901961%,19.607843%,21.960784%);stroke-opacity:1;stroke-miterlimit:4;" d="M 95.5 91.199219 C 95.300781 91.398438 95.199219 91.601562 95.101562 91.898438 L 95 92.199219 L 93.601562 91.5 L 94.398438 90.199219 Z M 95.5 91.199219 "/>
<path style=" stroke:none;fill-rule:nonzero;fill:rgb(14.901961%,19.607843%,21.960784%);fill-opacity:1;" d="M 173.898438 166 C 172 167.398438 157.101562 176.398438 135.800781 174.898438 C 134.601562 166.398438 130.300781 131.398438 135.300781 125.898438 C 135.300781 125.898438 147.398438 120.898438 158.398438 123 C 169.5 125.101562 173.800781 127.199219 174.601562 128.898438 C 175.199219 130.398438 174.300781 155.101562 173.898438 166 Z M 173.898438 166 "/>
<path style="fill-rule:nonzero;fill:rgb(100%,100%,100%);fill-opacity:1;stroke-width:1;stroke-linecap:round;stroke-linejoin:round;stroke:rgb(14.901961%,19.607843%,21.960784%);stroke-opacity:1;stroke-miterlimit:4;" d="M 158 126.800781 C 151.601562 131.699219 143.398438 130.601562 143.601562 126.898438 C 143.601562 126.300781 144.300781 125.601562 144.300781 125.601562 L 144 125.300781 L 142.898438 123.898438 C 142.101562 122.800781 141.101562 121.5 140.398438 120.5 C 139.800781 119.699219 154.199219 111.898438 154.199219 116.300781 C 154.199219 122.601562 157.699219 123.800781 157.699219 123.800781 C 159.199219 124.300781 160.398438 125 158 126.800781 Z M 158 126.800781 "/>
<path style="fill:none;stroke-width:1;stroke-linecap:round;stroke-linejoin:round;stroke:rgb(100%,100%,100%);stroke-opacity:1;stroke-miterlimit:4;" d="M 162 136.5 C 162 136.5 160.699219 140.398438 161.300781 141.5 "/>
<path style="fill:none;stroke-width:1;stroke-linecap:round;stroke-linejoin:round;stroke:rgb(100%,100%,100%);stroke-opacity:1;stroke-miterlimit:4;" d="M 160.5 125.199219 C 160.5 128.898438 147.800781 132.601562 144.101562 128.800781 "/>
<path style=" stroke:none;fill-rule:nonzero;fill:rgb(14.901961%,19.607843%,21.960784%);fill-opacity:1;" d="M 150.101562 120.898438 C 150.101562 120.898438 149.199219 123.699219 145.300781 125.898438 C 145.101562 125.601562 144.800781 125.398438 144.398438 125.300781 C 144.300781 125.300781 144.101562 125.300781 144 125.300781 L 142.898438 123.898438 C 145 122.601562 150.101562 120.898438 150.101562 120.898438 Z M 150.101562 120.898438 "/>
<path style="fill-rule:nonzero;fill:rgb(100%,100%,100%);fill-opacity:1;stroke-width:1;stroke-linecap:round;stroke-linejoin:round;stroke:rgb(14.901961%,19.607843%,21.960784%);stroke-opacity:1;stroke-miterlimit:4;" d="M 151.800781 117.398438 C 151.800781 117.398438 151.800781 120.199219 151.101562 120.800781 C 146 125.101562 141.101562 125.398438 140.300781 124.300781 C 134.898438 116.699219 136.101562 114.800781 135.601562 113.5 C 134.601562 111.199219 133.398438 107.5 133.898438 105.300781 C 135.101562 100.300781 145.800781 96.398438 151.398438 101.5 C 154.101562 103.898438 155 109.101562 154.398438 113.5 "/>
<path style="fill:none;stroke-width:1;stroke-linecap:round;stroke-linejoin:round;stroke:rgb(14.901961%,19.607843%,21.960784%);stroke-opacity:1;stroke-miterlimit:4;" d="M 136.300781 111.101562 C 136.300781 111.101562 134.800781 110.5 134.5 111.199219 "/>
<path style="fill:none;stroke-width:1;stroke-linecap:round;stroke-linejoin:round;stroke:rgb(14.901961%,19.607843%,21.960784%);stroke-opacity:1;stroke-miterlimit:4;" d="M 140 111.101562 C 140 111.101562 143.101562 110 144.5 111.398438 "/>
<path style=" stroke:none;fill-rule:nonzero;fill:rgb(14.901961%,19.607843%,21.960784%);fill-opacity:1;" d="M 143.398438 113.101562 C 143.398438 113.5 143.199219 113.898438 142.898438 113.898438 C 142.601562 113.898438 142.300781 113.601562 142.199219 113.199219 C 142.199219 112.800781 142.398438 112.398438 142.699219 112.398438 C 143.101562 112.300781 143.398438 112.699219 143.398438 113.101562 Z M 143.398438 113.101562 "/>
<path style=" stroke:none;fill-rule:nonzero;fill:rgb(14.901961%,19.607843%,21.960784%);fill-opacity:1;" d="M 137.300781 113.199219 C 137.300781 113.601562 137.101562 114 136.800781 114 C 136.5 114 136.199219 113.699219 136.101562 113.300781 C 136.101562 112.898438 136.300781 112.5 136.601562 112.5 C 136.898438 112.5 137.199219 112.800781 137.300781 113.199219 Z M 137.300781 113.199219 "/>
<path style="fill-rule:nonzero;fill:rgb(100%,100%,100%);fill-opacity:1;stroke-width:1;stroke-linecap:round;stroke-linejoin:round;stroke:rgb(14.901961%,19.607843%,21.960784%);stroke-opacity:1;stroke-miterlimit:4;" d="M 137.398438 112.101562 C 137.800781 112.699219 137.601562 113.800781 137 115.199219 C 136.5 116.699219 136.898438 117.199219 139.199219 117.300781 "/>
<path style="fill:none;stroke-width:1;stroke-linecap:round;stroke-linejoin:round;stroke:rgb(14.901961%,19.607843%,21.960784%);stroke-opacity:1;stroke-miterlimit:4;" d="M 139.199219 119.898438 C 139.199219 119.898438 142.101562 119.699219 143.398438 119 "/>
<path style=" stroke:none;fill-rule:nonzero;fill:rgb(14.901961%,19.607843%,21.960784%);fill-opacity:1;" d="M 157.5 105.5 C 157.5 103.601562 155.398438 99.800781 151.699219 99.300781 C 149.601562 97.300781 146.5 96.601562 142.898438 97.398438 C 134.398438 99.101562 131.800781 106.5 131.398438 107.699219 C 131.398438 107.800781 131.398438 107.898438 131.398438 107.898438 L 133.699219 107.398438 L 132.699219 109.101562 L 133.898438 109.800781 L 133.601562 110.101562 L 135 111.300781 L 134.601562 109.101562 C 134.898438 107.699219 136.699219 105.800781 136.699219 105.800781 C 136.101562 106.601562 135.601562 107.398438 135.5 108.398438 C 136.199219 106.800781 140.601562 105.199219 140.601562 105.199219 C 139.199219 106.199219 138.398438 108.199219 138.398438 108.199219 C 139.699219 106.699219 142.898438 105.800781 144.898438 105.300781 C 145.601562 106.699219 146.601562 108.199219 148.199219 109 C 149.601562 109.800781 149.601562 111.398438 149.601562 111.398438 C 151.199219 112.398438 152.300781 113.699219 152.800781 115.300781 L 154.5 117.398438 C 154.398438 117.398438 157.5 114 157.5 105.5 Z M 157.5 105.5 "/>
<path style="fill-rule:nonzero;fill:rgb(100%,100%,100%);fill-opacity:1;stroke-width:1;stroke-linecap:round;stroke-linejoin:round;stroke:rgb(14.901961%,19.607843%,21.960784%);stroke-opacity:1;stroke-miterlimit:4;" d="M 150.101562 111.898438 C 149.5 110.800781 151.699219 107.800781 153.101562 108.199219 C 153.898438 108.398438 155 109.800781 155.300781 111.199219 C 155.5 112.601562 154.398438 115.300781 153.101562 115.898438 C 152.300781 116.300781 151.699219 115.199219 151.699219 115.199219 "/>
<path style=" stroke:none;fill-rule:nonzero;fill:rgb(100%,100%,100%);fill-opacity:1;" d="M 58.101562 165.800781 L 98.898438 157.398438 L 183.898438 166 L 162 179.199219 Z M 58.101562 165.800781 "/>
<path style="fill-rule:nonzero;fill:rgb(100%,100%,100%);fill-opacity:1;stroke-width:1;stroke-linecap:round;stroke-linejoin:round;stroke:rgb(14.901961%,19.607843%,21.960784%);stroke-opacity:1;stroke-miterlimit:4;" d="M 58.101562 165.800781 L 98.898438 157.398438 L 183.898438 166 "/>
<path style="fill-rule:nonzero;fill:rgb(100%,100%,100%);fill-opacity:1;stroke-width:1;stroke-linecap:round;stroke-linejoin:round;stroke:rgb(14.901961%,19.607843%,21.960784%);stroke-opacity:1;stroke-miterlimit:4;" d="M 93.398438 167.5 L 109.898438 161 L 130.800781 162 L 121.5 169 Z M 93.398438 167.5 "/>
<path style=" stroke:none;fill-rule:nonzero;fill:rgb(14.901961%,19.607843%,21.960784%);fill-opacity:1;" d="M 136 125.699219 C 130.699219 127.601562 129.601562 131.898438 120.601562 148.800781 C 120.601562 148.800781 116.601562 149.5 114.5 153.800781 C 112.398438 158.101562 115.898438 161.398438 120.101562 161.300781 C 120.101562 161.300781 121.800781 162.601562 125.199219 162.398438 C 128.601562 162.300781 143.601562 142.101562 143.601562 142.101562 Z M 136 125.699219 "/>
<path style="fill:none;stroke-width:1;stroke-linecap:round;stroke-linejoin:round;stroke:rgb(100%,100%,100%);stroke-opacity:1;stroke-miterlimit:4;" d="M 122.199219 149.800781 C 124.601562 151.601562 125.898438 154.398438 125.199219 157.398438 "/>
<path style="fill:none;stroke-width:1;stroke-linecap:round;stroke-linejoin:round;stroke:rgb(100%,100%,100%);stroke-opacity:1;stroke-miterlimit:4;" d="M 124.5 150.699219 C 124.5 150.699219 127.398438 151.300781 127.898438 154.5 "/>
<path style="fill:none;stroke-width:1;stroke-linecap:round;stroke-linejoin:round;stroke:rgb(100%,100%,100%);stroke-opacity:1;stroke-miterlimit:4;" d="M 133 141.101562 C 131.601562 138.101562 131.199219 134.898438 131.601562 131.699219 "/>
<path style="fill:none;stroke-width:1;stroke-linecap:round;stroke-linejoin:round;stroke:rgb(100%,100%,100%);stroke-opacity:1;stroke-miterlimit:4;" d="M 132.601562 136.800781 C 132.398438 138.101562 133.898438 145.199219 133.898438 152.699219 "/>
<path style=" stroke:none;fill-rule:nonzero;fill:rgb(14.901961%,19.607843%,21.960784%);fill-opacity:1;" d="M 172.101562 127.101562 C 178.699219 130 179.5 139 173.300781 149.800781 C 168.898438 157.398438 162.800781 168.601562 158.898438 169.398438 C 155 170.199219 151.300781 168 151.300781 168 C 151.300781 168 148.101562 167.898438 147.101562 165.800781 C 144.398438 160.199219 151.300781 153.199219 153.898438 154.898438 C 153.898438 154.898438 162.5 138.5 164 137.5 "/>
<path style="fill:none;stroke-width:1;stroke-linecap:round;stroke-linejoin:round;stroke:rgb(100%,100%,100%);stroke-opacity:1;stroke-miterlimit:4;" d="M 146.5 162.5 C 145.601562 158.699219 152.5 154.199219 153.898438 155 C 153.898438 155 159 155.300781 159.699219 158.300781 "/>
<path style="fill:none;stroke-width:1;stroke-linecap:round;stroke-linejoin:round;stroke:rgb(100%,100%,100%);stroke-opacity:1;stroke-miterlimit:4;" d="M 165.101562 163.300781 C 168.101562 158.699219 173.300781 149.800781 173.300781 149.800781 "/>
<path style="fill:none;stroke-width:1;stroke-linecap:round;stroke-linejoin:round;stroke:rgb(100%,100%,100%);stroke-opacity:1;stroke-miterlimit:4;" d="M 153.898438 155 C 153.898438 155 157.5 153.101562 160.101562 154.898438 "/>
<path style="fill:none;stroke-width:1;stroke-linecap:round;stroke-linejoin:round;stroke:rgb(100%,100%,100%);stroke-opacity:1;stroke-miterlimit:4;" d="M 155.101562 152.699219 C 155.101562 152.699219 157.101562 148.898438 159.101562 145.398438 C 161.101562 141.898438 165.699219 136.699219 167.601562 136.5 "/>
<path style=" stroke:none;fill-rule:nonzero;fill:rgb(100%,100%,100%);fill-opacity:1;" d="M 117.5 159.601562 C 117.101562 159.601562 116.699219 159.5 116.300781 159.300781 C 110.199219 156.5 105.398438 151.800781 102.5 148.5 C 101.398438 147.199219 100.398438 145.898438 99.398438 144.5 L 100.898438 138.898438 C 100.898438 138.898438 102.300781 142.101562 107.898438 145.199219 C 113.5 148.300781 120.101562 149.398438 122.199219 152.5 C 124.101562 155.199219 120.699219 159.699219 117.5 159.601562 Z M 117.5 159.601562 "/>
<g clip-path="url(#clip9)" clip-rule="nonzero">
<g clip-path="url(#clip10)" clip-rule="nonzero">
<use xlink:href="#surface17" mask="url(#mask4)"/>
</g>
</g>
<path style="fill:none;stroke-width:1;stroke-linecap:round;stroke-linejoin:round;stroke:rgb(14.901961%,19.607843%,21.960784%);stroke-opacity:1;stroke-miterlimit:4;" d="M 117.5 159.601562 C 117.101562 159.601562 116.699219 159.5 116.300781 159.300781 C 110.199219 156.5 105.398438 151.800781 102.5 148.5 C 101.398438 147.199219 100.398438 145.898438 99.398438 144.5 L 100.898438 138.898438 C 100.898438 138.898438 102.300781 142.101562 107.898438 145.199219 C 113.5 148.300781 120.101562 149.398438 122.199219 152.5 C 124.101562 155.199219 120.699219 159.699219 117.5 159.601562 Z M 117.5 159.601562 "/>
<path style="fill-rule:nonzero;fill:rgb(100%,100%,100%);fill-opacity:1;stroke-width:1;stroke-linecap:round;stroke-linejoin:round;stroke:rgb(14.901961%,19.607843%,21.960784%);stroke-opacity:1;stroke-miterlimit:4;" d="M 103.601562 144.101562 C 103.601562 144.101562 102.800781 147.101562 100.800781 146.398438 C 99.699219 146.101562 97.601562 143.199219 97.199219 141.800781 Z M 103.601562 144.101562 "/>
<path style="fill-rule:nonzero;fill:rgb(100%,100%,100%);fill-opacity:1;stroke-width:1;stroke-linecap:round;stroke-linejoin:round;stroke:rgb(14.901961%,19.607843%,21.960784%);stroke-opacity:1;stroke-miterlimit:4;" d="M 94.699219 125.898438 L 96.300781 125.199219 C 96.300781 125.199219 100.898438 125.199219 103.800781 127.300781 C 106.398438 129.199219 107.699219 132.101562 107.699219 132.101562 C 107.699219 132.101562 117.800781 127.199219 128.199219 130 L 132.398438 150.699219 L 113 151.800781 L 101 141.601562 Z M 94.699219 125.898438 "/>
<path style=" stroke:none;fill-rule:nonzero;fill:rgb(77.254902%,4.705882%,16.078431%);fill-opacity:1;" d="M 133.898438 151.5 C 133.898438 151.5 131.601562 151.398438 128.601562 151.5 C 124 151.601562 117.601562 152.101562 114.699219 153.601562 L 114.601562 153.601562 L 111.898438 152.800781 L 111.898438 152.699219 C 111.398438 152.101562 107.5 147.101562 101.800781 145 L 93.800781 125.398438 C 93.800781 125.398438 102.101562 125.699219 106.601562 132.300781 L 108.898438 133 C 108.898438 133 122.398438 129.5 130 130.699219 Z M 133.898438 151.5 "/>
<g clip-path="url(#clip12)" clip-rule="nonzero">
<g clip-path="url(#clip13)" clip-rule="nonzero">
<use xlink:href="#surface20" mask="url(#mask5)"/>
<use xlink:href="#surface23" mask="url(#mask6)"/>
</g>
</g>
<path style="fill:none;stroke-width:1;stroke-linecap:round;stroke-linejoin:round;stroke:rgb(14.901961%,19.607843%,21.960784%);stroke-opacity:1;stroke-miterlimit:4;" d="M 133.898438 151.5 C 133.898438 151.5 131.601562 151.398438 128.601562 151.5 C 124 151.601562 117.601562 152.101562 114.699219 153.601562 L 114.601562 153.601562 L 111.898438 152.800781 L 111.898438 152.699219 C 111.398438 152.101562 107.5 147.101562 101.800781 145 L 93.800781 125.398438 C 93.800781 125.398438 102.101562 125.699219 106.601562 132.300781 L 108.898438 133 C 108.898438 133 122.398438 129.5 130 130.699219 Z M 133.898438 151.5 "/>
<path style="fill:none;stroke-width:1;stroke-linecap:round;stroke-linejoin:round;stroke:rgb(14.901961%,19.607843%,21.960784%);stroke-opacity:1;stroke-miterlimit:4;" d="M 108.898438 133 L 114.101562 152 "/>
<path style="fill:none;stroke-width:1;stroke-linecap:round;stroke-linejoin:round;stroke:rgb(14.901961%,19.607843%,21.960784%);stroke-opacity:1;stroke-miterlimit:4;" d="M 111.898438 152.699219 L 106.800781 133.699219 "/>
<path style="fill-rule:nonzero;fill:rgb(100%,100%,100%);fill-opacity:1;stroke-width:1;stroke-linecap:round;stroke-linejoin:round;stroke:rgb(14.901961%,19.607843%,21.960784%);stroke-opacity:1;stroke-miterlimit:4;" d="M 99 144.398438 C 97.800781 144.101562 95.5 138 96.601562 135.398438 C 96.601562 135.398438 97.898438 133.5 98.398438 133.300781 C 99.199219 133.101562 102.5 133.101562 102.300781 133.601562 C 101.898438 134.699219 99.398438 134.699219 99.398438 134.699219 L 98.601562 136 L 98.601562 136.699219 C 98.601562 136.699219 99.800781 135.898438 100.199219 136 C 100.398438 136 101.601562 136.5 102.5 136.898438 C 103.300781 137.199219 103.800781 137.5 103.601562 137.800781 C 103 138.898438 100.5 138.101562 100.5 138.101562 L 99.601562 139.300781 C 99.601562 139.300781 100.5 139.398438 100.898438 139.5 C 101.300781 139.5 104.5 141.398438 104.5 141.699219 C 104.101562 142.601562 101 141.601562 101 141.601562 L 100.5 142 C 100.5 142 102.800781 142.5 103 142.601562 C 103.398438 142.699219 104.800781 143.601562 104.699219 143.800781 C 104.5 144.601562 102.601562 144 102.601562 144 L 100.898438 143.898438 C 100.601562 144.101562 100.300781 144.199219 100 144.300781 "/>
<path style="fill:none;stroke-width:1;stroke-linecap:round;stroke-linejoin:round;stroke:rgb(14.901961%,19.607843%,21.960784%);stroke-opacity:1;stroke-miterlimit:4;" d="M 98.601562 136.800781 C 98.601562 136.800781 97.5 137.601562 97.199219 137.800781 C 96.898438 138.101562 97 138.800781 97 138.800781 "/>
<path style="fill:none;stroke-width:1;stroke-linecap:round;stroke-linejoin:round;stroke:rgb(14.901961%,19.607843%,21.960784%);stroke-opacity:1;stroke-miterlimit:4;" d="M 97.898438 140.5 C 97.898438 141.300781 98.5 141.800781 98.800781 142.101562 C 99.101562 142.398438 98.300781 143.101562 99.199219 143.601562 "/>
<path style=" stroke:none;fill-rule:nonzero;fill:rgb(100%,100%,100%);fill-opacity:1;" d="M 151.300781 166 C 149 166.5 146.5 163 143.5 159.101562 C 141.5 156.601562 139.199219 153.898438 136.699219 152.101562 C 136.5 152 136.300781 151.800781 136.101562 151.699219 L 137.601562 145 C 140.699219 146.398438 142.699219 148.699219 145.898438 151.101562 C 151.101562 154.898438 155.800781 157.300781 157.101562 159 C 158.398438 160.699219 155.199219 165 151.300781 166 Z M 151.300781 166 "/>
<g clip-path="url(#clip16)" clip-rule="nonzero">
<g clip-path="url(#clip17)" clip-rule="nonzero">
<use xlink:href="#surface26" mask="url(#mask7)"/>
</g>
</g>
<path style="fill:none;stroke-width:1;stroke-linecap:round;stroke-linejoin:round;stroke:rgb(14.901961%,19.607843%,21.960784%);stroke-opacity:1;stroke-miterlimit:4;" d="M 151.300781 166 C 149 166.5 146.5 163 143.5 159.101562 C 141.5 156.601562 139.199219 153.898438 136.699219 152.101562 C 136.5 152 136.300781 151.800781 136.101562 151.699219 L 137.601562 145 C 140.699219 146.398438 142.699219 148.699219 145.898438 151.101562 C 151.101562 154.898438 155.800781 157.300781 157.101562 159 C 158.398438 160.699219 155.199219 165 151.300781 166 Z M 151.300781 166 "/>
<path style=" stroke:none;fill-rule:nonzero;fill:rgb(100%,100%,100%);fill-opacity:1;" d="M 138.398438 151.5 C 138.300781 151.800781 138 151.898438 137.699219 152 C 137.601562 152 137.5 152.101562 137.398438 152.101562 L 137.300781 152.101562 C 134.898438 152.699219 129.398438 151.5 129.398438 151.5 C 129.398438 151.5 125.800781 150 125.601562 149.699219 C 125.5 149.398438 125.300781 149.101562 125.199219 148.800781 L 125.101562 148.5 C 125.101562 148.5 123.800781 147.898438 123.699219 147.398438 C 123.601562 146.898438 123.300781 146.800781 124.101562 146.699219 C 124.898438 146.601562 129.199219 146.699219 129.199219 146.699219 L 124.5 145.101562 C 124.5 145.101562 121.398438 143.699219 121.101562 143.300781 C 120.800781 142.800781 120.5 142.5 122 142.699219 C 123.601562 142.898438 127 143.800781 127 143.800781 L 129.699219 144.300781 L 127 143.300781 C 127 143.300781 121.699219 142.699219 122.699219 141.300781 L 125.699219 141.300781 C 127.398438 141.398438 129.101562 141.601562 130.800781 141.898438 C 131.699219 142.101562 137.398438 145.300781 137.398438 145.300781 "/>
<g clip-path="url(#clip19)" clip-rule="nonzero">
<g clip-path="url(#clip20)" clip-rule="nonzero">
<use xlink:href="#surface29" mask="url(#mask8)"/>
</g>
</g>
<path style="fill:none;stroke-width:1;stroke-linecap:round;stroke-linejoin:round;stroke:rgb(14.901961%,19.607843%,21.960784%);stroke-opacity:1;stroke-miterlimit:4;" d="M 138.398438 151.5 C 138.300781 151.800781 138 151.898438 137.699219 152 C 137.601562 152 137.5 152.101562 137.398438 152.101562 L 137.300781 152.101562 C 134.898438 152.699219 129.398438 151.5 129.398438 151.5 C 129.398438 151.5 125.800781 150 125.601562 149.699219 C 125.5 149.398438 125.300781 149.101562 125.199219 148.800781 L 125.101562 148.5 C 125.101562 148.5 123.800781 147.898438 123.699219 147.398438 C 123.601562 146.898438 123.300781 146.800781 124.101562 146.699219 C 124.898438 146.601562 129.199219 146.699219 129.199219 146.699219 L 124.5 145.101562 C 124.5 145.101562 121.398438 143.699219 121.101562 143.300781 C 120.800781 142.800781 120.5 142.5 122 142.699219 C 123.601562 142.898438 127 143.800781 127 143.800781 L 129.699219 144.300781 L 127 143.300781 C 127 143.300781 121.699219 142.699219 122.699219 141.300781 L 125.699219 141.300781 C 127.398438 141.398438 129.101562 141.601562 130.800781 141.898438 C 131.699219 142.101562 137.398438 145.300781 137.398438 145.300781 "/>
<path style="fill:none;stroke-width:1;stroke-linecap:round;stroke-linejoin:round;stroke:rgb(14.901961%,19.607843%,21.960784%);stroke-opacity:1;stroke-miterlimit:4;" d="M 125.199219 148.5 L 130.398438 149.199219 "/>
<path style=" stroke:none;fill-rule:nonzero;fill:rgb(77.254902%,4.705882%,16.078431%);fill-opacity:1;" d="M 72.601562 162.699219 L 85.800781 166.199219 L 110 161.300781 C 110 161.300781 95.199219 157.601562 95.101562 157.699219 C 95 157.898438 72.601562 162.699219 72.601562 162.699219 Z M 72.601562 162.699219 "/>
<g clip-path="url(#clip22)" clip-rule="nonzero">
<g clip-path="url(#clip23)" clip-rule="nonzero">
<use xlink:href="#surface32" mask="url(#mask9)"/>
</g>
</g>
<path style="fill:none;stroke-width:1;stroke-linecap:round;stroke-linejoin:round;stroke:rgb(14.901961%,19.607843%,21.960784%);stroke-opacity:1;stroke-miterlimit:4;" d="M 72.601562 162.699219 L 85.800781 166.199219 L 110 161.300781 C 110 161.300781 95.199219 157.601562 95.101562 157.699219 C 95 157.898438 72.601562 162.699219 72.601562 162.699219 Z M 72.601562 162.699219 "/>
<path style=" stroke:none;fill-rule:nonzero;fill:rgb(77.254902%,4.705882%,16.078431%);fill-opacity:1;" d="M 72.800781 158.601562 C 71.898438 158.699219 71.601562 161.601562 72.601562 162.699219 L 94 158.800781 L 95.699219 155.199219 Z M 72.800781 158.601562 "/>
<g clip-path="url(#clip25)" clip-rule="nonzero">
<g clip-path="url(#clip26)" clip-rule="nonzero">
<use xlink:href="#surface35" mask="url(#mask10)"/>
</g>
</g>
<path style="fill:none;stroke-width:1;stroke-linecap:round;stroke-linejoin:round;stroke:rgb(14.901961%,19.607843%,21.960784%);stroke-opacity:1;stroke-miterlimit:4;" d="M 72.800781 158.601562 C 71.898438 158.699219 71.601562 161.601562 72.601562 162.699219 L 94 158.800781 L 95.699219 155.199219 Z M 72.800781 158.601562 "/>
<path style="fill-rule:nonzero;fill:rgb(100%,100%,100%);fill-opacity:1;stroke-width:1;stroke-linecap:round;stroke-linejoin:round;stroke:rgb(14.901961%,19.607843%,21.960784%);stroke-opacity:1;stroke-miterlimit:4;" d="M 109 158.601562 C 109 158.601562 108.699219 160.199219 108.898438 161.101562 L 85.800781 165.699219 L 73.601562 162.601562 C 73.601562 162.601562 72.300781 160.601562 73.5 159.101562 L 95.699219 155.800781 Z M 109 158.601562 "/>
<path style="fill-rule:nonzero;fill:rgb(77.254902%,4.705882%,16.078431%);fill-opacity:1;stroke-width:1;stroke-linecap:round;stroke-linejoin:round;stroke:rgb(14.901961%,19.607843%,21.960784%);stroke-opacity:1;stroke-miterlimit:4;" d="M 72.800781 158.601562 L 95.699219 155.300781 L 109.898438 158.398438 L 86 162.601562 Z M 72.800781 158.601562 "/>
<path style="fill:none;stroke-width:1;stroke-linecap:round;stroke-linejoin:round;stroke:rgb(14.901961%,19.607843%,21.960784%);stroke-opacity:1;stroke-miterlimit:4;" d="M 73.601562 160.5 L 85.699219 163.699219 L 105.5 160.199219 "/>
<path style="fill:none;stroke-width:1;stroke-linecap:round;stroke-linejoin:round;stroke:rgb(14.901961%,19.607843%,21.960784%);stroke-opacity:1;stroke-miterlimit:4;" d="M 108.800781 160.5 L 87.5 164.5 "/>
<path style="fill:none;stroke-width:1;stroke-linecap:round;stroke-linejoin:round;stroke:rgb(14.901961%,19.607843%,21.960784%);stroke-opacity:1;stroke-miterlimit:4;" d="M 73.898438 161.800781 C 74.101562 161.800781 83 164.199219 83 164.199219 "/>
<path style="fill:none;stroke-width:1;stroke-linecap:round;stroke-linejoin:round;stroke:rgb(14.901961%,19.607843%,21.960784%);stroke-opacity:1;stroke-miterlimit:4;" d="M 107.101562 159.800781 L 108.800781 159.5 "/>
<path style="fill:none;stroke-width:1;stroke-linecap:round;stroke-linejoin:round;stroke:rgb(14.901961%,19.607843%,21.960784%);stroke-opacity:1;stroke-miterlimit:4;" d="M 85.300781 164.800781 L 84.398438 164.601562 "/>
<path style=" stroke:none;fill-rule:nonzero;fill:rgb(14.901961%,19.607843%,21.960784%);fill-opacity:1;" d="M 73.5 159 C 74.5 160 74.5 161.398438 73.601562 162.5 C 72.800781 161.5 72.800781 160.199219 73.5 159 Z M 73.5 159 "/>
<g clip-path="url(#clip28)" clip-rule="nonzero">
<g clip-path="url(#clip29)" clip-rule="nonzero">
<use xlink:href="#surface38" mask="url(#mask11)"/>
</g>
</g>
<path style="fill:none;stroke-width:1;stroke-linecap:round;stroke-linejoin:round;stroke:rgb(14.901961%,19.607843%,21.960784%);stroke-opacity:1;stroke-miterlimit:4;" d="M 73.5 159 C 74.5 160 74.5 161.398438 73.601562 162.5 C 72.800781 161.5 72.800781 160.199219 73.5 159 Z M 73.5 159 "/>
<path style=" stroke:none;fill-rule:nonzero;fill:rgb(100%,100%,100%);fill-opacity:1;" d="M 122.898438 163.699219 L 146 164.5 L 143.699219 171.5 L 115.300781 170.601562 Z M 122.898438 163.699219 "/>
<g clip-path="url(#clip31)" clip-rule="nonzero">
<g clip-path="url(#clip32)" clip-rule="nonzero">
<use xlink:href="#surface41" mask="url(#mask12)"/>
</g>
</g>
<path style="fill:none;stroke-width:1;stroke-linecap:round;stroke-linejoin:round;stroke:rgb(14.901961%,19.607843%,21.960784%);stroke-opacity:1;stroke-miterlimit:4;" d="M 122.898438 163.699219 L 146 164.5 L 143.699219 171.5 L 115.300781 170.601562 Z M 122.898438 163.699219 "/>
</g>
</svg>
