<?xml version="1.0" encoding="UTF-8"?>
<svg xmlns="http://www.w3.org/2000/svg" xmlns:xlink="http://www.w3.org/1999/xlink" width="22px" height="20px" viewBox="0 0 22 20" version="1.1">
<g id="surface1">
<path style=" stroke:none;fill-rule:nonzero;fill:rgb(98.039216%,97.254902%,96.862745%);fill-opacity:1;" d="M 20.5 13.199219 L 20.5 11.101562 L 19.101562 11.398438 C 18.601562 10.898438 17.699219 10.5 16.800781 10.398438 L 13.5 10 L 13.5 9.898438 C 14.699219 9.398438 15.601562 8.699219 15.898438 7.699219 C 16.800781 7.601562 17.5 7.101562 17.5 6.398438 L 17.5 3.300781 C 17.5 2.398438 16.601562 1.601562 15.300781 1.398438 L 15 1.199219 C 13.800781 0.398438 12.300781 0 10.699219 0 C 7.300781 0 4.5 1.800781 4.5 4 L 4.5 6.5 C 4.5 7.101562 5.199219 7.601562 6.101562 7.800781 C 6.398438 8.699219 7.300781 9.5 8.5 10 L 5.199219 10.398438 C 4.199219 10.5 3.398438 10.898438 2.898438 11.398438 L 1.5 11.101562 L 1.5 13.199219 C 0.699219 13.199219 0 13.601562 0 14.199219 L 0 15.5 C 0 16 0.699219 16.5 1.5 16.5 L 1.5 17.699219 L 11 20 L 20.5 17.601562 L 20.5 16.398438 C 21.300781 16.398438 22 16 22 15.398438 L 22 14.101562 C 22 13.601562 21.300781 13.199219 20.5 13.199219 Z M 14.398438 10.800781 L 16.601562 11.101562 C 17.199219 11.199219 17.800781 11.398438 18.199219 11.699219 L 13.398438 12.898438 Z M 9.5 10.199219 C 10 10.300781 10.5 10.300781 11 10.300781 C 11.5 10.300781 12 10.300781 12.5 10.199219 L 11 10.898438 Z M 10.199219 11.300781 L 9.199219 12 L 8.5 10.699219 L 8.800781 10.699219 Z M 13.101562 10.699219 L 13.398438 10.699219 L 12.800781 12 L 11.800781 11.300781 Z M 16 7 L 16 5.898438 C 16.300781 6 16.5 6.199219 16.5 6.5 C 16.5 6.699219 16.300781 6.898438 16 7 Z M 6 7 C 5.699219 6.898438 5.5 6.699219 5.5 6.398438 C 5.5 6.199219 5.699219 6 6 5.898438 Z M 6 4.800781 L 6 5.199219 C 5.800781 5.199219 5.699219 5.300781 5.5 5.300781 L 5.5 4 C 5.5 2.199219 7.800781 0.699219 10.699219 0.699219 C 12.101562 0.699219 13.398438 1 14.300781 1.699219 L 14.699219 2 L 14.800781 2 C 15.800781 2.199219 16.398438 2.699219 16.398438 3.300781 L 16.398438 5.398438 C 16.199219 5.300781 16.101562 5.300781 15.898438 5.300781 L 15.898438 4.800781 L 14.300781 4.800781 C 12.898438 4.800781 11.699219 4.398438 10.800781 3.699219 L 10.398438 3.398438 L 9.601562 4 C 8.699219 4.5 7.699219 4.800781 6.5 4.800781 Z M 7 7.101562 L 7 5.5 C 8.199219 5.398438 9.398438 5.101562 10.300781 4.5 L 10.5 4.398438 C 11.5 5.101562 12.898438 5.5 14.5 5.5 L 15 5.5 L 15 7.101562 C 15 8.5 13.199219 9.699219 11 9.699219 C 8.800781 9.699219 7 8.5 7 7.101562 Z M 5.398438 11.101562 L 7.601562 10.800781 L 8.699219 12.898438 L 3.898438 11.699219 C 4.199219 11.398438 4.800781 11.101562 5.398438 11.101562 Z M 1 15.5 L 1 14.199219 C 1 14 1.199219 13.898438 1.5 13.898438 C 2.300781 13.898438 3 14.300781 3 14.898438 C 3 15.398438 2.300781 15.898438 1.5 15.898438 C 1.199219 15.800781 1 15.601562 1 15.5 Z M 10.5 19.199219 L 2.5 17.199219 L 2.5 16.300781 C 3.398438 16 4 15.5 4 14.800781 C 4 14.101562 3.398438 13.601562 2.5 13.300781 L 2.5 12 L 10.5 14 Z M 9 13 L 11 11.699219 L 13 13 L 11 13.5 Z M 19.5 17.199219 L 11.5 19.199219 L 11.5 14.101562 L 19.5 12.101562 L 19.5 13.398438 C 18.601562 13.601562 18 14.199219 18 14.898438 C 18 15.601562 18.601562 16.101562 19.5 16.398438 Z M 21 15.5 C 21 15.699219 20.800781 15.800781 20.5 15.800781 C 19.699219 15.800781 19 15.398438 19 14.800781 C 19 14.300781 19.699219 13.800781 20.5 13.800781 C 20.800781 13.800781 21 13.898438 21 14.101562 Z M 21 15.5 "/>
</g>
</svg>
