<?xml version="1.0" encoding="UTF-8"?>
<svg xmlns="http://www.w3.org/2000/svg" xmlns:xlink="http://www.w3.org/1999/xlink" width="22px" height="20px" viewBox="0 0 22 20" version="1.1">
<g id="surface1">
<path style=" stroke:none;fill-rule:nonzero;fill:rgb(98.039216%,97.254902%,96.862745%);fill-opacity:1;" d="M 1.199219 20 L 20.800781 20 C 21.398438 20 22 19.601562 22 19.199219 L 22 17.199219 C 22 17 21.800781 16.898438 21.601562 16.898438 C 21.398438 16.898438 21.199219 17 21.199219 17.199219 L 21.199219 19.199219 C 21.199219 19.300781 21.101562 19.398438 20.898438 19.398438 L 18.601562 19.398438 L 18.601562 14.300781 C 18.601562 14.101562 18.398438 14 18.199219 14 C 18 14 17.800781 14.101562 17.800781 14.300781 L 17.800781 19.398438 L 11.5 19.398438 L 11.5 17.601562 L 14.800781 15.601562 C 15 15.398438 15.101562 15.199219 15.101562 15 L 14.800781 14.300781 L 16.101562 13.800781 C 16.398438 13.699219 16.601562 13.398438 16.5 13.199219 L 16 11.699219 C 16.398438 11.800781 18.800781 12.398438 19.199219 12.5 C 20.199219 12.800781 21.199219 13.601562 21.199219 14.601562 L 21.199219 15.800781 C 21.199219 16 21.398438 16.101562 21.601562 16.101562 C 21.800781 16.101562 22 16 22 15.898438 L 22 14.699219 C 22 13.601562 21 12.5 19.5 12.101562 C 19.398438 12.101562 18.800781 11.898438 18.101562 11.699219 C 18.5 11.398438 18.601562 11 18.601562 10.601562 C 18.601562 10.398438 18.699219 10.300781 18.800781 10.101562 C 20 9.300781 20 8 18.800781 7.199219 C 18.5 7 18.601562 6.699219 18.601562 6.601562 C 18.601562 6 18.199219 5.5 17.5 5.199219 C 17.199219 5.101562 17.101562 4.898438 17.101562 4.699219 L 17.101562 4.199219 C 17.101562 0.5 10.601562 -1.398438 6.800781 1.199219 C 5.601562 2 5 3 5 4.101562 L 5 4.601562 C 5 4.898438 4.800781 5 4.601562 5.199219 C 3.800781 5.5 3.398438 6.101562 3.5 6.699219 C 3.5 6.898438 3.398438 7.101562 3.199219 7.199219 C 2.699219 7.5 2.300781 8 2.300781 8.601562 C 2.300781 9.199219 2.601562 9.699219 3.199219 10.101562 C 3.398438 10.199219 3.5 10.398438 3.398438 10.601562 C 3.398438 11 3.5 11.398438 3.898438 11.699219 C 3.199219 11.898438 2.601562 12 2.601562 12 C 1.300781 12.398438 0 13.300781 0 14.699219 L 0 19.300781 C 0 19.699219 0.601562 20 1.199219 20 Z M 11 16.5 C 9.5 13.300781 10.101562 14.699219 9.199219 12.699219 C 9.398438 12.800781 9.699219 12.800781 9.898438 12.898438 C 10.101562 12.898438 10.398438 12.800781 10.398438 12.699219 C 10.5 12.5 10.300781 12.398438 10.101562 12.300781 C 9.601562 12.199219 9.199219 12.101562 8.800781 11.898438 L 8.398438 11.101562 C 9 11 9.199219 10.800781 9.199219 10.5 L 9.199219 10.101562 C 10.300781 10.398438 11.699219 10.5 12.898438 10.101562 L 12.898438 10.5 C 12.898438 10.699219 13.101562 10.898438 13.398438 11 L 13.601562 11.101562 L 13.199219 11.898438 C 12.800781 12.101562 12.398438 12.199219 11.898438 12.300781 C 11.699219 12.300781 11.5 12.5 11.601562 12.699219 C 11.699219 12.898438 11.898438 13 12.101562 12.898438 C 12.300781 12.898438 12.601562 12.800781 12.800781 12.699219 C 12 14.601562 12.5 13.5 11 16.5 Z M 7.800781 13.699219 L 6.5 13.199219 L 7.101562 11.398438 C 7.199219 11.398438 7.601562 11.300781 7.699219 11.199219 C 7.800781 11.398438 10.101562 16.199219 10.199219 16.398438 L 7.898438 15 L 8.199219 14.300781 C 8.300781 14.199219 8.101562 13.898438 7.800781 13.699219 Z M 7.398438 7.300781 C 7.398438 6.800781 7.800781 6.398438 8.398438 6.199219 C 10.101562 5.601562 11.699219 4.5 12.199219 3.300781 C 12.898438 4.199219 13.601562 4.800781 14 5.101562 C 14.398438 5.398438 14.601562 5.601562 14.601562 6.101562 L 14.601562 7.398438 C 14.601562 8.800781 13 9.898438 11 9.898438 C 8.898438 9.800781 7.398438 8.601562 7.398438 7.300781 Z M 15.601562 13.300781 L 14.300781 13.800781 C 13.898438 13.898438 13.800781 14.199219 13.898438 14.5 L 14.199219 15.199219 L 11.898438 16.601562 C 12 16.398438 14.300781 11.601562 14.398438 11.398438 L 15 11.601562 Z M 3.800781 9.601562 C 3.398438 9.398438 3.199219 9 3.199219 8.601562 C 3.199219 8.199219 3.398438 7.800781 3.800781 7.601562 C 4.199219 7.300781 4.398438 7 4.300781 6.601562 C 4.300781 6.199219 4.5 5.800781 5 5.601562 C 5.5 5.398438 5.800781 5 5.800781 4.601562 L 5.800781 4.101562 C 5.800781 2.101562 8.101562 0.601562 11 0.601562 C 13.898438 0.601562 16.199219 2.199219 16.199219 4.199219 L 16.199219 4.699219 C 16.199219 5.101562 16.5 5.5 17 5.699219 C 17.5 5.898438 17.800781 6.300781 17.699219 6.699219 C 17.699219 7.101562 17.898438 7.398438 18.199219 7.601562 C 19 8.199219 19 9.101562 18.199219 9.699219 C 17.800781 9.898438 17.699219 10.300781 17.699219 10.601562 C 17.699219 10.898438 17.5 11.199219 17.199219 11.5 C 16.398438 11.300781 14.5 10.800781 13.699219 10.601562 L 13.699219 9.699219 C 14.800781 9.101562 15.5 8.199219 15.5 7.300781 L 15.5 6 C 15.5 5.5 15.199219 5 14.699219 4.699219 C 14 4.199219 13.300781 3.5 12.800781 2.699219 C 12.5 2.199219 11.5 2.300781 11.398438 2.800781 C 11.300781 3.699219 10.199219 4.800781 8 5.699219 C 7.101562 6 6.5 6.601562 6.5 7.300781 C 6.5 8.300781 7.199219 9.199219 8.300781 9.699219 L 8.300781 10.5 C 8.300781 10.5 4.800781 11.398438 4.800781 11.398438 C 4.5 11.199219 4.300781 10.898438 4.300781 10.5 C 4.398438 10.199219 4.199219 9.898438 3.800781 9.601562 Z M 0.898438 14.699219 C 0.898438 13.601562 2.101562 12.800781 2.898438 12.601562 C 3 12.601562 4.601562 12.101562 6.101562 11.699219 L 5.601562 13.101562 C 5.5 13.398438 5.699219 13.601562 6 13.699219 L 7.300781 14.199219 L 7.101562 15 C 7 15.199219 7.101562 15.5 7.398438 15.601562 L 10.699219 17.601562 L 10.699219 19.398438 L 4.398438 19.398438 L 4.398438 14.300781 C 4.398438 14.101562 4.199219 14 4 14 C 3.800781 14 3.601562 14.101562 3.601562 14.300781 L 3.601562 19.398438 L 1.199219 19.398438 C 1 19.398438 0.898438 19.300781 0.898438 19.199219 Z M 0.898438 14.699219 "/>
</g>
</svg>
