<?xml version="1.0" encoding="utf-8"?>
<!-- Generator: Adobe Illustrator 24.0.2, SVG Export Plug-In . SVG Version: 6.00 Build 0)  -->
<svg version="1.1" id="Capa_1" xmlns="http://www.w3.org/2000/svg" xmlns:xlink="http://www.w3.org/1999/xlink" x="0px" y="0px"
	 viewBox="0 0 67 61" style="enable-background:new 0 0 67 61;" xml:space="preserve">
<style type="text/css">
	.st0{fill:#FAF8F7;}
</style>
<path class="st0" d="M65.7,16.3c0.8-0.3,1.3-1.1,1.3-2c0-0.9-0.5-1.7-1.3-2L34.2,0.1c-0.4-0.2-0.9-0.2-1.3,0L1.3,12.3
	c-0.8,0.3-1.3,1.1-1.3,2s0.5,1.7,1.3,2l12.5,4.8v14c0,2.3,2.2,4.3,6.6,5.8c3.8,1.3,8.5,2.1,13.2,2.1s9.4-0.7,13.2-2.1
	c4.3-1.5,6.6-3.5,6.6-5.8v-14l5.2-2v19.4c-2.3,0.9-3.9,3.3-3.9,6.1c0,2.8,1.6,5.2,3.9,6.1v8.2c0,1.2,0.9,2.1,2,2.1c1.1,0,2-1,2-2.1
	v-8.2c2.3-0.9,3.9-3.3,3.9-6.1c0-2.8-1.6-5.2-3.9-6.1V17.6L65.7,16.3z M60.3,46.7c-1.1,0-2-1-2-2.2c0-1.2,0.9-2.2,2-2.2s2,1,2,2.2
	C62.3,45.8,61.4,46.7,60.3,46.7z M33.5,4.4l25.7,9.9l-25.7,10l-25.7-10L33.5,4.4z M49.3,34.8c-0.4,0.4-1.7,1.4-4.8,2.3
	c-3.2,1-7.2,1.6-11,1.6s-7.8-0.6-11-1.6c-3-0.9-4.4-1.9-4.8-2.3V22.7l15.1,5.9c0.2,0.1,0.4,0.1,0.7,0.1s0.4,0,0.7-0.1l15.1-5.9
	L49.3,34.8L49.3,34.8z"/>
</svg>
