<?xml version="1.0" encoding="UTF-8"?>
<svg xmlns="http://www.w3.org/2000/svg" xmlns:xlink="http://www.w3.org/1999/xlink" width="67px" height="61px" viewBox="0 0 67 61" version="1.1">
<g id="surface1">
<path style=" stroke:none;fill-rule:nonzero;fill:rgb(98.039216%,97.254902%,96.862745%);fill-opacity:1;" d="M 65.699219 16.300781 C 66.5 16 67 15.199219 67 14.300781 C 67 13.398438 66.5 12.601562 65.699219 12.300781 L 34.199219 0.101562 C 33.800781 -0.101562 33.300781 -0.101562 32.898438 0.101562 L 1.300781 12.300781 C 0.5 12.601562 0 13.398438 0 14.300781 C 0 15.199219 0.5 16 1.300781 16.300781 L 13.800781 21.101562 L 13.800781 35.101562 C 13.800781 37.398438 16 39.398438 20.398438 40.898438 C 24.199219 42.199219 28.898438 43 33.601562 43 C 38.300781 43 43 42.300781 46.800781 40.898438 C 51.101562 39.398438 53.398438 37.398438 53.398438 35.101562 L 53.398438 21.101562 L 58.601562 19.101562 L 58.601562 38.5 C 56.300781 39.398438 54.699219 41.800781 54.699219 44.601562 C 54.699219 47.398438 56.300781 49.800781 58.601562 50.699219 L 58.601562 58.898438 C 58.601562 60.101562 59.5 61 60.601562 61 C 61.699219 61 62.601562 60 62.601562 58.898438 L 62.601562 50.699219 C 64.898438 49.800781 66.5 47.398438 66.5 44.601562 C 66.5 41.800781 64.898438 39.398438 62.601562 38.5 L 62.601562 17.601562 Z M 60.300781 46.699219 C 59.199219 46.699219 58.300781 45.699219 58.300781 44.5 C 58.300781 43.300781 59.199219 42.300781 60.300781 42.300781 C 61.398438 42.300781 62.300781 43.300781 62.300781 44.5 C 62.300781 45.800781 61.398438 46.699219 60.300781 46.699219 Z M 33.5 4.398438 L 59.199219 14.300781 L 33.5 24.300781 L 7.800781 14.300781 Z M 49.300781 34.800781 C 48.898438 35.199219 47.601562 36.199219 44.5 37.101562 C 41.300781 38.101562 37.300781 38.699219 33.5 38.699219 C 29.699219 38.699219 25.699219 38.101562 22.5 37.101562 C 19.5 36.199219 18.101562 35.199219 17.699219 34.800781 L 17.699219 22.699219 L 32.800781 28.601562 C 33 28.699219 33.199219 28.699219 33.5 28.699219 C 33.800781 28.699219 33.898438 28.699219 34.199219 28.601562 L 49.300781 22.699219 Z M 49.300781 34.800781 "/>
</g>
</svg>
