<?xml version="1.0" encoding="utf-8"?>
<!-- Generator: Adobe Illustrator 24.0.2, SVG Export Plug-In . SVG Version: 6.00 Build 0)  -->
<svg version="1.1" id="Capa_1" xmlns="http://www.w3.org/2000/svg" xmlns:xlink="http://www.w3.org/1999/xlink" x="0px" y="0px"
	 viewBox="0 0 512 512" style="enable-background:new 0 0 512 512;" xml:space="preserve">
<style type="text/css">
	.st0{fill:#FAF8F7;}
</style>
<path class="st0" d="M502,136.9c6-2.6,10-9.3,10-17c0-7.6-4-14.4-10-16.9L261,1c-3.2-1.4-6.8-1.4-10,0L10,103c-6,2.5-10,9.3-10,16.9
	s4,14.4,10,17l95.5,40.7v117.3c0,19.4,16.8,35.7,50.1,48.7c29,11.3,64.6,17.5,100.5,17.5s71.5-6.2,100.5-17.5
	c33.2-12.9,50.1-29.3,50.1-48.7V177.6l39.4-16.8v162.5c-17.5,7.4-30.1,27.5-30.1,51s12.6,43.6,30.1,51V494c0,9.9,6.7,18,15,18
	s15-8.1,15-18v-68.7c17.5-7.4,30.1-27.5,30.1-51s-12.6-43.6-30.1-51V148L502,136.9z M461,392.5c-8.3,0-15.1-8.1-15.1-18.1
	s6.8-18.1,15.1-18.1s15.1,8.1,15.1,18.1S469.3,392.5,461,392.5z M256,37.1L452.1,120L256,203.6L59.9,120L256,37.1z M376.6,292.2
	c-2.9,3.5-13.2,11.8-36.4,19.7c-24.8,8.5-54.7,13.1-84.2,13.1s-59.4-4.7-84.2-13.1c-23.2-7.9-33.5-16.3-36.4-19.7V190.3L251,239.6
	c1.6,0.7,3.3,1,5,1c1.7,0,3.4-0.3,5-1l115.5-49.2L376.6,292.2L376.6,292.2z"/>
</svg>
