<?xml version="1.0" encoding="utf-8"?>
<!-- Generator: Adobe Illustrator 24.0.2, SVG Export Plug-In . SVG Version: 6.00 Build 0)  -->
<svg version="1.1" id="Layer_1" xmlns="http://www.w3.org/2000/svg" xmlns:xlink="http://www.w3.org/1999/xlink" x="0px" y="0px"
	 viewBox="0 0 512 512" style="enable-background:new 0 0 512 512;" xml:space="preserve">
<style type="text/css">
	.st0{fill:#FAF8F7;}
</style>
<g>
	<g>
		<path class="st0" d="M511.4,254.7L463.3,40.6c-1.6-7.3-6.5-11.7-11.4-10.1l-50.1,15.7L313.8,5.2c-12.7-5.9-26.6-9.4-42.3,4.7
			l-15.7,14.2L240,9.9c-15.7-14.2-29.6-10.7-42.3-4.7l-87.8,40.8L64.4,27.2c-5-2-10.1,2.1-11.9,9.6L0.6,251.3
			c-1.7,7.2,0.1,15.2,4.4,19l43.1,38.9c-3.1,11.1-3.6,23.4-1.6,35.3c2.4,14,8.1,25.7,16.1,32.9c6.3,5.7,13.4,7.9,20.2,7.1
			c0.3,18.3,6.5,35.9,17.3,45.7c10.1,9.1,21.9,9.4,31.7,2.3c2.8,10.7,7.8,20,14.7,26.2c8,7.2,17.3,9.1,26.3,5.4
			c2.6-1.1,5.1-2.7,7.5-4.6c3,10,7.8,18.3,14,24c5.4,4.9,11.4,7.2,17.3,7.2c8.3,0,16.5-4.7,22.8-13.3l30.4,27.4
			c5.4,4.9,11.4,7.2,17.3,7.2c12,0,23.7-9.7,30.1-27.1c2.7-7.2,4.1-14.9,4.5-22.7c7.2,5.1,15.3,6.1,23.1,2.8
			c9-3.8,16.4-12.7,21.1-25.2c3.2-8.6,4.7-18,4.6-27.3c13.3,2.5,27-7.4,34.1-26.7c2.7-7.4,4.2-15.4,4.6-23.4
			c15.4,8.5,33.1-1.1,41.6-24c3.7-9.9,5.1-21,4.5-31.6l55.2-32.3C510.6,271.5,513.2,262.7,511.4,254.7L511.4,254.7z M72.6,350.4
			c-3.4-3-5.8-8-6.8-13.9c-1-5.9-0.5-12.1,1.4-17.4l14-37.8c1.9-5.3,5.1-9,8.9-10.6c3.8-1.6,7.8-0.8,11.1,2.2
			c7,6.3,9.4,20.3,5.4,31.3l-14,37.8c0,0,0,0,0,0C88.6,353,79.6,356.7,72.6,350.4L72.6,350.4z M130.1,394.8c-4,10.9-13,14.7-20,8.4
			c-7-6.3-9.4-20.4-5.4-31.3l5.2-14.1c0,0,0,0,0,0l14-37.9c0,0,0,0,0,0l0,0c0,0,0,0,0,0l12.3-33.4c1.9-5.3,5.1-9,8.9-10.6
			c3.8-1.6,7.8-0.8,11.1,2.2c3.4,3,5.8,8,6.8,13.9c1,5.9,0.5,12.1-1.4,17.4l-3.7,10c0,0,0,0,0,0.1c0,0,0,0,0,0l-24.2,65.4
			c0,0,0,0,0,0l0,0c0,0,0,0,0,0L130.1,394.8z M176.5,423.3c-1.9,5.3-5.1,9-8.9,10.6c-3.8,1.6-7.8,0.8-11.1-2.2
			c-7-6.3-9.4-20.3-5.4-31.3l0,0c0,0,0,0,0,0c0,0,0,0,0,0l24.2-65.4c0,0,0,0,0,0c4-10.9,13-14.7,20-8.4c3.4,3,5.8,8,6.8,13.9
			c1,5.9,0.5,12.1-1.4,17.4l-5.1,13.8c0,0,0,0,0,0l-14,37.8c0,0,0,0,0,0c0,0,0,0,0,0L176.5,423.3z M204.3,456.4
			c-3.4-3-5.8-8-6.8-13.9c-1-5.9-0.5-12.1,1.4-17.4l14-37.8c4-10.9,13-14.7,20-8.4c7,6.3,9.4,20.4,5.4,31.3l-14,37.8
			C220.3,458.9,211.3,462.7,204.3,456.4z M294.9,469.3c-4,10.9-13,14.7-20,8.4l-28.8-26l9.6-25.9c1.8-4.8,3-9.8,3.8-15l30.1,27.2
			c0,0,0,0,0,0s0,0,0,0l0,0C296.5,444.4,298.9,458.4,294.9,469.3L294.9,469.3z M443,277.8c-2.6-5.2-5.9-9.8-9.8-13.3
			c-3.7-3.3-16.9-15.8-40.6-38.2c-4.7-4.5-10.9-2.1-13.7,5.3c-2.9,7.4-1.3,17,3.4,21.5c23.8,22.5,37.2,35.1,41,38.5
			c7,6.3,9.4,20.4,5.4,31.3c-4,10.9-13,14.7-20,8.4L387,311.9c0,0,0,0,0,0l0,0l-79.6-71.8c-4.8-4.3-10.9-1.8-13.7,5.7
			c-2.8,7.5-1.1,17,3.7,21.3l79.6,71.8c0,0,0,0,0,0c0,0,0,0,0,0l0,0c7,6.3,9.4,20.3,5.3,31.3c-4,10.9-13,14.7-20,8.4l-14.1-12.7
			c0,0,0,0,0,0l0,0l-69.9-63c-4.8-4.3-10.9-1.8-13.7,5.7c-2.8,7.5-1.1,17,3.7,21.3l69.9,63c0,0,0,0,0,0c7,6.3,9.4,20.4,5.4,31.3
			c-1.9,5.3-5.1,9-8.9,10.6c-3.8,1.6-7.8,0.8-11.1-2.2l-24-21.6c0,0,0,0,0,0l0,0l-44.1-39.8c-2.9-7.8-7.1-14.5-12.5-19.4
			c-6.4-5.8-13.5-8-20.3-7c-0.1-4.1-0.5-8.3-1.2-12.4c-2.4-14-8.1-25.7-16.1-32.9c-6.9-6.2-14.6-8.3-21.9-6.8c-0.2-3-0.5-5.9-1-8.9
			c-2.4-14-8.1-25.7-16.1-32.9c-14.7-13.2-33-7.8-43.6,11.6c-2.9-6.7-6.7-12.4-11.4-16.7c-8-7.2-17.3-9.1-26.3-5.4
			c-9,3.8-16.4,12.7-21.1,25.2l-6,16.3l-35.5-32L68,61l39.6,16.3c1.8,0.7,3.6,0.7,5.4-0.1l90.4-42c10.5-4.9,17.9-6,26.6,1.9l5.7,5.1
			l-35,31.6c-16.7,15-22.4,48.5-12.8,74.5c9.3,25.2,29.6,34,47.1,20.4c9.4-7.3,23.2-16.9,33.5-23.1c7.6,7.1,24.5,23.2,36.6,34.6
			c4.7,4.5,10.9,2.1,13.7-5.3c2.9-7.4,1.4-17-3.4-21.5c-11.6-11-21.8-20.6-29.1-27.5c-3.6-3.4-6.6-6.2-8.6-8.1
			c-4.4-4.2-5.5-5.1-8.3-5.1c-1.1,0-2.2,0.3-3.3,0.9c-11.8,6.4-29.1,18.5-40.1,27c-8,6.1-17,2.7-20.9-8.1
			c-4.1-11.1-1.7-25.4,5.5-31.8L281.4,37c8.8-7.9,16.1-6.7,26.6-1.9l90.4,42c1.6,0.7,3.2,0.8,4.8,0.3l44-13.8l42,186.9L443,277.8z"
			/>
		<path class="st0" d="M348.8,187.7L348.8,187.7c-5.5,0-10,7-10,15.6s4.5,15.6,10,15.6s10-7,10-15.6S354.3,187.7,348.8,187.7z"/>
	</g>
</g>
</svg>
