<?xml version="1.0" encoding="utf-8"?>
<!-- Generator: Adobe Illustrator 24.0.2, SVG Export Plug-In . SVG Version: 6.00 Build 0)  -->
<svg version="1.1" id="Layer_1" xmlns="http://www.w3.org/2000/svg" xmlns:xlink="http://www.w3.org/1999/xlink" x="0px" y="0px"
	 viewBox="0 0 67 61" style="enable-background:new 0 0 67 61;" xml:space="preserve">
<style type="text/css">
	.st0{fill:#FAF8F7;}
</style>
<g>
	<g>
		<path class="st0" d="M66.9,30.3L60.6,4.8c-0.2-0.9-0.9-1.4-1.5-1.2l-6.6,1.9L41,0.6c-1.7-0.7-3.5-1.1-5.5,0.6l-2.1,1.7l-2.1-1.7
			c-2.1-1.7-3.9-1.3-5.5-0.6L14.4,5.5l-6-2.2C7.7,3,7.1,3.5,6.8,4.4L0.1,29.9c-0.2,0.9,0,1.8,0.6,2.3l5.6,4.6
			c-0.4,1.3-0.5,2.8-0.2,4.2c0.3,1.7,1.1,3.1,2.1,3.9c0.8,0.7,1.8,0.9,2.6,0.8c0,2.2,0.9,4.3,2.3,5.4c1.3,1.1,2.9,1.1,4.1,0.3
			c0.4,1.3,1,2.4,1.9,3.1c1,0.9,2.3,1.1,3.4,0.6c0.3-0.1,0.7-0.3,1-0.5c0.4,1.2,1,2.2,1.8,2.9c0.7,0.6,1.5,0.9,2.3,0.9
			c1.1,0,2.2-0.6,3-1.6l4,3.3c0.7,0.6,1.5,0.9,2.3,0.9c1.6,0,3.1-1.2,3.9-3.2c0.4-0.9,0.5-1.8,0.6-2.7c0.9,0.6,2,0.7,3,0.3
			c1.2-0.5,2.1-1.5,2.8-3c0.4-1,0.6-2.1,0.6-3.3c1.7,0.3,3.5-0.9,4.5-3.2c0.4-0.9,0.5-1.8,0.6-2.8c2,1,4.3-0.1,5.4-2.9
			c0.5-1.2,0.7-2.5,0.6-3.8l7.2-3.8C66.8,32.3,67.1,31.3,66.9,30.3L66.9,30.3z M9.5,41.7c-0.4-0.4-0.8-1-0.9-1.7S8.5,38.6,8.8,38
			l1.8-4.5c0.2-0.6,0.7-1.1,1.2-1.3c0.5-0.2,1-0.1,1.5,0.3c0.9,0.8,1.2,2.4,0.7,3.7l-1.8,4.5l0,0C11.6,42,10.4,42.5,9.5,41.7
			L9.5,41.7z M17,47c-0.5,1.3-1.7,1.8-2.6,1c-0.9-0.8-1.2-2.4-0.7-3.7l0.7-1.7l0,0l1.8-4.5l0,0l0,0l0,0l1.6-4
			c0.2-0.6,0.7-1.1,1.2-1.3c0.5-0.2,1-0.1,1.5,0.3c0.4,0.4,0.8,1,0.9,1.7c0.1,0.7,0.1,1.4-0.2,2.1L20.6,38c0,0,0,0,0,0l0,0l-3.2,7.8
			l0,0l0,0l0,0L17,47z M23.1,50.4c-0.2,0.6-0.7,1.1-1.2,1.3c-0.5,0.2-1,0.1-1.5-0.3c-0.9-0.8-1.2-2.4-0.7-3.7l0,0l0,0l0,0l3.2-7.8
			l0,0c0.5-1.3,1.7-1.8,2.6-1c0.4,0.4,0.8,1,0.9,1.7c0.1,0.7,0.1,1.4-0.2,2.1l-0.7,1.6l0,0l-1.8,4.5l0,0l0,0L23.1,50.4z M26.7,54.4
			c-0.4-0.4-0.8-1-0.9-1.7s-0.1-1.4,0.2-2.1l1.8-4.5c0.5-1.3,1.7-1.8,2.6-1c0.9,0.8,1.2,2.4,0.7,3.7l-1.8,4.5
			C28.8,54.7,27.6,55.1,26.7,54.4z M38.6,55.9c-0.5,1.3-1.7,1.8-2.6,1l-3.8-3.1l1.3-3.1c0.2-0.6,0.4-1.2,0.5-1.8l3.9,3.2l0,0l0,0
			l0,0C38.8,52.9,39.1,54.6,38.6,55.9L38.6,55.9z M57.9,33.1c-0.3-0.6-0.8-1.2-1.3-1.6c-0.5-0.4-2.2-1.9-5.3-4.6
			c-0.6-0.5-1.4-0.3-1.8,0.6c-0.4,0.9-0.2,2,0.4,2.6c3.1,2.7,4.9,4.2,5.4,4.6c0.9,0.8,1.2,2.4,0.7,3.7c-0.5,1.3-1.7,1.8-2.6,1
			l-2.8-2.3l0,0l0,0l-10.4-8.6c-0.6-0.5-1.4-0.2-1.8,0.7c-0.4,0.9-0.1,2,0.5,2.5l10.4,8.6l0,0l0,0l0,0c0.9,0.8,1.2,2.4,0.7,3.7
			c-0.5,1.3-1.7,1.8-2.6,1l-1.8-1.5l0,0l0,0l-9.1-7.5c-0.6-0.5-1.4-0.2-1.8,0.7c-0.4,0.9-0.1,2,0.5,2.5l9.1,7.5l0,0
			c0.9,0.8,1.2,2.4,0.7,3.7c-0.2,0.6-0.7,1.1-1.2,1.3c-0.5,0.2-1,0.1-1.5-0.3L39.2,49l0,0l0,0l-5.8-4.7c-0.4-0.9-0.9-1.7-1.6-2.3
			c-0.8-0.7-1.8-1-2.7-0.8c0-0.5-0.1-1-0.2-1.5c-0.3-1.7-1.1-3.1-2.1-3.9c-0.9-0.7-1.9-1-2.9-0.8c0-0.4-0.1-0.7-0.1-1.1
			c-0.3-1.7-1.1-3.1-2.1-3.9c-1.9-1.6-4.3-0.9-5.7,1.4c-0.4-0.8-0.9-1.5-1.5-2c-1-0.9-2.3-1.1-3.4-0.6c-1.2,0.5-2.1,1.5-2.8,3
			l-0.8,1.9l-4.6-3.8l6-22.5l5.2,1.9c0.2,0.1,0.5,0.1,0.7,0l11.8-5c1.4-0.6,2.3-0.7,3.5,0.2L30.8,5l-4.6,3.8
			c-2.2,1.8-2.9,5.8-1.7,8.9c1.2,3,3.9,4.1,6.2,2.4c1.2-0.9,3-2,4.4-2.8c1,0.8,3.2,2.8,4.8,4.1c0.6,0.5,1.4,0.3,1.8-0.6
			c0.4-0.9,0.2-2-0.4-2.6c-1.5-1.3-2.9-2.5-3.8-3.3c-0.5-0.4-0.9-0.7-1.1-1c-0.6-0.5-0.7-0.6-1.1-0.6c-0.1,0-0.3,0-0.4,0.1
			c-1.5,0.8-3.8,2.2-5.2,3.2c-1,0.7-2.2,0.3-2.7-1c-0.5-1.3-0.2-3,0.7-3.8l9.3-7.6c1.2-0.9,2.1-0.8,3.5-0.2l11.8,5
			c0.2,0.1,0.4,0.1,0.6,0l5.8-1.6L64,29.8L57.9,33.1z"/>
		<path class="st0" d="M45.6,22.3L45.6,22.3c-0.7,0-1.3,0.8-1.3,1.9c0,1,0.6,1.9,1.3,1.9c0.7,0,1.3-0.8,1.3-1.9
			C46.9,23.2,46.3,22.3,45.6,22.3z"/>
	</g>
</g>
</svg>
