<?xml version="1.0" encoding="utf-8"?>
<!-- Generator: Adobe Illustrator 24.0.2, SVG Export Plug-In . SVG Version: 6.00 Build 0)  -->
<svg version="1.1" id="Capa_1" xmlns="http://www.w3.org/2000/svg" xmlns:xlink="http://www.w3.org/1999/xlink" x="0px" y="0px"
	 viewBox="0 0 74 85" style="enable-background:new 0 0 74 85;" xml:space="preserve">
<style type="text/css">
	.st0{fill:#FAF8F7;}
</style>
<g>
	<g>
		<g>
			<path class="st0" d="M71,66.9c-0.9-5.5-4.8-10.1-10-11.8l-11.7-3.9v-1.8h-2.7v2.6l-2,8.2L39,53.5h-4l-5.5,6.6l-2-8.2v-2.6h-2.7
				v1.7L13,55c-5.3,1.8-9.1,6.3-10,11.8L0,85h74L71,66.9z M30.4,82.3h-15l1.2-12.2l-2.7-0.3l-1.2,12.5H3.2l2.5-14.9
				c0.7-4.5,3.9-8.2,8.2-9.7l11.2-3.8l3,12.2l3.1-3.7l1.6,2.5L30.4,82.3z M40.9,82.3h-7.8l2.6-18.1l-2.7-4l3.2-3.9h1.4l3.2,3.9
				l-2.7,4L40.9,82.3z M61.4,82.3l-1.2-12.5l-2.7,0.3l1.2,12.2h-15l-2.5-17.5l1.6-2.5l3.1,3.7l3-12.2l11.2,3.8
				c4.3,1.5,7.5,5.2,8.2,9.7l2.5,14.9H61.4z"/>
			<path class="st0" d="M19.9,36.9c0.7,2.4,2,4.6,3.8,6.4l5.3,5.3c1.3,1.3,3,2,4.8,2h6.4c1.8,0,3.5-0.7,4.8-2l5.3-5.3
				c1.8-1.8,3.1-4,3.8-6.4c3.4-0.4,6-3.3,6-6.8c0-2.2-1.1-4.2-2.8-5.5h0v-8.2c0-3.4-2.5-6.3-5.8-6.8C49.6,3.9,44.1,0,38,0h-1
				C25.7,0,16.6,9.2,16.6,20.6v4.1h0c-1.7,1.3-2.8,3.2-2.8,5.5C13.9,33.7,16.5,36.6,19.9,36.9z M52,32.7c0,3.3-1.3,6.4-3.6,8.7
				l-5.3,5.3c-0.8,0.8-1.8,1.2-2.9,1.2h-6.4c-1.1,0-2.1-0.4-2.9-1.2l-5.3-5.3C23.3,39.1,22,36,22,32.7V26h5.3c6,0,11.7-2.1,16.1-6.1
				l0.4,0.7c1.7,2.9,4.7,4.8,8.1,5.3L52,32.7L52,32.7z M57.4,30.2c0,1.8-1.2,3.3-2.8,3.9c0-0.4,0.1-0.9,0.1-1.3v-6.4
				C56.3,26.9,57.4,28.4,57.4,30.2z M19.3,20.6c0-9.8,7.9-17.8,17.7-17.8h1c5.2,0,9.9,3.5,11.3,8.6l0.3,1h1c2.3,0,4.1,1.9,4.1,4.1v7
				c-0.4-0.1-0.9-0.1-1.4-0.1c-2.9,0-5.6-1.5-7.1-4l-2.2-3.7l-1.2,1.2c-4.1,4.2-9.6,6.5-15.5,6.5h-6.7c-0.5,0-0.9,0.1-1.4,0.1
				L19.3,20.6L19.3,20.6z M19.3,26.3v6.4c0,0.4,0,0.9,0.1,1.3c-1.6-0.5-2.8-2.1-2.8-3.9C16.6,28.4,17.7,26.9,19.3,26.3z"/>
		</g>
	</g>
</g>
</svg>
