<?xml version="1.0" encoding="utf-8"?>
<!-- Generator: Adobe Illustrator 24.0.2, SVG Export Plug-In . SVG Version: 6.00 Build 0)  -->
<svg version="1.1" id="Capa_1" xmlns="http://www.w3.org/2000/svg" xmlns:xlink="http://www.w3.org/1999/xlink" x="0px" y="0px"
	 viewBox="0 0 496 496" style="enable-background:new 0 0 496 496;" xml:space="preserve">
<style type="text/css">
	.st0{fill:#FAF8F7;}
</style>
<g>
	<g>
		<g>
			<path class="st0" d="M475.9,390.2c-6.1-32.2-31.9-58.7-67.3-69l-78.5-22.9V288h-18.2v15l-13.6,47.8L261.4,312h-26.8l-36.9,38.8
				L184.1,303v-15h-18.2v10.2l-78.5,22.9c-35.4,10.3-61.1,36.8-67.3,69L0,496h496L475.9,390.2z M203.6,480H103l8.1-71.2l-18.2-1.6
				L84.6,480h-63l16.6-87.2c5-26.4,26.1-48,55-56.5l75.4-22l20.2,70.9l20.6-21.6l10.9,14.3L203.6,480z M274,480h-52l17.3-105.9
				l-17.8-23.4l21.6-22.8h9.7l21.6,22.8l-17.8,23.4L274,480z M411.4,480l-8.3-72.8l-18.2,1.6L393,480H292.4l-16.6-102.1l10.9-14.3
				l20.6,21.6l20.2-70.9l75.4,22c28.9,8.5,50,30.1,55,56.5l16.6,87.2H411.4z"/>
			<path class="st0" d="M133.4,215.6c4.7,14,13.2,26.9,25.4,37.5l35.6,31.2c8.6,7.6,20.1,11.7,32.3,11.7h42.8
				c12.2,0,23.6-4.2,32.3-11.7l35.6-31.2c12.1-10.6,20.7-23.5,25.4-37.5c22.7-2.3,40.5-19,40.5-39.6c0-13.1-7.4-24.7-18.5-32h0.3V96
				c0-20-16.9-36.7-38.8-39.6C332.3,22.9,295.6,0,254.6,0H248c-75.5,0-136.9,53.8-136.9,120v24h0.3c-11.2,7.3-18.5,18.9-18.5,32
				C92.9,196.5,110.7,213.3,133.4,215.6z M348.4,190.9c0,19.2-8.5,37.3-24.1,50.9L288.7,273c-5.1,4.5-12.1,7-19.4,7h-42.8
				c-7.2,0-14.3-2.6-19.4-7l-35.6-31.2c-15.5-13.6-24.1-31.7-24.1-50.9V152h35.8c40.2,0,78.1-12.5,108.1-35.4l2.8,4.1
				c11.6,17,31.8,28.3,54,30.8L348.4,190.9L348.4,190.9z M384.9,176c0,10.6-7.9,19.4-18.7,22.6c0.3-2.6,0.4-5.2,0.4-7.8v-37.4
				C377.2,156.8,384.9,165.6,384.9,176z M129.4,120c0-57.3,53.2-104,118.6-104h6.6c35.1,0,66.3,20.6,75.9,50.2l1.9,5.8h6.9
				c15.1,0,27.4,10.8,27.4,24v40.8c-2.9-0.5-6-0.8-9.1-0.8c-19.3,0-37.5-9-47.5-23.6l-14.6-21.3l-8.3,7.2
				c-27.7,24.3-64.5,37.7-103.7,37.7h-45c-3.1,0-6.2,0.3-9.1,0.8L129.4,120L129.4,120z M129.4,153.5v37.4c0,2.6,0.2,5.2,0.4,7.8
				c-10.8-3.2-18.7-12.1-18.7-22.6C111.1,165.6,118.8,156.8,129.4,153.5z"/>
		</g>
	</g>
</g>
</svg>
