<?xml version="1.0" encoding="utf-8"?>
<!-- Generator: Adobe Illustrator 24.0.2, SVG Export Plug-In . SVG Version: 6.00 Build 0)  -->
<svg version="1.1" id="Capa_1" xmlns="http://www.w3.org/2000/svg" xmlns:xlink="http://www.w3.org/1999/xlink" x="0px" y="0px"
	 viewBox="0 0 500 500" style="enable-background:new 0 0 500 500;" xml:space="preserve">
<style type="text/css">
	.st0{opacity:0.7;fill:#FFFFFF;enable-background:new    ;}
	.st1{fill:#C50C29;}
	.st2{fill:none;stroke:#263238;stroke-linecap:round;stroke-linejoin:round;}
	.st3{fill:#263238;}
	.st4{clip-path:url(#SVGID_2_);}
	.st5{opacity:0.6;}
	.st6{fill:#FFFFFF;}
	.st7{fill:#FFFFFF;stroke:#263238;stroke-linecap:round;stroke-linejoin:round;}
	.st8{fill:none;stroke:#FFFFFF;stroke-linecap:round;stroke-linejoin:round;}
	.st9{clip-path:url(#SVGID_4_);}
	.st10{opacity:0.4;fill:#C50C29;enable-background:new    ;}
	.st11{clip-path:url(#SVGID_6_);}
	.st12{opacity:0.3;fill-opacity:0.7;enable-background:new    ;}
	.st13{clip-path:url(#SVGID_8_);}
	.st14{clip-path:url(#SVGID_10_);}
	.st15{clip-path:url(#SVGID_12_);}
	.st16{clip-path:url(#SVGID_14_);}
	.st17{fill:#C50C29;stroke:#263238;stroke-linecap:round;stroke-linejoin:round;}
	.st18{clip-path:url(#SVGID_16_);}
	.st19{opacity:0.3;fill:#FFFFFF;fill-opacity:0.7;enable-background:new    ;}
	.st20{clip-path:url(#SVGID_18_);}
</style>
<g id="freepik--background-simple--inject-4">
	<path class="st0" d="M30.4,155.7c0,0-32.7,81.3,13.3,163.1s140.6,125.1,216.4,162s154.5,19,191.9-41.6S438,335.5,438,249.2
		C437.9,162.8,451.4,140,402.8,67s-167.8-89.1-258-35S30.4,155.7,30.4,155.7z"/>
	<path class="st1" d="M25.4,124.2c31.3-58.5,89.5-102.8,162-109c49.8-4.2,99.5,9.6,139.3,38.8c19.8,14.7,37.4,33.4,49,54.7
		c13.4,24.5,17.3,52.7,31.1,77.1c17.1,30.3,49.3,42.8,71,69c17.8,21.6,23.9,50.5,21.9,77.9c-3.7,50.1-34.3,97.8-79.2,123.5
		c-38,21.7-83.8,27.7-127.9,25.7c-68-3-135.8-24.6-189.4-65.1S11.1,316.6,1.9,251.7C-4.3,207.6,4.7,162.8,25.4,124.2z"/>
	<path class="st0" d="M25.4,124.2c31.3-58.5,89.5-102.8,162-109c49.8-4.2,99.5,9.6,139.3,38.8c19.8,14.7,37.4,33.4,49,54.7
		c13.4,24.5,17.3,52.7,31.1,77.1c17.1,30.3,49.3,42.8,71,69c17.8,21.6,23.9,50.5,21.9,77.9c-3.7,50.1-34.3,97.8-79.2,123.5
		c-38,21.7-83.8,27.7-127.9,25.7c-68-3-135.8-24.6-189.4-65.1S11.1,316.6,1.9,251.7C-4.3,207.6,4.7,162.8,25.4,124.2z"/>
</g>
<g id="freepik--Elements--inject-4">
	<path class="st2" d="M46.1,158.1c1.2,4.7,0.6-3.9,2.9-14.4s6.3-6.3,6.3-6.3"/>
	<line class="st2" x1="45.3" y1="147.4" x2="52.6" y2="144.4"/>
	<path class="st2" d="M58.6,140.8c0,0-4.3,9,2.2,12.8"/>
	<path class="st2" d="M64.7,138.3c0,0,7.2,4,2.7,12.6"/>
	<line class="st2" x1="59.8" y1="143.9" x2="65" y2="147.6"/>
	<line class="st2" x1="63.9" y1="142.2" x2="59.8" y2="148.6"/>
	<circle class="st2" cx="76.1" cy="236.2" r="10.9"/>
	<circle class="st2" cx="90.9" cy="240.5" r="12.1"/>
	<line class="st2" x1="86.1" y1="231.7" x2="81.1" y2="233.5"/>
	<line class="st2" x1="86.8" y1="233.8" x2="79.6" y2="236.4"/>
	<line class="st2" x1="87" y1="236.3" x2="79" y2="239.4"/>
	<line class="st2" x1="86.5" y1="239.7" x2="79.1" y2="243.1"/>
	<line class="st2" x1="85.2" y1="242.3" x2="79.6" y2="244.6"/>
	<path class="st2" d="M81.4,219.6c-0.3-1-3.8-1.6-4,1s3.7,0.4,4.8-1c0,0-2,2.7-1.2,3.2"/>
	<path class="st2" d="M101,222.9l-3.1,6.5c0,0,1.6-3.3,3.3-3c2.1,0.4,0.7,3.8-1.8,2.5"/>
	<line class="st2" x1="442.7" y1="329.5" x2="447.6" y2="334.1"/>
	<line class="st2" x1="447.6" y1="328.3" x2="443.5" y2="334.4"/>
	<line class="st2" x1="452.5" y1="330" x2="457.4" y2="328.2"/>
	<line class="st2" x1="459.8" y1="323" x2="462.8" y2="325.7"/>
	<line class="st2" x1="465.1" y1="319.9" x2="461.3" y2="332.9"/>
	<polygon class="st2" points="235,256.2 248.2,247.1 265.8,248.3 266.9,270.6 254,279.8 238.1,278.7 	"/>
	<polyline class="st2" points="238.1,278.7 250.9,269.4 266.9,270.6 	"/>
	<line class="st2" x1="250.9" y1="269.4" x2="248.2" y2="247.1"/>
	<polyline class="st2" points="235,256.2 252.5,258.3 265.8,248.3 	"/>
	<line class="st2" x1="252.5" y1="258.3" x2="254" y2="279.8"/>
	<polygon class="st2" points="389.9,181.4 384,199.6 402.3,197.2 	"/>
	<line class="st2" x1="389.9" y1="181.4" x2="393.1" y2="198.3"/>
	<polyline class="st2" points="392.6,195.6 394.7,195.3 395.2,198.1 	"/>
	<line class="st2" x1="159.4" y1="348.6" x2="168.5" y2="353"/>
	<line class="st2" x1="165.6" y1="345.1" x2="163" y2="354.7"/>
	<path class="st2" d="M166.9,340.5c0.5-0.5,1.4-0.6,2,0c0.1,0.1,0.2,0.2,0.2,0.3c0.9,1.4-0.9,4.5-0.9,4.5l3.7-1.4"/>
	<path class="st2" d="M231.1,34c8.7,4.9-1.3,16.9-1.3,23.9s10,6,15,8c2,0,6,0,5.9,5.1"/>
	<path class="st2" d="M221.4,40.4c1.5,8.3,11,5.3,16.8,7.2c10,3.3,4.4,13.6,1.5,19.8c-1.8,3.7-3.6,8.9-0.4,12.5"/>
	<line class="st2" x1="222.7" y1="43.6" x2="233.1" y2="34.9"/>
	<line class="st2" x1="226.8" y1="46.2" x2="234.6" y2="39.7"/>
	<line class="st2" x1="231.4" y1="52.7" x2="238" y2="47.5"/>
	<line class="st2" x1="230" y1="60.5" x2="243" y2="51.2"/>
	<line class="st2" x1="235" y1="64.2" x2="244" y2="57.5"/>
	<line class="st2" x1="238.8" y1="78.2" x2="250.1" y2="69"/>
	<line class="st2" x1="239.1" y1="71" x2="246.4" y2="65.8"/>
	<circle class="st2" cx="84.2" cy="334.1" r="20.9"/>
	<path class="st2" d="M89.4,313.8c7.3-8.6,13.5-13.4,15.9-11.8c3.6,2.4-2.9,18.7-14.6,36.4S66.6,368.6,63,366.2
		c-2.4-1.6-0.4-9.2,4.6-19.3"/>
	<path class="st2" d="M63.7,338.4c-10.2-2.9-16.7-6.4-16.3-9.1c0.6-4.3,18.2-5.3,39.2-2.2s37.5,9.1,36.9,13.4c-0.4,3-9,4.4-21.2,3.9
		"/>
	<path class="st2" d="M66.3,323.2c-7.7-13.9-11.5-24.7-8.9-26.4c3.4-2.2,16.6,12.1,29.5,32s20.6,37.8,17.2,40
		c-2.3,1.5-8.8-4.3-16.7-14.2"/>
	<path class="st3" d="M108.3,311.1c-1,1.6-3.2,2-4.8,1s-2-3.2-1-4.8c1-1.6,3.2-2,4.8-1C108.9,307.3,109.3,309.5,108.3,311.1
		C108.3,311.1,108.3,311.1,108.3,311.1z"/>
	<path class="st3" d="M96.9,363.8c-1,1.6-3.2,2-4.8,1s-2-3.2-1-4.8c1-1.6,3.2-2,4.8-1C97.5,360,97.9,362.1,96.9,363.8
		C96.9,363.7,96.9,363.7,96.9,363.8z"/>
	<path class="st3" d="M78.5,328c-1,1.6-3.2,2-4.8,1s-2-3.2-1-4.8c1-1.6,3.2-2,4.8-1C79.1,324.3,79.6,326.4,78.5,328z"/>
	<polygon class="st2" points="297.8,178.3 309.6,178.3 315.5,168.1 309.6,157.9 297.8,157.9 291.9,168.1 	"/>
	<polyline class="st2" points="296.1,200.7 290.2,190.5 278.5,190.5 	"/>
	<polygon class="st2" points="280,168.1 291.8,168.1 297.7,157.9 291.8,147.7 280,147.7 274.1,157.9 	"/>
	<polygon class="st2" points="297.8,157.9 309.6,157.9 315.5,147.7 309.6,137.5 297.8,137.5 291.9,147.7 	"/>
	<circle class="st3" cx="297.7" cy="157.9" r="1.6"/>
	<circle class="st3" cx="273.1" cy="136.5" r="1.6"/>
	<path class="st3" d="M294.5,200.7c0-0.9,0.7-1.6,1.6-1.6c0.9,0,1.6,0.7,1.6,1.6c0,0.9-0.7,1.6-1.6,1.6l0,0
		C295.2,202.3,294.5,201.6,294.5,200.7z"/>
	<circle class="st3" cx="278.5" cy="190.5" r="1.6"/>
	<path class="st3" d="M326.9,148c0-0.9,0.7-1.6,1.6-1.6s1.6,0.7,1.6,1.6c0,0.9-0.7,1.6-1.6,1.6c0,0,0,0,0,0
		C327.6,149.6,326.9,148.9,326.9,148C326.9,148,326.9,148,326.9,148z"/>
	<circle class="st3" cx="290.1" cy="190.5" r="1.6"/>
	<path class="st3" d="M313.9,148c0-0.9,0.7-1.6,1.6-1.6c0.9,0,1.6,0.7,1.6,1.6c0,0.9-0.7,1.6-1.6,1.6l0,0
		C314.6,149.6,313.9,148.9,313.9,148z"/>
	<path class="st3" d="M296.1,178.3c0-0.9,0.7-1.6,1.6-1.6c0.9,0,1.6,0.7,1.6,1.6c0,0.9-0.7,1.6-1.6,1.6c0,0,0,0,0,0
		C296.8,179.9,296.1,179.2,296.1,178.3z"/>
	<line class="st2" x1="315.5" y1="148" x2="328.5" y2="148"/>
	<line class="st2" x1="297.7" y1="178.3" x2="290.1" y2="190.5"/>
	<line class="st2" x1="280" y1="147.7" x2="273.1" y2="136.5"/>
	<path class="st2" d="M363.6,107.5c3.4-11.6,15.6-18.2,27.1-14.7c7.4,2.2,13.1,8.2,15,15.7"/>
	<path class="st2" d="M382,135.3c-11-1.3-19.3-10.6-19.3-21.7"/>
	<path class="st2" d="M406.3,113.7c0,12-9.8,21.8-21.8,21.8"/>
	<path class="st2" d="M407.5,99.8c6.8-0.9,11.4-0.4,12.1,1.6c1.4,4.1-13.2,12.8-32.6,19.6s-36.3,8.9-37.7,4.8
		c-0.8-2.2,3.1-5.7,9.8-9.5"/>
	<polygon class="st2" points="290.1,84.9 292.2,89.1 296.9,89.8 293.5,93.1 294.3,97.8 290.1,95.6 285.9,97.8 286.7,93.1 
		283.4,89.8 288,89.1 	"/>
	<path class="st2" d="M142.5,73.6c0,7.8-6.3,14.2-14.2,14.2c-0.5,0-0.9,0-1.3-0.1c-7.8-0.7-13.5-7.7-12.8-15.5s7.7-13.5,15.5-12.8
		C136.9,60.2,142.5,66.3,142.5,73.6L142.5,73.6z"/>
	<path class="st2" d="M140.2,76.2c0,1.2-1,2.2-2.2,2.2c-1.2,0-2.2-1-2.2-2.2c0-1.2,1-2.2,2.2-2.2c0,0,0,0,0,0
		C139.2,74,140.2,75,140.2,76.2z"/>
	<path class="st2" d="M120.4,81.8c0,1.1-0.5,2.1-1.3,2.7c-1.9-1.5-3.3-3.5-4.2-5.8c0.6-0.3,1.2-0.5,1.8-0.5
		C118.8,78.2,120.4,79.7,120.4,81.8C120.4,81.7,120.4,81.8,120.4,81.8z"/>
	<path class="st2" d="M138,84c-2.6,2.5-6.1,3.9-9.7,3.9c-0.5,0-0.9,0-1.3-0.1c-0.1-0.4-0.1-0.8-0.1-1.2c0-3.3,2.6-5.9,5.9-5.9
		C135,80.7,137,82,138,84z"/>
	<circle class="st2" cx="124.8" cy="64.7" r="3.3"/>
	<path class="st2" d="M127.9,74c0,0.8-0.7,1.5-1.5,1.5c-0.8,0-1.5-0.7-1.5-1.5c0-0.8,0.7-1.5,1.5-1.5S127.9,73.2,127.9,74
		C127.9,74,127.9,74,127.9,74z"/>
	<path class="st2" d="M139.8,65.3c-0.4,0.1-0.8,0.2-1.2,0.2c-2.3,0-4.2-1.9-4.2-4.1c0,0,0,0,0,0c0-0.2,0-0.3,0-0.5
		C136.6,61.9,138.4,63.4,139.8,65.3z"/>
	<path class="st2" d="M465.9,238.3l1.5-3.4l-2.5-1.4c0.1-0.6,0.1-1.2,0-1.8l2.5-1.2l-1.4-3.5l-2.7,0.8c-0.4-0.5-0.8-0.9-1.3-1.3
		l0.9-2.7l-3.4-1.5l-1.4,2.5c-0.6-0.1-1.2-0.1-1.8,0l-1.2-2.5l-3.5,1.4l0.8,2.7c-0.5,0.4-0.9,0.8-1.3,1.3l-2.7-0.9l-1.5,3.4l2.5,1.4
		c-0.1,0.6-0.1,1.2,0,1.8l-2.5,1.2l1.4,3.5l2.7-0.8c0.4,0.5,0.8,0.9,1.3,1.3l-0.9,2.7l3.4,1.5l1.4-2.5c0.6,0.1,1.2,0.1,1.8,0.1
		l1.2,2.6l3.5-1.4l-0.8-2.7c0.5-0.4,0.9-0.8,1.3-1.3L465.9,238.3z M455.4,236.4c-2.2-1-3.2-3.6-2.2-5.8c1-2.2,3.6-3.2,5.8-2.2
		c2.2,1,3.2,3.6,2.2,5.8C460.2,236.4,457.6,237.3,455.4,236.4z"/>
	<path class="st2" d="M447.6,255.9l2.1-4.7l-3.4-1.9c0.1-0.8,0.1-1.7,0.1-2.5l3.5-1.7l-1.8-4.8l-3.7,1.1c-0.5-0.7-1.1-1.3-1.7-1.8
		l1.3-3.6l-4.7-2.1l-1.9,3.4c-0.8-0.1-1.7-0.1-2.5-0.1l-1.7-3.4l-4.8,1.8l1.1,3.7c-0.7,0.5-1.3,1.1-1.8,1.7l-3.6-1.2l-2.1,4.7
		l3.4,1.9c-0.1,0.8-0.1,1.7-0.1,2.5l-3.5,1.7l1.8,4.8l3.7-1.1c0.5,0.7,1.1,1.3,1.7,1.8l-1.3,3.6l4.7,2.1l1.9-3.4
		c0.8,0.1,1.7,0.1,2.5,0.1l1.7,3.5l4.8-1.8l-1.1-3.7c0.7-0.5,1.3-1.1,1.8-1.7L447.6,255.9z M433.4,253.3c-3-1.3-4.3-4.8-3-7.8
		c1.3-3,4.8-4.3,7.8-3c3,1.3,4.3,4.8,3,7.8c0,0,0,0,0,0C439.9,253.3,436.4,254.7,433.4,253.3C433.4,253.3,433.4,253.3,433.4,253.3z"
		/>
</g>
<g id="freepik--Earth--inject-4">
	<path class="st1" d="M240.3,211.6c-1.4,2.6-2.9,5.1-4.6,7.5c-18.4,25.5-52.8,33.6-80.6,18.9c-1.4-0.7-2.8-1.5-4.1-2.3
		s-2.6-1.7-3.8-2.6c-1.5-1.1-2.9-2.2-4.3-3.4l0,0c-0.1-0.1-0.2-0.1-0.2-0.2l0,0c-26.1-23.1-28.5-63-5.4-89s63-28.5,89-5.4
		C248.1,154.3,253.9,185.9,240.3,211.6L240.3,211.6z"/>
	<g>
		<defs>
			<path id="SVGID_1_" d="M240.3,211.6c-1.4,2.6-2.9,5.1-4.6,7.5c-18.4,25.5-52.8,33.6-80.6,18.9c-1.4-0.7-2.8-1.5-4.1-2.3
				s-2.6-1.7-3.8-2.6c-1.5-1.1-2.9-2.2-4.3-3.4l0,0c-0.1-0.1-0.2-0.1-0.2-0.2l0,0c-26.1-23.1-28.5-63-5.4-89s63-28.5,89-5.4
				C248.1,154.3,253.9,185.9,240.3,211.6L240.3,211.6z"/>
		</defs>
		<clipPath id="SVGID_2_">
			<use xlink:href="#SVGID_1_"  style="overflow:visible;"/>
		</clipPath>
		<g class="st4">
			<g class="st5">
				<path class="st6" d="M240.3,211.6c-1.4,2.6-2.9,5.1-4.6,7.5l-1.2-1l-2.1-1.1l-2.2-1.2l0.4-2.7l-0.1-2.4c-0.1-2.4,1.6-0.4,3-1.2
					c1.1-0.8,2-1.8,2.6-3c0,0,1-3.2,0.7-4.5c-0.5-1.5-1.2-2.9-1.9-4.3l-3.6,5l-3-0.2l-2.8-1.5l-0.4-3.9l-1.5-0.8l-0.6-2.3l-7.9-2.2
					l-0.9-1.6c-0.9-1.6-4.5-2.4-4.5-2.4l0.9-2.1l1.4-2.3c1.4-2.3,2.9,1.5,2.9,1.5l1.7,0.9l3.1-2.6l0.8-3.7l5.1,0.3
					c-0.2-1,0.3-2.1,1.3-2.5c1.7-0.7,0.9-4.3,0.3-5.7s-3-0.3-3-0.3s-2.6-3.9-2.9-5.5s4.9-1,7.1-2.6s1.5-4.7,0.4-4.8s2.1-7.1,8.4-5.2
					c1.7,0.5,2.8,0.4,3.5-0.3C250,171.5,249.9,193.3,240.3,211.6z"/>
				<path class="st6" d="M196.5,184.6l-2.1,2.7c0,0-0.9-2.2-2.2-1l-2,1.8l-1.4,4.1l-2.6,1.7l-1.6-0.8l-1.5-0.8l-1.6-0.9l-1.6,3
					l-1.3,2.4c0.6,1.2,1.4,2.3,2.3,3.3l2.8,4.9l3.4,1.7c1.4,0.1,2.8,0.2,4.2,0.5l2.3,1.2l-0.8,5c0,0-1.7,2.8-2.9,2.1l-1.2-0.8
					l-1.9,6.6l-0.1,3.6c0,0-1.1,0.5-2.3,0.9s-0.4,0.2-2.8,0.9s-2.2,0.7-4.1,1.3c-1.7,0.6-3.2,1.3-4.8,2.2l0.2,3.5l-4.6,0.7l-2.6-1.4
					l0.6-2.2l0.3-3.4l-0.4-2.6l-1.1-2.3l3.1-2.8l-0.7-1.8l-1.8-3.5l-3.7,2l-1.9,1l-4.3-1.9l-0.5-2.6L154,208l-1.3-2.9l-2.4-3.2
					l-0.6-2.8l1.3-2.5l0.7-1.3l-2.2-2.9l-0.6-2.1l-3.7-3.4c0,0,1.1-0.1,0.8-1.6s2.1-4,2.1-4c1.3,0.7,5.3,3.5,5.3,3.5l3.5,0.5
					c0,0,0.7,0,1.4-1.3c0.8-1.2,1.7-2.3,2.8-3.3c0,0-1.6-5.6-0.5-6.3s2.3-4.4,2.3-4.4l0.9-1.8c0,0-2.2-0.9-2.6-2.1s-5.8,0.4-5.8,0.4
					l-3.7,2.6l-2.9,2.3l-1.3,2.4c0,0-2.6-3.1-2.6-1.4c-0.2,1.8-0.6,3.5-1.2,5.2c0,0,0.5,0.3-0.2,1.6s-1.5,1.3-3,1.5
					c-2,0-4-0.1-6-0.4c0,0-1,3.7-0.3,4.3l0.7,0.6c0,0-1.1,2.7-2.1,2.1l-2.6-1.4l-3.6,1.5l-4,4.4l-0.9-0.2
					c-5.1-34.2,18.3-66.2,52.5-71.6c0.2,1,0.5,1.9,0.5,1.9l-1,4.9l-1.3,2.4l-1.1,2.1l-1.6,2.9l4,3.7l-0.9,4.3l-2.1,1.4l-0.6,3.3
					l3.7,7.2l1,2.8c-0.6,1.4-0.9,2.8-0.9,4.3c0,0,0.4,2.7,2.4,3.8s4.6,2.3,4.6,2.3l-0.2,4l-0.9,1l1.5,4.3c4.5,1.8,4.1,3.3,4.5,1.8
					l0.4-1.5l3.1-1.1l3.9,4.7c0.9,0,1.8,0.4,2.3,1.2C196.9,183.1,198.7,181.9,196.5,184.6z"/>
				<path class="st6" d="M143.5,219.4c0.1,1.4-1.7,3.2-1.7,3.2l1.5,0.8l0.4,4l-1.1,2.1c-7.9-6.9-13.9-15.8-17.4-25.6l0.8-4.2
					l3.5-0.5c0,0,3.2-2.1,4.6-1.5s2.7,4,2.7,4s1,4.6,0.9,4.6l0,0h-0.1h0.1l1.4,0.8l0.4,1.8l-2,3.8h-3.2c0,0-0.6-0.3-0.7,1.3
					c0.1,1.2,0.7,2.2,1.7,2.9l3.5-0.9l0.9-3.6l3.4-0.7c0,0-0.5,2.2,0.3,2.6l0.8,0.4l0.5,2.6C144,217.8,143.5,218.5,143.5,219.4z"/>
				<path class="st6" d="M160.1,225.1c-0.3-0.9-0.4-1.6-2.6-2.7s-2-0.7-2.8,0.2c-0.7,1-2,1.4-3.2,1.1c-1.4-0.3-0.7,1.3-0.7,1.3
					l0.3,4.3l-3.9,3.9c1.2,0.9,2.5,1.8,3.8,2.6l0.8-2.6l6.6,1.9c-1.4-0.4-0.6-2.3-0.6-2.3l-1.4-0.7
					C156.4,231.9,160.4,225.9,160.1,225.1z"/>
				<path class="st6" d="M201.4,202.9l-2.1-2.2l-2.5,0.8l-1,2l-0.8,1.4l1,2l2,2.4l1.1-2.2c0,0,3.2,0,4.8-1.8
					S201.4,202.9,201.4,202.9z"/>
				<path class="st6" d="M195.1,193.1l4,2.1l0.2-0.9c0.2-0.8,0.6-1.5,1.1-2.1l-3.1-3.2L195.1,193.1z"/>
				<path class="st6" d="M193.7,239.6l-1.1-1.7l-1.3-0.7h-4.1l-2.3,4.4c0,0-2.2-0.3-5.2-0.6s-2.2,0.9-2.2,0.9l-0.8,2.8
					c7.4,0.9,14.9,0.5,22.1-1.2c-0.8-0.6-1.7-1.1-2.6-1.6L193.7,239.6z"/>
			</g>
		</g>
	</g>
	<path class="st2" d="M240.3,211.6c-1.4,2.6-2.9,5.1-4.6,7.5c-18.4,25.5-52.8,33.6-80.6,18.9c-1.4-0.7-2.8-1.5-4.1-2.3
		s-2.6-1.7-3.8-2.6c-1.5-1.1-2.9-2.2-4.3-3.4l0,0c-0.1-0.1-0.2-0.1-0.2-0.2l0,0c-26.1-23.1-28.5-63-5.4-89s63-28.5,89-5.4
		C248.1,154.3,253.9,185.9,240.3,211.6L240.3,211.6z"/>
	<path class="st2" d="M198.8,243.6c-7.3,1.7-14.7,2.1-22.1,1.2l0.8-2.8c0,0-0.7-1.2,2.2-0.9s5.2,0.6,5.2,0.6l2.3-4.4h4.1l1.3,0.7
		l1.1,1.7l2.5,2.4C197.1,242.5,198,243,198.8,243.6z"/>
	<path class="st2" d="M240.5,153.2c-0.7,0.6-1.8,0.8-3.5,0.3c-6.3-1.9-9.5,5.1-8.4,5.2s1.9,3.2-0.4,4.8s-7.5,1-7.1,2.6
		s2.9,5.5,2.9,5.5s2.3-1.1,2.9,0.3s1.4,5-0.3,5.7c-1,0.4-1.5,1.5-1.3,2.5l-5.1-0.3l-0.8,3.7l-3.1,2.6l-1.7-0.9c0,0-1.5-3.8-2.9-1.5
		l-1.4,2.3l-0.9,2.1c0,0,3.6,0.8,4.5,2.4l0.9,1.6l7.9,2.2l0.6,2.3l1.5,0.8l0.4,3.9l2.9,1.5l3,0.2l3.6-5c0.7,1.4,1.4,2.9,1.9,4.3
		c0.4,1.3-0.7,4.5-0.7,4.5c-0.6,1.2-1.5,2.2-2.6,3c-1.4,0.7-3.2-1.2-3,1.2l0.1,2.4l-0.4,2.7l2.2,1.2l2.1,1.1l1.2,1"/>
	<path class="st2" d="M122.1,191.5l0.9,0.2l4-4.4l3.6-1.5l2.6,1.4c1.1,0.6,2.1-2.1,2.1-2.1l-0.7-0.6c-0.7-0.6,0.3-4.3,0.3-4.3
		c2,0.3,4,0.4,6,0.4c1.6-0.2,2.3-0.1,3-1.5s0.2-1.6,0.2-1.6c0.6-1.7,1-3.4,1.2-5.2c0-1.7,2.6,1.4,2.6,1.4l1.3-2.4l2.8-2.2l3.7-2.6
		c0,0,5.4-1.5,5.8-0.4s2.6,2.1,2.6,2.1l-0.9,1.8c0,0-1.2,3.6-2.3,4.4s0.5,6.3,0.5,6.3c-1.1,1-2,2.1-2.8,3.3
		c-0.7,1.3-1.4,1.3-1.4,1.3l-3.5-0.5c0,0-4-2.8-5.3-3.5c0,0-2.4,2.5-2.1,4s-0.8,1.6-0.8,1.6l3.7,3.4l0.6,2.1l2.2,2.9l-0.7,1.3
		l-1.3,2.5l0.6,2.8l2.4,3.2l1.3,2.9l1.5,4.7l0.5,2.6l4.3,1.9l1.9-1l3.7-2l1.8,3.5l0.7,1.8l-3.1,2.8l1.1,2.3l0.4,2.6l-0.3,3.4
		l-0.6,2.2l2.6,1.4l4.6-0.7l-0.2-3.5c1.5-0.9,3.1-1.6,4.8-2.2c1.9-0.6,1.8-0.5,4.1-1.3s1.7-0.5,2.8-0.9s2.3-0.9,2.3-0.9l0.1-3.6
		l1.9-6.6l1.2,0.8c1.2,0.8,2.9-2.1,2.9-2.1l0.8-5l-2.4-1.2c-1.4-0.3-2.8-0.4-4.2-0.5l-3.3-1.7l-2.8-4.9c-0.9-1-1.7-2.1-2.3-3.3
		l1.3-2.4l1.6-3l1.6,0.9l1.5,0.8l1.6,0.8l2.6-1.7l1.4-4.1l2-1.8c1.3-1.2,2.2,1,2.2,1l2.1-2.7c2.1-2.7,0.4-1.4-0.7-2.8
		c-0.5-0.8-1.4-1.2-2.3-1.2l-3.9-4.7l-3.1,1.2l-0.4,1.5c-0.4,1.5,0,0-4.5-1.8l-1.5-4.3l0.9-1l0.2-4c0,0-2.6-1.3-4.6-2.3
		s-2.4-3.8-2.4-3.8c0-1.5,0.3-3,0.9-4.3l-1-2.8l-3.7-7.2l0.6-3.3l2.1-1.4l0.9-4.3l-3.9-3.7l1.6-2.9l1.1-2.1l1.3-2.4l1-4.9
		c0,0-0.3-0.9-0.5-1.9"/>
	<path class="st2" d="M143,229.7c-0.1-0.1-0.2-0.2-0.3-0.2l0,0l1.1-2.1l-0.4-4l-1.5-0.8c0,0,1.8-1.8,1.7-3.2c0-0.9,0.4-1.7,1.1-2.1
		l-0.5-2.6l-0.8-0.4c-0.8-0.4-0.3-2.6-0.3-2.6l-3.4,0.7l-0.9,3.6l-3.5,0.9c-1-0.7-1.6-1.8-1.7-2.9c0.1-1.7,0.7-1.3,0.7-1.3h3.2
		l2-3.8l-0.4-1.8l-1.4-0.8"/>
	<path class="st2" d="M137.6,206.1L137.6,206.1c0.2,0.1-0.9-4.6-0.9-4.6s-1.3-3.4-2.7-4s-4.6,1.5-4.6,1.5l-3.5,0.5l-0.8,4.2"/>
	<path class="st2" d="M151.8,233.1l-0.8,2.6c-1.3-0.8-2.6-1.7-3.8-2.6l3.9-3.9l-0.3-4.3c0,0-0.7-1.6,0.7-1.3
		c1.2,0.3,2.4-0.2,3.2-1.1c0.8-0.9,0.7-1.3,2.8-0.2s2.3,1.9,2.6,2.7s-3.6,6.9-3.6,6.9l1.4,0.7c0,0-0.8,1.9,0.6,2.3L151.8,233.1z"/>
	<path class="st2" d="M196.8,201.4l2.5-0.8l2.1,2.2c0,0,4.3,0.6,2.6,2.4s-4.8,1.8-4.8,1.8l-1.2,2.2l-2-2.4l-1-2l0.8-1.4L196.8,201.4
		z"/>
	<path class="st2" d="M200.3,192.2c-0.5,0.6-0.9,1.3-1.1,2.1l-0.2,0.9l-4-2.1l2.2-4.1L200.3,192.2z"/>
</g>
<g id="freepik--Character--inject-4">
	<path class="st3" d="M417.3,428c-5.4,4.5-46.6,32.8-105.6,28.2c-3.2-26.8-15.3-137-1.5-154.3c0,0,33.4-15.9,64.1-9.2
		s42.7,13.1,44.9,18.6C420.9,315.6,418.5,393.6,417.3,428z"/>
	<path class="st7" d="M373.3,304.5c-17.7,15.3-40.5,12.1-40,0.3c0.1-1.8,2-4.1,2-4.1l-0.7-1.1l-3-4.5c-2.2-3.4-4.9-7.6-6.8-10.8
		c-1.6-2.6,38.3-27.2,38.3-13.1c0,19.9,9.8,23.6,9.8,23.6C376.6,296.4,380,298.8,373.3,304.5z"/>
	<path class="st8" d="M384.5,334.9c0,0-3.6,12.2-1.9,15.8"/>
	<path class="st8" d="M380.3,299.4c0,11.8-35.2,23.4-45.5,11.5"/>
	<path class="st3" d="M351.4,285.7c0,0-2.4,8.9-13.4,15.8c-0.5-0.9-1.4-1.6-2.4-1.9c-0.3-0.1-0.7-0.1-1,0l-3-4.5
		C337.3,291.1,351.4,285.7,351.4,285.7z"/>
	<path class="st7" d="M356.3,274.8c0,0-0.1,8.8-2,10.6c-14,13.4-27.6,14.4-29.8,10.9c-15.1-23.8-11.6-30-13.1-34.1
		c-2.7-7.1-6.1-18.8-4.6-25.9c3.3-15.8,33-28,48.6-12.1c7.5,7.6,9.9,24.1,8.3,37.8"/>
	<path class="st2" d="M313.3,254.9c0,0-4.2-1.9-5.1,0.4"/>
	<path class="st2" d="M323.4,255c0,0,8.7-3.6,12.6,0.8"/>
	<path class="st3" d="M333,261.1c0.1,1.3-0.5,2.4-1.4,2.5s-1.8-0.9-1.9-2.2s0.5-2.4,1.4-2.5S332.8,259.9,333,261.1z"/>
	<path class="st3" d="M316,261.5c0.1,1.3-0.5,2.4-1.4,2.5s-1.8-0.9-1.9-2.2s0.5-2.4,1.4-2.5S315.8,260.2,316,261.5z"/>
	<path class="st7" d="M316.4,258.1c1.2,2,0.5,5.3-1,9.9s-0.2,6.2,6,6.7"/>
	<path class="st2" d="M321.3,282.6c0,0,8-0.7,11.7-2.7"/>
	<path class="st3" d="M372,237.2c0-5.9-5.9-18.1-16.1-19.5l0,0c-5.9-6.2-14.3-8.4-24.5-6.1c-23.6,5.4-30.8,28.7-31.8,32.6
		c-0.1,0.4-0.1,0.6-0.1,0.6l6.3-1.6l-2.7,5.3l3.3,2.2l-0.8,0.8l3.8,3.7l-1.2-6.8c0.7-4.4,5.8-10.5,5.8-10.5c-1.8,2.4-3,5.2-3.3,8.2
		c2-5.2,14-10,14-10c-3.9,3.2-6,9.3-6,9.3c3.7-4.6,12.4-7.5,17.9-9.1c1.9,4.5,4.8,9.2,9.1,11.8c4,2.5,3.9,7.5,3.9,7.5
		c4.3,3,7.5,7.3,9,12.4l4.8,6.6C363.3,274.8,372,264.1,372,237.2z"/>
	<path class="st7" d="M351.6,257.5c-1.6-3.5,4.3-12.9,8.4-11.7c2.3,0.7,5.4,4.9,6,9.4c0.6,4.5-2.6,13-6,14.8
		c-2.1,1.2-3.9-2.1-3.9-2.1"/>
	<polygon class="st6" points="96.5,427.3 209.5,400.8 445.2,428 384.5,469.5 	"/>
	<polyline class="st7" points="96.5,427.3 209.5,400.8 445.2,428 	"/>
	<polygon class="st7" points="194.3,432.5 240,412.3 297.9,415.3 272.1,437.3 	"/>
	<path class="st3" d="M312.5,301c-14.7,6-17.8,19.5-42.8,72.8c0,0-11.1,2.3-17,15.7s4,24.1,15.4,23.7c0,0,4.6,4,14,3.6
		s51-64.1,51-64.1L312.5,301z"/>
	<path class="st8" d="M274.1,376.9c6.6,5.8,10.3,14.4,8.3,23.9"/>
	<path class="st8" d="M280.4,379.7c0,0,8.1,1.8,9.3,12.1"/>
	<path class="st8" d="M304,349.5c-3.8-9.4-5.1-19.6-3.8-29.7"/>
	<path class="st8" d="M302.9,335.9c-0.6,4.2,3.7,26.6,3.7,50.1"/>
	<path class="st3" d="M412.5,305.4c18.4,9.2,20.5,37.6,3.2,71.5c-12.2,23.9-29.1,59.3-39.8,61.7s-21.1-4.3-21.1-4.3s-9-0.4-11.7-6.8
		c-7.4-17.5,11.5-39.6,18.9-34.3c0,0,23.8-51.7,28.1-54.9"/>
	<path class="st8" d="M341.4,416.9c-2.4-12.1,16.6-26.3,20.6-23.7c0,0,14.1,0.8,16.2,10.5"/>
	<path class="st8" d="M393.1,419.4c8.3-14.6,22.6-42.5,22.6-42.5"/>
	<path class="st8" d="M362,393.2c0,0,9.9-5.9,17.3-0.3"/>
	<path class="st8" d="M365.4,386c0,0,5.5-12,11-23s18.2-27.3,23.5-28.1"/>
	<path class="st6" d="M261.2,407.6c-1.2-0.1-2.3-0.4-3.4-0.9c-17-8.9-30.2-23.5-38.2-34c-3.1-4-5.9-8.2-8.5-12.6l4.1-17.5
		c0,0,3.8,10,19.3,19.8s33.8,13.1,39.7,23C279.3,394,270.1,408,261.2,407.6z"/>
	<g>
		<defs>
			<path id="SVGID_3_" d="M261.2,407.6c-1.2-0.1-2.3-0.4-3.4-0.9c-17-8.9-30.2-23.5-38.2-34c-3.1-4-5.9-8.2-8.5-12.6l4.1-17.5
				c0,0,3.8,10,19.3,19.8s33.8,13.1,39.7,23C279.3,394,270.1,408,261.2,407.6z"/>
		</defs>
		<clipPath id="SVGID_4_">
			<use xlink:href="#SVGID_3_"  style="overflow:visible;"/>
		</clipPath>
		<g class="st9">
			<path class="st10" d="M261.2,407.6c-0.2-1.3-0.5-2.5-1-3.7c-3.6-8.9-25.2-26.7-25.2-26.7c-5.1-0.2-10.8-2.3-15.4-4.6
				c-3.1-4-6-8.2-8.6-12.6l4.1-17.5c0,0,3.8,10,19.3,19.8s33.8,13.1,39.7,23C279.3,394,270.1,408,261.2,407.6z"/>
		</g>
	</g>
	<path class="st2" d="M261.2,407.6c-1.2-0.1-2.3-0.4-3.4-0.9c-17-8.9-30.2-23.5-38.2-34c-3.1-4-5.9-8.2-8.5-12.6l4.1-17.5
		c0,0,3.8,10,19.3,19.8s33.8,13.1,39.7,23C279.3,394,270.1,408,261.2,407.6z"/>
	<path class="st7" d="M222.7,358.9c0,0-2.1,9.3-7.7,7.2c-3-1.1-8.8-10.1-9.9-14.6L222.7,358.9z"/>
	<path class="st7" d="M198.1,301.5l4.5-2.3c0,0,12.8,0.1,20.8,6.6c7.2,5.9,10.9,15.1,10.9,15.1s28.1-15.5,56.8-6.6l11.7,65.2
		l-53.8,3.5l-33.6-31.9L198.1,301.5z"/>
	<path class="st1" d="M306.6,382.1c0,0-6.3-0.2-14.8,0.1c-12.8,0.4-30.4,1.8-38.4,6.5l-0.4-0.1l-7.4-2.6l-0.1-0.2
		c-1.4-2-12.3-17.8-28-24.2l-22.2-61.9c0,0,23,1,35.6,21.8l6.3,2.3c0,0,37.5-11.1,58.6-7.1L306.6,382.1z"/>
	<g>
		<defs>
			<path id="SVGID_5_" d="M306.6,382.1c0,0-6.3-0.2-14.8,0.1c-12.8,0.4-30.4,1.8-38.4,6.5l-0.4-0.1l-7.4-2.6l-0.1-0.2
				c-1.4-2-12.3-17.8-28-24.2l-22.2-61.9c0,0,23,1,35.6,21.8l6.3,2.3c0,0,37.5-11.1,58.6-7.1L306.6,382.1z"/>
		</defs>
		<clipPath id="SVGID_6_">
			<use xlink:href="#SVGID_5_"  style="overflow:visible;"/>
		</clipPath>
		<g class="st11">
			<path class="st12" d="M245.4,385.8c-1.4-2-12.3-17.8-28-24.2l-22.2-61.9c0,0,23,1,35.6,21.8L245.4,385.8z"/>
			<path class="st12" d="M291.8,382.2c-12.8,0.4-30.4,1.8-38.4,6.5l-0.4-0.1L238.2,326c0,0,12.1-2.7,15.8-1.3
				C254,324.7,278.5,342.8,291.8,382.2z"/>
		</g>
	</g>
	<path class="st2" d="M306.6,382.1c0,0-6.3-0.2-14.8,0.1c-12.8,0.4-30.4,1.8-38.4,6.5l-0.4-0.1l-7.4-2.6l-0.1-0.2
		c-1.4-2-12.3-17.8-28-24.2l-22.2-61.9c0,0,23,1,35.6,21.8l6.3,2.3c0,0,37.5-11.1,58.6-7.1L306.6,382.1z"/>
	<line class="st2" x1="237.2" y1="323.8" x2="251.7" y2="383.8"/>
	<line class="st2" x1="245.6" y1="386" x2="231.5" y2="326"/>
	<path class="st7" d="M209.9,360c-3.2-0.9-9.7-20.2-6.7-28.5c0,0,3.5-6.1,5-6.5c2.2-0.6,11.3-0.5,10.8,1.1c-1,3.5-7.9,3.5-7.9,3.5
		l-2.3,4.1l0.1,2.3c0,0,3.3-2.4,4.5-2.3c0.6,0,3.8,1.6,6.4,2.9c2.2,1.1,3.5,1.8,3,2.8c-1.6,3.5-8.5,1-8.5,1l-2.6,3.9
		c0,0,2.5,0.4,3.6,0.5s10.1,6.1,9.9,6.9c-1.1,2.9-9.6-0.2-9.6-0.2l-1.5,1.3c0,0,6.3,1.6,7,1.9c1,0.4,4.9,3.3,4.8,3.7
		c-0.5,2.6-5.8,0.7-5.8,0.7l-4.6-0.2c-0.7,0.6-1.6,1.1-2.5,1.3"/>
	<path class="st2" d="M208.9,335.9c0,0-3,2.5-3.8,3.3s-0.6,3-0.6,3"/>
	<path class="st2" d="M206.7,347.4c0,2.5,1.7,4.1,2.5,4.9s-1.3,3,1,4.6"/>
	<path class="st6" d="M354.8,427.9c-6.4,1.7-13.3-9.4-21.7-21.6l0,0c-5.6-8-11.8-16.5-18.9-22c-0.6-0.4-1.1-0.9-1.7-1.3l4.2-21
		c8.7,4.5,14.1,11.8,23.1,19.3c14.5,12.1,27.4,19.5,30.9,24.8S365.7,424.9,354.8,427.9z"/>
	<g>
		<defs>
			<path id="SVGID_7_" d="M354.8,427.9c-6.4,1.7-13.3-9.4-21.7-21.6l0,0c-5.6-8-11.8-16.5-18.9-22c-0.6-0.4-1.1-0.9-1.7-1.3l4.2-21
				c8.7,4.5,14.1,11.8,23.1,19.3c14.5,12.1,27.4,19.5,30.9,24.8S365.7,424.9,354.8,427.9z"/>
		</defs>
		<clipPath id="SVGID_8_">
			<use xlink:href="#SVGID_7_"  style="overflow:visible;"/>
		</clipPath>
		<g class="st13">
			<path class="st10" d="M333.1,406.3c-5.6-8-11.8-16.5-18.9-22c0.9,0,1.9-0.1,2.8-0.4C317,383.8,328.3,393,333.1,406.3z"/>
		</g>
	</g>
	<path class="st2" d="M354.8,427.9c-6.4,1.7-13.3-9.4-21.7-21.6l0,0c-5.6-8-11.8-16.5-18.9-22c-0.6-0.4-1.1-0.9-1.7-1.3l4.2-21
		c8.7,4.5,14.1,11.8,23.1,19.3c14.5,12.1,27.4,19.5,30.9,24.8S365.7,424.9,354.8,427.9z"/>
	<path class="st6" d="M319,382.2c-0.4,0.8-1.2,1.4-2,1.6c-0.2,0.1-0.5,0.2-0.7,0.2h-0.2c-6.7,1.8-21.8-1.9-21.8-1.9
		s-9.9-4.7-10.5-5.8c-0.4-0.9-0.8-1.8-1.1-2.7l-0.3-0.8c0,0-3.6-2-4-3.6s-1.2-2,1-2.3s14,0,14,0l-12.9-5.2c0,0-8.5-4.3-9.3-5.8
		s-1.8-2.5,2.6-1.9s13.9,3.4,13.9,3.4l7.5,1.6l-7.4-3.2c0,0-14.6-1.8-11.9-6.3h8.3c4.7,0.2,9.4,0.8,14,1.8
		c2.4,0.7,18.4,10.7,18.4,10.7"/>
	<g>
		<defs>
			<path id="SVGID_9_" d="M319,382.2c-0.4,0.8-1.2,1.4-2,1.6c-0.2,0.1-0.5,0.2-0.7,0.2h-0.2c-6.7,1.8-21.8-1.9-21.8-1.9
				s-9.9-4.7-10.5-5.8c-0.4-0.9-0.8-1.8-1.1-2.7l-0.3-0.8c0,0-3.6-2-4-3.6s-1.2-2,1-2.3s14,0,14,0l-12.9-5.2c0,0-8.5-4.3-9.3-5.8
				s-1.8-2.5,2.6-1.9s13.9,3.4,13.9,3.4l7.5,1.6l-7.4-3.2c0,0-14.6-1.8-11.9-6.3h8.3c4.7,0.2,9.4,0.8,14,1.8
				c2.4,0.7,18.4,10.7,18.4,10.7"/>
		</defs>
		<clipPath id="SVGID_10_">
			<use xlink:href="#SVGID_9_"  style="overflow:visible;"/>
		</clipPath>
		<g class="st14">
			<path class="st10" d="M316.1,384.1c-6.7,1.8-21.8-1.9-21.8-1.9s-9.9-4.7-10.5-5.8c-0.4-0.9-0.8-1.8-1.1-2.7l12.1,1.3
				c-0.9,1.6-0.9,3.4,0,5C296.2,382.4,311.6,384.9,316.1,384.1z"/>
		</g>
	</g>
	<path class="st2" d="M319,382.2c-0.4,0.8-1.2,1.4-2,1.6c-0.2,0.1-0.5,0.2-0.7,0.2h-0.2c-6.7,1.8-21.8-1.9-21.8-1.9
		s-9.9-4.7-10.5-5.8c-0.4-0.9-0.8-1.8-1.1-2.7l-0.3-0.8c0,0-3.6-2-4-3.6s-1.2-2,1-2.3s14,0,14,0l-12.9-5.2c0,0-8.5-4.3-9.3-5.8
		s-1.8-2.5,2.6-1.9s13.9,3.4,13.9,3.4l7.5,1.6l-7.4-3.2c0,0-14.6-1.8-11.9-6.3h8.3c4.7,0.2,9.4,0.8,14,1.8
		c2.4,0.7,18.4,10.7,18.4,10.7"/>
	<line class="st2" x1="282.4" y1="372.9" x2="297" y2="375"/>
	<path class="st1" d="M136.8,417.6l36.6,11l67-15.3c0,0-40.9-11.6-41.3-11.3S136.8,417.6,136.8,417.6z"/>
	<g>
		<defs>
			<path id="SVGID_11_" d="M136.8,417.6l36.6,11l67-15.3c0,0-40.9-11.6-41.3-11.3S136.8,417.6,136.8,417.6z"/>
		</defs>
		<clipPath id="SVGID_12_">
			<use xlink:href="#SVGID_11_"  style="overflow:visible;"/>
		</clipPath>
		<g class="st15">
			<path class="st12" d="M136.8,417.6l36.6,11l67-15.3c0,0-40.9-11.6-41.3-11.3S136.8,417.6,136.8,417.6z"/>
		</g>
	</g>
	<path class="st2" d="M136.8,417.6l36.6,11l67-15.3c0,0-40.9-11.6-41.3-11.3S136.8,417.6,136.8,417.6z"/>
	<path class="st1" d="M137.3,404.7c-2.6,0.2-3.2,9.4-0.5,12.9l59.2-12.3l4.7-11.2L137.3,404.7z"/>
	<g>
		<defs>
			<path id="SVGID_13_" d="M137.3,404.7c-2.6,0.2-3.2,9.4-0.5,12.9l59.2-12.3l4.7-11.2L137.3,404.7z"/>
		</defs>
		<clipPath id="SVGID_14_">
			<use xlink:href="#SVGID_13_"  style="overflow:visible;"/>
		</clipPath>
		<g class="st16">
			<path class="st12" d="M137.3,404.7c-2.6,0.2-3.2,9.4-0.5,12.9l59.2-12.3l4.7-11.2L137.3,404.7z"/>
		</g>
	</g>
	<path class="st2" d="M137.3,404.7c-2.6,0.2-3.2,9.4-0.5,12.9l59.2-12.3l4.7-11.2L137.3,404.7z"/>
	<path class="st7" d="M237.5,404.6c0,0-0.9,4.9-0.3,7.9l-63.9,14.5l-33.7-9.9c0,0-3.5-6.2-0.4-11l61.5-10.5L237.5,404.6z"/>
	<polygon class="st17" points="137.3,404.7 200.7,394.1 240,404.1 173.9,417.3 	"/>
	<polyline class="st2" points="139.6,410.6 173.1,420.6 227.9,409.6 	"/>
	<line class="st2" x1="237" y1="410.6" x2="178.1" y2="423.2"/>
	<path class="st2" d="M140.4,414.6c0.5,0,25.3,7.7,25.3,7.7"/>
	<line class="st2" x1="232.2" y1="408.3" x2="236.9" y2="407.5"/>
	<line class="st2" x1="172" y1="424.1" x2="169.5" y2="423.5"/>
	<path class="st3" d="M139.2,406c2.7,3.1,2.9,7.7,0.4,11C137.4,413.7,137.2,409.5,139.2,406z"/>
	<g>
		<defs>
			<path id="SVGID_15_" d="M139.2,406c2.7,3.1,2.9,7.7,0.4,11C137.4,413.7,137.2,409.5,139.2,406z"/>
		</defs>
		<clipPath id="SVGID_16_">
			<use xlink:href="#SVGID_15_"  style="overflow:visible;"/>
		</clipPath>
		<g class="st18">
			<path class="st19" d="M139.2,406c2.7,3.1,2.9,7.7,0.4,11C137.4,413.7,137.2,409.5,139.2,406z"/>
		</g>
	</g>
	<path class="st2" d="M139.2,406c2.7,3.1,2.9,7.7,0.4,11C137.4,413.7,137.2,409.5,139.2,406z"/>
	<polygon class="st6" points="276.1,420.6 340,423.2 333.8,445.3 255.1,442.3 	"/>
	<g>
		<defs>
			<polygon id="SVGID_17_" points="276.1,420.6 340,423.2 333.8,445.3 255.1,442.3 			"/>
		</defs>
		<clipPath id="SVGID_18_">
			<use xlink:href="#SVGID_17_"  style="overflow:visible;"/>
		</clipPath>
		<g class="st20">
			<polygon class="st10" points="276.1,420.6 340,423.2 333.8,445.3 255.1,442.3 			"/>
		</g>
	</g>
	<polygon class="st2" points="276.1,420.6 340,423.2 333.8,445.3 255.1,442.3 	"/>
</g>
</svg>
