<?xml version="1.0" encoding="utf-8"?>
<!-- Generator: Adobe Illustrator 24.0.2, SVG Export Plug-In . SVG Version: 6.00 Build 0)  -->
<svg version="1.1" id="Capa_1" xmlns="http://www.w3.org/2000/svg" xmlns:xlink="http://www.w3.org/1999/xlink" x="0px" y="0px"
	 viewBox="0 0 204 189" style="enable-background:new 0 0 204 189;" xml:space="preserve">
<style type="text/css">
	.st0{opacity:0.7;fill:#FFFFFF;enable-background:new    ;}
	.st1{fill:#C50C29;}
	.st2{fill:none;stroke:#263238;stroke-linecap:round;stroke-linejoin:round;}
	.st3{fill:#263238;}
	.st4{clip-path:url(#SVGID_2_);}
	.st5{opacity:0.6;}
	.st6{fill:#FFFFFF;}
	.st7{clip-path:url(#SVGID_4_);}
	.st8{fill:#FFFFFF;stroke:#263238;stroke-linecap:round;stroke-linejoin:round;}
	.st9{fill:none;stroke:#FFFFFF;stroke-linecap:round;stroke-linejoin:round;}
	.st10{clip-path:url(#SVGID_6_);}
	.st11{opacity:0.4;fill:#C50C29;enable-background:new    ;}
	.st12{clip-path:url(#SVGID_8_);}
	.st13{opacity:0.3;fill-opacity:0.7;enable-background:new    ;}
	.st14{clip-path:url(#SVGID_10_);}
	.st15{clip-path:url(#SVGID_12_);}
	.st16{clip-path:url(#SVGID_14_);}
	.st17{clip-path:url(#SVGID_16_);}
	.st18{fill:#C50C29;stroke:#263238;stroke-linecap:round;stroke-linejoin:round;}
	.st19{clip-path:url(#SVGID_18_);}
	.st20{opacity:0.3;fill:#FFFFFF;fill-opacity:0.7;enable-background:new    ;}
	.st21{clip-path:url(#SVGID_20_);}
</style>
<g id="freepik--background-simple--inject-4_1_">
	<path class="st0" d="M34.2,79.6c0,0-11.8,25.8,4.8,51.8s50.7,39.7,78.1,51.4c27.4,11.7,55.8,6,69.3-13.2
		c13.5-19.2-5.1-32.9-5.1-60.3c0-27.4,4.8-34.6-12.7-57.8s-60.6-28.3-93.1-11.1S34.2,79.6,34.2,79.6z"/>
	<path class="st1" d="M32.4,69.6C43.7,51.1,64.7,37,90.9,35c18-1.3,35.9,3,50.3,12.3c7.1,4.7,13.5,10.6,17.7,17.4
		c4.8,7.8,6.2,16.7,11.2,24.5c6.2,9.6,17.8,13.6,25.6,21.9c6.4,6.9,8.6,16,7.9,24.7c-1.3,15.9-12.4,31-28.6,39.2
		c-13.7,6.9-30.2,8.8-46.2,8.2c-24.5-1-49-7.8-68.4-20.7s-33.2-31.8-36.6-52.4C21.7,96.1,25,81.9,32.4,69.6z"/>
	<path class="st0" d="M32.4,69.6C43.7,51.1,64.7,37,90.9,35c18-1.3,35.9,3,50.3,12.3c7.1,4.7,13.5,10.6,17.7,17.4
		c4.8,7.8,6.2,16.7,11.2,24.5c6.2,9.6,17.8,13.6,25.6,21.9c6.4,6.9,8.6,16,7.9,24.7c-1.3,15.9-12.4,31-28.6,39.2
		c-13.7,6.9-30.2,8.8-46.2,8.2c-24.5-1-49-7.8-68.4-20.7s-33.2-31.8-36.6-52.4C21.7,96.1,25,81.9,32.4,69.6z"/>
</g>
<g id="freepik--Elements--inject-4_1_">
	<path class="st2" d="M39.9,80.4c0.4,1.5,0.2-1.2,1-4.6c0.8-3.3,2.3-2,2.3-2"/>
	<line class="st2" x1="39.6" y1="77" x2="42.2" y2="76"/>
	<path class="st2" d="M44.4,74.9c0,0-1.6,2.9,0.8,4.1"/>
	<path class="st2" d="M46.6,74.1c0,0,2.6,1.3,1,4"/>
	<line class="st2" x1="44.8" y1="75.9" x2="46.7" y2="77.1"/>
	<line class="st2" x1="46.3" y1="75.3" x2="44.8" y2="77.4"/>
	<ellipse class="st2" cx="50.7" cy="105.2" rx="3.9" ry="3.5"/>
	<ellipse class="st2" cx="56.1" cy="106.5" rx="4.4" ry="3.8"/>
	<line class="st2" x1="54.3" y1="103.7" x2="52.5" y2="104.3"/>
	<line class="st2" x1="54.6" y1="104.4" x2="52" y2="105.2"/>
	<line class="st2" x1="54.7" y1="105.2" x2="51.8" y2="106.2"/>
	<line class="st2" x1="54.5" y1="106.3" x2="51.8" y2="107.4"/>
	<line class="st2" x1="54" y1="107.1" x2="52" y2="107.8"/>
	<path class="st2" d="M52.6,99.9c-0.1-0.3-1.4-0.5-1.4,0.3s1.3,0.1,1.7-0.3c0,0-0.7,0.9-0.4,1"/>
	<path class="st2" d="M59.7,100.9l-1.1,2.1c0,0,0.6-1,1.2-1c0.8,0.1,0.3,1.2-0.6,0.8"/>
	<line class="st2" x1="183" y1="134.8" x2="184.8" y2="136.2"/>
	<line class="st2" x1="184.8" y1="134.4" x2="183.3" y2="136.3"/>
	<line class="st2" x1="186.6" y1="134.9" x2="188.3" y2="134.4"/>
	<line class="st2" x1="189.2" y1="132.7" x2="190.3" y2="133.6"/>
	<line class="st2" x1="191.1" y1="131.7" x2="189.7" y2="135.8"/>
	<polygon class="st2" points="108.1,111.5 112.8,108.6 119.2,109 119.6,116.1 114.9,119 109.2,118.7 	"/>
	<polyline class="st2" points="109.2,118.7 113.8,115.7 119.6,116.1 	"/>
	<line class="st2" x1="113.8" y1="115.7" x2="112.8" y2="108.6"/>
	<polyline class="st2" points="108.1,111.5 114.4,112.2 119.2,109 	"/>
	<line class="st2" x1="114.4" y1="112.2" x2="114.9" y2="119"/>
	<polygon class="st2" points="164,87.8 161.8,93.6 168.4,92.8 	"/>
	<line class="st2" x1="164" y1="87.8" x2="165.1" y2="93.1"/>
	<polyline class="st2" points="164.9,92.3 165.7,92.2 165.9,93.1 	"/>
	<line class="st2" x1="80.8" y1="140.8" x2="84.1" y2="142.2"/>
	<line class="st2" x1="83" y1="139.7" x2="82.1" y2="142.8"/>
	<path class="st2" d="M83.5,138.3c0.2-0.2,0.5-0.2,0.7,0c0,0,0.1,0.1,0.1,0.1c0.3,0.4-0.3,1.4-0.3,1.4l1.3-0.4"/>
	<path class="st2" d="M106.7,41c3.1,1.6-0.5,5.4-0.5,7.6c0,2.2,3.6,1.9,5.4,2.5c0.7,0,2.2,0,2.1,1.6"/>
	<path class="st2" d="M103.2,43c0.5,2.6,4,1.7,6.1,2.3c3.6,1,1.6,4.3,0.5,6.3c-0.6,1.2-1.3,2.8-0.1,4"/>
	<line class="st2" x1="103.6" y1="44.1" x2="107.4" y2="41.3"/>
	<line class="st2" x1="105.1" y1="44.9" x2="107.9" y2="42.8"/>
	<line class="st2" x1="106.8" y1="46.9" x2="109.1" y2="45.3"/>
	<line class="st2" x1="106.3" y1="49.4" x2="111" y2="46.5"/>
	<line class="st2" x1="108.1" y1="50.6" x2="111.3" y2="48.5"/>
	<line class="st2" x1="109.4" y1="55" x2="113.5" y2="52.1"/>
	<line class="st2" x1="109.5" y1="52.7" x2="112.2" y2="51.1"/>
	<ellipse class="st2" cx="53.6" cy="136.2" rx="7.5" ry="6.6"/>
	<path class="st2" d="M55.5,129.8c2.6-2.7,4.9-4.3,5.7-3.7c1.3,0.8-1,5.9-5.3,11.5c-4.2,5.6-8.7,9.6-10,8.8
		c-0.9-0.5-0.1-2.9,1.7-6.1"/>
	<path class="st2" d="M46.2,137.6c-3.7-0.9-6-2-5.9-2.9c0.2-1.4,6.6-1.7,14.1-0.7c7.6,1,13.5,2.9,13.3,4.3c-0.1,1-3.2,1.4-7.7,1.2"
		/>
	<path class="st2" d="M47.2,132.8c-2.8-4.4-4.2-7.8-3.2-8.4c1.2-0.7,6,3.8,10.6,10.2c4.7,6.3,7.4,12,6.2,12.7
		c-0.8,0.5-3.2-1.4-6-4.5"/>
	<path class="st3" d="M62.3,128.9c-0.4,0.5-1.2,0.6-1.7,0.3c-0.6-0.3-0.7-1-0.4-1.5c0.4-0.5,1.2-0.6,1.7-0.3
		C62.6,127.7,62.7,128.4,62.3,128.9L62.3,128.9z"/>
	<path class="st3" d="M58.2,145.7c-0.4,0.5-1.2,0.6-1.7,0.3c-0.6-0.3-0.7-1-0.4-1.5c0.4-0.5,1.2-0.6,1.7-0.3
		C58.4,144.4,58.6,145.1,58.2,145.7C58.2,145.6,58.2,145.6,58.2,145.7z"/>
	<path class="st3" d="M51.6,134.3c-0.4,0.5-1.2,0.6-1.7,0.3c-0.6-0.3-0.7-1-0.4-1.5c0.4-0.5,1.2-0.6,1.7-0.3
		C51.8,133.1,52,133.8,51.6,134.3z"/>
	<polygon class="st2" points="130.7,86.8 135,86.8 137.1,83.6 135,80.3 130.7,80.3 128.6,83.6 	"/>
	<polyline class="st2" points="130.1,93.9 128,90.7 123.8,90.7 	"/>
	<polygon class="st2" points="124.3,83.6 128.6,83.6 130.7,80.3 128.6,77.1 124.3,77.1 122.2,80.3 	"/>
	<polygon class="st2" points="130.7,80.3 135,80.3 137.1,77.1 135,73.8 130.7,73.8 128.6,77.1 	"/>
	<ellipse class="st3" cx="130.7" cy="80.3" rx="0.6" ry="0.5"/>
	<ellipse class="st3" cx="121.8" cy="73.5" rx="0.6" ry="0.5"/>
	<path class="st3" d="M129.5,93.9c0-0.3,0.3-0.5,0.6-0.5s0.6,0.2,0.6,0.5c0,0.3-0.3,0.5-0.6,0.5l0,0
		C129.8,94.4,129.5,94.2,129.5,93.9z"/>
	<ellipse class="st3" cx="123.8" cy="90.7" rx="0.6" ry="0.5"/>
	<path class="st3" d="M141.2,77.2c0-0.3,0.3-0.5,0.6-0.5s0.6,0.2,0.6,0.5c0,0.3-0.3,0.5-0.6,0.5l0,0
		C141.5,77.7,141.2,77.5,141.2,77.2L141.2,77.2z"/>
	<ellipse class="st3" cx="128" cy="90.7" rx="0.6" ry="0.5"/>
	<path class="st3" d="M136.5,77.2c0-0.3,0.3-0.5,0.6-0.5c0.3,0,0.6,0.2,0.6,0.5c0,0.3-0.3,0.5-0.6,0.5l0,0
		C136.8,77.7,136.5,77.5,136.5,77.2z"/>
	<path class="st3" d="M130.1,86.8c0-0.3,0.3-0.5,0.6-0.5s0.6,0.2,0.6,0.5c0,0.3-0.3,0.5-0.6,0.5l0,0
		C130.4,87.3,130.1,87.1,130.1,86.8z"/>
	<line class="st2" x1="137.1" y1="77.2" x2="141.8" y2="77.2"/>
	<line class="st2" x1="130.7" y1="86.8" x2="128" y2="90.7"/>
	<line class="st2" x1="124.3" y1="77.1" x2="121.8" y2="73.5"/>
	<path class="st2" d="M154.5,64.3c1.2-3.7,5.6-5.8,9.8-4.7c2.7,0.7,4.7,2.6,5.4,5"/>
	<path class="st2" d="M161.1,73.2c-4-0.4-7-3.4-7-6.9"/>
	<path class="st2" d="M169.9,66.3c0,3.8-3.5,6.9-7.9,6.9"/>
	<path class="st2" d="M170.3,61.9c2.5-0.3,4.1-0.1,4.4,0.5c0.5,1.3-4.8,4.1-11.8,6.2c-7,2.2-13.1,2.8-13.6,1.5
		c-0.3-0.7,1.1-1.8,3.5-3"/>
	<polygon class="st2" points="128,57.2 128.7,58.5 130.4,58.7 129.2,59.8 129.5,61.3 128,60.6 126.4,61.3 126.7,59.8 125.5,58.7 
		127.2,58.5 	"/>
	<path class="st2" d="M74.7,53.6c0,2.5-2.3,4.5-5.1,4.5c-0.2,0-0.3,0-0.5,0c-2.8-0.2-4.9-2.4-4.6-4.9s2.8-4.3,5.6-4.1
		C72.7,49.3,74.7,51.3,74.7,53.6L74.7,53.6z"/>
	<path class="st2" d="M73.9,54.4c0,0.4-0.4,0.7-0.8,0.7s-0.8-0.3-0.8-0.7c0-0.4,0.4-0.7,0.8-0.7l0,0C73.5,53.7,73.9,54,73.9,54.4z"
		/>
	<path class="st2" d="M66.7,56.2c0,0.3-0.2,0.7-0.5,0.9c-0.7-0.5-1.2-1.1-1.5-1.8c0.2-0.1,0.4-0.2,0.6-0.2
		C66.1,55,66.7,55.5,66.7,56.2C66.7,56.1,66.7,56.2,66.7,56.2z"/>
	<path class="st2" d="M73.1,56.9c-0.9,0.8-2.2,1.2-3.5,1.2c-0.2,0-0.3,0-0.5,0c0-0.1,0-0.3,0-0.4c0-1,0.9-1.9,2.1-1.9
		C72,55.8,72.7,56.2,73.1,56.9z"/>
	<ellipse class="st2" cx="68.3" cy="50.7" rx="1.2" ry="1"/>
	<path class="st2" d="M69.4,53.7c0,0.3-0.3,0.5-0.5,0.5s-0.5-0.2-0.5-0.5s0.3-0.5,0.5-0.5S69.4,53.4,69.4,53.7L69.4,53.7z"/>
	<path class="st2" d="M73.7,50.9c-0.1,0-0.3,0.1-0.4,0.1c-0.8,0-1.5-0.6-1.5-1.3l0,0c0-0.1,0-0.1,0-0.2
		C72.6,49.9,73.2,50.3,73.7,50.9z"/>
	<path class="st2" d="M191.4,105.8l0.5-1.1l-0.9-0.4c0-0.2,0-0.4,0-0.6l0.9-0.4l-0.5-1.1l-1,0.3c-0.1-0.2-0.3-0.3-0.5-0.4l0.3-0.9
		l-1.2-0.5l-0.5,0.8c-0.2,0-0.4,0-0.6,0l-0.4-0.8l-1.3,0.4l0.3,0.9c-0.2,0.1-0.3,0.3-0.5,0.4l-1-0.3l-0.5,1.1l0.9,0.4
		c0,0.2,0,0.4,0,0.6l-0.9,0.4l0.5,1.1l1-0.3c0.1,0.2,0.3,0.3,0.5,0.4l-0.3,0.9l1.2,0.5l0.5-0.8c0.2,0,0.4,0,0.6,0l0.4,0.8l1.3-0.4
		L190,106c0.2-0.1,0.3-0.3,0.5-0.4L191.4,105.8z M187.6,105.2c-0.8-0.3-1.2-1.1-0.8-1.8c0.4-0.7,1.3-1,2.1-0.7
		c0.8,0.3,1.2,1.1,0.8,1.8C189.3,105.2,188.4,105.5,187.6,105.2z"/>
	<path class="st2" d="M184.8,111.4l0.8-1.5l-1.2-0.6c0-0.3,0-0.5,0-0.8l1.3-0.5l-0.6-1.5l-1.3,0.3c-0.2-0.2-0.4-0.4-0.6-0.6l0.5-1.1
		l-1.7-0.7l-0.7,1.1c-0.3,0-0.6,0-0.9,0l-0.6-1.1l-1.7,0.6l0.4,1.2c-0.3,0.2-0.5,0.3-0.6,0.5l-1.3-0.4l-0.8,1.5l1.2,0.6
		c0,0.3,0,0.5,0,0.8l-1.3,0.5l0.6,1.5l1.3-0.3c0.2,0.2,0.4,0.4,0.6,0.6l-0.5,1.1l1.7,0.7l0.7-1.1c0.3,0,0.6,0,0.9,0l0.6,1.1l1.7-0.6
		l-0.4-1.2c0.3-0.2,0.5-0.3,0.6-0.5L184.8,111.4z M179.7,110.6c-1.1-0.4-1.6-1.5-1.1-2.5c0.5-1,1.7-1.4,2.8-1s1.6,1.5,1.1,2.5l0,0
		C182,110.6,180.8,111,179.7,110.6L179.7,110.6z"/>
</g>
<g id="freepik--Earth--inject-4">
	<path class="st1" d="M104.9,77.4c-1.2,2.2-2.6,4.3-4.1,6.3c-16.3,21.4-46.7,28.2-71.3,15.9c-1.2-0.6-2.5-1.3-3.6-1.9
		c-1.2-0.7-2.3-1.4-3.4-2.2c-1.3-0.9-2.6-1.8-3.8-2.9l0,0c-0.1-0.1-0.2-0.1-0.2-0.2l0,0C-4.6,73-6.7,39.5,13.8,17.7
		s55.7-23.9,78.7-4.5C111.8,29.3,116.9,55.8,104.9,77.4L104.9,77.4z"/>
	<g>
		<g>
			<defs>
				<path id="SVGID_1_" d="M104.9,77.4c-1.2,2.2-2.6,4.3-4.1,6.3c-16.3,21.4-46.7,28.2-71.3,15.9c-1.2-0.6-2.5-1.3-3.6-1.9
					c-1.2-0.7-2.3-1.4-3.4-2.2c-1.3-0.9-2.6-1.8-3.8-2.9l0,0c-0.1-0.1-0.2-0.1-0.2-0.2l0,0C-4.6,73-6.7,39.5,13.8,17.7
					s55.7-23.9,78.7-4.5C111.8,29.3,116.9,55.8,104.9,77.4L104.9,77.4z"/>
			</defs>
			<clipPath id="SVGID_2_">
				<use xlink:href="#SVGID_1_"  style="overflow:visible;"/>
			</clipPath>
			<g class="st4">
				<g class="st5">
					<path class="st6" d="M104.9,77.4c-1.2,2.2-2.6,4.3-4.1,6.3l-1.1-0.8l-1.9-0.9l-1.9-1l0.4-2.3l-0.1-2c-0.1-2,1.4-0.3,2.7-1
						c1-0.7,1.8-1.5,2.3-2.5c0,0,0.9-2.7,0.6-3.8c-0.4-1.3-1.1-2.4-1.7-3.6l-3.2,4.2l-2.7-0.2l-2.5-1.3l-0.4-3.3l-1.3-0.7l-0.5-1.9
						l-7-1.8l-0.8-1.3c-0.8-1.3-4-2-4-2l0.8-1.8l1.2-1.9c1.2-1.9,2.6,1.3,2.6,1.3l1.5,0.8l2.7-2.2l0.7-3.1l4.5,0.3
						c-0.2-0.8,0.3-1.8,1.2-2.1c1.5-0.6,0.8-3.6,0.3-4.8c-0.5-1.2-2.7-0.3-2.7-0.3s-2.3-3.3-2.6-4.6c-0.3-1.3,4.3-0.8,6.3-2.2
						s1.3-3.9,0.4-4c-1-0.1,1.9-6,7.4-4.4c1.5,0.4,2.5,0.3,3.1-0.3C113.5,43.7,113.4,62,104.9,77.4z"/>
					<path class="st6" d="M66.1,54.7L64.3,57c0,0-0.8-1.8-1.9-0.8l-1.8,1.5l-1.2,3.4L57,62.5l-1.4-0.7l-1.3-0.7l-1.4-0.8l-1.4,2.5
						l-1.2,2c0.5,1,1.2,1.9,2,2.8l2.5,4.1l3,1.4c1.2,0.1,2.5,0.2,3.7,0.4l2,1l-0.7,4.2c0,0-1.5,2.4-2.6,1.8L59.2,80l-1.7,5.5l-0.1,3
						c0,0-1,0.4-2,0.8S55.1,89.4,53,90c-2.1,0.6-1.9,0.6-3.6,1.1c-1.5,0.5-2.8,1.1-4.2,1.8l0.2,2.9l-4.1,0.6l-2.3-1.2l0.5-1.8
						l0.3-2.9l-0.4-2.2l-1-1.9l2.7-2.4l-0.6-1.5l-1.6-2.9l-3.3,1.7l-1.7,0.8l-3.8-1.6l-0.4-2.2l-1.2-4.1l-1.2-2.4l-2.1-2.7l-0.5-2.4
						l1.2-2.1l0.6-1.1l-1.9-2.4L24,59.5l-3.3-2.9c0,0,1-0.1,0.7-1.3s1.9-3.4,1.9-3.4c1.2,0.6,4.7,2.9,4.7,2.9l3.1,0.4
						c0,0,0.6,0,1.2-1.1c0.7-1,1.5-1.9,2.5-2.8c0,0-1.4-4.7-0.4-5.3s2-3.7,2-3.7l0.8-1.5c0,0-1.9-0.8-2.3-1.8
						c-0.4-1-5.1,0.3-5.1,0.3l-3.3,2.2l-2.6,1.9l-1.2,2c0,0-2.3-2.6-2.3-1.2c-0.2,1.5-0.5,2.9-1.1,4.4c0,0,0.4,0.3-0.2,1.3
						c-0.6,1.1-1.3,1.1-2.7,1.3c-1.8,0-3.5-0.1-5.3-0.3c0,0-0.9,3.1-0.3,3.6l0.6,0.5c0,0-1,2.3-1.9,1.8l-2.3-1.2L4.3,57l-3.5,3.7
						L0,60.6C-4.6,31.9,16.2,5,46.4,0.5c0.2,0.8,0.4,1.6,0.4,1.6L46,6.2l-1.2,2l-1,1.8l-1.4,2.4l3.5,3.1l-0.8,3.6l-1.9,1.2L42.8,23
						l3.3,6l0.9,2.4c-0.5,1.2-0.8,2.4-0.8,3.6c0,0,0.4,2.3,2.1,3.2s4.1,1.9,4.1,1.9l-0.2,3.4l-0.8,0.8l1.3,3.6c4,1.5,3.6,2.8,4,1.5
						l0.4-1.3l2.7-0.9l3.5,3.9c0.8,0,1.6,0.3,2,1C66.5,53.4,68.1,52.4,66.1,54.7z"/>
					<path class="st6" d="M19.2,83.9c0.1,1.2-1.5,2.7-1.5,2.7l1.3,0.7l0.4,3.4l-1,1.8c-7-5.8-12.3-13.3-15.4-21.5l0.7-3.5l3.1-0.4
						c0,0,2.8-1.8,4.1-1.3s2.4,3.4,2.4,3.4s0.9,3.9,0.8,3.9l0,0H14h0.1l1.2,0.7l0.4,1.5l-1.8,3.2h-2.8c0,0-0.5-0.3-0.6,1.1
						c0.1,1,0.6,1.8,1.5,2.4l3.1-0.8l0.8-3l3-0.6c0,0-0.4,1.8,0.3,2.2l0.7,0.3l0.4,2.2C19.7,82.6,19.2,83.1,19.2,83.9z"/>
					<path class="st6" d="M33.9,88.7c-0.3-0.8-0.4-1.3-2.3-2.3c-1.9-0.9-1.8-0.6-2.5,0.2c-0.6,0.8-1.8,1.2-2.8,0.9
						c-1.2-0.3-0.6,1.1-0.6,1.1l0.3,3.6l-3.5,3.3c1.1,0.8,2.2,1.5,3.4,2.2l0.7-2.2l5.8,1.6c-1.2-0.3-0.5-1.9-0.5-1.9l-1.2-0.6
						C30.7,94.4,34.2,89.4,33.9,88.7z"/>
					<path class="st6" d="M70.5,70l-1.9-1.8l-2.2,0.7l-0.9,1.7l-0.7,1.2l0.9,1.7l1.8,2l1-1.8c0,0,2.8,0,4.2-1.5S70.5,70,70.5,70z"/>
					<path class="st6" d="M64.9,61.8l3.5,1.8l0.2-0.8c0.2-0.7,0.5-1.3,1-1.8l-2.7-2.7L64.9,61.8z"/>
					<path class="st6" d="M63.7,100.9l-1-1.4l-1.2-0.6h-3.6l-2,3.7c0,0-1.9-0.3-4.6-0.5c-2.7-0.3-1.9,0.8-1.9,0.8l-0.7,2.4
						c6.5,0.8,13.2,0.4,19.6-1c-0.7-0.5-1.5-0.9-2.3-1.3L63.7,100.9z"/>
				</g>
			</g>
		</g>
	</g>
	<path class="st2" d="M104.9,77.4c-1.2,2.2-2.6,4.3-4.1,6.3c-16.3,21.4-46.7,28.2-71.3,15.9c-1.2-0.6-2.5-1.3-3.6-1.9
		c-1.2-0.7-2.3-1.4-3.4-2.2c-1.3-0.9-2.6-1.8-3.8-2.9l0,0c-0.1-0.1-0.2-0.1-0.2-0.2l0,0C-4.6,73-6.7,39.5,13.8,17.7
		s55.7-23.9,78.7-4.5C111.8,29.3,116.9,55.8,104.9,77.4L104.9,77.4z"/>
	<path class="st2" d="M68.2,104.2c-6.5,1.4-13,1.8-19.6,1l0.7-2.4c0,0-0.6-1,1.9-0.8c2.6,0.3,4.6,0.5,4.6,0.5l2-3.7h3.6l1.2,0.6
		l1,1.4l2.2,2C66.7,103.3,67.5,103.7,68.2,104.2z"/>
	<path class="st2" d="M105.1,28.3c-0.6,0.5-1.6,0.7-3.1,0.3c-5.6-1.6-8.4,4.3-7.4,4.4c1,0.1,1.7,2.7-0.4,4c-2,1.3-6.6,0.8-6.3,2.2
		c0.4,1.3,2.6,4.6,2.6,4.6s2-0.9,2.6,0.3c0.5,1.2,1.2,4.2-0.3,4.8c-0.9,0.3-1.3,1.3-1.2,2.1l-4.5-0.3l-0.7,3.1l-2.7,2.2l-1.5-0.8
		c0,0-1.3-3.2-2.6-1.3l-1.2,1.9l-0.8,1.8c0,0,3.2,0.7,4,2l0.8,1.3l7,1.8l0.5,1.9l1.3,0.7l0.4,3.3l2.6,1.3l2.7,0.2l3.2-4.2
		c0.6,1.2,1.2,2.4,1.7,3.6c0.4,1.1-0.6,3.8-0.6,3.8c-0.5,1-1.3,1.8-2.3,2.5c-1.2,0.6-2.8-1-2.7,1l0.1,2l-0.4,2.3l1.9,1l1.9,0.9
		l1.1,0.8"/>
	<path class="st2" d="M0.3,60.5l0.8,0.2L4.7,57l3.2-1.3l2.3,1.2c1,0.5,1.9-1.8,1.9-1.8l-0.6-0.5c-0.6-0.5,0.3-3.6,0.3-3.6
		c1.8,0.3,3.5,0.3,5.3,0.3c1.4-0.2,2-0.1,2.7-1.3c0.6-1.2,0.2-1.3,0.2-1.3c0.5-1.4,0.9-2.9,1.1-4.4c0-1.4,2.3,1.2,2.3,1.2l1.2-2
		l2.5-1.8l3.3-2.2c0,0,4.8-1.3,5.1-0.3c0.4,0.9,2.3,1.8,2.3,1.8l-0.8,1.5c0,0-1.1,3-2,3.7s0.4,5.3,0.4,5.3c-1,0.8-1.8,1.8-2.5,2.8
		c-0.6,1.1-1.2,1.1-1.2,1.1l-3.1-0.4c0,0-3.5-2.4-4.7-2.9c0,0-2.1,2.1-1.9,3.4c0.3,1.3-0.7,1.3-0.7,1.3l3.3,2.9l0.5,1.8l1.9,2.4
		l-0.6,1.1L25,66.9l0.5,2.4l2.1,2.7l1.2,2.4l1.3,3.9l0.4,2.2l3.8,1.6l1.7-0.8l3.3-1.7l1.6,2.9l0.6,1.5l-2.7,2.4l1,1.9l0.4,2.2
		l-0.3,2.9l-0.5,1.8l2.3,1.2l4.1-0.6l-0.2-2.9c1.3-0.8,2.7-1.3,4.2-1.8c1.7-0.5,1.6-0.4,3.6-1.1c2-0.7,1.5-0.4,2.5-0.8s2-0.8,2-0.8
		l0.1-3l1.7-5.5l1.1,0.7c1.1,0.7,2.6-1.8,2.6-1.8l0.7-4.2l-2.1-1c-1.2-0.3-2.5-0.3-3.7-0.4l-2.9-1.4l-2.5-4.1
		c-0.8-0.8-1.5-1.8-2-2.8l1.2-2l1.4-2.5l1.4,0.8l1.3,0.7l1.4,0.7l2.3-1.4l1.2-3.4l1.8-1.5c1.2-1,1.9,0.8,1.9,0.8l1.9-2.3
		c1.9-2.3,0.4-1.2-0.6-2.4c-0.4-0.7-1.2-1-2-1l-3.5-3.9l-2.7,1l-0.4,1.3c-0.4,1.3,0,0-4-1.5l-1.3-3.6l0.8-0.8l0.2-3.4
		c0,0-2.3-1.1-4.1-1.9S46.9,35,46.9,35c0-1.3,0.3-2.5,0.8-3.6l-0.9-2.4l-3.3-6l0.5-2.8l1.9-1.2l0.8-3.6l-3.5-3.1l1.4-2.4l1-1.8
		l1.2-2l0.9-4.1c0,0-0.3-0.8-0.4-1.6"/>
	<path class="st2" d="M18.8,92.5c-0.1-0.1-0.2-0.2-0.3-0.2l0,0l1-1.8l-0.4-3.4l-1.3-0.7c0,0,1.6-1.5,1.5-2.7c0-0.8,0.4-1.4,1-1.8
		L19.9,80l-0.7-0.3c-0.7-0.3-0.3-2.2-0.3-2.2l-3,0.6l-0.8,3L12,81.8c-0.9-0.6-1.4-1.5-1.5-2.4c0.1-1.4,0.6-1.1,0.6-1.1h2.8l1.8-3.2
		l-0.4-1.5l-1.2-0.7"/>
	<path class="st2" d="M14,72.7L14,72.7c0.2,0.1-0.8-3.9-0.8-3.9s-1.2-2.9-2.4-3.4c-1.2-0.5-4.1,1.3-4.1,1.3l-3.1,0.4L3,70.7"/>
	<path class="st2" d="M26.6,95.4l-0.7,2.2c-1.2-0.7-2.3-1.4-3.4-2.2l3.5-3.3l-0.3-3.6c0,0-0.6-1.3,0.6-1.1c1.1,0.3,2.1-0.2,2.8-0.9
		c0.7-0.8,0.6-1.1,2.5-0.2c1.9,0.9,2,1.6,2.3,2.3c0.3,0.7-3.2,5.8-3.2,5.8L32,95c0,0-0.7,1.6,0.5,1.9L26.6,95.4z"/>
	<path class="st2" d="M66.4,68.8l2.2-0.7l1.9,1.8c0,0,3.8,0.5,2.3,2s-4.2,1.5-4.2,1.5l-1.1,1.8l-1.8-2l-0.9-1.7l0.7-1.2L66.4,68.8z"
		/>
	<path class="st2" d="M69.5,61.1c-0.4,0.5-0.8,1.1-1,1.8l-0.2,0.8l-3.5-1.8l1.9-3.4L69.5,61.1z"/>
</g>
<g id="freepik--Earth--inject-4_1_">
	<path class="st1" d="M110,97.4c-0.5,0.8-1,1.6-1.7,2.4c-6.6,8.1-19.1,10.7-29.1,6c-0.5-0.2-1-0.5-1.5-0.7c-0.5-0.3-0.9-0.5-1.4-0.8
		c-0.5-0.3-1-0.7-1.6-1.1l0,0c0,0-0.1,0-0.1-0.1l0,0c-9.4-7.3-10.3-20-1.9-28.2s22.7-9,32.1-1.7C112.8,79.2,114.9,89.2,110,97.4
		L110,97.4z"/>
	<g>
		<g>
			<defs>
				<path id="SVGID_3_" d="M110,97.4c-0.5,0.8-1,1.6-1.7,2.4c-6.6,8.1-19.1,10.7-29.1,6c-0.5-0.2-1-0.5-1.5-0.7
					c-0.5-0.3-0.9-0.5-1.4-0.8c-0.5-0.3-1-0.7-1.6-1.1l0,0c0,0-0.1,0-0.1-0.1l0,0c-9.4-7.3-10.3-20-1.9-28.2s22.7-9,32.1-1.7
					C112.8,79.2,114.9,89.2,110,97.4L110,97.4z"/>
			</defs>
			<clipPath id="SVGID_4_">
				<use xlink:href="#SVGID_3_"  style="overflow:visible;"/>
			</clipPath>
			<g class="st7">
				<g class="st5">
					<path class="st6" d="M110,97.4c-0.5,0.8-1,1.6-1.7,2.4l-0.4-0.3l-0.8-0.3l-0.8-0.4l0.1-0.9l0-0.8c0-0.8,0.6-0.1,1.1-0.4
						c0.4-0.3,0.7-0.6,0.9-1c0,0,0.4-1,0.3-1.4c-0.2-0.5-0.4-0.9-0.7-1.4l-1.3,1.6l-1.1-0.1l-1-0.5l-0.1-1.2l-0.5-0.3l-0.2-0.7
						l-2.9-0.7l-0.3-0.5c-0.3-0.5-1.6-0.8-1.6-0.8l0.3-0.7l0.5-0.7c0.5-0.7,1,0.5,1,0.5l0.6,0.3l1.1-0.8l0.3-1.2l1.8,0.1
						c-0.1-0.3,0.1-0.7,0.5-0.8c0.6-0.2,0.3-1.4,0.1-1.8c-0.2-0.4-1.1-0.1-1.1-0.1s-0.9-1.2-1-1.7c-0.1-0.5,1.8-0.3,2.6-0.8
						s0.5-1.5,0.1-1.5s0.8-2.3,3-1.6c0.6,0.2,1,0.1,1.3-0.1C113.5,84.6,113.4,91.6,110,97.4z"/>
					<path class="st6" d="M94.2,88.8l-0.8,0.9c0,0-0.3-0.7-0.8-0.3l-0.7,0.6l-0.5,1.3l-0.9,0.5l-0.6-0.3l-0.5-0.3L88.8,91l-0.6,1
						l-0.5,0.8c0.2,0.4,0.5,0.7,0.8,1l1,1.6l1.2,0.5c0.5,0,1,0.1,1.5,0.2l0.8,0.4l-0.3,1.6c0,0-0.6,0.9-1,0.7l-0.4-0.3l-0.7,2.1
						l0,1.1c0,0-0.4,0.2-0.8,0.3c-0.4,0.1-0.1,0.1-1,0.3c-0.9,0.2-0.8,0.2-1.5,0.4c-0.6,0.2-1.2,0.4-1.7,0.7l0.1,1.1l-1.7,0.2
						l-0.9-0.4l0.2-0.7l0.1-1.1l-0.1-0.8l-0.4-0.7l1.1-0.9l-0.3-0.6l-0.6-1.1l-1.3,0.6L81,99.2l-1.6-0.6l-0.2-0.8l-0.5-1.6l-0.5-0.9
						l-0.9-1l-0.2-0.9l0.5-0.8l0.3-0.4l-0.8-0.9L77,90.6l-1.3-1.1c0,0,0.4,0,0.3-0.5c-0.1-0.5,0.8-1.3,0.8-1.3
						c0.5,0.2,1.9,1.1,1.9,1.1l1.3,0.2c0,0,0.3,0,0.5-0.4c0.3-0.4,0.6-0.7,1-1c0,0-0.6-1.8-0.2-2c0.4-0.2,0.8-1.4,0.8-1.4l0.3-0.6
						c0,0-0.8-0.3-0.9-0.7c-0.1-0.4-2.1,0.1-2.1,0.1L78,83.9l-1,0.7l-0.5,0.8c0,0-0.9-1-0.9-0.4c-0.1,0.6-0.2,1.1-0.4,1.6
						c0,0,0.2,0.1-0.1,0.5c-0.3,0.4-0.5,0.4-1.1,0.5c-0.7,0-1.4,0-2.2-0.1c0,0-0.4,1.2-0.1,1.4l0.3,0.2c0,0-0.4,0.9-0.8,0.7
						l-0.9-0.4l-1.3,0.5l-1.4,1.4L67.2,91c-1.8-10.9,6.6-21,18.9-22.7c0.1,0.3,0.2,0.6,0.2,0.6l-0.4,1.6l-0.5,0.8l-0.4,0.7l-0.6,0.9
						l1.4,1.2l-0.3,1.4l-0.8,0.4l-0.2,1l1.3,2.3l0.4,0.9c-0.2,0.4-0.3,0.9-0.3,1.4c0,0,0.1,0.9,0.9,1.2c0.7,0.3,1.7,0.7,1.7,0.7
						l-0.1,1.3l-0.3,0.3l0.5,1.4c1.6,0.6,1.5,1,1.6,0.6l0.1-0.5l1.1-0.3l1.4,1.5c0.3,0,0.6,0.1,0.8,0.4C94.3,88.3,95,87.9,94.2,88.8
						z"/>
					<path class="st6" d="M75,99.8c0,0.4-0.6,1-0.6,1l0.5,0.3l0.1,1.3l-0.4,0.7c-2.9-2.2-5-5-6.3-8.1l0.3-1.3l1.3-0.2
						c0,0,1.2-0.7,1.7-0.5c0.5,0.2,1,1.3,1,1.3s0.4,1.5,0.3,1.5l0,0h0h0l0.5,0.3l0.1,0.6l-0.7,1.2h-1.2c0,0-0.2-0.1-0.3,0.4
						c0,0.4,0.3,0.7,0.6,0.9l1.3-0.3l0.3-1.1l1.2-0.2c0,0-0.2,0.7,0.1,0.8l0.3,0.1l0.2,0.8C75.2,99.3,75,99.6,75,99.8z"/>
					<path class="st6" d="M81,101.6c-0.1-0.3-0.1-0.5-0.9-0.9c-0.8-0.3-0.7-0.2-1,0.1c-0.3,0.3-0.7,0.4-1.2,0.3
						c-0.5-0.1-0.3,0.4-0.3,0.4l0.1,1.4l-1.4,1.2c0.4,0.3,0.9,0.6,1.4,0.8l0.3-0.8l2.4,0.6c-0.5-0.1-0.2-0.7-0.2-0.7l-0.5-0.2
						C79.7,103.8,81.1,101.9,81,101.6z"/>
					<path class="st6" d="M95.9,94.6l-0.8-0.7l-0.9,0.3l-0.4,0.6l-0.3,0.4l0.4,0.6l0.7,0.8l0.4-0.7c0,0,1.2,0,1.7-0.6
						C97.4,94.8,95.9,94.6,95.9,94.6z"/>
					<path class="st6" d="M93.7,91.5l1.4,0.7l0.1-0.3c0.1-0.3,0.2-0.5,0.4-0.7l-1.1-1L93.7,91.5z"/>
					<path class="st6" d="M93.2,106.2l-0.4-0.5l-0.5-0.2h-1.5l-0.8,1.4c0,0-0.8-0.1-1.9-0.2c-1.1-0.1-0.8,0.3-0.8,0.3l-0.3,0.9
						c2.7,0.3,5.4,0.2,8-0.4c-0.3-0.2-0.6-0.3-0.9-0.5L93.2,106.2z"/>
				</g>
			</g>
		</g>
	</g>
	<path class="st2" d="M110,97.4c-0.5,0.8-1,1.6-1.7,2.4c-6.6,8.1-19.1,10.7-29.1,6c-0.5-0.2-1-0.5-1.5-0.7c-0.5-0.3-0.9-0.5-1.4-0.8
		c-0.5-0.3-1-0.7-1.6-1.1l0,0c0,0-0.1,0-0.1-0.1l0,0c-9.4-7.3-10.3-20-1.9-28.2s22.7-9,32.1-1.7C112.8,79.2,114.9,89.2,110,97.4
		L110,97.4z"/>
	<path class="st2" d="M95,107.5c-2.6,0.5-5.3,0.7-8,0.4l0.3-0.9c0,0-0.3-0.4,0.8-0.3s1.9,0.2,1.9,0.2l0.8-1.4h1.5l0.5,0.2l0.4,0.5
		l0.9,0.8C94.4,107.2,94.7,107.3,95,107.5z"/>
	<path class="st2" d="M110.1,78.8c-0.3,0.2-0.6,0.3-1.3,0.1c-2.3-0.6-3.4,1.6-3,1.6c0.4,0,0.7,1-0.1,1.5s-2.7,0.3-2.6,0.8
		s1,1.7,1,1.7s0.8-0.3,1,0.1c0.2,0.4,0.5,1.6-0.1,1.8c-0.4,0.1-0.5,0.5-0.5,0.8l-1.8-0.1l-0.3,1.2l-1.1,0.8l-0.6-0.3
		c0,0-0.5-1.2-1-0.5l-0.5,0.7l-0.3,0.7c0,0,1.3,0.3,1.6,0.8l0.3,0.5l2.9,0.7l0.2,0.7l0.5,0.3l0.1,1.2l1,0.5l1.1,0.1L108,93
		c0.3,0.4,0.5,0.9,0.7,1.4c0.1,0.4-0.3,1.4-0.3,1.4c-0.2,0.4-0.5,0.7-0.9,1c-0.5,0.2-1.2-0.4-1.1,0.4l0,0.8l-0.1,0.9l0.8,0.4
		l0.8,0.3l0.4,0.3"/>
	<path class="st2" d="M67.3,91l0.3,0.1l1.4-1.4l1.3-0.5l0.9,0.4c0.4,0.2,0.8-0.7,0.8-0.7l-0.3-0.2c-0.3-0.2,0.1-1.4,0.1-1.4
		c0.7,0.1,1.4,0.1,2.2,0.1c0.6-0.1,0.8,0,1.1-0.5c0.3-0.4,0.1-0.5,0.1-0.5c0.2-0.5,0.4-1.1,0.4-1.6c0-0.5,0.9,0.4,0.9,0.4l0.5-0.8
		l1-0.7l1.3-0.8c0,0,1.9-0.5,2.1-0.1c0.1,0.3,0.9,0.7,0.9,0.7l-0.3,0.6c0,0-0.4,1.1-0.8,1.4c-0.4,0.3,0.2,2,0.2,2
		c-0.4,0.3-0.7,0.7-1,1C80.2,89,80,89,80,89l-1.3-0.2c0,0-1.4-0.9-1.9-1.1c0,0-0.9,0.8-0.8,1.3c0.1,0.5-0.3,0.5-0.3,0.5l1.3,1.1
		l0.2,0.7l0.8,0.9l-0.3,0.4l-0.5,0.8l0.2,0.9l0.9,1l0.5,0.9l0.5,1.5l0.2,0.8l1.6,0.6l0.7-0.3l1.3-0.6l0.6,1.1l0.3,0.6l-1.1,0.9
		l0.4,0.7l0.1,0.8l-0.1,1.1l-0.2,0.7l0.9,0.4l1.7-0.2l-0.1-1.1c0.5-0.3,1.1-0.5,1.7-0.7c0.7-0.2,0.6-0.2,1.5-0.4s0.6-0.2,1-0.3
		s0.8-0.3,0.8-0.3l0-1.1l0.7-2.1l0.4,0.3c0.4,0.3,1-0.7,1-0.7l0.3-1.6l-0.9-0.4c-0.5-0.1-1-0.1-1.5-0.2l-1.2-0.5l-1-1.6
		c-0.3-0.3-0.6-0.7-0.8-1l0.5-0.8l0.6-1l0.6,0.3l0.5,0.3l0.6,0.3l0.9-0.5l0.5-1.3l0.7-0.6c0.5-0.4,0.8,0.3,0.8,0.3l0.8-0.9
		c0.8-0.9,0.1-0.4-0.3-0.9c-0.2-0.3-0.5-0.4-0.8-0.4L91.9,86l-1.1,0.4l-0.1,0.5c-0.1,0.5,0,0-1.6-0.6l-0.5-1.4l0.3-0.3l0.1-1.3
		c0,0-0.9-0.4-1.7-0.7s-0.9-1.2-0.9-1.2c0-0.5,0.1-1,0.3-1.4l-0.4-0.9l-1.3-2.3l0.2-1l0.8-0.4l0.3-1.4l-1.4-1.2l0.6-0.9l0.4-0.7
		l0.5-0.8l0.4-1.6c0,0-0.1-0.3-0.2-0.6"/>
	<path class="st2" d="M74.9,103.1c0,0-0.1-0.1-0.1-0.1l0,0l0.4-0.7l-0.1-1.3l-0.5-0.3c0,0,0.6-0.6,0.6-1c0-0.3,0.1-0.5,0.4-0.7
		l-0.2-0.8L75,98.2c-0.3-0.1-0.1-0.8-0.1-0.8l-1.2,0.2l-0.3,1.1L72.1,99c-0.4-0.2-0.6-0.6-0.6-0.9c0-0.5,0.3-0.4,0.3-0.4h1.2
		l0.7-1.2l-0.1-0.6L73,95.7"/>
	<path class="st2" d="M72.9,95.6L72.9,95.6c0.1,0-0.3-1.5-0.3-1.5s-0.5-1.1-1-1.3c-0.5-0.2-1.7,0.5-1.7,0.5l-1.3,0.2l-0.3,1.3"/>
	<path class="st2" d="M78,104.2l-0.3,0.8c-0.5-0.3-0.9-0.5-1.4-0.8l1.4-1.2l-0.1-1.4c0,0-0.3-0.5,0.3-0.4c0.4,0.1,0.9-0.1,1.2-0.3
		c0.3-0.3,0.3-0.4,1-0.1c0.8,0.3,0.8,0.6,0.9,0.9c0.1,0.3-1.3,2.2-1.3,2.2l0.5,0.2c0,0-0.3,0.6,0.2,0.7L78,104.2z"/>
	<path class="st2" d="M94.3,94.1l0.9-0.3l0.8,0.7c0,0,1.6,0.2,0.9,0.8c-0.6,0.6-1.7,0.6-1.7,0.6l-0.4,0.7L94,95.8l-0.4-0.6l0.3-0.4
		L94.3,94.1z"/>
	<path class="st2" d="M95.5,91.2c-0.2,0.2-0.3,0.4-0.4,0.7l-0.1,0.3l-1.4-0.7l0.8-1.3L95.5,91.2z"/>
</g>
<g id="freepik--Character--inject-4_1_">
	<path class="st3" d="M173.9,166c-1.9,1.4-16.8,10.4-38.1,8.9c-1.2-8.5-5.5-43.5-0.5-49c0,0,12.1-5,23.1-2.9
		c11.1,2.1,15.4,4.2,16.2,5.9C175.2,130.4,174.3,155.1,173.9,166z"/>
	<path class="st8" d="M158,126.8c-6.4,4.9-14.6,3.8-14.4,0.1c0-0.6,0.7-1.3,0.7-1.3l-0.3-0.3l-1.1-1.4c-0.8-1.1-1.8-2.4-2.5-3.4
		c-0.6-0.8,13.8-8.6,13.8-4.2c0,6.3,3.5,7.5,3.5,7.5C159.2,124.3,160.4,125,158,126.8z"/>
	<path class="st9" d="M162,136.5c0,0-1.3,3.9-0.7,5"/>
	<path class="st9" d="M160.5,125.2c0,3.7-12.7,7.4-16.4,3.6"/>
	<path class="st3" d="M150.1,120.9c0,0-0.9,2.8-4.8,5c-0.2-0.3-0.5-0.5-0.9-0.6c-0.1,0-0.3,0-0.4,0l-1.1-1.4
		C145,122.6,150.1,120.9,150.1,120.9z"/>
	<path class="st8" d="M151.8,117.4c0,0,0,2.8-0.7,3.4c-5.1,4.3-10,4.6-10.8,3.5c-5.4-7.6-4.2-9.5-4.7-10.8c-1-2.3-2.2-6-1.7-8.2
		c1.2-5,11.9-8.9,17.5-3.8c2.7,2.4,3.6,7.6,3,12"/>
	<path class="st2" d="M136.3,111.1c0,0-1.5-0.6-1.8,0.1"/>
	<path class="st2" d="M140,111.1c0,0,3.1-1.1,4.5,0.3"/>
	<path class="st3" d="M143.4,113.1c0,0.4-0.2,0.8-0.5,0.8c-0.3,0-0.6-0.3-0.7-0.7c0-0.4,0.2-0.8,0.5-0.8
		C143.1,112.3,143.4,112.7,143.4,113.1z"/>
	<path class="st3" d="M137.3,113.2c0,0.4-0.2,0.8-0.5,0.8c-0.3,0-0.6-0.3-0.7-0.7c0-0.4,0.2-0.8,0.5-0.8
		C136.9,112.5,137.2,112.8,137.3,113.2z"/>
	<path class="st8" d="M137.4,112.1c0.4,0.6,0.2,1.7-0.4,3.1c-0.5,1.5-0.1,2,2.2,2.1"/>
	<path class="st2" d="M139.2,119.9c0,0,2.9-0.2,4.2-0.9"/>
	<path class="st3" d="M157.5,105.5c0-1.9-2.1-5.7-5.8-6.2l0,0c-2.1-2-5.2-2.7-8.8-1.9c-8.5,1.7-11.1,9.1-11.5,10.3
		c0,0.1,0,0.2,0,0.2l2.3-0.5l-1,1.7l1.2,0.7l-0.3,0.3l1.4,1.2l-0.4-2.2c0.3-1.4,2.1-3.3,2.1-3.3c-0.6,0.8-1.1,1.6-1.2,2.6
		c0.7-1.6,5.1-3.2,5.1-3.2c-1.4,1-2.2,3-2.2,3c1.3-1.5,4.5-2.4,6.5-2.9c0.7,1.4,1.7,2.9,3.3,3.7c1.4,0.8,1.4,2.4,1.4,2.4
		c1.6,1,2.7,2.3,3.2,3.9l1.7,2.1C154.4,117.4,157.5,114,157.5,105.5z"/>
	<path class="st8" d="M150.1,111.9c-0.6-1.1,1.6-4.1,3-3.7c0.8,0.2,1.9,1.6,2.2,3c0.2,1.4-0.9,4.1-2.2,4.7c-0.8,0.4-1.4-0.7-1.4-0.7
		"/>
	<polygon class="st6" points="58.1,165.8 98.9,157.4 183.9,166 162,179.2 	"/>
	<polyline class="st8" points="58.1,165.8 98.9,157.4 183.9,166 	"/>
	<polygon class="st8" points="93.4,167.5 109.9,161 130.8,162 121.5,169 	"/>
	<path class="st3" d="M136,125.7c-5.3,1.9-6.4,6.2-15.4,23.1c0,0-4,0.7-6.1,5c-2.1,4.3,1.4,7.6,5.6,7.5c0,0,1.7,1.3,5.1,1.1
		c3.4-0.1,18.4-20.3,18.4-20.3L136,125.7z"/>
	<path class="st9" d="M122.2,149.8c2.4,1.8,3.7,4.6,3,7.6"/>
	<path class="st9" d="M124.5,150.7c0,0,2.9,0.6,3.4,3.8"/>
	<path class="st9" d="M133,141.1c-1.4-3-1.8-6.2-1.4-9.4"/>
	<path class="st9" d="M132.6,136.8c-0.2,1.3,1.3,8.4,1.3,15.9"/>
	<path class="st3" d="M172.1,127.1c6.6,2.9,7.4,11.9,1.2,22.7c-4.4,7.6-10.5,18.8-14.4,19.6c-3.9,0.8-7.6-1.4-7.6-1.4
		s-3.2-0.1-4.2-2.2c-2.7-5.6,4.2-12.6,6.8-10.9c0,0,8.6-16.4,10.1-17.4"/>
	<path class="st9" d="M146.5,162.5c-0.9-3.8,6-8.3,7.4-7.5c0,0,5.1,0.3,5.8,3.3"/>
	<path class="st9" d="M165.1,163.3c3-4.6,8.2-13.5,8.2-13.5"/>
	<path class="st9" d="M153.9,155c0,0,3.6-1.9,6.2-0.1"/>
	<path class="st9" d="M155.1,152.7c0,0,2-3.8,4-7.3c2-3.5,6.6-8.7,8.5-8.9"/>
	<path class="st6" d="M117.5,159.6c-0.4,0-0.8-0.1-1.2-0.3c-6.1-2.8-10.9-7.5-13.8-10.8c-1.1-1.3-2.1-2.6-3.1-4l1.5-5.6
		c0,0,1.4,3.2,7,6.3c5.6,3.1,12.2,4.2,14.3,7.3C124.1,155.2,120.7,159.7,117.5,159.6z"/>
	<g>
		<g>
			<defs>
				<path id="SVGID_5_" d="M117.5,159.6c-0.4,0-0.8-0.1-1.2-0.3c-6.1-2.8-10.9-7.5-13.8-10.8c-1.1-1.3-2.1-2.6-3.1-4l1.5-5.6
					c0,0,1.4,3.2,7,6.3c5.6,3.1,12.2,4.2,14.3,7.3C124.1,155.2,120.7,159.7,117.5,159.6z"/>
			</defs>
			<clipPath id="SVGID_6_">
				<use xlink:href="#SVGID_5_"  style="overflow:visible;"/>
			</clipPath>
			<g class="st10">
				<path class="st11" d="M117.5,159.6c-0.1-0.4-0.2-0.8-0.4-1.2c-1.3-2.8-9.1-8.5-9.1-8.5c-1.8-0.1-3.9-0.7-5.6-1.5
					c-1.1-1.3-2.2-2.6-3.1-4l1.5-5.6c0,0,1.4,3.2,7,6.3c5.6,3.1,12.2,4.2,14.3,7.3C124.1,155.2,120.7,159.7,117.5,159.6z"/>
			</g>
		</g>
	</g>
	<path class="st2" d="M117.5,159.6c-0.4,0-0.8-0.1-1.2-0.3c-6.1-2.8-10.9-7.5-13.8-10.8c-1.1-1.3-2.1-2.6-3.1-4l1.5-5.6
		c0,0,1.4,3.2,7,6.3c5.6,3.1,12.2,4.2,14.3,7.3C124.1,155.2,120.7,159.7,117.5,159.6z"/>
	<path class="st8" d="M103.6,144.1c0,0-0.8,3-2.8,2.3c-1.1-0.3-3.2-3.2-3.6-4.6L103.6,144.1z"/>
	<path class="st8" d="M94.7,125.9l1.6-0.7c0,0,4.6,0,7.5,2.1c2.6,1.9,3.9,4.8,3.9,4.8s10.1-4.9,20.5-2.1l4.2,20.7l-19.4,1.1
		L101,141.6L94.7,125.9z"/>
	<path class="st1" d="M133.9,151.5c0,0-2.3-0.1-5.3,0c-4.6,0.1-11,0.6-13.9,2.1l-0.1,0l-2.7-0.8l0-0.1c-0.5-0.6-4.4-5.6-10.1-7.7
		l-8-19.6c0,0,8.3,0.3,12.8,6.9l2.3,0.7c0,0,13.5-3.5,21.1-2.3L133.9,151.5z"/>
	<g>
		<g>
			<defs>
				<path id="SVGID_7_" d="M133.9,151.5c0,0-2.3-0.1-5.3,0c-4.6,0.1-11,0.6-13.9,2.1l-0.1,0l-2.7-0.8l0-0.1
					c-0.5-0.6-4.4-5.6-10.1-7.7l-8-19.6c0,0,8.3,0.3,12.8,6.9l2.3,0.7c0,0,13.5-3.5,21.1-2.3L133.9,151.5z"/>
			</defs>
			<clipPath id="SVGID_8_">
				<use xlink:href="#SVGID_7_"  style="overflow:visible;"/>
			</clipPath>
			<g class="st12">
				<path class="st13" d="M111.8,152.6c-0.5-0.6-4.4-5.6-10.1-7.7l-8-19.6c0,0,8.3,0.3,12.8,6.9L111.8,152.6z"/>
				<path class="st13" d="M128.6,151.5c-4.6,0.1-11,0.6-13.9,2.1l-0.1,0l-5.3-19.9c0,0,4.4-0.9,5.7-0.4
					C114.9,133.2,123.8,139,128.6,151.5z"/>
			</g>
		</g>
	</g>
	<path class="st2" d="M133.9,151.5c0,0-2.3-0.1-5.3,0c-4.6,0.1-11,0.6-13.9,2.1l-0.1,0l-2.7-0.8l0-0.1c-0.5-0.6-4.4-5.6-10.1-7.7
		l-8-19.6c0,0,8.3,0.3,12.8,6.9l2.3,0.7c0,0,13.5-3.5,21.1-2.3L133.9,151.5z"/>
	<line class="st2" x1="108.9" y1="133" x2="114.1" y2="152"/>
	<line class="st2" x1="111.9" y1="152.7" x2="106.8" y2="133.7"/>
	<path class="st8" d="M99,144.4c-1.2-0.3-3.5-6.4-2.4-9c0,0,1.3-1.9,1.8-2.1c0.8-0.2,4.1-0.2,3.9,0.3c-0.4,1.1-2.9,1.1-2.9,1.1
		l-0.8,1.3l0,0.7c0,0,1.2-0.8,1.6-0.7c0.2,0,1.4,0.5,2.3,0.9c0.8,0.3,1.3,0.6,1.1,0.9c-0.6,1.1-3.1,0.3-3.1,0.3l-0.9,1.2
		c0,0,0.9,0.1,1.3,0.2c0.4,0,3.6,1.9,3.6,2.2c-0.4,0.9-3.5-0.1-3.5-0.1l-0.5,0.4c0,0,2.3,0.5,2.5,0.6c0.4,0.1,1.8,1,1.7,1.2
		c-0.2,0.8-2.1,0.2-2.1,0.2l-1.7-0.1c-0.3,0.2-0.6,0.3-0.9,0.4"/>
	<path class="st2" d="M98.6,136.8c0,0-1.1,0.8-1.4,1c-0.3,0.3-0.2,1-0.2,1"/>
	<path class="st2" d="M97.9,140.5c0,0.8,0.6,1.3,0.9,1.6c0.3,0.3-0.5,1,0.4,1.5"/>
	<path class="st6" d="M151.3,166c-2.3,0.5-4.8-3-7.8-6.9l0,0c-2-2.5-4.3-5.2-6.8-7c-0.2-0.1-0.4-0.3-0.6-0.4l1.5-6.7
		c3.1,1.4,5.1,3.7,8.3,6.1c5.2,3.8,9.9,6.2,11.2,7.9S155.2,165,151.3,166z"/>
	<g>
		<g>
			<defs>
				<path id="SVGID_9_" d="M151.3,166c-2.3,0.5-4.8-3-7.8-6.9l0,0c-2-2.5-4.3-5.2-6.8-7c-0.2-0.1-0.4-0.3-0.6-0.4l1.5-6.7
					c3.1,1.4,5.1,3.7,8.3,6.1c5.2,3.8,9.9,6.2,11.2,7.9S155.2,165,151.3,166z"/>
			</defs>
			<clipPath id="SVGID_10_">
				<use xlink:href="#SVGID_9_"  style="overflow:visible;"/>
			</clipPath>
			<g class="st14">
				<path class="st11" d="M143.5,159.1c-2-2.5-4.3-5.2-6.8-7c0.3,0,0.7,0,1-0.1C137.7,152,141.7,154.9,143.5,159.1z"/>
			</g>
		</g>
	</g>
	<path class="st2" d="M151.3,166c-2.3,0.5-4.8-3-7.8-6.9l0,0c-2-2.5-4.3-5.2-6.8-7c-0.2-0.1-0.4-0.3-0.6-0.4l1.5-6.7
		c3.1,1.4,5.1,3.7,8.3,6.1c5.2,3.8,9.9,6.2,11.2,7.9S155.2,165,151.3,166z"/>
	<path class="st6" d="M138.4,151.5c-0.1,0.3-0.4,0.4-0.7,0.5c-0.1,0-0.2,0.1-0.3,0.1h-0.1c-2.4,0.6-7.9-0.6-7.9-0.6
		s-3.6-1.5-3.8-1.8c-0.1-0.3-0.3-0.6-0.4-0.9l-0.1-0.3c0,0-1.3-0.6-1.4-1.1c-0.1-0.5-0.4-0.6,0.4-0.7s5.1,0,5.1,0l-4.7-1.6
		c0,0-3.1-1.4-3.4-1.8c-0.3-0.5-0.6-0.8,0.9-0.6c1.6,0.2,5,1.1,5,1.1l2.7,0.5l-2.7-1c0,0-5.3-0.6-4.3-2h3c1.7,0.1,3.4,0.3,5.1,0.6
		c0.9,0.2,6.6,3.4,6.6,3.4"/>
	<g>
		<g>
			<defs>
				<path id="SVGID_11_" d="M138.4,151.5c-0.1,0.3-0.4,0.4-0.7,0.5c-0.1,0-0.2,0.1-0.3,0.1h-0.1c-2.4,0.6-7.9-0.6-7.9-0.6
					s-3.6-1.5-3.8-1.8c-0.1-0.3-0.3-0.6-0.4-0.9l-0.1-0.3c0,0-1.3-0.6-1.4-1.1c-0.1-0.5-0.4-0.6,0.4-0.7s5.1,0,5.1,0l-4.7-1.6
					c0,0-3.1-1.4-3.4-1.8c-0.3-0.5-0.6-0.8,0.9-0.6c1.6,0.2,5,1.1,5,1.1l2.7,0.5l-2.7-1c0,0-5.3-0.6-4.3-2h3
					c1.7,0.1,3.4,0.3,5.1,0.6c0.9,0.2,6.6,3.4,6.6,3.4"/>
			</defs>
			<clipPath id="SVGID_12_">
				<use xlink:href="#SVGID_11_"  style="overflow:visible;"/>
			</clipPath>
			<g class="st15">
				<path class="st11" d="M137.3,152.1c-2.4,0.6-7.9-0.6-7.9-0.6s-3.6-1.5-3.8-1.8c-0.1-0.3-0.3-0.6-0.4-0.9l4.4,0.4
					c-0.3,0.5-0.3,1.1,0,1.6C130.2,151.6,135.7,152.3,137.3,152.1z"/>
			</g>
		</g>
	</g>
	<path class="st2" d="M138.4,151.5c-0.1,0.3-0.4,0.4-0.7,0.5c-0.1,0-0.2,0.1-0.3,0.1h-0.1c-2.4,0.6-7.9-0.6-7.9-0.6
		s-3.6-1.5-3.8-1.8c-0.1-0.3-0.3-0.6-0.4-0.9l-0.1-0.3c0,0-1.3-0.6-1.4-1.1c-0.1-0.5-0.4-0.6,0.4-0.7s5.1,0,5.1,0l-4.7-1.6
		c0,0-3.1-1.4-3.4-1.8c-0.3-0.5-0.6-0.8,0.9-0.6c1.6,0.2,5,1.1,5,1.1l2.7,0.5l-2.7-1c0,0-5.3-0.6-4.3-2h3c1.7,0.1,3.4,0.3,5.1,0.6
		c0.9,0.2,6.6,3.4,6.6,3.4"/>
	<line class="st2" x1="125.2" y1="148.5" x2="130.4" y2="149.2"/>
	<path class="st1" d="M72.6,162.7l13.2,3.5l24.2-4.9c0,0-14.8-3.7-14.9-3.6C95,157.9,72.6,162.7,72.6,162.7z"/>
	<g>
		<g>
			<defs>
				<path id="SVGID_13_" d="M72.6,162.7l13.2,3.5l24.2-4.9c0,0-14.8-3.7-14.9-3.6C95,157.9,72.6,162.7,72.6,162.7z"/>
			</defs>
			<clipPath id="SVGID_14_">
				<use xlink:href="#SVGID_13_"  style="overflow:visible;"/>
			</clipPath>
			<g class="st16">
				<path class="st13" d="M72.6,162.7l13.2,3.5l24.2-4.9c0,0-14.8-3.7-14.9-3.6C95,157.9,72.6,162.7,72.6,162.7z"/>
			</g>
		</g>
	</g>
	<path class="st2" d="M72.6,162.7l13.2,3.5l24.2-4.9c0,0-14.8-3.7-14.9-3.6C95,157.9,72.6,162.7,72.6,162.7z"/>
	<path class="st1" d="M72.8,158.6c-0.9,0.1-1.2,3-0.2,4.1l21.4-3.9l1.7-3.6L72.8,158.6z"/>
	<g>
		<g>
			<defs>
				<path id="SVGID_15_" d="M72.8,158.6c-0.9,0.1-1.2,3-0.2,4.1l21.4-3.9l1.7-3.6L72.8,158.6z"/>
			</defs>
			<clipPath id="SVGID_16_">
				<use xlink:href="#SVGID_15_"  style="overflow:visible;"/>
			</clipPath>
			<g class="st17">
				<path class="st13" d="M72.8,158.6c-0.9,0.1-1.2,3-0.2,4.1l21.4-3.9l1.7-3.6L72.8,158.6z"/>
			</g>
		</g>
	</g>
	<path class="st2" d="M72.8,158.6c-0.9,0.1-1.2,3-0.2,4.1l21.4-3.9l1.7-3.6L72.8,158.6z"/>
	<path class="st8" d="M109,158.6c0,0-0.3,1.6-0.1,2.5l-23.1,4.6l-12.2-3.1c0,0-1.3-2-0.1-3.5l22.2-3.3L109,158.6z"/>
	<polygon class="st18" points="72.8,158.6 95.7,155.3 109.9,158.4 86,162.6 	"/>
	<polyline class="st2" points="73.6,160.5 85.7,163.7 105.5,160.2 	"/>
	<line class="st2" x1="108.8" y1="160.5" x2="87.5" y2="164.5"/>
	<path class="st2" d="M73.9,161.8c0.2,0,9.1,2.4,9.1,2.4"/>
	<line class="st2" x1="107.1" y1="159.8" x2="108.8" y2="159.5"/>
	<line class="st2" x1="85.3" y1="164.8" x2="84.4" y2="164.6"/>
	<path class="st3" d="M73.5,159c1,1,1,2.4,0.1,3.5C72.8,161.5,72.8,160.2,73.5,159z"/>
	<g>
		<g>
			<defs>
				<path id="SVGID_17_" d="M73.5,159c1,1,1,2.4,0.1,3.5C72.8,161.5,72.8,160.2,73.5,159z"/>
			</defs>
			<clipPath id="SVGID_18_">
				<use xlink:href="#SVGID_17_"  style="overflow:visible;"/>
			</clipPath>
			<g class="st19">
				<path class="st20" d="M73.5,159c1,1,1,2.4,0.1,3.5C72.8,161.5,72.8,160.2,73.5,159z"/>
			</g>
		</g>
	</g>
	<path class="st2" d="M73.5,159c1,1,1,2.4,0.1,3.5C72.8,161.5,72.8,160.2,73.5,159z"/>
	<polygon class="st6" points="122.9,163.7 146,164.5 143.7,171.5 115.3,170.6 	"/>
	<g>
		<g>
			<defs>
				<polygon id="SVGID_19_" points="122.9,163.7 146,164.5 143.7,171.5 115.3,170.6 				"/>
			</defs>
			<clipPath id="SVGID_20_">
				<use xlink:href="#SVGID_19_"  style="overflow:visible;"/>
			</clipPath>
			<g class="st21">
				<polygon class="st11" points="122.9,163.7 146,164.5 143.7,171.5 115.3,170.6 				"/>
			</g>
		</g>
	</g>
	<polygon class="st2" points="122.9,163.7 146,164.5 143.7,171.5 115.3,170.6 	"/>
</g>
</svg>
