<?xml version="1.0" encoding="utf-8"?>
<!-- Generator: Adobe Illustrator 24.0.2, SVG Export Plug-In . SVG Version: 6.00 Build 0)  -->
<svg version="1.1" id="Capa_1" xmlns="http://www.w3.org/2000/svg" xmlns:xlink="http://www.w3.org/1999/xlink" x="0px" y="0px"
	 viewBox="0 0 496.6 496.6" style="enable-background:new 0 0 496.6 496.6;" xml:space="preserve">
<style type="text/css">
	.st0{fill:#FAF8F7;}
</style>
<g>
	<g>
		<path class="st0" d="M462.7,328v-51.7l-30.8,8.5l-0.1-0.1l-0.7-0.9c-11.8-13-30.9-22.1-52.3-24.8l-74.1-9.6v-4.1
			c27.7-11.4,48-30.8,54.3-53.8c20.5-3,36-15.9,36-31.3V81c0-22.3-20.6-41.8-50.6-48.1l-5.6-4C312.6,10.2,277.7,0,240.5,0
			c-76.6,0-139,44.2-139,98.5V160c0,15.4,15.5,28.3,36,31.3c6.3,23,26.6,42.4,54.3,53.8v4.1l-74,9.5c-21.5,2.8-40.5,11.8-52.3,24.8
			l-0.7,1.2l-31-8.5V328C15.2,328,0,338.8,0,352v32c0,13.2,15.2,24,33.9,24v29.5l214.4,59.1l214.4-59.1V408
			c18.7,0,33.9-10.8,33.9-24v-32C496.6,338.8,481.4,328,462.7,328z M325.9,268.3l48.9,6.3c14.4,1.9,27.1,7.7,35.6,16.1l-109.2,30.1
			L325.9,268.3z M215.4,252.5c10.4,2.3,21.5,3.5,32.9,3.5c11.4,0,22.5-1.2,32.9-3.5L248.3,270L215.4,252.5z M231.1,280.9l-23,16.3
			l-14.9-31.8l7.2-0.9L231.1,280.9z M296.3,264.5l7.2,0.9l-14.9,31.8l-23-16.3L296.3,264.5z M361.2,173.8v-27.6
			c6.7,2.8,11.3,7.9,11.3,13.8S367.9,171,361.2,173.8z M135.4,173.8c-6.7-2.8-11.3-7.9-11.3-13.8s4.6-11,11.3-13.8V173.8z
			 M135.4,120v9.1c-4,0.7-7.8,1.9-11.3,3.3V98.5C124.1,53,176.4,16,240.5,16c31.1,0,60.3,8.6,82.3,24.2l10,7.1l3,0.5
			c21.6,3.8,36.6,17.5,36.6,33.2v51.5c-3.5-1.4-7.3-2.6-11.3-3.3V120h-35.8c-30.6,0-59.8-10.4-78.2-27.7l-9-8.5l-22.4,15.9
			c-18.5,13.1-43,20.3-69.1,20.3H135.4z M158,176v-40.4c27.9-1.8,53.7-10.4,73.8-24.6l4.4-3.1c22.6,17.7,55.2,28.1,89.2,28.1h13.2
			v40c0,35.3-40.5,64-90.3,64S158,211.3,158,176z M121.8,274.6l48.9-6.3l24.7,52.5L86.2,290.7C94.7,282.3,107.5,276.5,121.8,274.6z
			 M22.6,384v-32c0-4.4,5.1-8,11.3-8c18.7,0,33.9,10.8,33.9,24s-15.2,24-33.9,24C27.6,392,22.6,388.4,22.6,384z M237,476.3
			L56.4,426.5v-21.9c19.9-6.2,33.9-20.2,33.9-36.6s-14-30.4-33.9-36.6v-31.7L237,349.5V476.3z M203.5,323.1l44.8-31.8l44.8,31.8
			l-44.8,12.4L203.5,323.1z M440.2,426.5l-180.6,49.8V349.5l180.6-49.8v31.7c-19.9,6.2-33.9,20.2-33.9,36.6s14,30.4,33.9,36.6V426.5
			z M474,384c0,4.4-5.1,8-11.3,8c-18.7,0-33.9-10.8-33.9-24s15.2-24,33.9-24c6.2,0,11.3,3.6,11.3,8V384z"/>
	</g>
</g>
</svg>
