<?xml version="1.0" encoding="utf-8"?>
<!-- Generator: Adobe Illustrator 24.0.2, SVG Export Plug-In . SVG Version: 6.00 Build 0)  -->
<svg version="1.1" id="Capa_1" xmlns="http://www.w3.org/2000/svg" xmlns:xlink="http://www.w3.org/1999/xlink" x="0px" y="0px"
	 viewBox="0 0 22 20" style="enable-background:new 0 0 22 20;" xml:space="preserve">
<style type="text/css">
	.st0{fill:#FAF8F7;}
</style>
<g>
	<g>
		<path class="st0" d="M20.5,13.2v-2.1l-1.4,0.3l0,0l0,0c-0.5-0.5-1.4-0.9-2.3-1L13.5,10V9.9c1.2-0.5,2.1-1.2,2.4-2.2
			c0.9-0.1,1.6-0.6,1.6-1.3V3.3c0-0.9-0.9-1.7-2.2-1.9L15,1.2C13.8,0.4,12.3,0,10.7,0C7.3,0,4.5,1.8,4.5,4v2.5
			c0,0.6,0.7,1.1,1.6,1.3c0.3,0.9,1.2,1.7,2.4,2.2V10l-3.3,0.4c-1,0.1-1.8,0.5-2.3,1l0,0l-1.4-0.3v2.1c-0.8,0-1.5,0.4-1.5,1v1.3
			c0,0.5,0.7,1,1.5,1v1.2L11,20l9.5-2.4v-1.2c0.8,0,1.5-0.4,1.5-1v-1.3C22,13.6,21.3,13.2,20.5,13.2z M14.4,10.8l2.2,0.3
			c0.6,0.1,1.2,0.3,1.6,0.6l-4.8,1.2L14.4,10.8z M9.5,10.2c0.5,0.1,1,0.1,1.5,0.1s1,0,1.5-0.1L11,10.9L9.5,10.2z M10.2,11.3l-1,0.7
			l-0.7-1.3l0.3,0L10.2,11.3z M13.1,10.7l0.3,0L12.8,12l-1-0.7L13.1,10.7z M16,7V5.9c0.3,0.1,0.5,0.3,0.5,0.6
			C16.5,6.7,16.3,6.9,16,7z M6,7C5.7,6.9,5.5,6.7,5.5,6.4C5.5,6.2,5.7,6,6,5.9V7z M6,4.8v0.4c-0.2,0-0.3,0.1-0.5,0.1V4
			c0-1.8,2.3-3.3,5.2-3.3c1.4,0,2.7,0.3,3.6,1l0.4,0.3l0.1,0c1,0.2,1.6,0.7,1.6,1.3v2.1c-0.2-0.1-0.3-0.1-0.5-0.1V4.8h-1.6
			c-1.4,0-2.6-0.4-3.5-1.1l-0.4-0.3L9.6,4C8.7,4.5,7.7,4.8,6.5,4.8H6z M7,7.1V5.5c1.2-0.1,2.4-0.4,3.3-1l0.2-0.1
			c1,0.7,2.4,1.1,4,1.1H15v1.6c0,1.4-1.8,2.6-4,2.6S7,8.5,7,7.1z M5.4,11.1l2.2-0.3l1.1,2.1l-4.8-1.2C4.2,11.4,4.8,11.1,5.4,11.1z
			 M1,15.5v-1.3c0-0.2,0.2-0.3,0.5-0.3c0.8,0,1.5,0.4,1.5,1c0,0.5-0.7,1-1.5,1C1.2,15.8,1,15.6,1,15.5z M10.5,19.2l-8-2v-0.9
			C3.4,16,4,15.5,4,14.8s-0.6-1.2-1.5-1.5v-1.3l8,2V19.2z M9,13l2-1.3l2,1.3l-2,0.5L9,13z M19.5,17.2l-8,2v-5.1l8-2v1.3
			c-0.9,0.2-1.5,0.8-1.5,1.5s0.6,1.2,1.5,1.5V17.2z M21,15.5c0,0.2-0.2,0.3-0.5,0.3c-0.8,0-1.5-0.4-1.5-1c0-0.5,0.7-1,1.5-1
			c0.3,0,0.5,0.1,0.5,0.3V15.5z"/>
	</g>
</g>
</svg>
