<?xml version="1.0" encoding="utf-8"?>
<!-- Generator: Adobe Illustrator 24.0.2, SVG Export Plug-In . SVG Version: 6.00 Build 0)  -->
<svg version="1.1" id="Layer_1" xmlns="http://www.w3.org/2000/svg" xmlns:xlink="http://www.w3.org/1999/xlink" x="0px" y="0px"
	 viewBox="0 0 512 512" style="enable-background:new 0 0 512 512;" xml:space="preserve">
<style type="text/css">
	.st0{fill:#FAF8F7;}
</style>
<g>
	<path class="st0" d="M27.4,512h457.3c15.1,0,27.4-9.2,27.4-20.5V441c0-4.1-4.5-7.5-10-7.5s-10,3.4-10,7.5v50.5c0,3-3.3,5.5-7.3,5.5
		h-53V367.2c0-4.1-4.5-7.5-10-7.5c-5.5,0-10,3.4-10,7.5V497H266v-46.7l76.8-51.5c5.8-3.9,8.1-10,5.9-15.5l-7.2-18.5
		c0-0.1,0-0.1,0.1-0.2l30-12c7.9-3.2,12.1-10,10.2-16.5l-10.5-36.7c9.2,2.7,65.7,19.1,74.9,21.7C469,328.3,492,349,492,374.8V406
		c0,4.1,4.5,7.5,10,7.5s10-3.4,10-7.5v-31.2c0-29.1-24-56.9-58.3-67.5c-0.1,0-0.1,0-0.2-0.1c-2-0.6-15.3-4.5-32.9-9.5
		c8.3-8.1,12.5-18.3,11.5-29.1c-0.4-4.4,1.6-8.6,5.7-11.6c27.5-20.5,27.6-53.8,0.2-74.4c-7.2-5.4-5.8-12.1-5.8-15
		c0-14.5-9.6-27.9-25.8-35.8c-6-3-9.6-7.7-9.6-12.8v-12.1C396.9,13,246-35.7,156.7,30.7c-26.9,20-41.6,46.6-41.6,75V119
		c0,5.1-3.6,9.8-9.6,12.8c-17.1,8.4-27,22.9-25.7,38.5c0.4,4.7-1.7,9.2-5.9,12.3c-13.2,9.9-20.4,23.1-20.4,37.1
		c0,14.1,7.3,27.3,20.7,37.3c4,3,6.1,7.2,5.7,11.6c-1.1,10.7,3.2,20.9,11.4,29.1c-18.5,5.4-32.4,9.4-32.9,9.6c-0.1,0-0.1,0-0.2,0.1
		C30.2,316,0,340.8,0,374.8v116.7C0,502.8,12.3,512,27.4,512L27.4,512z M256,422.7c-35.3-81.6-20.3-46.9-42.2-97.6
		c5.4,1.6,10.9,3,16.6,4c5.4,1,10.8-1.5,12-5.6c1.3-4-2.1-8.1-7.4-9c-10.8-1.9-20.9-5.2-30-9.9l-9.1-21.1c0.2-0.1,0.4-0.1,0.6-0.2
		c0.1,0,0.1,0,0.2,0c0.2-0.1,0.4-0.1,0.4-0.1l0.6-0.2c10.1-2.8,15.2-7.7,15.2-14.5v-10.7c26.2,8.6,58.6,9.5,86.5,0.1l0,10.7
		c0,6.1,4.9,11.5,12.5,13.7l4.4,1.3l-9.1,21.1c-9.2,4.6-19.3,7.9-30,9.9c-5.4,1-8.7,5-7.4,9c1.3,4,6.7,6.5,12,5.6
		c5.7-1,11.2-2.3,16.6-4C277.3,373.3,289.6,344.9,256,422.7L256,422.7z M179.8,351.4l-30-12h0c-0.1,0-0.1-0.1-0.1-0.2L163,293
		c1.4-0.4,12.5-3.6,14.1-4.1c2.6,5.9,55.4,128.1,57.9,134l-52.5-35.2c-0.1,0-0.1-0.1-0.1-0.1l7.2-18.5
		C192.4,362.2,188.2,354.8,179.8,351.4L179.8,351.4z M171.1,186.9c0-12,8.7-23,22.8-28.7c40.4-16.5,77.4-42.3,89.2-75.4
		c15.4,23.6,33.7,39.4,43,46.6c9.1,7.1,14.9,13.9,14.9,24.7v32.1c0,34.7-37.8,63.3-83.6,63.3c0,0,0,0,0,0c-0.1,0-0.2,0-0.3,0
		C206.5,249.4,171.1,220,171.1,186.9L171.1,186.9z M362.2,339.5l-30,12c-8.4,3.4-12.5,10.8-9.9,17.6l7.2,18.5c0,0.1,0,0.1-0.1,0.1
		l-52.5,35.2c2.6-5.9,55.4-128.1,57.9-134L349,293l13.2,46.3C362.3,339.4,362.2,339.4,362.2,339.5L362.2,339.5z M88.3,246.4
		c-9.5-7.1-14.8-16.6-14.8-26.7c0-10,5.2-19.4,14.6-26.5c8.2-6.1,12.4-14.8,11.6-23.9c-0.8-9.9,5.4-19.5,16.7-25
		c11.7-5.7,18.6-15.2,18.6-25.3v-13.3c0-50.1,54-90.6,120.9-90.6c66.6,0,120.9,41.4,120.9,91.9V119c0,10.1,7,19.6,18.6,25.3
		c11.1,5.4,17.5,14.9,16.7,25c-0.8,9,3.5,17.7,11.7,23.9c19.4,14.6,19.6,38.4-0.2,53.2c-8.2,6.1-12.4,14.6-11.5,23.4
		c0.9,8.5-3.5,16.5-11.4,22.2c-17.6-5.1-62.9-18.3-81.6-23.7l0-19.4c25.5-14.5,41.7-37.4,41.7-62.6v-32.1c0-12.8-7-25-18.5-33.6l0,0
		h0c-16-11.9-32.8-29.7-44.9-50c-7.6-12.8-29.6-9.2-32.2,3.2c-4.4,20.6-28.5,49.9-81,71.3c-20.5,8.4-33.2,24.4-33.2,41.9
		c0,24.7,15.6,47.7,41.6,62.2v19.2c-0.5,0.2-81,23.6-81.5,23.7c-8-5.7-12.2-13.7-11.3-22.1c0,0,0,0,0,0
		C100.7,261.1,96.5,252.6,88.3,246.4L88.3,246.4z M20,374.8c0-28.9,27.3-47.9,45.8-53.6c2.3-0.7,40.4-11.7,74.9-21.8l-10.5,36.7
		c-1.9,6.6,2.3,13.4,10.2,16.5h0l30,12c0.1,0,0.1,0.1,0.1,0.2l-7.2,18.5c-2.2,5.6,0.2,11.7,5.9,15.5l76.8,51.5V497H100.3V367.2
		c0-4.1-4.5-7.5-10-7.5s-10,3.4-10,7.5V497H27.4c-4.1,0-7.3-2.5-7.3-5.5V374.8z"/>
</g>
</svg>
