<?xml version="1.0" encoding="utf-8"?>
<!-- Generator: Adobe Illustrator 24.0.2, SVG Export Plug-In . SVG Version: 6.00 Build 0)  -->
<svg version="1.1" id="Layer_1" xmlns="http://www.w3.org/2000/svg" xmlns:xlink="http://www.w3.org/1999/xlink" x="0px" y="0px"
	 viewBox="0 0 22 20" style="enable-background:new 0 0 22 20;" xml:space="preserve">
<style type="text/css">
	.st0{fill:#FAF8F7;}
</style>
<g>
	<path class="st0" d="M1.2,20h19.6c0.6,0,1.2-0.4,1.2-0.8v-2c0-0.2-0.2-0.3-0.4-0.3s-0.4,0.1-0.4,0.3v2c0,0.1-0.1,0.2-0.3,0.2h-2.3
		v-5.1c0-0.2-0.2-0.3-0.4-0.3s-0.4,0.1-0.4,0.3v5.1h-6.3v-1.8l3.3-2c0.2-0.2,0.3-0.4,0.3-0.6l-0.3-0.7c0,0,0,0,0,0l1.3-0.5
		c0.3-0.1,0.5-0.4,0.4-0.6L16,11.7c0.4,0.1,2.8,0.7,3.2,0.8c1,0.3,2,1.1,2,2.1v1.2c0,0.2,0.2,0.3,0.4,0.3S22,16,22,15.9v-1.2
		c0-1.1-1-2.2-2.5-2.6c0,0,0,0,0,0c-0.1,0-0.7-0.2-1.4-0.4c0.4-0.3,0.5-0.7,0.5-1.1c0-0.2,0.1-0.3,0.2-0.5c1.2-0.8,1.2-2.1,0-2.9
		c-0.3-0.2-0.2-0.5-0.2-0.6c0-0.6-0.4-1.1-1.1-1.4c-0.3-0.1-0.4-0.3-0.4-0.5V4.2c0-3.7-6.5-5.6-10.3-3C5.6,2,5,3,5,4.1v0.5
		C5,4.9,4.8,5,4.6,5.2C3.8,5.5,3.4,6.1,3.5,6.7c0,0.2-0.1,0.4-0.3,0.5C2.7,7.5,2.3,8,2.3,8.6c0,0.6,0.3,1.1,0.9,1.5
		c0.2,0.1,0.3,0.3,0.2,0.5c0,0.4,0.1,0.8,0.5,1.1C3.2,11.9,2.6,12,2.6,12c0,0,0,0,0,0C1.3,12.4,0,13.3,0,14.7v4.6
		C0,19.7,0.6,20,1.2,20L1.2,20z M11,16.5c-1.5-3.2-0.9-1.8-1.8-3.8c0.2,0.1,0.5,0.1,0.7,0.2c0.2,0,0.5-0.1,0.5-0.2
		c0.1-0.2-0.1-0.3-0.3-0.4c-0.5-0.1-0.9-0.2-1.3-0.4l-0.4-0.8c0,0,0,0,0,0c0,0,0,0,0,0c0,0,0,0,0,0l0,0C9,11,9.2,10.8,9.2,10.5v-0.4
		c1.1,0.3,2.5,0.4,3.7,0v0.4c0,0.2,0.2,0.4,0.5,0.5l0.2,0.1l-0.4,0.8c-0.4,0.2-0.8,0.3-1.3,0.4c-0.2,0-0.4,0.2-0.3,0.4
		c0.1,0.2,0.3,0.3,0.5,0.2c0.2,0,0.5-0.1,0.7-0.2C12,14.6,12.5,13.5,11,16.5L11,16.5z M7.8,13.7l-1.3-0.5l0,0c0,0,0,0,0,0l0.6-1.8
		c0.1,0,0.5-0.1,0.6-0.2c0.1,0.2,2.4,5,2.5,5.2l-2.3-1.4c0,0,0,0,0,0l0.3-0.7C8.3,14.2,8.1,13.9,7.8,13.7L7.8,13.7z M7.4,7.3
		c0-0.5,0.4-0.9,1-1.1c1.7-0.6,3.3-1.7,3.8-2.9c0.7,0.9,1.4,1.5,1.8,1.8c0.4,0.3,0.6,0.5,0.6,1v1.3c0,1.4-1.6,2.5-3.6,2.5l0,0
		c0,0,0,0,0,0C8.9,9.8,7.4,8.6,7.4,7.3L7.4,7.3z M15.6,13.3l-1.3,0.5c-0.4,0.1-0.5,0.4-0.4,0.7l0.3,0.7c0,0,0,0,0,0l-2.3,1.4
		c0.1-0.2,2.4-5,2.5-5.2l0.6,0.2L15.6,13.3C15.6,13.3,15.6,13.3,15.6,13.3L15.6,13.3z M3.8,9.6C3.4,9.4,3.2,9,3.2,8.6
		c0-0.4,0.2-0.8,0.6-1C4.2,7.3,4.4,7,4.3,6.6c0-0.4,0.2-0.8,0.7-1c0.5-0.2,0.8-0.6,0.8-1V4.1c0-2,2.3-3.5,5.2-3.5
		c2.9,0,5.2,1.6,5.2,3.6v0.5c0,0.4,0.3,0.8,0.8,1c0.5,0.2,0.8,0.6,0.7,1c0,0.4,0.2,0.7,0.5,0.9c0.8,0.6,0.8,1.5,0,2.1
		c-0.4,0.2-0.5,0.6-0.5,0.9c0,0.3-0.2,0.6-0.5,0.9c-0.8-0.2-2.7-0.7-3.5-0.9V9.7c1.1-0.6,1.8-1.5,1.8-2.4V6c0-0.5-0.3-1-0.8-1.3l0,0
		l0,0c-0.7-0.5-1.4-1.2-1.9-2c-0.3-0.5-1.3-0.4-1.4,0.1C11.3,3.7,10.2,4.8,8,5.7C7.1,6,6.5,6.6,6.5,7.3c0,1,0.7,1.9,1.8,2.4v0.8
		c0,0-3.5,0.9-3.5,0.9c-0.3-0.2-0.5-0.5-0.5-0.9l0,0C4.4,10.2,4.2,9.9,3.8,9.6L3.8,9.6z M0.9,14.7c0-1.1,1.2-1.9,2-2.1
		c0.1,0,1.7-0.5,3.2-0.9l-0.5,1.4c-0.1,0.3,0.1,0.5,0.4,0.6l0,0l1.3,0.5c0,0,0,0,0,0L7.1,15c-0.1,0.2,0,0.5,0.3,0.6l3.3,2v1.8H4.4
		v-5.1c0-0.2-0.2-0.3-0.4-0.3s-0.4,0.1-0.4,0.3v5.1H1.2c-0.2,0-0.3-0.1-0.3-0.2L0.9,14.7L0.9,14.7z"/>
</g>
</svg>
