<?xml version="1.0" encoding="utf-8"?>
<!-- Generator: Adobe Illustrator 24.0.2, SVG Export Plug-In . SVG Version: 6.00 Build 0)  -->
<svg version="1.1" id="Capa_1" xmlns="http://www.w3.org/2000/svg" xmlns:xlink="http://www.w3.org/1999/xlink" x="0px" y="0px"
	 viewBox="0 0 90 90" style="enable-background:new 0 0 90 90;" xml:space="preserve">
<style type="text/css">
	.st0{fill:#FAF8F7;}
</style>
<path class="st0" d="M90,45C90,20.1,69.9,0,45,0S0,20.1,0,45s20.1,45,45,45c0.3,0,0.5,0,0.8,0V55h-9.7V43.7h9.7v-8.3
	c0-9.6,5.9-14.9,14.4-14.9c4.1,0,7.6,0.3,8.7,0.4V31H63c-4.7,0-5.6,2.2-5.6,5.5v7.2h11.2l-1.5,11.3h-9.7v33.3
	C76.2,82.9,90,65.5,90,45z"/>
</svg>
