<?xml version="1.0" encoding="UTF-8"?>
<svg xmlns="http://www.w3.org/2000/svg" xmlns:xlink="http://www.w3.org/1999/xlink" width="90px" height="90px" viewBox="0 0 90 90" version="1.1">
<g id="surface1">
<path style=" stroke:none;fill-rule:nonzero;fill:rgb(77.254902%,4.705882%,16.078431%);fill-opacity:1;" d="M 44.699219 0 C 19.898438 0 -0.300781 20.199219 -0.300781 45 C -0.300781 69.800781 19.898438 90 44.699219 90 C 69.5 90 89.699219 69.800781 89.699219 45 C 89.699219 20.199219 69.5 0 44.699219 0 Z M 65 25 L 44.699219 41 L 23.699219 25 Z M 67.101562 65 L 21.699219 65 L 21.699219 31.800781 L 42.601562 47.699219 C 43.101562 48.101562 44 48.300781 44.601562 48.300781 C 45.300781 48.300781 45.898438 48.101562 46.398438 47.601562 L 67 31.199219 L 67 65 Z M 67.101562 65 "/>
<path style=" stroke:none;fill-rule:nonzero;fill:rgb(98.039216%,97.254902%,96.862745%);fill-opacity:1;" d="M 23.898438 25.101562 L 44.699219 41 L 65 25 L 23.699219 25 Z M 23.898438 25.101562 "/>
<path style=" stroke:none;fill-rule:nonzero;fill:rgb(98.039216%,97.254902%,96.862745%);fill-opacity:1;" d="M 21.699219 31.800781 L 21.699219 65 L 67.101562 65 L 67.101562 31.300781 L 44.398438 48.101562 "/>
</g>
</svg>
 