<?xml version="1.0" encoding="utf-8"?>
<!-- Generator: Adobe Illustrator 24.0.2, SVG Export Plug-In . SVG Version: 6.00 Build 0)  -->
<svg version="1.1" id="Capa_1" xmlns="http://www.w3.org/2000/svg" xmlns:xlink="http://www.w3.org/1999/xlink" x="0px" y="0px"
	 viewBox="0 0 216 216" style="enable-background:new 0 0 216 216;" xml:space="preserve">
<style type="text/css">
	.st0{fill:#C50C29;}
	.st1{fill:#FAF8F7;}
</style>
<path class="st0" d="M108,0C48.4,0,0,48.4,0,108s48.4,108,108,108s108-48.4,108-108S167.6,0,108,0z M156.7,60L108,98.5L57.7,60
	H156.7z M161.7,156h-109V76.3l50.2,38.1c1.3,1,3.3,1.5,4.9,1.5s3.1-0.5,4.4-1.6L161.7,75V156z"/>
<polygon class="st1" points="58,60.2 108,98.5 156.7,60 57.7,60 "/>
<polyline class="st1" points="52.7,76.3 52.7,156 161.7,156 161.7,75 107.2,115.5 "/>
</svg>
