<?xml version="1.0" encoding="utf-8"?>
<!-- Generator: Adobe Illustrator 24.0.2, SVG Export Plug-In . SVG Version: 6.00 Build 0)  -->
<svg version="1.1" id="Capa_1" xmlns="http://www.w3.org/2000/svg" xmlns:xlink="http://www.w3.org/1999/xlink" x="0px" y="0px"
	 viewBox="0 0 90 90" style="enable-background:new 0 0 90 90;" xml:space="preserve">
<style type="text/css">
	.st0{fill:#C50C29;}
	.st1{fill:#FAF8F7;}
</style>
<path class="st0" d="M44.7,0c-24.8,0-45,20.2-45,45s20.2,45,45,45s45-20.2,45-45S69.5,0,44.7,0z M65,25L44.7,41l-21-16H65z M67.1,65
	H21.7V31.8l20.9,15.9c0.5,0.4,1.4,0.6,2,0.6c0.7,0,1.3-0.2,1.8-0.7l20.6-16.4V65z"/>
<polygon class="st1" points="23.9,25.1 44.7,41 65,25 23.7,25 "/>
<polyline class="st1" points="21.7,31.8 21.7,65 67.1,65 67.1,31.3 44.4,48.1 "/>
</svg>
