<?xml version="1.0" encoding="utf-8"?>
<!-- Generator: Adobe Illustrator 24.0.2, SVG Export Plug-In . SVG Version: 6.00 Build 0)  -->
<svg version="1.1" id="Capa_1" xmlns="http://www.w3.org/2000/svg" xmlns:xlink="http://www.w3.org/1999/xlink" x="0px" y="0px"
	 viewBox="0 0 90 90" style="enable-background:new 0 0 90 90;" xml:space="preserve">
<style type="text/css">
	.st0{fill:#FAF8F7;}
</style>
<path class="st0" d="M53.6,45c0,4.8-3.8,8.6-8.6,8.6s-8.6-3.8-8.6-8.6s3.8-8.6,8.6-8.6S53.6,40.2,53.6,45z"/>
<path class="st0" d="M65.1,29.8c-0.4-1.1-1.1-2.1-1.9-3c-0.8-0.9-1.8-1.5-3-1.9c-0.9-0.4-2.3-0.8-4.8-0.9c-2.7-0.1-3.6-0.2-10.4-0.2
	c-6.9,0-7.7,0-10.4,0.2c-2.5,0.1-3.9,0.5-4.8,0.9c-1.1,0.4-2.1,1.1-3,1.9c-0.9,0.8-1.5,1.8-1.9,3c-0.4,0.9-0.8,2.3-0.9,4.8
	c-0.1,2.7-0.2,3.5-0.2,10.4s0,7.7,0.2,10.4c0.1,2.5,0.5,3.9,0.9,4.8c0.4,1.1,1.1,2.1,1.9,3c0.8,0.9,1.8,1.5,3,1.9
	c0.9,0.4,2.3,0.8,4.8,0.9c2.7,0.1,3.5,0.2,10.4,0.2s7.7,0,10.4-0.2c2.5-0.1,3.9-0.5,4.8-0.9c2.2-0.9,4-2.7,4.9-4.9
	c0.4-0.9,0.8-2.3,0.9-4.8c0.1-2.7,0.2-3.6,0.2-10.4c0-6.9,0-7.7-0.2-10.4C65.9,32,65.5,30.7,65.1,29.8z M45,58.3
	c-7.3,0-13.3-5.9-13.3-13.3S37.7,31.7,45,31.7S58.3,37.7,58.3,45S52.3,58.3,45,58.3z M58.8,34.3c-1.7,0-3.1-1.4-3.1-3.1
	s1.4-3.1,3.1-3.1s3.1,1.4,3.1,3.1S60.5,34.3,58.8,34.3z"/>
<path class="st0" d="M45,0C20.1,0,0,20.1,0,45s20.1,45,45,45s45-20.1,45-45S69.9,0,45,0z M70.7,55.7c-0.1,2.7-0.6,4.6-1.2,6.3
	c-1.3,3.5-4.1,6.2-7.6,7.6c-1.6,0.6-3.5,1.1-6.3,1.2c-2.8,0.1-3.6,0.2-10.7,0.2s-7.9,0-10.7-0.2c-2.7-0.1-4.6-0.6-6.3-1.2
	c-1.7-0.7-3.3-1.7-4.6-3c-1.3-1.3-2.3-2.8-3-4.6c-0.6-1.6-1.1-3.5-1.2-6.3c-0.1-2.8-0.2-3.6-0.2-10.7s0-7.9,0.2-10.7
	c0.1-2.7,0.6-4.6,1.2-6.3c0.7-1.7,1.7-3.3,3-4.6c1.3-1.3,2.8-2.3,4.6-3c1.7-0.6,3.5-1.1,6.3-1.2c2.8-0.1,3.6-0.2,10.7-0.2
	s7.9,0,10.7,0.2c2.7,0.1,4.6,0.6,6.3,1.2c1.7,0.7,3.3,1.7,4.6,3c1.3,1.3,2.3,2.8,3,4.6c0.6,1.7,1.1,3.5,1.2,6.3
	c0.1,2.8,0.2,3.6,0.2,10.7S70.8,52.9,70.7,55.7z"/>
</svg>
