<?xml version="1.0" encoding="UTF-8"?>
<svg xmlns="http://www.w3.org/2000/svg" xmlns:xlink="http://www.w3.org/1999/xlink" width="90px" height="90px" viewBox="0 0 90 90" version="1.1">
<g id="surface1">
<path style=" stroke:none;fill-rule:nonzero;fill:rgb(98.039216%,97.254902%,96.862745%);fill-opacity:1;" d="M 53.601562 45 C 53.601562 49.800781 49.800781 53.601562 45 53.601562 C 40.199219 53.601562 36.398438 49.800781 36.398438 45 C 36.398438 40.199219 40.199219 36.398438 45 36.398438 C 49.800781 36.398438 53.601562 40.199219 53.601562 45 Z M 53.601562 45 "/>
<path style=" stroke:none;fill-rule:nonzero;fill:rgb(98.039216%,97.254902%,96.862745%);fill-opacity:1;" d="M 65.101562 29.800781 C 64.699219 28.699219 64 27.699219 63.199219 26.800781 C 62.398438 25.898438 61.398438 25.300781 60.199219 24.898438 C 59.300781 24.5 57.898438 24.101562 55.398438 24 C 52.699219 23.898438 51.800781 23.800781 45 23.800781 C 38.101562 23.800781 37.300781 23.800781 34.601562 24 C 32.101562 24.101562 30.699219 24.5 29.800781 24.898438 C 28.699219 25.300781 27.699219 26 26.800781 26.800781 C 25.898438 27.601562 25.300781 28.601562 24.898438 29.800781 C 24.5 30.699219 24.101562 32.101562 24 34.601562 C 23.898438 37.300781 23.800781 38.101562 23.800781 45 C 23.800781 51.898438 23.800781 52.699219 24 55.398438 C 24.101562 57.898438 24.5 59.300781 24.898438 60.199219 C 25.300781 61.300781 26 62.300781 26.800781 63.199219 C 27.601562 64.101562 28.601562 64.699219 29.800781 65.101562 C 30.699219 65.5 32.101562 65.898438 34.601562 66 C 37.300781 66.101562 38.101562 66.199219 45 66.199219 C 51.898438 66.199219 52.699219 66.199219 55.398438 66 C 57.898438 65.898438 59.300781 65.5 60.199219 65.101562 C 62.398438 64.199219 64.199219 62.398438 65.101562 60.199219 C 65.5 59.300781 65.898438 57.898438 66 55.398438 C 66.101562 52.699219 66.199219 51.800781 66.199219 45 C 66.199219 38.101562 66.199219 37.300781 66 34.601562 C 65.898438 32 65.5 30.699219 65.101562 29.800781 Z M 45 58.300781 C 37.699219 58.300781 31.699219 52.398438 31.699219 45 C 31.699219 37.601562 37.699219 31.699219 45 31.699219 C 52.300781 31.699219 58.300781 37.699219 58.300781 45 C 58.300781 52.300781 52.300781 58.300781 45 58.300781 Z M 58.800781 34.300781 C 57.101562 34.300781 55.699219 32.898438 55.699219 31.199219 C 55.699219 29.5 57.101562 28.101562 58.800781 28.101562 C 60.5 28.101562 61.898438 29.5 61.898438 31.199219 C 61.898438 32.898438 60.5 34.300781 58.800781 34.300781 Z M 58.800781 34.300781 "/>
<path style=" stroke:none;fill-rule:nonzero;fill:rgb(98.039216%,97.254902%,96.862745%);fill-opacity:1;" d="M 45 0 C 20.101562 0 0 20.101562 0 45 C 0 69.898438 20.101562 90 45 90 C 69.898438 90 90 69.898438 90 45 C 90 20.101562 69.898438 0 45 0 Z M 70.699219 55.699219 C 70.601562 58.398438 70.101562 60.300781 69.5 62 C 68.199219 65.5 65.398438 68.199219 61.898438 69.601562 C 60.300781 70.199219 58.398438 70.699219 55.601562 70.800781 C 52.800781 70.898438 52 71 44.898438 71 C 37.800781 71 37 71 34.199219 70.800781 C 31.5 70.699219 29.601562 70.199219 27.898438 69.601562 C 26.199219 68.898438 24.601562 67.898438 23.300781 66.601562 C 22 65.300781 21 63.800781 20.300781 62 C 19.699219 60.398438 19.199219 58.5 19.101562 55.699219 C 19 52.898438 18.898438 52.101562 18.898438 45 C 18.898438 37.898438 18.898438 37.101562 19.101562 34.300781 C 19.199219 31.601562 19.699219 29.699219 20.300781 28 C 21 26.300781 22 24.699219 23.300781 23.398438 C 24.601562 22.101562 26.101562 21.101562 27.898438 20.398438 C 29.601562 19.800781 31.398438 19.300781 34.199219 19.199219 C 37 19.101562 37.800781 19 44.898438 19 C 52 19 52.800781 19 55.601562 19.199219 C 58.300781 19.300781 60.199219 19.800781 61.898438 20.398438 C 63.601562 21.101562 65.199219 22.101562 66.5 23.398438 C 67.800781 24.699219 68.800781 26.199219 69.5 28 C 70.101562 29.699219 70.601562 31.5 70.699219 34.300781 C 70.800781 37.101562 70.898438 37.898438 70.898438 45 C 70.898438 52.101562 70.800781 52.898438 70.699219 55.699219 Z M 70.699219 55.699219 "/>
</g>
</svg>
