<?xml version="1.0" encoding="utf-8"?>
<!-- Generator: Adobe Illustrator 24.0.2, SVG Export Plug-In . SVG Version: 6.00 Build 0)  -->
<svg version="1.1" id="Capa_1" xmlns="http://www.w3.org/2000/svg" xmlns:xlink="http://www.w3.org/1999/xlink" x="0px" y="0px"
	 viewBox="0 0 512 512" style="enable-background:new 0 0 512 512;" xml:space="preserve">
<style type="text/css">
	.st0{fill:#C50C29;}
	.st1{fill:#FAF8F7;}
</style>
<circle class="st0" cx="256" cy="256" r="256"/>
<g>
	<g>
		<path class="st1" d="M254.8,79c-64.1,0-116.3,55.4-116.3,123.6c0,65.9,106.3,216.1,110.8,222.5c1.3,1.8,3.3,2.9,5.5,2.9
			c2.1,0,4.2-1,5.5-2.9c4.5-6.3,110.8-156.6,110.8-222.5C370.9,134.4,318.8,79,254.8,79z M254.8,268c-33.9,0-61.5-29.3-61.5-65.4
			s27.6-65.4,61.5-65.4s61.5,29.3,61.5,65.4S288.6,268,254.8,268z"/>
	</g>
</g>
</svg>
