<?xml version="1.0" encoding="UTF-8"?>
<svg xmlns="http://www.w3.org/2000/svg" xmlns:xlink="http://www.w3.org/1999/xlink" width="90px" height="90px" viewBox="0 0 90 90" version="1.1">
<g id="surface1">
<path style=" stroke:none;fill-rule:nonzero;fill:rgb(77.254902%,4.705882%,16.078431%);fill-opacity:1;" d="M 90 45 C 90 69.851562 69.851562 90 45 90 C 20.148438 90 0 69.851562 0 45 C 0 20.148438 20.148438 0 45 0 C 69.851562 0 90 20.148438 90 45 Z M 90 45 "/>
<path style=" stroke:none;fill-rule:nonzero;fill:rgb(98.039216%,97.254902%,96.862745%);fill-opacity:1;" d="M 44.800781 13.898438 C 33.5 13.898438 24.398438 23.601562 24.398438 35.601562 C 24.398438 47.199219 43.101562 73.601562 43.898438 74.699219 C 44.101562 75 44.5 75.199219 44.898438 75.199219 C 45.300781 75.199219 45.601562 75 45.898438 74.699219 C 46.699219 73.601562 65.398438 47.199219 65.398438 35.601562 C 65.199219 23.601562 56 13.898438 44.800781 13.898438 Z M 44.800781 47.101562 C 38.800781 47.101562 34 41.898438 34 35.601562 C 34 29.300781 38.898438 24.101562 44.800781 24.101562 C 50.699219 24.101562 55.601562 29.300781 55.601562 35.601562 C 55.601562 41.898438 50.699219 47.101562 44.800781 47.101562 Z M 44.800781 47.101562 "/>
</g>
</svg>
