<?xml version="1.0" encoding="utf-8"?>
<!-- Generator: Adobe Illustrator 24.0.2, SVG Export Plug-In . SVG Version: 6.00 Build 0)  -->
<svg version="1.1" id="Capa_1" xmlns="http://www.w3.org/2000/svg" xmlns:xlink="http://www.w3.org/1999/xlink" x="0px" y="0px"
	 viewBox="0 0 90 90" style="enable-background:new 0 0 90 90;" xml:space="preserve">
<style type="text/css">
	.st0{fill:#C50C29;}
	.st1{fill:#FAF8F7;}
</style>
<circle class="st0" cx="45" cy="45" r="45"/>
<g>
	<g>
		<path class="st1" d="M44.8,13.9c-11.3,0-20.4,9.7-20.4,21.7c0,11.6,18.7,38,19.5,39.1c0.2,0.3,0.6,0.5,1,0.5c0.4,0,0.7-0.2,1-0.5
			c0.8-1.1,19.5-27.5,19.5-39.1C65.2,23.6,56,13.9,44.8,13.9z M44.8,47.1c-6,0-10.8-5.2-10.8-11.5s4.9-11.5,10.8-11.5
			s10.8,5.2,10.8,11.5S50.7,47.1,44.8,47.1z"/>
	</g>
</g>
</svg>
