<?xml version="1.0" encoding="UTF-8"?>
<svg xmlns="http://www.w3.org/2000/svg" xmlns:xlink="http://www.w3.org/1999/xlink" width="44px" height="34px" viewBox="0 0 44 34" version="1.1">
<g id="surface1">
<path style=" stroke:none;fill-rule:nonzero;fill:rgb(0%,0%,0%);fill-opacity:1;" d="M 39.953125 5.976562 L 4.046875 5.976562 C 1.8125 5.976562 0 7 0 8.253906 C 0 9.507812 1.8125 10.53125 4.046875 10.53125 L 39.953125 10.53125 C 42.1875 10.53125 44 9.507812 44 8.253906 C 44 7 42.1875 5.976562 39.953125 5.976562 Z M 39.953125 5.976562 "/>
<path style=" stroke:none;fill-rule:nonzero;fill:rgb(0%,0%,0%);fill-opacity:1;" d="M 39.953125 14.722656 L 4.046875 14.722656 C 1.8125 14.722656 0 15.746094 0 17 C 0 18.253906 1.8125 19.277344 4.046875 19.277344 L 39.953125 19.277344 C 42.1875 19.277344 44 18.253906 44 17 C 44 15.746094 42.1875 14.722656 39.953125 14.722656 Z M 39.953125 14.722656 "/>
<path style=" stroke:none;fill-rule:nonzero;fill:rgb(0%,0%,0%);fill-opacity:1;" d="M 39.953125 24.324219 L 4.046875 24.324219 C 1.8125 24.324219 0 25.347656 0 26.601562 C 0 27.859375 1.8125 28.878906 4.046875 28.878906 L 39.953125 28.878906 C 42.1875 28.878906 44 27.859375 44 26.601562 C 44 25.347656 42.1875 24.324219 39.953125 24.324219 Z M 39.953125 24.324219 "/>
</g>
</svg>
