<?xml version="1.0" encoding="utf-8"?>
<!-- Generator: Adobe Illustrator 24.0.2, SVG Export Plug-In . SVG Version: 6.00 Build 0)  -->
<svg version="1.1" id="Capa_1" xmlns="http://www.w3.org/2000/svg" xmlns:xlink="http://www.w3.org/1999/xlink" x="0px" y="0px"
	 viewBox="0 0 90 90" style="enable-background:new 0 0 90 90;" xml:space="preserve">
<style type="text/css">
	.st0{fill:#C50C29;}
	.st1{fill:#FAF8F7;}
</style>
<circle class="st0" cx="45" cy="45" r="45"/>
<path class="st1" d="M67.5,54.3c-4.9,0-9.5-1.1-13.7-3.1c-0.7-0.3-1.4-0.4-2.2-0.1c-0.7,0.2-1.3,0.8-1.6,1.4l-2,4.2
	c-6.1-3.5-11.1-8.5-14.6-14.6l4.2-2c0.7-0.3,1.2-0.9,1.4-1.6c0.2-0.7,0.2-1.5-0.1-2.2c-2.1-4.3-3.1-8.9-3.1-13.7
	c0-1.5-1.3-2.8-2.8-2.8H22.5c-1.5,0-2.8,1.3-2.8,2.8c0,26.4,21.4,47.8,47.8,47.8c1.5,0,2.8-1.3,2.8-2.8V57.1
	C70.3,55.6,69,54.3,67.5,54.3z"/>
</svg>
