<?xml version="1.0" encoding="utf-8"?>
<!-- Generator: Adobe Illustrator 24.0.2, SVG Export Plug-In . SVG Version: 6.00 Build 0)  -->
<svg version="1.1" id="Capa_1" xmlns="http://www.w3.org/2000/svg" xmlns:xlink="http://www.w3.org/1999/xlink" x="0px" y="0px"
	 viewBox="0 0 512 512" style="enable-background:new 0 0 512 512;" xml:space="preserve">
<style type="text/css">
	.st0{fill:#C50C29;}
	.st1{fill:#FAF8F7;}
</style>
<circle class="st0" cx="256" cy="256" r="256"/>
<path class="st1" d="M384,308.9c-27.6,0-54-6-78.2-17.9c-3.8-1.8-8.2-2.1-12.3-0.7c-4,1.4-7.3,4.4-9.2,8.2l-11.5,23.8
	c-34.6-19.8-63.2-48.5-83.1-83.1l23.9-11.5c3.8-1.9,6.8-5.2,8.2-9.2s1.1-8.4-0.7-12.3c-11.9-24.3-17.9-50.6-17.9-78.2
	c0-8.8-7.2-16-16-16H128c-8.8,0-16,7.2-16,16c0,150,122,272,272,272c8.8,0,16-7.2,16-16v-59.1C400,316.1,392.8,308.9,384,308.9z"/>
</svg>
