<?xml version="1.0" encoding="UTF-8"?>
<svg xmlns="http://www.w3.org/2000/svg" xmlns:xlink="http://www.w3.org/1999/xlink" width="90px" height="90px" viewBox="0 0 90 90" version="1.1">
<g id="surface1">
<path style=" stroke:none;fill-rule:nonzero;fill:rgb(77.254902%,4.705882%,16.078431%);fill-opacity:1;" d="M 90 45 C 90 69.851562 69.851562 90 45 90 C 20.148438 90 0 69.851562 0 45 C 0 20.148438 20.148438 0 45 0 C 69.851562 0 90 20.148438 90 45 Z M 90 45 "/>
<path style=" stroke:none;fill-rule:nonzero;fill:rgb(98.039216%,97.254902%,96.862745%);fill-opacity:1;" d="M 67.5 54.300781 C 62.601562 54.300781 58 53.199219 53.800781 51.199219 C 53.101562 50.898438 52.398438 50.800781 51.601562 51.101562 C 50.898438 51.300781 50.300781 51.898438 50 52.5 L 48 56.699219 C 41.898438 53.199219 36.898438 48.199219 33.398438 42.101562 L 37.601562 40.101562 C 38.300781 39.800781 38.800781 39.199219 39 38.5 C 39.199219 37.800781 39.199219 37 38.898438 36.300781 C 36.800781 32 35.800781 27.398438 35.800781 22.601562 C 35.800781 21.101562 34.5 19.800781 33 19.800781 L 22.5 19.800781 C 21 19.800781 19.699219 21.101562 19.699219 22.601562 C 19.699219 49 41.101562 70.398438 67.5 70.398438 C 69 70.398438 70.300781 69.101562 70.300781 67.601562 L 70.300781 57.101562 C 70.300781 55.601562 69 54.300781 67.5 54.300781 Z M 67.5 54.300781 "/>
</g>
</svg>
